<?xml version="1.0" encoding="utf-8" standalone="no"?>
<!DOCTYPE svg PUBLIC "-//W3C//DTD SVG 1.1//EN"
  "http://www.w3.org/Graphics/SVG/1.1/DTD/svg11.dtd">
<!-- Created with matplotlib (http://matplotlib.org/) -->
<svg height="345pt" version="1.1" viewBox="0 0 460 345" width="460pt" xmlns="http://www.w3.org/2000/svg" xmlns:xlink="http://www.w3.org/1999/xlink">
 <defs>
  <style type="text/css">
*{stroke-linecap:butt;stroke-linejoin:round;}
  </style>
 </defs>
 <g id="figure_1">
  <g id="patch_1">
   <path d="M 0 345.6 
L 460.8 345.6 
L 460.8 0 
L 0 0 
z
" style="fill:#ffffff;"/>
  </g>
  <g id="axes_1">
   <g id="patch_2">
    <path d="M 57.6 307.584 
L 414.72 307.584 
L 414.72 41.472 
L 57.6 41.472 
z
" style="fill:#ffffff;"/>
   </g>
   <g id="PathCollection_1">
    <defs>
     <path d="M 0 1.581139 
C 0.419323 1.581139 0.821528 1.41454 1.118034 1.118034 
C 1.41454 0.821528 1.581139 0.419323 1.581139 0 
C 1.581139 -0.419323 1.41454 -0.821528 1.118034 -1.118034 
C 0.821528 -1.41454 0.419323 -1.581139 0 -1.581139 
C -0.419323 -1.581139 -0.821528 -1.41454 -1.118034 -1.118034 
C -1.41454 -0.821528 -1.581139 -0.419323 -1.581139 0 
C -1.581139 0.419323 -1.41454 0.821528 -1.118034 1.118034 
C -0.821528 1.41454 -0.419323 1.581139 0 1.581139 
z
" id="C0_0_22e4c739e1"/>
    </defs>
    <g clip-path="url(#p860d11a602)">
     <use style="fill:#7fc97f;stroke:#7fc97f;" x="156.445843" xlink:href="#C0_0_22e4c739e1" y="129.940413"/>
    </g>
    <g clip-path="url(#p860d11a602)">
     <use style="fill:#7fc97f;stroke:#7fc97f;" x="147.461498" xlink:href="#C0_0_22e4c739e1" y="146.874158"/>
    </g>
    <g clip-path="url(#p860d11a602)">
     <use style="fill:#7fc97f;stroke:#7fc97f;" x="168.961859" xlink:href="#C0_0_22e4c739e1" y="150.339459"/>
    </g>
    <g clip-path="url(#p860d11a602)">
     <use style="fill:#7fc97f;stroke:#7fc97f;" x="139.032937" xlink:href="#C0_0_22e4c739e1" y="131.586104"/>
    </g>
    <g clip-path="url(#p860d11a602)">
     <use style="fill:#7fc97f;stroke:#7fc97f;" x="141.864705" xlink:href="#C0_0_22e4c739e1" y="119.164858"/>
    </g>
    <g clip-path="url(#p860d11a602)">
     <use style="fill:#666666;stroke:#666666;" x="174.189804" xlink:href="#C0_0_22e4c739e1" y="76.173523"/>
    </g>
    <g clip-path="url(#p860d11a602)">
     <use style="fill:#f0027f;stroke:#f0027f;" x="378.087752" xlink:href="#C0_0_22e4c739e1" y="194.665929"/>
    </g>
    <g clip-path="url(#p860d11a602)">
     <use style="fill:#f0027f;stroke:#f0027f;" x="253.2713" xlink:href="#C0_0_22e4c739e1" y="213.052305"/>
    </g>
    <g clip-path="url(#p860d11a602)">
     <use style="fill:#f0027f;stroke:#f0027f;" x="342.308675" xlink:href="#C0_0_22e4c739e1" y="195.364512"/>
    </g>
    <g clip-path="url(#p860d11a602)">
     <use style="fill:#f0027f;stroke:#f0027f;" x="249.551302" xlink:href="#C0_0_22e4c739e1" y="128.674871"/>
    </g>
    <g clip-path="url(#p860d11a602)">
     <use style="fill:#f0027f;stroke:#f0027f;" x="298.68504" xlink:href="#C0_0_22e4c739e1" y="138.714436"/>
    </g>
    <g clip-path="url(#p860d11a602)">
     <use style="fill:#7fc97f;stroke:#7fc97f;" x="278.413357" xlink:href="#C0_0_22e4c739e1" y="167.519091"/>
    </g>
    <g clip-path="url(#p860d11a602)">
     <use style="fill:#7fc97f;stroke:#7fc97f;" x="218.922525" xlink:href="#C0_0_22e4c739e1" y="250.347959"/>
    </g>
    <g clip-path="url(#p860d11a602)">
     <use style="fill:#666666;stroke:#666666;" x="180.730627" xlink:href="#C0_0_22e4c739e1" y="54.765043"/>
    </g>
    <g clip-path="url(#p860d11a602)">
     <use style="fill:#666666;stroke:#666666;" x="171.059232" xlink:href="#C0_0_22e4c739e1" y="54.634632"/>
    </g>
    <g clip-path="url(#p860d11a602)">
     <use style="fill:#f0027f;stroke:#f0027f;" x="380.646351" xlink:href="#C0_0_22e4c739e1" y="188.846178"/>
    </g>
    <g clip-path="url(#p860d11a602)">
     <use style="fill:#f0027f;stroke:#f0027f;" x="384.316912" xlink:href="#C0_0_22e4c739e1" y="182.559637"/>
    </g>
    <g clip-path="url(#p860d11a602)">
     <use style="fill:#f0027f;stroke:#f0027f;" x="398.394853" xlink:href="#C0_0_22e4c739e1" y="171.867393"/>
    </g>
    <g clip-path="url(#p860d11a602)">
     <use style="fill:#666666;stroke:#666666;" x="224.384641" xlink:href="#C0_0_22e4c739e1" y="91.12739"/>
    </g>
    <g clip-path="url(#p860d11a602)">
     <use style="fill:#666666;stroke:#666666;" x="193.78429" xlink:href="#C0_0_22e4c739e1" y="106.424479"/>
    </g>
    <g clip-path="url(#p860d11a602)">
     <use style="fill:#666666;stroke:#666666;" x="212.292459" xlink:href="#C0_0_22e4c739e1" y="107.307949"/>
    </g>
    <g clip-path="url(#p860d11a602)">
     <use style="fill:#666666;stroke:#666666;" x="258.068643" xlink:href="#C0_0_22e4c739e1" y="100.001322"/>
    </g>
    <g clip-path="url(#p860d11a602)">
     <use style="fill:#666666;stroke:#666666;" x="171.671047" xlink:href="#C0_0_22e4c739e1" y="86.762329"/>
    </g>
    <g clip-path="url(#p860d11a602)">
     <use style="fill:#fdc086;stroke:#fdc086;" x="172.006557" xlink:href="#C0_0_22e4c739e1" y="244.663273"/>
    </g>
    <g clip-path="url(#p860d11a602)">
     <use style="fill:#fdc086;stroke:#fdc086;" x="94.840824" xlink:href="#C0_0_22e4c739e1" y="269.066844"/>
    </g>
    <g clip-path="url(#p860d11a602)">
     <use style="fill:#666666;stroke:#666666;" x="210.043464" xlink:href="#C0_0_22e4c739e1" y="78.130545"/>
    </g>
    <g clip-path="url(#p860d11a602)">
     <use style="fill:#7fc97f;stroke:#7fc97f;" x="192.666041" xlink:href="#C0_0_22e4c739e1" y="149.502085"/>
    </g>
    <g clip-path="url(#p860d11a602)">
     <use style="fill:#f0027f;stroke:#f0027f;" x="235.364373" xlink:href="#C0_0_22e4c739e1" y="160.470802"/>
    </g>
    <g clip-path="url(#p860d11a602)">
     <use style="fill:#f0027f;stroke:#f0027f;" x="229.483079" xlink:href="#C0_0_22e4c739e1" y="220.012235"/>
    </g>
    <g clip-path="url(#p860d11a602)">
     <use style="fill:#fdc086;stroke:#fdc086;" x="222.480463" xlink:href="#C0_0_22e4c739e1" y="223.307917"/>
    </g>
    <g clip-path="url(#p860d11a602)">
     <use style="fill:#fdc086;stroke:#fdc086;" x="79.823988" xlink:href="#C0_0_22e4c739e1" y="245.202536"/>
    </g>
    <g clip-path="url(#p860d11a602)">
     <use style="fill:#fdc086;stroke:#fdc086;" x="212.745838" xlink:href="#C0_0_22e4c739e1" y="280.421603"/>
    </g>
    <g clip-path="url(#p860d11a602)">
     <use style="fill:#666666;stroke:#666666;" x="223.963681" xlink:href="#C0_0_22e4c739e1" y="61.218"/>
    </g>
    <g clip-path="url(#p860d11a602)">
     <use style="fill:#fdc086;stroke:#fdc086;" x="137.135779" xlink:href="#C0_0_22e4c739e1" y="262.723747"/>
    </g>
    <g clip-path="url(#p860d11a602)">
     <use style="fill:#f0027f;stroke:#f0027f;" x="288.494012" xlink:href="#C0_0_22e4c739e1" y="128.480188"/>
    </g>
    <g clip-path="url(#p860d11a602)">
     <use style="fill:#7fc97f;stroke:#7fc97f;" x="214.776562" xlink:href="#C0_0_22e4c739e1" y="142.32589"/>
    </g>
    <g clip-path="url(#p860d11a602)">
     <use style="fill:#f0027f;stroke:#f0027f;" x="250.089312" xlink:href="#C0_0_22e4c739e1" y="131.437019"/>
    </g>
    <g clip-path="url(#p860d11a602)">
     <use style="fill:#666666;stroke:#666666;" x="229.327515" xlink:href="#C0_0_22e4c739e1" y="108.051299"/>
    </g>
    <g clip-path="url(#p860d11a602)">
     <use style="fill:#666666;stroke:#666666;" x="197.501134" xlink:href="#C0_0_22e4c739e1" y="95.688706"/>
    </g>
    <g clip-path="url(#p860d11a602)">
     <use style="fill:#fdc086;stroke:#fdc086;" x="83.609374" xlink:href="#C0_0_22e4c739e1" y="290.733628"/>
    </g>
    <g clip-path="url(#p860d11a602)">
     <use style="fill:#666666;stroke:#666666;" x="205.433789" xlink:href="#C0_0_22e4c739e1" y="54.742931"/>
    </g>
    <g clip-path="url(#p860d11a602)">
     <use style="fill:#7fc97f;stroke:#7fc97f;" x="206.56794" xlink:href="#C0_0_22e4c739e1" y="133.105208"/>
    </g>
    <g clip-path="url(#p860d11a602)">
     <use style="fill:#f0027f;stroke:#f0027f;" x="254.80541" xlink:href="#C0_0_22e4c739e1" y="193.730929"/>
    </g>
    <g clip-path="url(#p860d11a602)">
     <use style="fill:#666666;stroke:#666666;" x="198.755317" xlink:href="#C0_0_22e4c739e1" y="68.017294"/>
    </g>
    <g clip-path="url(#p860d11a602)">
     <use style="fill:#7fc97f;stroke:#7fc97f;" x="159.035132" xlink:href="#C0_0_22e4c739e1" y="135.979064"/>
    </g>
    <g clip-path="url(#p860d11a602)">
     <use style="fill:#7fc97f;stroke:#7fc97f;" x="206.602361" xlink:href="#C0_0_22e4c739e1" y="133.118242"/>
    </g>
    <g clip-path="url(#p860d11a602)">
     <use style="fill:#7fc97f;stroke:#7fc97f;" x="206.58348" xlink:href="#C0_0_22e4c739e1" y="133.106057"/>
    </g>
    <g clip-path="url(#p860d11a602)">
     <use style="fill:#f0027f;stroke:#f0027f;" x="374.010948" xlink:href="#C0_0_22e4c739e1" y="149.366665"/>
    </g>
    <g clip-path="url(#p860d11a602)">
     <use style="fill:#f0027f;stroke:#f0027f;" x="329.861621" xlink:href="#C0_0_22e4c739e1" y="169.682119"/>
    </g>
    <g clip-path="url(#p860d11a602)">
     <use style="fill:#7fc97f;stroke:#7fc97f;" x="190.224022" xlink:href="#C0_0_22e4c739e1" y="173.086445"/>
    </g>
    <g clip-path="url(#p860d11a602)">
     <use style="fill:#7fc97f;stroke:#7fc97f;" x="254.815173" xlink:href="#C0_0_22e4c739e1" y="263.617945"/>
    </g>
    <g clip-path="url(#p860d11a602)">
     <use style="fill:#7fc97f;stroke:#7fc97f;" x="173.992993" xlink:href="#C0_0_22e4c739e1" y="185.207161"/>
    </g>
    <g clip-path="url(#p860d11a602)">
     <use style="fill:#7fc97f;stroke:#7fc97f;" x="268.40433" xlink:href="#C0_0_22e4c739e1" y="262.07016"/>
    </g>
    <g clip-path="url(#p860d11a602)">
     <use style="fill:#f0027f;stroke:#f0027f;" x="321.694058" xlink:href="#C0_0_22e4c739e1" y="125.208833"/>
    </g>
    <g clip-path="url(#p860d11a602)">
     <use style="fill:#666666;stroke:#666666;" x="241.529596" xlink:href="#C0_0_22e4c739e1" y="76.168837"/>
    </g>
    <g clip-path="url(#p860d11a602)">
     <use style="fill:#7fc97f;stroke:#7fc97f;" x="158.899881" xlink:href="#C0_0_22e4c739e1" y="102.225241"/>
    </g>
    <g clip-path="url(#p860d11a602)">
     <use style="fill:#fdc086;stroke:#fdc086;" x="79.449513" xlink:href="#C0_0_22e4c739e1" y="278.74668"/>
    </g>
    <g clip-path="url(#p860d11a602)">
     <use style="fill:#fdc086;stroke:#fdc086;" x="79.605079" xlink:href="#C0_0_22e4c739e1" y="278.750303"/>
    </g>
    <g clip-path="url(#p860d11a602)">
     <use style="fill:#fdc086;stroke:#fdc086;" x="98.918547" xlink:href="#C0_0_22e4c739e1" y="285.507941"/>
    </g>
    <g clip-path="url(#p860d11a602)">
     <use style="fill:#f0027f;stroke:#f0027f;" x="229.080215" xlink:href="#C0_0_22e4c739e1" y="201.502382"/>
    </g>
    <g clip-path="url(#p860d11a602)">
     <use style="fill:#7fc97f;stroke:#7fc97f;" x="229.457309" xlink:href="#C0_0_22e4c739e1" y="186.700435"/>
    </g>
    <g clip-path="url(#p860d11a602)">
     <use style="fill:#7fc97f;stroke:#7fc97f;" x="349.175733" xlink:href="#C0_0_22e4c739e1" y="231.0542"/>
    </g>
    <g clip-path="url(#p860d11a602)">
     <use style="fill:#666666;stroke:#666666;" x="141.212278" xlink:href="#C0_0_22e4c739e1" y="84.435371"/>
    </g>
    <g clip-path="url(#p860d11a602)">
     <use style="fill:#7fc97f;stroke:#7fc97f;" x="184.976934" xlink:href="#C0_0_22e4c739e1" y="177.914111"/>
    </g>
    <g clip-path="url(#p860d11a602)">
     <use style="fill:#7fc97f;stroke:#7fc97f;" x="182.671372" xlink:href="#C0_0_22e4c739e1" y="141.540189"/>
    </g>
    <g clip-path="url(#p860d11a602)">
     <use style="fill:#f0027f;stroke:#f0027f;" x="342.691859" xlink:href="#C0_0_22e4c739e1" y="167.710905"/>
    </g>
    <g clip-path="url(#p860d11a602)">
     <use style="fill:#f0027f;stroke:#f0027f;" x="326.857007" xlink:href="#C0_0_22e4c739e1" y="167.402121"/>
    </g>
    <g clip-path="url(#p860d11a602)">
     <use style="fill:#f0027f;stroke:#f0027f;" x="351.527934" xlink:href="#C0_0_22e4c739e1" y="152.441561"/>
    </g>
    <g clip-path="url(#p860d11a602)">
     <use style="fill:#f0027f;stroke:#f0027f;" x="230.947103" xlink:href="#C0_0_22e4c739e1" y="219.424052"/>
    </g>
    <g clip-path="url(#p860d11a602)">
     <use style="fill:#f0027f;stroke:#f0027f;" x="231.151671" xlink:href="#C0_0_22e4c739e1" y="208.214601"/>
    </g>
    <g clip-path="url(#p860d11a602)">
     <use style="fill:#f0027f;stroke:#f0027f;" x="246.717177" xlink:href="#C0_0_22e4c739e1" y="176.004525"/>
    </g>
    <g clip-path="url(#p860d11a602)">
     <use style="fill:#fdc086;stroke:#fdc086;" x="179.466818" xlink:href="#C0_0_22e4c739e1" y="283.016619"/>
    </g>
    <g clip-path="url(#p860d11a602)">
     <use style="fill:#fdc086;stroke:#fdc086;" x="123.867855" xlink:href="#C0_0_22e4c739e1" y="269.442602"/>
    </g>
    <g clip-path="url(#p860d11a602)">
     <use style="fill:#fdc086;stroke:#fdc086;" x="149.777949" xlink:href="#C0_0_22e4c739e1" y="281.51506"/>
    </g>
    <g clip-path="url(#p860d11a602)">
     <use style="fill:#f0027f;stroke:#f0027f;" x="354.566335" xlink:href="#C0_0_22e4c739e1" y="174.548663"/>
    </g>
    <g clip-path="url(#p860d11a602)">
     <use style="fill:#7fc97f;stroke:#7fc97f;" x="254.971655" xlink:href="#C0_0_22e4c739e1" y="261.982505"/>
    </g>
    <g clip-path="url(#p860d11a602)">
     <use style="fill:#7fc97f;stroke:#7fc97f;" x="298.523897" xlink:href="#C0_0_22e4c739e1" y="193.455442"/>
    </g>
    <g clip-path="url(#p860d11a602)">
     <use style="fill:#7fc97f;stroke:#7fc97f;" x="205.701406" xlink:href="#C0_0_22e4c739e1" y="177.020574"/>
    </g>
    <g clip-path="url(#p860d11a602)">
     <use style="fill:#f0027f;stroke:#f0027f;" x="301.229193" xlink:href="#C0_0_22e4c739e1" y="119.555389"/>
    </g>
    <g clip-path="url(#p860d11a602)">
     <use style="fill:#fdc086;stroke:#fdc086;" x="173.056065" xlink:href="#C0_0_22e4c739e1" y="270.121073"/>
    </g>
    <g clip-path="url(#p860d11a602)">
     <use style="fill:#fdc086;stroke:#fdc086;" x="173.030866" xlink:href="#C0_0_22e4c739e1" y="270.12235"/>
    </g>
    <g clip-path="url(#p860d11a602)">
     <use style="fill:#f0027f;stroke:#f0027f;" x="291.08131" xlink:href="#C0_0_22e4c739e1" y="118.301009"/>
    </g>
    <g clip-path="url(#p860d11a602)">
     <use style="fill:#7fc97f;stroke:#7fc97f;" x="269.917036" xlink:href="#C0_0_22e4c739e1" y="113.005336"/>
    </g>
    <g clip-path="url(#p860d11a602)">
     <use style="fill:#fdc086;stroke:#fdc086;" x="107.999784" xlink:href="#C0_0_22e4c739e1" y="295.425063"/>
    </g>
    <g clip-path="url(#p860d11a602)">
     <use style="fill:#f0027f;stroke:#f0027f;" x="270.329915" xlink:href="#C0_0_22e4c739e1" y="183.695841"/>
    </g>
    <g clip-path="url(#p860d11a602)">
     <use style="fill:#fdc086;stroke:#fdc086;" x="156.911153" xlink:href="#C0_0_22e4c739e1" y="243.776252"/>
    </g>
    <g clip-path="url(#p860d11a602)">
     <use style="fill:#7fc97f;stroke:#7fc97f;" x="191.27605" xlink:href="#C0_0_22e4c739e1" y="118.395383"/>
    </g>
    <g clip-path="url(#p860d11a602)">
     <use style="fill:#f0027f;stroke:#f0027f;" x="270.441823" xlink:href="#C0_0_22e4c739e1" y="179.061238"/>
    </g>
    <g clip-path="url(#p860d11a602)">
     <use style="fill:#7fc97f;stroke:#7fc97f;" x="191.251512" xlink:href="#C0_0_22e4c739e1" y="118.387273"/>
    </g>
    <g clip-path="url(#p860d11a602)">
     <use style="fill:#f0027f;stroke:#f0027f;" x="371.707989" xlink:href="#C0_0_22e4c739e1" y="143.14198"/>
    </g>
    <g clip-path="url(#p860d11a602)">
     <use style="fill:#f0027f;stroke:#f0027f;" x="397.685346" xlink:href="#C0_0_22e4c739e1" y="174.208689"/>
    </g>
    <g clip-path="url(#p860d11a602)">
     <use style="fill:#fdc086;stroke:#fdc086;" x="196.704097" xlink:href="#C0_0_22e4c739e1" y="226.228966"/>
    </g>
    <g clip-path="url(#p860d11a602)">
     <use style="fill:#f0027f;stroke:#f0027f;" x="339.417669" xlink:href="#C0_0_22e4c739e1" y="131.711352"/>
    </g>
    <g clip-path="url(#p860d11a602)">
     <use style="fill:#fdc086;stroke:#fdc086;" x="76.29973" xlink:href="#C0_0_22e4c739e1" y="287.639707"/>
    </g>
    <g clip-path="url(#p860d11a602)">
     <use style="fill:#7fc97f;stroke:#7fc97f;" x="294.954398" xlink:href="#C0_0_22e4c739e1" y="216.442955"/>
    </g>
    <g clip-path="url(#p860d11a602)">
     <use style="fill:#fdc086;stroke:#fdc086;" x="138.633925" xlink:href="#C0_0_22e4c739e1" y="261.701903"/>
    </g>
    <g clip-path="url(#p860d11a602)">
     <use style="fill:#7fc97f;stroke:#7fc97f;" x="285.16664" xlink:href="#C0_0_22e4c739e1" y="199.938014"/>
    </g>
    <g clip-path="url(#p860d11a602)">
     <use style="fill:#f0027f;stroke:#f0027f;" x="329.724152" xlink:href="#C0_0_22e4c739e1" y="158.433106"/>
    </g>
    <g clip-path="url(#p860d11a602)">
     <use style="fill:#f0027f;stroke:#f0027f;" x="281.278172" xlink:href="#C0_0_22e4c739e1" y="173.217263"/>
    </g>
    <g clip-path="url(#p860d11a602)">
     <use style="fill:#fdc086;stroke:#fdc086;" x="110.867233" xlink:href="#C0_0_22e4c739e1" y="257.051988"/>
    </g>
    <g clip-path="url(#p860d11a602)">
     <use style="fill:#7fc97f;stroke:#7fc97f;" x="184.501168" xlink:href="#C0_0_22e4c739e1" y="128.953294"/>
    </g>
    <g clip-path="url(#p860d11a602)">
     <use style="fill:#fdc086;stroke:#fdc086;" x="107.142895" xlink:href="#C0_0_22e4c739e1" y="226.215125"/>
    </g>
    <g clip-path="url(#p860d11a602)">
     <use style="fill:#7fc97f;stroke:#7fc97f;" x="287.89635" xlink:href="#C0_0_22e4c739e1" y="172.400051"/>
    </g>
    <g clip-path="url(#p860d11a602)">
     <use style="fill:#f0027f;stroke:#f0027f;" x="282.904719" xlink:href="#C0_0_22e4c739e1" y="115.996008"/>
    </g>
    <g clip-path="url(#p860d11a602)">
     <use style="fill:#fdc086;stroke:#fdc086;" x="73.925147" xlink:href="#C0_0_22e4c739e1" y="282.453905"/>
    </g>
    <g clip-path="url(#p860d11a602)">
     <use style="fill:#7fc97f;stroke:#7fc97f;" x="199.108288" xlink:href="#C0_0_22e4c739e1" y="134.325046"/>
    </g>
    <g clip-path="url(#p860d11a602)">
     <use style="fill:#666666;stroke:#666666;" x="225.250187" xlink:href="#C0_0_22e4c739e1" y="85.23163"/>
    </g>
    <g clip-path="url(#p860d11a602)">
     <use style="fill:#fdc086;stroke:#fdc086;" x="152.469995" xlink:href="#C0_0_22e4c739e1" y="227.563433"/>
    </g>
    <g clip-path="url(#p860d11a602)">
     <use style="fill:#fdc086;stroke:#fdc086;" x="122.074621" xlink:href="#C0_0_22e4c739e1" y="246.094502"/>
    </g>
    <g clip-path="url(#p860d11a602)">
     <use style="fill:#fdc086;stroke:#fdc086;" x="93.204407" xlink:href="#C0_0_22e4c739e1" y="281.872099"/>
    </g>
    <g clip-path="url(#p860d11a602)">
     <use style="fill:#fdc086;stroke:#fdc086;" x="156.91115" xlink:href="#C0_0_22e4c739e1" y="243.776252"/>
    </g>
    <g clip-path="url(#p860d11a602)">
     <use style="fill:#666666;stroke:#666666;" x="165.879611" xlink:href="#C0_0_22e4c739e1" y="53.630937"/>
    </g>
    <g clip-path="url(#p860d11a602)">
     <use style="fill:#666666;stroke:#666666;" x="192.101688" xlink:href="#C0_0_22e4c739e1" y="88.397357"/>
    </g>
    <g clip-path="url(#p860d11a602)">
     <use style="fill:#fdc086;stroke:#fdc086;" x="156.91124" xlink:href="#C0_0_22e4c739e1" y="243.774908"/>
    </g>
    <g clip-path="url(#p860d11a602)">
     <use style="fill:#fdc086;stroke:#fdc086;" x="90.043964" xlink:href="#C0_0_22e4c739e1" y="290.969181"/>
    </g>
    <g clip-path="url(#p860d11a602)">
     <use style="fill:#7fc97f;stroke:#7fc97f;" x="285.99971" xlink:href="#C0_0_22e4c739e1" y="90.784"/>
    </g>
    <g clip-path="url(#p860d11a602)">
     <use style="fill:#fdc086;stroke:#fdc086;" x="156.911572" xlink:href="#C0_0_22e4c739e1" y="243.778374"/>
    </g>
    <g clip-path="url(#p860d11a602)">
     <use style="fill:#fdc086;stroke:#fdc086;" x="108.27061" xlink:href="#C0_0_22e4c739e1" y="268.212942"/>
    </g>
    <g clip-path="url(#p860d11a602)">
     <use style="fill:#f0027f;stroke:#f0027f;" x="280.010976" xlink:href="#C0_0_22e4c739e1" y="220.182431"/>
    </g>
    <g clip-path="url(#p860d11a602)">
     <use style="fill:#7fc97f;stroke:#7fc97f;" x="125.5225" xlink:href="#C0_0_22e4c739e1" y="149.393365"/>
    </g>
    <g clip-path="url(#p860d11a602)">
     <use style="fill:#f0027f;stroke:#f0027f;" x="124.123246" xlink:href="#C0_0_22e4c739e1" y="178.36049"/>
    </g>
    <g clip-path="url(#p860d11a602)">
     <use style="fill:#f0027f;stroke:#f0027f;" x="374.981916" xlink:href="#C0_0_22e4c739e1" y="154.963238"/>
    </g>
    <g clip-path="url(#p860d11a602)">
     <use style="fill:#fdc086;stroke:#fdc086;" x="98.919494" xlink:href="#C0_0_22e4c739e1" y="285.510393"/>
    </g>
    <g clip-path="url(#p860d11a602)">
     <use style="fill:#fdc086;stroke:#fdc086;" x="156.911447" xlink:href="#C0_0_22e4c739e1" y="243.782951"/>
    </g>
    <g clip-path="url(#p860d11a602)">
     <use style="fill:#fdc086;stroke:#fdc086;" x="140.572743" xlink:href="#C0_0_22e4c739e1" y="279.749989"/>
    </g>
   </g>
   <g id="matplotlib.axis_1">
    <g id="xtick_1">
     <g id="line2d_1">
      <defs>
       <path d="M 0 0 
L 0 3.5 
" id="m54e2568159" style="stroke:#000000;stroke-width:0.8;"/>
      </defs>
      <g>
       <use style="stroke:#000000;stroke-width:0.8;" x="95.146232" xlink:href="#m54e2568159" y="307.584"/>
      </g>
     </g>
     <g id="text_1">
      <!-- −4 -->
      <defs>
       <path d="M 10.59375 35.5 
L 73.1875 35.5 
L 73.1875 27.203125 
L 10.59375 27.203125 
z
" id="DejaVuSans-2212"/>
       <path d="M 37.796875 64.3125 
L 12.890625 25.390625 
L 37.796875 25.390625 
z
M 35.203125 72.90625 
L 47.609375 72.90625 
L 47.609375 25.390625 
L 58.015625 25.390625 
L 58.015625 17.1875 
L 47.609375 17.1875 
L 47.609375 0 
L 37.796875 0 
L 37.796875 17.1875 
L 4.890625 17.1875 
L 4.890625 26.703125 
z
" id="DejaVuSans-34"/>
      </defs>
      <g transform="translate(87.775138 322.182437)scale(0.1 -0.1)">
       <use xlink:href="#DejaVuSans-2212"/>
       <use x="83.789062" xlink:href="#DejaVuSans-34"/>
      </g>
     </g>
    </g>
    <g id="xtick_2">
     <g id="line2d_2">
      <g>
       <use style="stroke:#000000;stroke-width:0.8;" x="153.129804" xlink:href="#m54e2568159" y="307.584"/>
      </g>
     </g>
     <g id="text_2">
      <!-- −2 -->
      <defs>
       <path d="M 19.1875 8.296875 
L 53.609375 8.296875 
L 53.609375 0 
L 7.328125 0 
L 7.328125 8.296875 
Q 12.9375 14.109375 22.625 23.890625 
Q 32.328125 33.6875 34.8125 36.53125 
Q 39.546875 41.84375 41.421875 45.53125 
Q 43.3125 49.21875 43.3125 52.78125 
Q 43.3125 58.59375 39.234375 62.25 
Q 35.15625 65.921875 28.609375 65.921875 
Q 23.96875 65.921875 18.8125 64.3125 
Q 13.671875 62.703125 7.8125 59.421875 
L 7.8125 69.390625 
Q 13.765625 71.78125 18.9375 73 
Q 24.125 74.21875 28.421875 74.21875 
Q 39.75 74.21875 46.484375 68.546875 
Q 53.21875 62.890625 53.21875 53.421875 
Q 53.21875 48.921875 51.53125 44.890625 
Q 49.859375 40.875 45.40625 35.40625 
Q 44.1875 33.984375 37.640625 27.21875 
Q 31.109375 20.453125 19.1875 8.296875 
z
" id="DejaVuSans-32"/>
      </defs>
      <g transform="translate(145.75871 322.182437)scale(0.1 -0.1)">
       <use xlink:href="#DejaVuSans-2212"/>
       <use x="83.789062" xlink:href="#DejaVuSans-32"/>
      </g>
     </g>
    </g>
    <g id="xtick_3">
     <g id="line2d_3">
      <g>
       <use style="stroke:#000000;stroke-width:0.8;" x="211.113376" xlink:href="#m54e2568159" y="307.584"/>
      </g>
     </g>
     <g id="text_3">
      <!-- 0 -->
      <defs>
       <path d="M 31.78125 66.40625 
Q 24.171875 66.40625 20.328125 58.90625 
Q 16.5 51.421875 16.5 36.375 
Q 16.5 21.390625 20.328125 13.890625 
Q 24.171875 6.390625 31.78125 6.390625 
Q 39.453125 6.390625 43.28125 13.890625 
Q 47.125 21.390625 47.125 36.375 
Q 47.125 51.421875 43.28125 58.90625 
Q 39.453125 66.40625 31.78125 66.40625 
z
M 31.78125 74.21875 
Q 44.046875 74.21875 50.515625 64.515625 
Q 56.984375 54.828125 56.984375 36.375 
Q 56.984375 17.96875 50.515625 8.265625 
Q 44.046875 -1.421875 31.78125 -1.421875 
Q 19.53125 -1.421875 13.0625 8.265625 
Q 6.59375 17.96875 6.59375 36.375 
Q 6.59375 54.828125 13.0625 64.515625 
Q 19.53125 74.21875 31.78125 74.21875 
z
" id="DejaVuSans-30"/>
      </defs>
      <g transform="translate(207.932126 322.182437)scale(0.1 -0.1)">
       <use xlink:href="#DejaVuSans-30"/>
      </g>
     </g>
    </g>
    <g id="xtick_4">
     <g id="line2d_4">
      <g>
       <use style="stroke:#000000;stroke-width:0.8;" x="269.096947" xlink:href="#m54e2568159" y="307.584"/>
      </g>
     </g>
     <g id="text_4">
      <!-- 2 -->
      <g transform="translate(265.915697 322.182437)scale(0.1 -0.1)">
       <use xlink:href="#DejaVuSans-32"/>
      </g>
     </g>
    </g>
    <g id="xtick_5">
     <g id="line2d_5">
      <g>
       <use style="stroke:#000000;stroke-width:0.8;" x="327.080519" xlink:href="#m54e2568159" y="307.584"/>
      </g>
     </g>
     <g id="text_5">
      <!-- 4 -->
      <g transform="translate(323.899269 322.182437)scale(0.1 -0.1)">
       <use xlink:href="#DejaVuSans-34"/>
      </g>
     </g>
    </g>
    <g id="xtick_6">
     <g id="line2d_6">
      <g>
       <use style="stroke:#000000;stroke-width:0.8;" x="385.064091" xlink:href="#m54e2568159" y="307.584"/>
      </g>
     </g>
     <g id="text_6">
      <!-- 6 -->
      <defs>
       <path d="M 33.015625 40.375 
Q 26.375 40.375 22.484375 35.828125 
Q 18.609375 31.296875 18.609375 23.390625 
Q 18.609375 15.53125 22.484375 10.953125 
Q 26.375 6.390625 33.015625 6.390625 
Q 39.65625 6.390625 43.53125 10.953125 
Q 47.40625 15.53125 47.40625 23.390625 
Q 47.40625 31.296875 43.53125 35.828125 
Q 39.65625 40.375 33.015625 40.375 
z
M 52.59375 71.296875 
L 52.59375 62.3125 
Q 48.875 64.0625 45.09375 64.984375 
Q 41.3125 65.921875 37.59375 65.921875 
Q 27.828125 65.921875 22.671875 59.328125 
Q 17.53125 52.734375 16.796875 39.40625 
Q 19.671875 43.65625 24.015625 45.921875 
Q 28.375 48.1875 33.59375 48.1875 
Q 44.578125 48.1875 50.953125 41.515625 
Q 57.328125 34.859375 57.328125 23.390625 
Q 57.328125 12.15625 50.6875 5.359375 
Q 44.046875 -1.421875 33.015625 -1.421875 
Q 20.359375 -1.421875 13.671875 8.265625 
Q 6.984375 17.96875 6.984375 36.375 
Q 6.984375 53.65625 15.1875 63.9375 
Q 23.390625 74.21875 37.203125 74.21875 
Q 40.921875 74.21875 44.703125 73.484375 
Q 48.484375 72.75 52.59375 71.296875 
z
" id="DejaVuSans-36"/>
      </defs>
      <g transform="translate(381.882841 322.182437)scale(0.1 -0.1)">
       <use xlink:href="#DejaVuSans-36"/>
      </g>
     </g>
    </g>
   </g>
   <g id="matplotlib.axis_2">
    <g id="ytick_1">
     <g id="line2d_7">
      <defs>
       <path d="M 0 0 
L -3.5 0 
" id="m34797c1c19" style="stroke:#000000;stroke-width:0.8;"/>
      </defs>
      <g>
       <use style="stroke:#000000;stroke-width:0.8;" x="57.6" xlink:href="#m34797c1c19" y="272.850299"/>
      </g>
     </g>
     <g id="text_7">
      <!-- −2.5 -->
      <defs>
       <path d="M 10.6875 12.40625 
L 21 12.40625 
L 21 0 
L 10.6875 0 
z
" id="DejaVuSans-2e"/>
       <path d="M 10.796875 72.90625 
L 49.515625 72.90625 
L 49.515625 64.59375 
L 19.828125 64.59375 
L 19.828125 46.734375 
Q 21.96875 47.46875 24.109375 47.828125 
Q 26.265625 48.1875 28.421875 48.1875 
Q 40.625 48.1875 47.75 41.5 
Q 54.890625 34.8125 54.890625 23.390625 
Q 54.890625 11.625 47.5625 5.09375 
Q 40.234375 -1.421875 26.90625 -1.421875 
Q 22.3125 -1.421875 17.546875 -0.640625 
Q 12.796875 0.140625 7.71875 1.703125 
L 7.71875 11.625 
Q 12.109375 9.234375 16.796875 8.0625 
Q 21.484375 6.890625 26.703125 6.890625 
Q 35.15625 6.890625 40.078125 11.328125 
Q 45.015625 15.765625 45.015625 23.390625 
Q 45.015625 31 40.078125 35.4375 
Q 35.15625 39.890625 26.703125 39.890625 
Q 22.75 39.890625 18.8125 39.015625 
Q 14.890625 38.140625 10.796875 36.28125 
z
" id="DejaVuSans-35"/>
      </defs>
      <g transform="translate(26.317187 276.649517)scale(0.1 -0.1)">
       <use xlink:href="#DejaVuSans-2212"/>
       <use x="83.789062" xlink:href="#DejaVuSans-32"/>
       <use x="147.412109" xlink:href="#DejaVuSans-2e"/>
       <use x="179.199219" xlink:href="#DejaVuSans-35"/>
      </g>
     </g>
    </g>
    <g id="ytick_2">
     <g id="line2d_8">
      <g>
       <use style="stroke:#000000;stroke-width:0.8;" x="57.6" xlink:href="#m34797c1c19" y="236.070861"/>
      </g>
     </g>
     <g id="text_8">
      <!-- 0.0 -->
      <g transform="translate(34.696875 239.87008)scale(0.1 -0.1)">
       <use xlink:href="#DejaVuSans-30"/>
       <use x="63.623047" xlink:href="#DejaVuSans-2e"/>
       <use x="95.410156" xlink:href="#DejaVuSans-30"/>
      </g>
     </g>
    </g>
    <g id="ytick_3">
     <g id="line2d_9">
      <g>
       <use style="stroke:#000000;stroke-width:0.8;" x="57.6" xlink:href="#m34797c1c19" y="199.291423"/>
      </g>
     </g>
     <g id="text_9">
      <!-- 2.5 -->
      <g transform="translate(34.696875 203.090642)scale(0.1 -0.1)">
       <use xlink:href="#DejaVuSans-32"/>
       <use x="63.623047" xlink:href="#DejaVuSans-2e"/>
       <use x="95.410156" xlink:href="#DejaVuSans-35"/>
      </g>
     </g>
    </g>
    <g id="ytick_4">
     <g id="line2d_10">
      <g>
       <use style="stroke:#000000;stroke-width:0.8;" x="57.6" xlink:href="#m34797c1c19" y="162.511985"/>
      </g>
     </g>
     <g id="text_10">
      <!-- 5.0 -->
      <g transform="translate(34.696875 166.311204)scale(0.1 -0.1)">
       <use xlink:href="#DejaVuSans-35"/>
       <use x="63.623047" xlink:href="#DejaVuSans-2e"/>
       <use x="95.410156" xlink:href="#DejaVuSans-30"/>
      </g>
     </g>
    </g>
    <g id="ytick_5">
     <g id="line2d_11">
      <g>
       <use style="stroke:#000000;stroke-width:0.8;" x="57.6" xlink:href="#m34797c1c19" y="125.732547"/>
      </g>
     </g>
     <g id="text_11">
      <!-- 7.5 -->
      <defs>
       <path d="M 8.203125 72.90625 
L 55.078125 72.90625 
L 55.078125 68.703125 
L 28.609375 0 
L 18.3125 0 
L 43.21875 64.59375 
L 8.203125 64.59375 
z
" id="DejaVuSans-37"/>
      </defs>
      <g transform="translate(34.696875 129.531766)scale(0.1 -0.1)">
       <use xlink:href="#DejaVuSans-37"/>
       <use x="63.623047" xlink:href="#DejaVuSans-2e"/>
       <use x="95.410156" xlink:href="#DejaVuSans-35"/>
      </g>
     </g>
    </g>
    <g id="ytick_6">
     <g id="line2d_12">
      <g>
       <use style="stroke:#000000;stroke-width:0.8;" x="57.6" xlink:href="#m34797c1c19" y="88.953109"/>
      </g>
     </g>
     <g id="text_12">
      <!-- 10.0 -->
      <defs>
       <path d="M 12.40625 8.296875 
L 28.515625 8.296875 
L 28.515625 63.921875 
L 10.984375 60.40625 
L 10.984375 69.390625 
L 28.421875 72.90625 
L 38.28125 72.90625 
L 38.28125 8.296875 
L 54.390625 8.296875 
L 54.390625 0 
L 12.40625 0 
z
" id="DejaVuSans-31"/>
      </defs>
      <g transform="translate(28.334375 92.752328)scale(0.1 -0.1)">
       <use xlink:href="#DejaVuSans-31"/>
       <use x="63.623047" xlink:href="#DejaVuSans-30"/>
       <use x="127.246094" xlink:href="#DejaVuSans-2e"/>
       <use x="159.033203" xlink:href="#DejaVuSans-30"/>
      </g>
     </g>
    </g>
    <g id="ytick_7">
     <g id="line2d_13">
      <g>
       <use style="stroke:#000000;stroke-width:0.8;" x="57.6" xlink:href="#m34797c1c19" y="52.173671"/>
      </g>
     </g>
     <g id="text_13">
      <!-- 12.5 -->
      <g transform="translate(28.334375 55.97289)scale(0.1 -0.1)">
       <use xlink:href="#DejaVuSans-31"/>
       <use x="63.623047" xlink:href="#DejaVuSans-32"/>
       <use x="127.246094" xlink:href="#DejaVuSans-2e"/>
       <use x="159.033203" xlink:href="#DejaVuSans-35"/>
      </g>
     </g>
    </g>
   </g>
   <g id="patch_3">
    <path d="M 57.6 307.584 
L 57.6 41.472 
" style="fill:none;stroke:#000000;stroke-linecap:square;stroke-linejoin:miter;stroke-width:0.8;"/>
   </g>
   <g id="patch_4">
    <path d="M 414.72 307.584 
L 414.72 41.472 
" style="fill:none;stroke:#000000;stroke-linecap:square;stroke-linejoin:miter;stroke-width:0.8;"/>
   </g>
   <g id="patch_5">
    <path d="M 57.6 307.584 
L 414.72 307.584 
" style="fill:none;stroke:#000000;stroke-linecap:square;stroke-linejoin:miter;stroke-width:0.8;"/>
   </g>
   <g id="patch_6">
    <path d="M 57.6 41.472 
L 414.72 41.472 
" style="fill:none;stroke:#000000;stroke-linecap:square;stroke-linejoin:miter;stroke-width:0.8;"/>
   </g>
  </g>
 </g>
 <defs>
  <clipPath id="p860d11a602">
   <rect height="266.112" width="357.12" x="57.6" y="41.472"/>
  </clipPath>
 </defs>
</svg>
