<?xml version="1.0" encoding="utf-8" standalone="no"?>
<!DOCTYPE svg PUBLIC "-//W3C//DTD SVG 1.1//EN"
  "http://www.w3.org/Graphics/SVG/1.1/DTD/svg11.dtd">
<!-- Created with matplotlib (http://matplotlib.org/) -->
<svg height="345pt" version="1.1" viewBox="0 0 460 345" width="460pt" xmlns="http://www.w3.org/2000/svg" xmlns:xlink="http://www.w3.org/1999/xlink">
 <defs>
  <style type="text/css">
*{stroke-linecap:butt;stroke-linejoin:round;}
  </style>
 </defs>
 <g id="figure_1">
  <g id="patch_1">
   <path d="M 0 345.6 
L 460.8 345.6 
L 460.8 0 
L 0 0 
z
" style="fill:#ffffff;"/>
  </g>
  <g id="axes_1">
   <g id="patch_2">
    <path d="M 57.6 307.584 
L 414.72 307.584 
L 414.72 41.472 
L 57.6 41.472 
z
" style="fill:#ffffff;"/>
   </g>
   <g id="PathCollection_1">
    <defs>
     <path d="M 0 1.581139 
C 0.419323 1.581139 0.821528 1.41454 1.118034 1.118034 
C 1.41454 0.821528 1.581139 0.419323 1.581139 0 
C 1.581139 -0.419323 1.41454 -0.821528 1.118034 -1.118034 
C 0.821528 -1.41454 0.419323 -1.581139 0 -1.581139 
C -0.419323 -1.581139 -0.821528 -1.41454 -1.118034 -1.118034 
C -1.41454 -0.821528 -1.581139 -0.419323 -1.581139 0 
C -1.581139 0.419323 -1.41454 0.821528 -1.118034 1.118034 
C -0.821528 1.41454 -0.419323 1.581139 0 1.581139 
z
" id="C0_0_3996310a21"/>
    </defs>
    <g clip-path="url(#p4f9f89b47a)">
     <use style="fill:#7fc97f;stroke:#7fc97f;" x="96.181869" xlink:href="#C0_0_3996310a21" y="83.016642"/>
    </g>
    <g clip-path="url(#p4f9f89b47a)">
     <use style="fill:#666666;stroke:#666666;" x="178.659518" xlink:href="#C0_0_3996310a21" y="167.082267"/>
    </g>
    <g clip-path="url(#p4f9f89b47a)">
     <use style="fill:#bf5b17;stroke:#bf5b17;" x="155.291171" xlink:href="#C0_0_3996310a21" y="230.904997"/>
    </g>
    <g clip-path="url(#p4f9f89b47a)">
     <use style="fill:#666666;stroke:#666666;" x="238.414601" xlink:href="#C0_0_3996310a21" y="200.231819"/>
    </g>
    <g clip-path="url(#p4f9f89b47a)">
     <use style="fill:#fdc086;stroke:#fdc086;" x="138.315475" xlink:href="#C0_0_3996310a21" y="53.955895"/>
    </g>
    <g clip-path="url(#p4f9f89b47a)">
     <use style="fill:#386cb0;stroke:#386cb0;" x="335.962106" xlink:href="#C0_0_3996310a21" y="202.565786"/>
    </g>
    <g clip-path="url(#p4f9f89b47a)">
     <use style="fill:#666666;stroke:#666666;" x="243.482073" xlink:href="#C0_0_3996310a21" y="120.695382"/>
    </g>
    <g clip-path="url(#p4f9f89b47a)">
     <use style="fill:#666666;stroke:#666666;" x="218.7712" xlink:href="#C0_0_3996310a21" y="165.543851"/>
    </g>
    <g clip-path="url(#p4f9f89b47a)">
     <use style="fill:#bf5b17;stroke:#bf5b17;" x="155.293415" xlink:href="#C0_0_3996310a21" y="230.926993"/>
    </g>
    <g clip-path="url(#p4f9f89b47a)">
     <use style="fill:#386cb0;stroke:#386cb0;" x="350.725446" xlink:href="#C0_0_3996310a21" y="192.496818"/>
    </g>
    <g clip-path="url(#p4f9f89b47a)">
     <use style="fill:#bf5b17;stroke:#bf5b17;" x="238.88275" xlink:href="#C0_0_3996310a21" y="258.119134"/>
    </g>
    <g clip-path="url(#p4f9f89b47a)">
     <use style="fill:#7fc97f;stroke:#7fc97f;" x="148.897118" xlink:href="#C0_0_3996310a21" y="139.648214"/>
    </g>
    <g clip-path="url(#p4f9f89b47a)">
     <use style="fill:#666666;stroke:#666666;" x="234.374571" xlink:href="#C0_0_3996310a21" y="189.312894"/>
    </g>
    <g clip-path="url(#p4f9f89b47a)">
     <use style="fill:#7fc97f;stroke:#7fc97f;" x="131.91281" xlink:href="#C0_0_3996310a21" y="199.520551"/>
    </g>
    <g clip-path="url(#p4f9f89b47a)">
     <use style="fill:#bf5b17;stroke:#bf5b17;" x="144.915332" xlink:href="#C0_0_3996310a21" y="242.042751"/>
    </g>
    <g clip-path="url(#p4f9f89b47a)">
     <use style="fill:#7fc97f;stroke:#7fc97f;" x="104.341545" xlink:href="#C0_0_3996310a21" y="120.374679"/>
    </g>
    <g clip-path="url(#p4f9f89b47a)">
     <use style="fill:#386cb0;stroke:#386cb0;" x="335.129007" xlink:href="#C0_0_3996310a21" y="222.913994"/>
    </g>
    <g clip-path="url(#p4f9f89b47a)">
     <use style="fill:#bf5b17;stroke:#bf5b17;" x="319.496737" xlink:href="#C0_0_3996310a21" y="118.511473"/>
    </g>
    <g clip-path="url(#p4f9f89b47a)">
     <use style="fill:#386cb0;stroke:#386cb0;" x="291.481178" xlink:href="#C0_0_3996310a21" y="167.29539"/>
    </g>
    <g clip-path="url(#p4f9f89b47a)">
     <use style="fill:#386cb0;stroke:#386cb0;" x="260.125966" xlink:href="#C0_0_3996310a21" y="162.523268"/>
    </g>
    <g clip-path="url(#p4f9f89b47a)">
     <use style="fill:#fdc086;stroke:#fdc086;" x="115.4657" xlink:href="#C0_0_3996310a21" y="54.530186"/>
    </g>
    <g clip-path="url(#p4f9f89b47a)">
     <use style="fill:#386cb0;stroke:#386cb0;" x="292.15387" xlink:href="#C0_0_3996310a21" y="248.672184"/>
    </g>
    <g clip-path="url(#p4f9f89b47a)">
     <use style="fill:#386cb0;stroke:#386cb0;" x="292.166009" xlink:href="#C0_0_3996310a21" y="248.631535"/>
    </g>
    <g clip-path="url(#p4f9f89b47a)">
     <use style="fill:#386cb0;stroke:#386cb0;" x="292.173943" xlink:href="#C0_0_3996310a21" y="248.634777"/>
    </g>
    <g clip-path="url(#p4f9f89b47a)">
     <use style="fill:#bf5b17;stroke:#bf5b17;" x="207.453367" xlink:href="#C0_0_3996310a21" y="266.165835"/>
    </g>
    <g clip-path="url(#p4f9f89b47a)">
     <use style="fill:#386cb0;stroke:#386cb0;" x="358.377386" xlink:href="#C0_0_3996310a21" y="214.274979"/>
    </g>
    <g clip-path="url(#p4f9f89b47a)">
     <use style="fill:#7fc97f;stroke:#7fc97f;" x="93.781043" xlink:href="#C0_0_3996310a21" y="73.329355"/>
    </g>
    <g clip-path="url(#p4f9f89b47a)">
     <use style="fill:#386cb0;stroke:#386cb0;" x="398.430723" xlink:href="#C0_0_3996310a21" y="236.435645"/>
    </g>
    <g clip-path="url(#p4f9f89b47a)">
     <use style="fill:#386cb0;stroke:#386cb0;" x="306.32969" xlink:href="#C0_0_3996310a21" y="215.25488"/>
    </g>
    <g clip-path="url(#p4f9f89b47a)">
     <use style="fill:#666666;stroke:#666666;" x="227.034409" xlink:href="#C0_0_3996310a21" y="195.020938"/>
    </g>
    <g clip-path="url(#p4f9f89b47a)">
     <use style="fill:#386cb0;stroke:#386cb0;" x="382.04118" xlink:href="#C0_0_3996310a21" y="239.85213"/>
    </g>
    <g clip-path="url(#p4f9f89b47a)">
     <use style="fill:#666666;stroke:#666666;" x="234.374579" xlink:href="#C0_0_3996310a21" y="189.312883"/>
    </g>
    <g clip-path="url(#p4f9f89b47a)">
     <use style="fill:#386cb0;stroke:#386cb0;" x="384.499822" xlink:href="#C0_0_3996310a21" y="250.148425"/>
    </g>
    <g clip-path="url(#p4f9f89b47a)">
     <use style="fill:#bf5b17;stroke:#bf5b17;" x="177.207834" xlink:href="#C0_0_3996310a21" y="276.413174"/>
    </g>
    <g clip-path="url(#p4f9f89b47a)">
     <use style="fill:#386cb0;stroke:#386cb0;" x="358.508126" xlink:href="#C0_0_3996310a21" y="214.295974"/>
    </g>
    <g clip-path="url(#p4f9f89b47a)">
     <use style="fill:#bf5b17;stroke:#bf5b17;" x="306.526325" xlink:href="#C0_0_3996310a21" y="113.095948"/>
    </g>
    <g clip-path="url(#p4f9f89b47a)">
     <use style="fill:#bf5b17;stroke:#bf5b17;" x="223.499522" xlink:href="#C0_0_3996310a21" y="262.25706"/>
    </g>
    <g clip-path="url(#p4f9f89b47a)">
     <use style="fill:#7fc97f;stroke:#7fc97f;" x="129.516865" xlink:href="#C0_0_3996310a21" y="179.257471"/>
    </g>
    <g clip-path="url(#p4f9f89b47a)">
     <use style="fill:#bf5b17;stroke:#bf5b17;" x="244.645761" xlink:href="#C0_0_3996310a21" y="236.620692"/>
    </g>
    <g clip-path="url(#p4f9f89b47a)">
     <use style="fill:#666666;stroke:#666666;" x="197.732752" xlink:href="#C0_0_3996310a21" y="100.68817"/>
    </g>
    <g clip-path="url(#p4f9f89b47a)">
     <use style="fill:#bf5b17;stroke:#bf5b17;" x="139.328521" xlink:href="#C0_0_3996310a21" y="243.528267"/>
    </g>
    <g clip-path="url(#p4f9f89b47a)">
     <use style="fill:#666666;stroke:#666666;" x="178.675359" xlink:href="#C0_0_3996310a21" y="167.083909"/>
    </g>
    <g clip-path="url(#p4f9f89b47a)">
     <use style="fill:#386cb0;stroke:#386cb0;" x="390.08683" xlink:href="#C0_0_3996310a21" y="231.193021"/>
    </g>
    <g clip-path="url(#p4f9f89b47a)">
     <use style="fill:#bf5b17;stroke:#bf5b17;" x="155.314178" xlink:href="#C0_0_3996310a21" y="230.900817"/>
    </g>
    <g clip-path="url(#p4f9f89b47a)">
     <use style="fill:#386cb0;stroke:#386cb0;" x="278.247999" xlink:href="#C0_0_3996310a21" y="198.045017"/>
    </g>
    <g clip-path="url(#p4f9f89b47a)">
     <use style="fill:#bf5b17;stroke:#bf5b17;" x="297.021755" xlink:href="#C0_0_3996310a21" y="125.331771"/>
    </g>
    <g clip-path="url(#p4f9f89b47a)">
     <use style="fill:#386cb0;stroke:#386cb0;" x="321.291848" xlink:href="#C0_0_3996310a21" y="196.43375"/>
    </g>
    <g clip-path="url(#p4f9f89b47a)">
     <use style="fill:#386cb0;stroke:#386cb0;" x="335.898512" xlink:href="#C0_0_3996310a21" y="202.668166"/>
    </g>
    <g clip-path="url(#p4f9f89b47a)">
     <use style="fill:#bf5b17;stroke:#bf5b17;" x="244.647309" xlink:href="#C0_0_3996310a21" y="236.619356"/>
    </g>
    <g clip-path="url(#p4f9f89b47a)">
     <use style="fill:#666666;stroke:#666666;" x="214.092203" xlink:href="#C0_0_3996310a21" y="170.163419"/>
    </g>
    <g clip-path="url(#p4f9f89b47a)">
     <use style="fill:#666666;stroke:#666666;" x="212.507342" xlink:href="#C0_0_3996310a21" y="165.701199"/>
    </g>
    <g clip-path="url(#p4f9f89b47a)">
     <use style="fill:#7fc97f;stroke:#7fc97f;" x="124.890717" xlink:href="#C0_0_3996310a21" y="92.159111"/>
    </g>
    <g clip-path="url(#p4f9f89b47a)">
     <use style="fill:#386cb0;stroke:#386cb0;" x="332.256421" xlink:href="#C0_0_3996310a21" y="188.084809"/>
    </g>
    <g clip-path="url(#p4f9f89b47a)">
     <use style="fill:#386cb0;stroke:#386cb0;" x="334.720359" xlink:href="#C0_0_3996310a21" y="205.441003"/>
    </g>
    <g clip-path="url(#p4f9f89b47a)">
     <use style="fill:#bf5b17;stroke:#bf5b17;" x="202.191074" xlink:href="#C0_0_3996310a21" y="284.069068"/>
    </g>
    <g clip-path="url(#p4f9f89b47a)">
     <use style="fill:#386cb0;stroke:#386cb0;" x="302.371998" xlink:href="#C0_0_3996310a21" y="225.534777"/>
    </g>
    <g clip-path="url(#p4f9f89b47a)">
     <use style="fill:#666666;stroke:#666666;" x="238.148519" xlink:href="#C0_0_3996310a21" y="191.753881"/>
    </g>
    <g clip-path="url(#p4f9f89b47a)">
     <use style="fill:#666666;stroke:#666666;" x="261.315987" xlink:href="#C0_0_3996310a21" y="186.220659"/>
    </g>
    <g clip-path="url(#p4f9f89b47a)">
     <use style="fill:#666666;stroke:#666666;" x="248.116534" xlink:href="#C0_0_3996310a21" y="100.804621"/>
    </g>
    <g clip-path="url(#p4f9f89b47a)">
     <use style="fill:#7fc97f;stroke:#7fc97f;" x="125.625986" xlink:href="#C0_0_3996310a21" y="164.821258"/>
    </g>
    <g clip-path="url(#p4f9f89b47a)">
     <use style="fill:#bf5b17;stroke:#bf5b17;" x="183.919123" xlink:href="#C0_0_3996310a21" y="280.431398"/>
    </g>
    <g clip-path="url(#p4f9f89b47a)">
     <use style="fill:#666666;stroke:#666666;" x="191.984332" xlink:href="#C0_0_3996310a21" y="206.46374"/>
    </g>
    <g clip-path="url(#p4f9f89b47a)">
     <use style="fill:#666666;stroke:#666666;" x="200.324448" xlink:href="#C0_0_3996310a21" y="137.931899"/>
    </g>
    <g clip-path="url(#p4f9f89b47a)">
     <use style="fill:#7fc97f;stroke:#7fc97f;" x="113.889446" xlink:href="#C0_0_3996310a21" y="167.278606"/>
    </g>
    <g clip-path="url(#p4f9f89b47a)">
     <use style="fill:#7fc97f;stroke:#7fc97f;" x="102.556158" xlink:href="#C0_0_3996310a21" y="106.639411"/>
    </g>
    <g clip-path="url(#p4f9f89b47a)">
     <use style="fill:#386cb0;stroke:#386cb0;" x="384.92527" xlink:href="#C0_0_3996310a21" y="235.906012"/>
    </g>
    <g clip-path="url(#p4f9f89b47a)">
     <use style="fill:#386cb0;stroke:#386cb0;" x="278.246595" xlink:href="#C0_0_3996310a21" y="198.030546"/>
    </g>
    <g clip-path="url(#p4f9f89b47a)">
     <use style="fill:#666666;stroke:#666666;" x="168.602225" xlink:href="#C0_0_3996310a21" y="200.875233"/>
    </g>
    <g clip-path="url(#p4f9f89b47a)">
     <use style="fill:#bf5b17;stroke:#bf5b17;" x="244.623861" xlink:href="#C0_0_3996310a21" y="236.640065"/>
    </g>
    <g clip-path="url(#p4f9f89b47a)">
     <use style="fill:#666666;stroke:#666666;" x="207.872018" xlink:href="#C0_0_3996310a21" y="146.473292"/>
    </g>
    <g clip-path="url(#p4f9f89b47a)">
     <use style="fill:#386cb0;stroke:#386cb0;" x="374.456217" xlink:href="#C0_0_3996310a21" y="216.528544"/>
    </g>
    <g clip-path="url(#p4f9f89b47a)">
     <use style="fill:#666666;stroke:#666666;" x="281.260021" xlink:href="#C0_0_3996310a21" y="169.03079"/>
    </g>
    <g clip-path="url(#p4f9f89b47a)">
     <use style="fill:#bf5b17;stroke:#bf5b17;" x="214.295584" xlink:href="#C0_0_3996310a21" y="263.575077"/>
    </g>
    <g clip-path="url(#p4f9f89b47a)">
     <use style="fill:#7fc97f;stroke:#7fc97f;" x="92.154468" xlink:href="#C0_0_3996310a21" y="131.93566"/>
    </g>
    <g clip-path="url(#p4f9f89b47a)">
     <use style="fill:#666666;stroke:#666666;" x="247.171085" xlink:href="#C0_0_3996310a21" y="137.316762"/>
    </g>
    <g clip-path="url(#p4f9f89b47a)">
     <use style="fill:#666666;stroke:#666666;" x="254.088337" xlink:href="#C0_0_3996310a21" y="159.855933"/>
    </g>
    <g clip-path="url(#p4f9f89b47a)">
     <use style="fill:#fdc086;stroke:#fdc086;" x="130.816985" xlink:href="#C0_0_3996310a21" y="54.44012"/>
    </g>
    <g clip-path="url(#p4f9f89b47a)">
     <use style="fill:#386cb0;stroke:#386cb0;" x="394.045367" xlink:href="#C0_0_3996310a21" y="230.544858"/>
    </g>
    <g clip-path="url(#p4f9f89b47a)">
     <use style="fill:#386cb0;stroke:#386cb0;" x="334.720359" xlink:href="#C0_0_3996310a21" y="205.44101"/>
    </g>
    <g clip-path="url(#p4f9f89b47a)">
     <use style="fill:#386cb0;stroke:#386cb0;" x="292.797025" xlink:href="#C0_0_3996310a21" y="190.543388"/>
    </g>
    <g clip-path="url(#p4f9f89b47a)">
     <use style="fill:#bf5b17;stroke:#bf5b17;" x="244.645694" xlink:href="#C0_0_3996310a21" y="236.620655"/>
    </g>
    <g clip-path="url(#p4f9f89b47a)">
     <use style="fill:#bf5b17;stroke:#bf5b17;" x="283.3618" xlink:href="#C0_0_3996310a21" y="125.334474"/>
    </g>
    <g clip-path="url(#p4f9f89b47a)">
     <use style="fill:#bf5b17;stroke:#bf5b17;" x="319.578484" xlink:href="#C0_0_3996310a21" y="118.503937"/>
    </g>
    <g clip-path="url(#p4f9f89b47a)">
     <use style="fill:#666666;stroke:#666666;" x="200.304604" xlink:href="#C0_0_3996310a21" y="137.954194"/>
    </g>
    <g clip-path="url(#p4f9f89b47a)">
     <use style="fill:#fdc086;stroke:#fdc086;" x="137.454915" xlink:href="#C0_0_3996310a21" y="53.649259"/>
    </g>
    <g clip-path="url(#p4f9f89b47a)">
     <use style="fill:#bf5b17;stroke:#bf5b17;" x="222.760727" xlink:href="#C0_0_3996310a21" y="280.275684"/>
    </g>
    <g clip-path="url(#p4f9f89b47a)">
     <use style="fill:#7fc97f;stroke:#7fc97f;" x="117.532666" xlink:href="#C0_0_3996310a21" y="91.641148"/>
    </g>
    <g clip-path="url(#p4f9f89b47a)">
     <use style="fill:#7fc97f;stroke:#7fc97f;" x="146.856801" xlink:href="#C0_0_3996310a21" y="119.082036"/>
    </g>
    <g clip-path="url(#p4f9f89b47a)">
     <use style="fill:#7fc97f;stroke:#7fc97f;" x="148.897861" xlink:href="#C0_0_3996310a21" y="139.636962"/>
    </g>
    <g clip-path="url(#p4f9f89b47a)">
     <use style="fill:#7fc97f;stroke:#7fc97f;" x="148.89521" xlink:href="#C0_0_3996310a21" y="139.66303"/>
    </g>
    <g clip-path="url(#p4f9f89b47a)">
     <use style="fill:#666666;stroke:#666666;" x="218.771171" xlink:href="#C0_0_3996310a21" y="165.543838"/>
    </g>
    <g clip-path="url(#p4f9f89b47a)">
     <use style="fill:#bf5b17;stroke:#bf5b17;" x="204.492178" xlink:href="#C0_0_3996310a21" y="295.406741"/>
    </g>
    <g clip-path="url(#p4f9f89b47a)">
     <use style="fill:#666666;stroke:#666666;" x="168.543288" xlink:href="#C0_0_3996310a21" y="200.840129"/>
    </g>
    <g clip-path="url(#p4f9f89b47a)">
     <use style="fill:#7fc97f;stroke:#7fc97f;" x="149.874272" xlink:href="#C0_0_3996310a21" y="119.869175"/>
    </g>
    <g clip-path="url(#p4f9f89b47a)">
     <use style="fill:#7fc97f;stroke:#7fc97f;" x="109.872817" xlink:href="#C0_0_3996310a21" y="160.131775"/>
    </g>
    <g clip-path="url(#p4f9f89b47a)">
     <use style="fill:#666666;stroke:#666666;" x="238.171442" xlink:href="#C0_0_3996310a21" y="200.625141"/>
    </g>
    <g clip-path="url(#p4f9f89b47a)">
     <use style="fill:#666666;stroke:#666666;" x="260.332947" xlink:href="#C0_0_3996310a21" y="209.206319"/>
    </g>
    <g clip-path="url(#p4f9f89b47a)">
     <use style="fill:#666666;stroke:#666666;" x="170.957307" xlink:href="#C0_0_3996310a21" y="217.91287"/>
    </g>
    <g clip-path="url(#p4f9f89b47a)">
     <use style="fill:#666666;stroke:#666666;" x="230.437265" xlink:href="#C0_0_3996310a21" y="203.766767"/>
    </g>
    <g clip-path="url(#p4f9f89b47a)">
     <use style="fill:#666666;stroke:#666666;" x="185.785971" xlink:href="#C0_0_3996310a21" y="157.196451"/>
    </g>
    <g clip-path="url(#p4f9f89b47a)">
     <use style="fill:#666666;stroke:#666666;" x="171.113203" xlink:href="#C0_0_3996310a21" y="217.913595"/>
    </g>
    <g clip-path="url(#p4f9f89b47a)">
     <use style="fill:#7fc97f;stroke:#7fc97f;" x="101.976208" xlink:href="#C0_0_3996310a21" y="108.976933"/>
    </g>
    <g clip-path="url(#p4f9f89b47a)">
     <use style="fill:#7fc97f;stroke:#7fc97f;" x="99.57603" xlink:href="#C0_0_3996310a21" y="104.3392"/>
    </g>
    <g clip-path="url(#p4f9f89b47a)">
     <use style="fill:#386cb0;stroke:#386cb0;" x="334.720359" xlink:href="#C0_0_3996310a21" y="205.440992"/>
    </g>
    <g clip-path="url(#p4f9f89b47a)">
     <use style="fill:#386cb0;stroke:#386cb0;" x="395.012251" xlink:href="#C0_0_3996310a21" y="247.382761"/>
    </g>
    <g clip-path="url(#p4f9f89b47a)">
     <use style="fill:#666666;stroke:#666666;" x="204.054109" xlink:href="#C0_0_3996310a21" y="96.246855"/>
    </g>
    <g clip-path="url(#p4f9f89b47a)">
     <use style="fill:#386cb0;stroke:#386cb0;" x="380.718988" xlink:href="#C0_0_3996310a21" y="245.546735"/>
    </g>
    <g clip-path="url(#p4f9f89b47a)">
     <use style="fill:#666666;stroke:#666666;" x="226.624347" xlink:href="#C0_0_3996310a21" y="196.263788"/>
    </g>
    <g clip-path="url(#p4f9f89b47a)">
     <use style="fill:#386cb0;stroke:#386cb0;" x="398.235627" xlink:href="#C0_0_3996310a21" y="241.43758"/>
    </g>
    <g clip-path="url(#p4f9f89b47a)">
     <use style="fill:#666666;stroke:#666666;" x="198.979722" xlink:href="#C0_0_3996310a21" y="187.77637"/>
    </g>
    <g clip-path="url(#p4f9f89b47a)">
     <use style="fill:#666666;stroke:#666666;" x="214.092186" xlink:href="#C0_0_3996310a21" y="170.163401"/>
    </g>
    <g clip-path="url(#p4f9f89b47a)">
     <use style="fill:#386cb0;stroke:#386cb0;" x="313.553238" xlink:href="#C0_0_3996310a21" y="231.612372"/>
    </g>
    <g clip-path="url(#p4f9f89b47a)">
     <use style="fill:#386cb0;stroke:#386cb0;" x="391.138336" xlink:href="#C0_0_3996310a21" y="249.93199"/>
    </g>
    <g clip-path="url(#p4f9f89b47a)">
     <use style="fill:#7fc97f;stroke:#7fc97f;" x="134.303868" xlink:href="#C0_0_3996310a21" y="194.237166"/>
    </g>
    <g clip-path="url(#p4f9f89b47a)">
     <use style="fill:#666666;stroke:#666666;" x="230.581388" xlink:href="#C0_0_3996310a21" y="119.893145"/>
    </g>
    <g clip-path="url(#p4f9f89b47a)">
     <use style="fill:#666666;stroke:#666666;" x="229.104069" xlink:href="#C0_0_3996310a21" y="203.155318"/>
    </g>
    <g clip-path="url(#p4f9f89b47a)">
     <use style="fill:#fdc086;stroke:#fdc086;" x="157.820143" xlink:href="#C0_0_3996310a21" y="70.03591"/>
    </g>
    <g clip-path="url(#p4f9f89b47a)">
     <use style="fill:#666666;stroke:#666666;" x="174.142457" xlink:href="#C0_0_3996310a21" y="228.04563"/>
    </g>
    <g clip-path="url(#p4f9f89b47a)">
     <use style="fill:#7fc97f;stroke:#7fc97f;" x="101.98858" xlink:href="#C0_0_3996310a21" y="108.994586"/>
    </g>
    <g clip-path="url(#p4f9f89b47a)">
     <use style="fill:#666666;stroke:#666666;" x="73.889277" xlink:href="#C0_0_3996310a21" y="108.642065"/>
    </g>
    <g clip-path="url(#p4f9f89b47a)">
     <use style="fill:#666666;stroke:#666666;" x="185.224887" xlink:href="#C0_0_3996310a21" y="175.191907"/>
    </g>
    <g clip-path="url(#p4f9f89b47a)">
     <use style="fill:#7fc97f;stroke:#7fc97f;" x="133.341945" xlink:href="#C0_0_3996310a21" y="181.847041"/>
    </g>
    <g clip-path="url(#p4f9f89b47a)">
     <use style="fill:#666666;stroke:#666666;" x="198.398208" xlink:href="#C0_0_3996310a21" y="216.372676"/>
    </g>
    <g clip-path="url(#p4f9f89b47a)">
     <use style="fill:#666666;stroke:#666666;" x="75.559357" xlink:href="#C0_0_3996310a21" y="108.950586"/>
    </g>
    <g clip-path="url(#p4f9f89b47a)">
     <use style="fill:#bf5b17;stroke:#bf5b17;" x="178.466342" xlink:href="#C0_0_3996310a21" y="237.696085"/>
    </g>
   </g>
   <g id="matplotlib.axis_1">
    <g id="xtick_1">
     <g id="line2d_1">
      <defs>
       <path d="M 0 0 
L 0 3.5 
" id="mee4aa00b90" style="stroke:#000000;stroke-width:0.8;"/>
      </defs>
      <g>
       <use style="stroke:#000000;stroke-width:0.8;" x="66.314508" xlink:href="#mee4aa00b90" y="307.584"/>
      </g>
     </g>
     <g id="text_1">
      <!-- −5.0 -->
      <defs>
       <path d="M 10.59375 35.5 
L 73.1875 35.5 
L 73.1875 27.203125 
L 10.59375 27.203125 
z
" id="DejaVuSans-2212"/>
       <path d="M 10.796875 72.90625 
L 49.515625 72.90625 
L 49.515625 64.59375 
L 19.828125 64.59375 
L 19.828125 46.734375 
Q 21.96875 47.46875 24.109375 47.828125 
Q 26.265625 48.1875 28.421875 48.1875 
Q 40.625 48.1875 47.75 41.5 
Q 54.890625 34.8125 54.890625 23.390625 
Q 54.890625 11.625 47.5625 5.09375 
Q 40.234375 -1.421875 26.90625 -1.421875 
Q 22.3125 -1.421875 17.546875 -0.640625 
Q 12.796875 0.140625 7.71875 1.703125 
L 7.71875 11.625 
Q 12.109375 9.234375 16.796875 8.0625 
Q 21.484375 6.890625 26.703125 6.890625 
Q 35.15625 6.890625 40.078125 11.328125 
Q 45.015625 15.765625 45.015625 23.390625 
Q 45.015625 31 40.078125 35.4375 
Q 35.15625 39.890625 26.703125 39.890625 
Q 22.75 39.890625 18.8125 39.015625 
Q 14.890625 38.140625 10.796875 36.28125 
z
" id="DejaVuSans-35"/>
       <path d="M 10.6875 12.40625 
L 21 12.40625 
L 21 0 
L 10.6875 0 
z
" id="DejaVuSans-2e"/>
       <path d="M 31.78125 66.40625 
Q 24.171875 66.40625 20.328125 58.90625 
Q 16.5 51.421875 16.5 36.375 
Q 16.5 21.390625 20.328125 13.890625 
Q 24.171875 6.390625 31.78125 6.390625 
Q 39.453125 6.390625 43.28125 13.890625 
Q 47.125 21.390625 47.125 36.375 
Q 47.125 51.421875 43.28125 58.90625 
Q 39.453125 66.40625 31.78125 66.40625 
z
M 31.78125 74.21875 
Q 44.046875 74.21875 50.515625 64.515625 
Q 56.984375 54.828125 56.984375 36.375 
Q 56.984375 17.96875 50.515625 8.265625 
Q 44.046875 -1.421875 31.78125 -1.421875 
Q 19.53125 -1.421875 13.0625 8.265625 
Q 6.59375 17.96875 6.59375 36.375 
Q 6.59375 54.828125 13.0625 64.515625 
Q 19.53125 74.21875 31.78125 74.21875 
z
" id="DejaVuSans-30"/>
      </defs>
      <g transform="translate(54.173101 322.182437)scale(0.1 -0.1)">
       <use xlink:href="#DejaVuSans-2212"/>
       <use x="83.789062" xlink:href="#DejaVuSans-35"/>
       <use x="147.412109" xlink:href="#DejaVuSans-2e"/>
       <use x="179.199219" xlink:href="#DejaVuSans-30"/>
      </g>
     </g>
    </g>
    <g id="xtick_2">
     <g id="line2d_2">
      <g>
       <use style="stroke:#000000;stroke-width:0.8;" x="110.663418" xlink:href="#mee4aa00b90" y="307.584"/>
      </g>
     </g>
     <g id="text_2">
      <!-- −2.5 -->
      <defs>
       <path d="M 19.1875 8.296875 
L 53.609375 8.296875 
L 53.609375 0 
L 7.328125 0 
L 7.328125 8.296875 
Q 12.9375 14.109375 22.625 23.890625 
Q 32.328125 33.6875 34.8125 36.53125 
Q 39.546875 41.84375 41.421875 45.53125 
Q 43.3125 49.21875 43.3125 52.78125 
Q 43.3125 58.59375 39.234375 62.25 
Q 35.15625 65.921875 28.609375 65.921875 
Q 23.96875 65.921875 18.8125 64.3125 
Q 13.671875 62.703125 7.8125 59.421875 
L 7.8125 69.390625 
Q 13.765625 71.78125 18.9375 73 
Q 24.125 74.21875 28.421875 74.21875 
Q 39.75 74.21875 46.484375 68.546875 
Q 53.21875 62.890625 53.21875 53.421875 
Q 53.21875 48.921875 51.53125 44.890625 
Q 49.859375 40.875 45.40625 35.40625 
Q 44.1875 33.984375 37.640625 27.21875 
Q 31.109375 20.453125 19.1875 8.296875 
z
" id="DejaVuSans-32"/>
      </defs>
      <g transform="translate(98.522012 322.182437)scale(0.1 -0.1)">
       <use xlink:href="#DejaVuSans-2212"/>
       <use x="83.789062" xlink:href="#DejaVuSans-32"/>
       <use x="147.412109" xlink:href="#DejaVuSans-2e"/>
       <use x="179.199219" xlink:href="#DejaVuSans-35"/>
      </g>
     </g>
    </g>
    <g id="xtick_3">
     <g id="line2d_3">
      <g>
       <use style="stroke:#000000;stroke-width:0.8;" x="155.012329" xlink:href="#mee4aa00b90" y="307.584"/>
      </g>
     </g>
     <g id="text_3">
      <!-- 0.0 -->
      <g transform="translate(147.060766 322.182437)scale(0.1 -0.1)">
       <use xlink:href="#DejaVuSans-30"/>
       <use x="63.623047" xlink:href="#DejaVuSans-2e"/>
       <use x="95.410156" xlink:href="#DejaVuSans-30"/>
      </g>
     </g>
    </g>
    <g id="xtick_4">
     <g id="line2d_4">
      <g>
       <use style="stroke:#000000;stroke-width:0.8;" x="199.361239" xlink:href="#mee4aa00b90" y="307.584"/>
      </g>
     </g>
     <g id="text_4">
      <!-- 2.5 -->
      <g transform="translate(191.409677 322.182437)scale(0.1 -0.1)">
       <use xlink:href="#DejaVuSans-32"/>
       <use x="63.623047" xlink:href="#DejaVuSans-2e"/>
       <use x="95.410156" xlink:href="#DejaVuSans-35"/>
      </g>
     </g>
    </g>
    <g id="xtick_5">
     <g id="line2d_5">
      <g>
       <use style="stroke:#000000;stroke-width:0.8;" x="243.71015" xlink:href="#mee4aa00b90" y="307.584"/>
      </g>
     </g>
     <g id="text_5">
      <!-- 5.0 -->
      <g transform="translate(235.758587 322.182437)scale(0.1 -0.1)">
       <use xlink:href="#DejaVuSans-35"/>
       <use x="63.623047" xlink:href="#DejaVuSans-2e"/>
       <use x="95.410156" xlink:href="#DejaVuSans-30"/>
      </g>
     </g>
    </g>
    <g id="xtick_6">
     <g id="line2d_6">
      <g>
       <use style="stroke:#000000;stroke-width:0.8;" x="288.05906" xlink:href="#mee4aa00b90" y="307.584"/>
      </g>
     </g>
     <g id="text_6">
      <!-- 7.5 -->
      <defs>
       <path d="M 8.203125 72.90625 
L 55.078125 72.90625 
L 55.078125 68.703125 
L 28.609375 0 
L 18.3125 0 
L 43.21875 64.59375 
L 8.203125 64.59375 
z
" id="DejaVuSans-37"/>
      </defs>
      <g transform="translate(280.107498 322.182437)scale(0.1 -0.1)">
       <use xlink:href="#DejaVuSans-37"/>
       <use x="63.623047" xlink:href="#DejaVuSans-2e"/>
       <use x="95.410156" xlink:href="#DejaVuSans-35"/>
      </g>
     </g>
    </g>
    <g id="xtick_7">
     <g id="line2d_7">
      <g>
       <use style="stroke:#000000;stroke-width:0.8;" x="332.407971" xlink:href="#mee4aa00b90" y="307.584"/>
      </g>
     </g>
     <g id="text_7">
      <!-- 10.0 -->
      <defs>
       <path d="M 12.40625 8.296875 
L 28.515625 8.296875 
L 28.515625 63.921875 
L 10.984375 60.40625 
L 10.984375 69.390625 
L 28.421875 72.90625 
L 38.28125 72.90625 
L 38.28125 8.296875 
L 54.390625 8.296875 
L 54.390625 0 
L 12.40625 0 
z
" id="DejaVuSans-31"/>
      </defs>
      <g transform="translate(321.275158 322.182437)scale(0.1 -0.1)">
       <use xlink:href="#DejaVuSans-31"/>
       <use x="63.623047" xlink:href="#DejaVuSans-30"/>
       <use x="127.246094" xlink:href="#DejaVuSans-2e"/>
       <use x="159.033203" xlink:href="#DejaVuSans-30"/>
      </g>
     </g>
    </g>
    <g id="xtick_8">
     <g id="line2d_8">
      <g>
       <use style="stroke:#000000;stroke-width:0.8;" x="376.756881" xlink:href="#mee4aa00b90" y="307.584"/>
      </g>
     </g>
     <g id="text_8">
      <!-- 12.5 -->
      <g transform="translate(365.624069 322.182437)scale(0.1 -0.1)">
       <use xlink:href="#DejaVuSans-31"/>
       <use x="63.623047" xlink:href="#DejaVuSans-32"/>
       <use x="127.246094" xlink:href="#DejaVuSans-2e"/>
       <use x="159.033203" xlink:href="#DejaVuSans-35"/>
      </g>
     </g>
    </g>
   </g>
   <g id="matplotlib.axis_2">
    <g id="ytick_1">
     <g id="line2d_9">
      <defs>
       <path d="M 0 0 
L -3.5 0 
" id="m5bed26c8b3" style="stroke:#000000;stroke-width:0.8;"/>
      </defs>
      <g>
       <use style="stroke:#000000;stroke-width:0.8;" x="57.6" xlink:href="#m5bed26c8b3" y="282.450192"/>
      </g>
     </g>
     <g id="text_9">
      <!-- −6 -->
      <defs>
       <path d="M 33.015625 40.375 
Q 26.375 40.375 22.484375 35.828125 
Q 18.609375 31.296875 18.609375 23.390625 
Q 18.609375 15.53125 22.484375 10.953125 
Q 26.375 6.390625 33.015625 6.390625 
Q 39.65625 6.390625 43.53125 10.953125 
Q 47.40625 15.53125 47.40625 23.390625 
Q 47.40625 31.296875 43.53125 35.828125 
Q 39.65625 40.375 33.015625 40.375 
z
M 52.59375 71.296875 
L 52.59375 62.3125 
Q 48.875 64.0625 45.09375 64.984375 
Q 41.3125 65.921875 37.59375 65.921875 
Q 27.828125 65.921875 22.671875 59.328125 
Q 17.53125 52.734375 16.796875 39.40625 
Q 19.671875 43.65625 24.015625 45.921875 
Q 28.375 48.1875 33.59375 48.1875 
Q 44.578125 48.1875 50.953125 41.515625 
Q 57.328125 34.859375 57.328125 23.390625 
Q 57.328125 12.15625 50.6875 5.359375 
Q 44.046875 -1.421875 33.015625 -1.421875 
Q 20.359375 -1.421875 13.671875 8.265625 
Q 6.984375 17.96875 6.984375 36.375 
Q 6.984375 53.65625 15.1875 63.9375 
Q 23.390625 74.21875 37.203125 74.21875 
Q 40.921875 74.21875 44.703125 73.484375 
Q 48.484375 72.75 52.59375 71.296875 
z
" id="DejaVuSans-36"/>
      </defs>
      <g transform="translate(35.857813 286.249411)scale(0.1 -0.1)">
       <use xlink:href="#DejaVuSans-2212"/>
       <use x="83.789062" xlink:href="#DejaVuSans-36"/>
      </g>
     </g>
    </g>
    <g id="ytick_2">
     <g id="line2d_10">
      <g>
       <use style="stroke:#000000;stroke-width:0.8;" x="57.6" xlink:href="#m5bed26c8b3" y="244.460885"/>
      </g>
     </g>
     <g id="text_10">
      <!-- −4 -->
      <defs>
       <path d="M 37.796875 64.3125 
L 12.890625 25.390625 
L 37.796875 25.390625 
z
M 35.203125 72.90625 
L 47.609375 72.90625 
L 47.609375 25.390625 
L 58.015625 25.390625 
L 58.015625 17.1875 
L 47.609375 17.1875 
L 47.609375 0 
L 37.796875 0 
L 37.796875 17.1875 
L 4.890625 17.1875 
L 4.890625 26.703125 
z
" id="DejaVuSans-34"/>
      </defs>
      <g transform="translate(35.857813 248.260103)scale(0.1 -0.1)">
       <use xlink:href="#DejaVuSans-2212"/>
       <use x="83.789062" xlink:href="#DejaVuSans-34"/>
      </g>
     </g>
    </g>
    <g id="ytick_3">
     <g id="line2d_11">
      <g>
       <use style="stroke:#000000;stroke-width:0.8;" x="57.6" xlink:href="#m5bed26c8b3" y="206.471577"/>
      </g>
     </g>
     <g id="text_11">
      <!-- −2 -->
      <g transform="translate(35.857813 210.270795)scale(0.1 -0.1)">
       <use xlink:href="#DejaVuSans-2212"/>
       <use x="83.789062" xlink:href="#DejaVuSans-32"/>
      </g>
     </g>
    </g>
    <g id="ytick_4">
     <g id="line2d_12">
      <g>
       <use style="stroke:#000000;stroke-width:0.8;" x="57.6" xlink:href="#m5bed26c8b3" y="168.482269"/>
      </g>
     </g>
     <g id="text_12">
      <!-- 0 -->
      <g transform="translate(44.2375 172.281487)scale(0.1 -0.1)">
       <use xlink:href="#DejaVuSans-30"/>
      </g>
     </g>
    </g>
    <g id="ytick_5">
     <g id="line2d_13">
      <g>
       <use style="stroke:#000000;stroke-width:0.8;" x="57.6" xlink:href="#m5bed26c8b3" y="130.492961"/>
      </g>
     </g>
     <g id="text_13">
      <!-- 2 -->
      <g transform="translate(44.2375 134.292179)scale(0.1 -0.1)">
       <use xlink:href="#DejaVuSans-32"/>
      </g>
     </g>
    </g>
    <g id="ytick_6">
     <g id="line2d_14">
      <g>
       <use style="stroke:#000000;stroke-width:0.8;" x="57.6" xlink:href="#m5bed26c8b3" y="92.503653"/>
      </g>
     </g>
     <g id="text_14">
      <!-- 4 -->
      <g transform="translate(44.2375 96.302872)scale(0.1 -0.1)">
       <use xlink:href="#DejaVuSans-34"/>
      </g>
     </g>
    </g>
    <g id="ytick_7">
     <g id="line2d_15">
      <g>
       <use style="stroke:#000000;stroke-width:0.8;" x="57.6" xlink:href="#m5bed26c8b3" y="54.514345"/>
      </g>
     </g>
     <g id="text_15">
      <!-- 6 -->
      <g transform="translate(44.2375 58.313564)scale(0.1 -0.1)">
       <use xlink:href="#DejaVuSans-36"/>
      </g>
     </g>
    </g>
   </g>
   <g id="patch_3">
    <path d="M 57.6 307.584 
L 57.6 41.472 
" style="fill:none;stroke:#000000;stroke-linecap:square;stroke-linejoin:miter;stroke-width:0.8;"/>
   </g>
   <g id="patch_4">
    <path d="M 414.72 307.584 
L 414.72 41.472 
" style="fill:none;stroke:#000000;stroke-linecap:square;stroke-linejoin:miter;stroke-width:0.8;"/>
   </g>
   <g id="patch_5">
    <path d="M 57.6 307.584 
L 414.72 307.584 
" style="fill:none;stroke:#000000;stroke-linecap:square;stroke-linejoin:miter;stroke-width:0.8;"/>
   </g>
   <g id="patch_6">
    <path d="M 57.6 41.472 
L 414.72 41.472 
" style="fill:none;stroke:#000000;stroke-linecap:square;stroke-linejoin:miter;stroke-width:0.8;"/>
   </g>
  </g>
 </g>
 <defs>
  <clipPath id="p4f9f89b47a">
   <rect height="266.112" width="357.12" x="57.6" y="41.472"/>
  </clipPath>
 </defs>
</svg>
