<?xml version="1.0" encoding="utf-8" standalone="no"?>
<!DOCTYPE svg PUBLIC "-//W3C//DTD SVG 1.1//EN"
  "http://www.w3.org/Graphics/SVG/1.1/DTD/svg11.dtd">
<!-- Created with matplotlib (http://matplotlib.org/) -->
<svg height="345pt" version="1.1" viewBox="0 0 460 345" width="460pt" xmlns="http://www.w3.org/2000/svg" xmlns:xlink="http://www.w3.org/1999/xlink">
 <defs>
  <style type="text/css">
*{stroke-linecap:butt;stroke-linejoin:round;}
  </style>
 </defs>
 <g id="figure_1">
  <g id="patch_1">
   <path d="M 0 345.6 
L 460.8 345.6 
L 460.8 0 
L 0 0 
z
" style="fill:#ffffff;"/>
  </g>
  <g id="axes_1">
   <g id="patch_2">
    <path d="M 57.6 307.584 
L 414.72 307.584 
L 414.72 41.472 
L 57.6 41.472 
z
" style="fill:#ffffff;"/>
   </g>
   <g id="PathCollection_1">
    <defs>
     <path d="M 0 1.581139 
C 0.419323 1.581139 0.821528 1.41454 1.118034 1.118034 
C 1.41454 0.821528 1.581139 0.419323 1.581139 0 
C 1.581139 -0.419323 1.41454 -0.821528 1.118034 -1.118034 
C 0.821528 -1.41454 0.419323 -1.581139 0 -1.581139 
C -0.419323 -1.581139 -0.821528 -1.41454 -1.118034 -1.118034 
C -1.41454 -0.821528 -1.581139 -0.419323 -1.581139 0 
C -1.581139 0.419323 -1.41454 0.821528 -1.118034 1.118034 
C -0.821528 1.41454 -0.419323 1.581139 0 1.581139 
z
" id="C0_0_357f859623"/>
    </defs>
    <g clip-path="url(#pee1b309c2b)">
     <use style="fill:#bf5b17;stroke:#bf5b17;" x="203.673322" xlink:href="#C0_0_357f859623" y="114.703786"/>
    </g>
    <g clip-path="url(#pee1b309c2b)">
     <use style="fill:#bf5b17;stroke:#bf5b17;" x="88.295565" xlink:href="#C0_0_357f859623" y="166.715881"/>
    </g>
    <g clip-path="url(#pee1b309c2b)">
     <use style="fill:#bf5b17;stroke:#bf5b17;" x="213.208634" xlink:href="#C0_0_357f859623" y="160.929739"/>
    </g>
    <g clip-path="url(#pee1b309c2b)">
     <use style="fill:#bf5b17;stroke:#bf5b17;" x="202.655401" xlink:href="#C0_0_357f859623" y="102.534097"/>
    </g>
    <g clip-path="url(#pee1b309c2b)">
     <use style="fill:#bf5b17;stroke:#bf5b17;" x="192.111605" xlink:href="#C0_0_357f859623" y="96.300874"/>
    </g>
    <g clip-path="url(#pee1b309c2b)">
     <use style="fill:#666666;stroke:#666666;" x="149.867796" xlink:href="#C0_0_357f859623" y="76.560934"/>
    </g>
    <g clip-path="url(#pee1b309c2b)">
     <use style="fill:#7fc97f;stroke:#7fc97f;" x="160.08878" xlink:href="#C0_0_357f859623" y="285.26373"/>
    </g>
    <g clip-path="url(#pee1b309c2b)">
     <use style="fill:#7fc97f;stroke:#7fc97f;" x="237.858412" xlink:href="#C0_0_357f859623" y="242.917334"/>
    </g>
    <g clip-path="url(#pee1b309c2b)">
     <use style="fill:#7fc97f;stroke:#7fc97f;" x="181.304642" xlink:href="#C0_0_357f859623" y="267.835938"/>
    </g>
    <g clip-path="url(#pee1b309c2b)">
     <use style="fill:#7fc97f;stroke:#7fc97f;" x="163.216504" xlink:href="#C0_0_357f859623" y="168.636161"/>
    </g>
    <g clip-path="url(#pee1b309c2b)">
     <use style="fill:#fdc086;stroke:#fdc086;" x="142.160001" xlink:href="#C0_0_357f859623" y="196.817205"/>
    </g>
    <g clip-path="url(#pee1b309c2b)">
     <use style="fill:#fdc086;stroke:#fdc086;" x="180.16107" xlink:href="#C0_0_357f859623" y="208.412393"/>
    </g>
    <g clip-path="url(#pee1b309c2b)">
     <use style="fill:#fdc086;stroke:#fdc086;" x="287.044692" xlink:href="#C0_0_357f859623" y="186.669036"/>
    </g>
    <g clip-path="url(#pee1b309c2b)">
     <use style="fill:#666666;stroke:#666666;" x="112.504678" xlink:href="#C0_0_357f859623" y="62.642121"/>
    </g>
    <g clip-path="url(#pee1b309c2b)">
     <use style="fill:#666666;stroke:#666666;" x="115.420866" xlink:href="#C0_0_357f859623" y="57.15619"/>
    </g>
    <g clip-path="url(#pee1b309c2b)">
     <use style="fill:#7fc97f;stroke:#7fc97f;" x="153.267042" xlink:href="#C0_0_357f859623" y="282.031049"/>
    </g>
    <g clip-path="url(#pee1b309c2b)">
     <use style="fill:#7fc97f;stroke:#7fc97f;" x="144.539492" xlink:href="#C0_0_357f859623" y="278.160918"/>
    </g>
    <g clip-path="url(#pee1b309c2b)">
     <use style="fill:#7fc97f;stroke:#7fc97f;" x="125.614514" xlink:href="#C0_0_357f859623" y="275.417352"/>
    </g>
    <g clip-path="url(#pee1b309c2b)">
     <use style="fill:#666666;stroke:#666666;" x="141.734311" xlink:href="#C0_0_357f859623" y="99.247257"/>
    </g>
    <g clip-path="url(#pee1b309c2b)">
     <use style="fill:#bf5b17;stroke:#bf5b17;" x="160.150381" xlink:href="#C0_0_357f859623" y="113.524225"/>
    </g>
    <g clip-path="url(#pee1b309c2b)">
     <use style="fill:#bf5b17;stroke:#bf5b17;" x="152.658762" xlink:href="#C0_0_357f859623" y="123.609806"/>
    </g>
    <g clip-path="url(#pee1b309c2b)">
     <use style="fill:#666666;stroke:#666666;" x="112.463606" xlink:href="#C0_0_357f859623" y="140.214825"/>
    </g>
    <g clip-path="url(#pee1b309c2b)">
     <use style="fill:#666666;stroke:#666666;" x="114.368543" xlink:href="#C0_0_357f859623" y="114.365721"/>
    </g>
    <g clip-path="url(#pee1b309c2b)">
     <use style="fill:#386cb0;stroke:#386cb0;" x="328.342708" xlink:href="#C0_0_357f859623" y="236.053304"/>
    </g>
    <g clip-path="url(#pee1b309c2b)">
     <use style="fill:#386cb0;stroke:#386cb0;" x="366.911893" xlink:href="#C0_0_357f859623" y="185.962104"/>
    </g>
    <g clip-path="url(#pee1b309c2b)">
     <use style="fill:#666666;stroke:#666666;" x="104.869904" xlink:href="#C0_0_357f859623" y="104.57794"/>
    </g>
    <g clip-path="url(#pee1b309c2b)">
     <use style="fill:#bf5b17;stroke:#bf5b17;" x="170.39634" xlink:href="#C0_0_357f859623" y="144.353366"/>
    </g>
    <g clip-path="url(#pee1b309c2b)">
     <use style="fill:#7fc97f;stroke:#7fc97f;" x="207.183804" xlink:href="#C0_0_357f859623" y="180.463582"/>
    </g>
    <g clip-path="url(#pee1b309c2b)">
     <use style="fill:#7fc97f;stroke:#7fc97f;" x="258.846115" xlink:href="#C0_0_357f859623" y="235.909907"/>
    </g>
    <g clip-path="url(#pee1b309c2b)">
     <use style="fill:#386cb0;stroke:#386cb0;" x="266.18241" xlink:href="#C0_0_357f859623" y="233.065867"/>
    </g>
    <g clip-path="url(#pee1b309c2b)">
     <use style="fill:#386cb0;stroke:#386cb0;" x="293.286104" xlink:href="#C0_0_357f859623" y="146.135122"/>
    </g>
    <g clip-path="url(#pee1b309c2b)">
     <use style="fill:#386cb0;stroke:#386cb0;" x="338.898132" xlink:href="#C0_0_357f859623" y="136.898981"/>
    </g>
    <g clip-path="url(#pee1b309c2b)">
     <use style="fill:#666666;stroke:#666666;" x="91.638596" xlink:href="#C0_0_357f859623" y="91.116365"/>
    </g>
    <g clip-path="url(#pee1b309c2b)">
     <use style="fill:#386cb0;stroke:#386cb0;" x="337.217085" xlink:href="#C0_0_357f859623" y="191.341467"/>
    </g>
    <g clip-path="url(#pee1b309c2b)">
     <use style="fill:#7fc97f;stroke:#7fc97f;" x="136.964162" xlink:href="#C0_0_357f859623" y="181.298531"/>
    </g>
    <g clip-path="url(#pee1b309c2b)">
     <use style="fill:#bf5b17;stroke:#bf5b17;" x="187.159174" xlink:href="#C0_0_357f859623" y="153.137923"/>
    </g>
    <g clip-path="url(#pee1b309c2b)">
     <use style="fill:#7fc97f;stroke:#7fc97f;" x="158.536543" xlink:href="#C0_0_357f859623" y="166.8648"/>
    </g>
    <g clip-path="url(#pee1b309c2b)">
     <use style="fill:#bf5b17;stroke:#bf5b17;" x="140.880882" xlink:href="#C0_0_357f859623" y="134.936979"/>
    </g>
    <g clip-path="url(#pee1b309c2b)">
     <use style="fill:#666666;stroke:#666666;" x="136.919151" xlink:href="#C0_0_357f859623" y="117.363612"/>
    </g>
    <g clip-path="url(#pee1b309c2b)">
     <use style="fill:#386cb0;stroke:#386cb0;" x="395.68581" xlink:href="#C0_0_357f859623" y="190.099462"/>
    </g>
    <g clip-path="url(#pee1b309c2b)">
     <use style="fill:#666666;stroke:#666666;" x="95.282849" xlink:href="#C0_0_357f859623" y="75.731903"/>
    </g>
    <g clip-path="url(#pee1b309c2b)">
     <use style="fill:#bf5b17;stroke:#bf5b17;" x="206.313222" xlink:href="#C0_0_357f859623" y="141.057348"/>
    </g>
    <g clip-path="url(#pee1b309c2b)">
     <use style="fill:#7fc97f;stroke:#7fc97f;" x="210.173035" xlink:href="#C0_0_357f859623" y="233.007429"/>
    </g>
    <g clip-path="url(#pee1b309c2b)">
     <use style="fill:#666666;stroke:#666666;" x="117.595289" xlink:href="#C0_0_357f859623" y="81.92821"/>
    </g>
    <g clip-path="url(#pee1b309c2b)">
     <use style="fill:#bf5b17;stroke:#bf5b17;" x="196.937089" xlink:href="#C0_0_357f859623" y="116.089279"/>
    </g>
    <g clip-path="url(#pee1b309c2b)">
     <use style="fill:#bf5b17;stroke:#bf5b17;" x="206.311504" xlink:href="#C0_0_357f859623" y="141.063425"/>
    </g>
    <g clip-path="url(#pee1b309c2b)">
     <use style="fill:#bf5b17;stroke:#bf5b17;" x="206.319819" xlink:href="#C0_0_357f859623" y="141.067531"/>
    </g>
    <g clip-path="url(#pee1b309c2b)">
     <use style="fill:#7fc97f;stroke:#7fc97f;" x="115.352942" xlink:href="#C0_0_357f859623" y="243.599803"/>
    </g>
    <g clip-path="url(#pee1b309c2b)">
     <use style="fill:#7fc97f;stroke:#7fc97f;" x="163.241553" xlink:href="#C0_0_357f859623" y="241.766049"/>
    </g>
    <g clip-path="url(#pee1b309c2b)">
     <use style="fill:#fdc086;stroke:#fdc086;" x="211.096031" xlink:href="#C0_0_357f859623" y="272.765253"/>
    </g>
    <g clip-path="url(#pee1b309c2b)">
     <use style="fill:#fdc086;stroke:#fdc086;" x="267.299108" xlink:href="#C0_0_357f859623" y="289.191386"/>
    </g>
    <g clip-path="url(#pee1b309c2b)">
     <use style="fill:#fdc086;stroke:#fdc086;" x="230.11266" xlink:href="#C0_0_357f859623" y="290.626646"/>
    </g>
    <g clip-path="url(#pee1b309c2b)">
     <use style="fill:#fdc086;stroke:#fdc086;" x="260.714314" xlink:href="#C0_0_357f859623" y="295.406406"/>
    </g>
    <g clip-path="url(#pee1b309c2b)">
     <use style="fill:#7fc97f;stroke:#7fc97f;" x="118.494979" xlink:href="#C0_0_357f859623" y="196.066611"/>
    </g>
    <g clip-path="url(#pee1b309c2b)">
     <use style="fill:#666666;stroke:#666666;" x="132.893872" xlink:href="#C0_0_357f859623" y="83.014941"/>
    </g>
    <g clip-path="url(#pee1b309c2b)">
     <use style="fill:#bf5b17;stroke:#bf5b17;" x="169.348675" xlink:href="#C0_0_357f859623" y="96.322965"/>
    </g>
    <g clip-path="url(#pee1b309c2b)">
     <use style="fill:#386cb0;stroke:#386cb0;" x="383.441785" xlink:href="#C0_0_357f859623" y="184.673913"/>
    </g>
    <g clip-path="url(#pee1b309c2b)">
     <use style="fill:#386cb0;stroke:#386cb0;" x="382.586196" xlink:href="#C0_0_357f859623" y="176.323946"/>
    </g>
    <g clip-path="url(#pee1b309c2b)">
     <use style="fill:#386cb0;stroke:#386cb0;" x="398.418478" xlink:href="#C0_0_357f859623" y="183.829269"/>
    </g>
    <g clip-path="url(#pee1b309c2b)">
     <use style="fill:#7fc97f;stroke:#7fc97f;" x="234.329345" xlink:href="#C0_0_357f859623" y="223.96167"/>
    </g>
    <g clip-path="url(#pee1b309c2b)">
     <use style="fill:#fdc086;stroke:#fdc086;" x="227.901697" xlink:href="#C0_0_357f859623" y="195.315274"/>
    </g>
    <g clip-path="url(#pee1b309c2b)">
     <use style="fill:#fdc086;stroke:#fdc086;" x="73.901522" xlink:href="#C0_0_357f859623" y="144.949593"/>
    </g>
    <g clip-path="url(#pee1b309c2b)">
     <use style="fill:#666666;stroke:#666666;" x="98.044933" xlink:href="#C0_0_357f859623" y="144.191733"/>
    </g>
    <g clip-path="url(#pee1b309c2b)">
     <use style="fill:#fdc086;stroke:#fdc086;" x="219.831338" xlink:href="#C0_0_357f859623" y="280.176768"/>
    </g>
    <g clip-path="url(#pee1b309c2b)">
     <use style="fill:#bf5b17;stroke:#bf5b17;" x="183.245883" xlink:href="#C0_0_357f859623" y="141.797646"/>
    </g>
    <g clip-path="url(#pee1b309c2b)">
     <use style="fill:#7fc97f;stroke:#7fc97f;" x="153.356222" xlink:href="#C0_0_357f859623" y="245.539185"/>
    </g>
    <g clip-path="url(#pee1b309c2b)">
     <use style="fill:#7fc97f;stroke:#7fc97f;" x="161.204302" xlink:href="#C0_0_357f859623" y="237.510964"/>
    </g>
    <g clip-path="url(#pee1b309c2b)">
     <use style="fill:#7fc97f;stroke:#7fc97f;" x="132.667849" xlink:href="#C0_0_357f859623" y="235.734461"/>
    </g>
    <g clip-path="url(#pee1b309c2b)">
     <use style="fill:#7fc97f;stroke:#7fc97f;" x="257.966539" xlink:href="#C0_0_357f859623" y="236.367764"/>
    </g>
    <g clip-path="url(#pee1b309c2b)">
     <use style="fill:#7fc97f;stroke:#7fc97f;" x="242.761604" xlink:href="#C0_0_357f859623" y="228.032773"/>
    </g>
    <g clip-path="url(#pee1b309c2b)">
     <use style="fill:#7fc97f;stroke:#7fc97f;" x="213.848108" xlink:href="#C0_0_357f859623" y="212.820606"/>
    </g>
    <g clip-path="url(#pee1b309c2b)">
     <use style="fill:#386cb0;stroke:#386cb0;" x="332.821954" xlink:href="#C0_0_357f859623" y="154.659392"/>
    </g>
    <g clip-path="url(#pee1b309c2b)">
     <use style="fill:#386cb0;stroke:#386cb0;" x="345.739241" xlink:href="#C0_0_357f859623" y="181.141486"/>
    </g>
    <g clip-path="url(#pee1b309c2b)">
     <use style="fill:#386cb0;stroke:#386cb0;" x="345.953735" xlink:href="#C0_0_357f859623" y="165.821676"/>
    </g>
    <g clip-path="url(#pee1b309c2b)">
     <use style="fill:#7fc97f;stroke:#7fc97f;" x="153.6503" xlink:href="#C0_0_357f859623" y="257.305108"/>
    </g>
    <g clip-path="url(#pee1b309c2b)">
     <use style="fill:#fdc086;stroke:#fdc086;" x="267.587951" xlink:href="#C0_0_357f859623" y="288.885739"/>
    </g>
    <g clip-path="url(#pee1b309c2b)">
     <use style="fill:#fdc086;stroke:#fdc086;" x="247.710412" xlink:href="#C0_0_357f859623" y="189.233983"/>
    </g>
    <g clip-path="url(#pee1b309c2b)">
     <use style="fill:#fdc086;stroke:#fdc086;" x="204.211924" xlink:href="#C0_0_357f859623" y="261.144299"/>
    </g>
    <g clip-path="url(#pee1b309c2b)">
     <use style="fill:#7fc97f;stroke:#7fc97f;" x="121.473943" xlink:href="#C0_0_357f859623" y="179.39612"/>
    </g>
    <g clip-path="url(#pee1b309c2b)">
     <use style="fill:#386cb0;stroke:#386cb0;" x="360.315409" xlink:href="#C0_0_357f859623" y="218.042462"/>
    </g>
    <g clip-path="url(#pee1b309c2b)">
     <use style="fill:#386cb0;stroke:#386cb0;" x="360.054855" xlink:href="#C0_0_357f859623" y="218.042589"/>
    </g>
    <g clip-path="url(#pee1b309c2b)">
     <use style="fill:#7fc97f;stroke:#7fc97f;" x="123.763732" xlink:href="#C0_0_357f859623" y="172.443883"/>
    </g>
    <g clip-path="url(#pee1b309c2b)">
     <use style="fill:#fdc086;stroke:#fdc086;" x="129.799935" xlink:href="#C0_0_357f859623" y="157.701"/>
    </g>
    <g clip-path="url(#pee1b309c2b)">
     <use style="fill:#386cb0;stroke:#386cb0;" x="383.615982" xlink:href="#C0_0_357f859623" y="162.665379"/>
    </g>
    <g clip-path="url(#pee1b309c2b)">
     <use style="fill:#7fc97f;stroke:#7fc97f;" x="200.193222" xlink:href="#C0_0_357f859623" y="213.707921"/>
    </g>
    <g clip-path="url(#pee1b309c2b)">
     <use style="fill:#386cb0;stroke:#386cb0;" x="322.566352" xlink:href="#C0_0_357f859623" y="223.512595"/>
    </g>
    <g clip-path="url(#pee1b309c2b)">
     <use style="fill:#bf5b17;stroke:#bf5b17;" x="174.543202" xlink:href="#C0_0_357f859623" y="126.744978"/>
    </g>
    <g clip-path="url(#pee1b309c2b)">
     <use style="fill:#7fc97f;stroke:#7fc97f;" x="193.996254" xlink:href="#C0_0_357f859623" y="207.08622"/>
    </g>
    <g clip-path="url(#pee1b309c2b)">
     <use style="fill:#bf5b17;stroke:#bf5b17;" x="174.538561" xlink:href="#C0_0_357f859623" y="126.758586"/>
    </g>
    <g clip-path="url(#pee1b309c2b)">
     <use style="fill:#7fc97f;stroke:#7fc97f;" x="108.267045" xlink:href="#C0_0_357f859623" y="236.343044"/>
    </g>
    <g clip-path="url(#pee1b309c2b)">
     <use style="fill:#7fc97f;stroke:#7fc97f;" x="128.388202" xlink:href="#C0_0_357f859623" y="276.81968"/>
    </g>
    <g clip-path="url(#pee1b309c2b)">
     <use style="fill:#386cb0;stroke:#386cb0;" x="286.279052" xlink:href="#C0_0_357f859623" y="233.197868"/>
    </g>
    <g clip-path="url(#pee1b309c2b)">
     <use style="fill:#7fc97f;stroke:#7fc97f;" x="108.289647" xlink:href="#C0_0_357f859623" y="213.485795"/>
    </g>
    <g clip-path="url(#pee1b309c2b)">
     <use style="fill:#386cb0;stroke:#386cb0;" x="388.259772" xlink:href="#C0_0_357f859623" y="192.555602"/>
    </g>
    <g clip-path="url(#pee1b309c2b)">
     <use style="fill:#fdc086;stroke:#fdc086;" x="236.285405" xlink:href="#C0_0_357f859623" y="182.645808"/>
    </g>
    <g clip-path="url(#pee1b309c2b)">
     <use style="fill:#386cb0;stroke:#386cb0;" x="331.620668" xlink:href="#C0_0_357f859623" y="193.046957"/>
    </g>
    <g clip-path="url(#pee1b309c2b)">
     <use style="fill:#fdc086;stroke:#fdc086;" x="255.893024" xlink:href="#C0_0_357f859623" y="168.101566"/>
    </g>
    <g clip-path="url(#pee1b309c2b)">
     <use style="fill:#7fc97f;stroke:#7fc97f;" x="149.155848" xlink:href="#C0_0_357f859623" y="230.898335"/>
    </g>
    <g clip-path="url(#pee1b309c2b)">
     <use style="fill:#fdc086;stroke:#fdc086;" x="186.594661" xlink:href="#C0_0_357f859623" y="218.121486"/>
    </g>
    <g clip-path="url(#pee1b309c2b)">
     <use style="fill:#386cb0;stroke:#386cb0;" x="348.448777" xlink:href="#C0_0_357f859623" y="197.953871"/>
    </g>
    <g clip-path="url(#pee1b309c2b)">
     <use style="fill:#bf5b17;stroke:#bf5b17;" x="193.210167" xlink:href="#C0_0_357f859623" y="130.765877"/>
    </g>
    <g clip-path="url(#pee1b309c2b)">
     <use style="fill:#386cb0;stroke:#386cb0;" x="299.554138" xlink:href="#C0_0_357f859623" y="172.759291"/>
    </g>
    <g clip-path="url(#pee1b309c2b)">
     <use style="fill:#fdc086;stroke:#fdc086;" x="182.614178" xlink:href="#C0_0_357f859623" y="221.522069"/>
    </g>
    <g clip-path="url(#pee1b309c2b)">
     <use style="fill:#7fc97f;stroke:#7fc97f;" x="122.71973" xlink:href="#C0_0_357f859623" y="165.525233"/>
    </g>
    <g clip-path="url(#pee1b309c2b)">
     <use style="fill:#386cb0;stroke:#386cb0;" x="396.578218" xlink:href="#C0_0_357f859623" y="177.040586"/>
    </g>
    <g clip-path="url(#pee1b309c2b)">
     <use style="fill:#bf5b17;stroke:#bf5b17;" x="209.144896" xlink:href="#C0_0_357f859623" y="134.477098"/>
    </g>
    <g clip-path="url(#pee1b309c2b)">
     <use style="fill:#666666;stroke:#666666;" x="129.944833" xlink:href="#C0_0_357f859623" y="96.879563"/>
    </g>
    <g clip-path="url(#pee1b309c2b)">
     <use style="fill:#386cb0;stroke:#386cb0;" x="302.204278" xlink:href="#C0_0_357f859623" y="202.754672"/>
    </g>
    <g clip-path="url(#pee1b309c2b)">
     <use style="fill:#386cb0;stroke:#386cb0;" x="339.130758" xlink:href="#C0_0_357f859623" y="212.46019"/>
    </g>
    <g clip-path="url(#pee1b309c2b)">
     <use style="fill:#386cb0;stroke:#386cb0;" x="386.189643" xlink:href="#C0_0_357f859623" y="191.252195"/>
    </g>
    <g clip-path="url(#pee1b309c2b)">
     <use style="fill:#386cb0;stroke:#386cb0;" x="322.566414" xlink:href="#C0_0_357f859623" y="223.512658"/>
    </g>
    <g clip-path="url(#pee1b309c2b)">
     <use style="fill:#666666;stroke:#666666;" x="115.081204" xlink:href="#C0_0_357f859623" y="53.649594"/>
    </g>
    <g clip-path="url(#pee1b309c2b)">
     <use style="fill:#666666;stroke:#666666;" x="127.407749" xlink:href="#C0_0_357f859623" y="110.626549"/>
    </g>
    <g clip-path="url(#pee1b309c2b)">
     <use style="fill:#386cb0;stroke:#386cb0;" x="322.560178" xlink:href="#C0_0_357f859623" y="223.508338"/>
    </g>
    <g clip-path="url(#pee1b309c2b)">
     <use style="fill:#386cb0;stroke:#386cb0;" x="382.604946" xlink:href="#C0_0_357f859623" y="176.294039"/>
    </g>
    <g clip-path="url(#pee1b309c2b)">
     <use style="fill:#bf5b17;stroke:#bf5b17;" x="239.453184" xlink:href="#C0_0_357f859623" y="127.608005"/>
    </g>
    <g clip-path="url(#pee1b309c2b)">
     <use style="fill:#386cb0;stroke:#386cb0;" x="322.574543" xlink:href="#C0_0_357f859623" y="223.51857"/>
    </g>
    <g clip-path="url(#pee1b309c2b)">
     <use style="fill:#386cb0;stroke:#386cb0;" x="358.641113" xlink:href="#C0_0_357f859623" y="186.178639"/>
    </g>
    <g clip-path="url(#pee1b309c2b)">
     <use style="fill:#7fc97f;stroke:#7fc97f;" x="226.482068" xlink:href="#C0_0_357f859623" y="243.699846"/>
    </g>
    <g clip-path="url(#pee1b309c2b)">
     <use style="fill:#bf5b17;stroke:#bf5b17;" x="230.588624" xlink:href="#C0_0_357f859623" y="97.15401"/>
    </g>
    <g clip-path="url(#pee1b309c2b)">
     <use style="fill:#7fc97f;stroke:#7fc97f;" x="96.132068" xlink:href="#C0_0_357f859623" y="218.961094"/>
    </g>
    <g clip-path="url(#pee1b309c2b)">
     <use style="fill:#7fc97f;stroke:#7fc97f;" x="120.734104" xlink:href="#C0_0_357f859623" y="248.914835"/>
    </g>
    <g clip-path="url(#pee1b309c2b)">
     <use style="fill:#386cb0;stroke:#386cb0;" x="392.676575" xlink:href="#C0_0_357f859623" y="174.151831"/>
    </g>
    <g clip-path="url(#pee1b309c2b)">
     <use style="fill:#386cb0;stroke:#386cb0;" x="322.595536" xlink:href="#C0_0_357f859623" y="223.533331"/>
    </g>
    <g clip-path="url(#pee1b309c2b)">
     <use style="fill:#386cb0;stroke:#386cb0;" x="341.41429" xlink:href="#C0_0_357f859623" y="168.847427"/>
    </g>
   </g>
   <g id="matplotlib.axis_1">
    <g id="xtick_1">
     <g id="line2d_1">
      <defs>
       <path d="M 0 0 
L 0 3.5 
" id="m91513ea710" style="stroke:#000000;stroke-width:0.8;"/>
      </defs>
      <g>
       <use style="stroke:#000000;stroke-width:0.8;" x="92.857026" xlink:href="#m91513ea710" y="307.584"/>
      </g>
     </g>
     <g id="text_1">
      <!-- −2 -->
      <defs>
       <path d="M 10.59375 35.5 
L 73.1875 35.5 
L 73.1875 27.203125 
L 10.59375 27.203125 
z
" id="DejaVuSans-2212"/>
       <path d="M 19.1875 8.296875 
L 53.609375 8.296875 
L 53.609375 0 
L 7.328125 0 
L 7.328125 8.296875 
Q 12.9375 14.109375 22.625 23.890625 
Q 32.328125 33.6875 34.8125 36.53125 
Q 39.546875 41.84375 41.421875 45.53125 
Q 43.3125 49.21875 43.3125 52.78125 
Q 43.3125 58.59375 39.234375 62.25 
Q 35.15625 65.921875 28.609375 65.921875 
Q 23.96875 65.921875 18.8125 64.3125 
Q 13.671875 62.703125 7.8125 59.421875 
L 7.8125 69.390625 
Q 13.765625 71.78125 18.9375 73 
Q 24.125 74.21875 28.421875 74.21875 
Q 39.75 74.21875 46.484375 68.546875 
Q 53.21875 62.890625 53.21875 53.421875 
Q 53.21875 48.921875 51.53125 44.890625 
Q 49.859375 40.875 45.40625 35.40625 
Q 44.1875 33.984375 37.640625 27.21875 
Q 31.109375 20.453125 19.1875 8.296875 
z
" id="DejaVuSans-32"/>
      </defs>
      <g transform="translate(85.485932 322.182437)scale(0.1 -0.1)">
       <use xlink:href="#DejaVuSans-2212"/>
       <use x="83.789062" xlink:href="#DejaVuSans-32"/>
      </g>
     </g>
    </g>
    <g id="xtick_2">
     <g id="line2d_2">
      <g>
       <use style="stroke:#000000;stroke-width:0.8;" x="136.018281" xlink:href="#m91513ea710" y="307.584"/>
      </g>
     </g>
     <g id="text_2">
      <!-- 0 -->
      <defs>
       <path d="M 31.78125 66.40625 
Q 24.171875 66.40625 20.328125 58.90625 
Q 16.5 51.421875 16.5 36.375 
Q 16.5 21.390625 20.328125 13.890625 
Q 24.171875 6.390625 31.78125 6.390625 
Q 39.453125 6.390625 43.28125 13.890625 
Q 47.125 21.390625 47.125 36.375 
Q 47.125 51.421875 43.28125 58.90625 
Q 39.453125 66.40625 31.78125 66.40625 
z
M 31.78125 74.21875 
Q 44.046875 74.21875 50.515625 64.515625 
Q 56.984375 54.828125 56.984375 36.375 
Q 56.984375 17.96875 50.515625 8.265625 
Q 44.046875 -1.421875 31.78125 -1.421875 
Q 19.53125 -1.421875 13.0625 8.265625 
Q 6.59375 17.96875 6.59375 36.375 
Q 6.59375 54.828125 13.0625 64.515625 
Q 19.53125 74.21875 31.78125 74.21875 
z
" id="DejaVuSans-30"/>
      </defs>
      <g transform="translate(132.837031 322.182437)scale(0.1 -0.1)">
       <use xlink:href="#DejaVuSans-30"/>
      </g>
     </g>
    </g>
    <g id="xtick_3">
     <g id="line2d_3">
      <g>
       <use style="stroke:#000000;stroke-width:0.8;" x="179.179536" xlink:href="#m91513ea710" y="307.584"/>
      </g>
     </g>
     <g id="text_3">
      <!-- 2 -->
      <g transform="translate(175.998286 322.182437)scale(0.1 -0.1)">
       <use xlink:href="#DejaVuSans-32"/>
      </g>
     </g>
    </g>
    <g id="xtick_4">
     <g id="line2d_4">
      <g>
       <use style="stroke:#000000;stroke-width:0.8;" x="222.340791" xlink:href="#m91513ea710" y="307.584"/>
      </g>
     </g>
     <g id="text_4">
      <!-- 4 -->
      <defs>
       <path d="M 37.796875 64.3125 
L 12.890625 25.390625 
L 37.796875 25.390625 
z
M 35.203125 72.90625 
L 47.609375 72.90625 
L 47.609375 25.390625 
L 58.015625 25.390625 
L 58.015625 17.1875 
L 47.609375 17.1875 
L 47.609375 0 
L 37.796875 0 
L 37.796875 17.1875 
L 4.890625 17.1875 
L 4.890625 26.703125 
z
" id="DejaVuSans-34"/>
      </defs>
      <g transform="translate(219.159541 322.182437)scale(0.1 -0.1)">
       <use xlink:href="#DejaVuSans-34"/>
      </g>
     </g>
    </g>
    <g id="xtick_5">
     <g id="line2d_5">
      <g>
       <use style="stroke:#000000;stroke-width:0.8;" x="265.502047" xlink:href="#m91513ea710" y="307.584"/>
      </g>
     </g>
     <g id="text_5">
      <!-- 6 -->
      <defs>
       <path d="M 33.015625 40.375 
Q 26.375 40.375 22.484375 35.828125 
Q 18.609375 31.296875 18.609375 23.390625 
Q 18.609375 15.53125 22.484375 10.953125 
Q 26.375 6.390625 33.015625 6.390625 
Q 39.65625 6.390625 43.53125 10.953125 
Q 47.40625 15.53125 47.40625 23.390625 
Q 47.40625 31.296875 43.53125 35.828125 
Q 39.65625 40.375 33.015625 40.375 
z
M 52.59375 71.296875 
L 52.59375 62.3125 
Q 48.875 64.0625 45.09375 64.984375 
Q 41.3125 65.921875 37.59375 65.921875 
Q 27.828125 65.921875 22.671875 59.328125 
Q 17.53125 52.734375 16.796875 39.40625 
Q 19.671875 43.65625 24.015625 45.921875 
Q 28.375 48.1875 33.59375 48.1875 
Q 44.578125 48.1875 50.953125 41.515625 
Q 57.328125 34.859375 57.328125 23.390625 
Q 57.328125 12.15625 50.6875 5.359375 
Q 44.046875 -1.421875 33.015625 -1.421875 
Q 20.359375 -1.421875 13.671875 8.265625 
Q 6.984375 17.96875 6.984375 36.375 
Q 6.984375 53.65625 15.1875 63.9375 
Q 23.390625 74.21875 37.203125 74.21875 
Q 40.921875 74.21875 44.703125 73.484375 
Q 48.484375 72.75 52.59375 71.296875 
z
" id="DejaVuSans-36"/>
      </defs>
      <g transform="translate(262.320797 322.182437)scale(0.1 -0.1)">
       <use xlink:href="#DejaVuSans-36"/>
      </g>
     </g>
    </g>
    <g id="xtick_6">
     <g id="line2d_6">
      <g>
       <use style="stroke:#000000;stroke-width:0.8;" x="308.663302" xlink:href="#m91513ea710" y="307.584"/>
      </g>
     </g>
     <g id="text_6">
      <!-- 8 -->
      <defs>
       <path d="M 31.78125 34.625 
Q 24.75 34.625 20.71875 30.859375 
Q 16.703125 27.09375 16.703125 20.515625 
Q 16.703125 13.921875 20.71875 10.15625 
Q 24.75 6.390625 31.78125 6.390625 
Q 38.8125 6.390625 42.859375 10.171875 
Q 46.921875 13.96875 46.921875 20.515625 
Q 46.921875 27.09375 42.890625 30.859375 
Q 38.875 34.625 31.78125 34.625 
z
M 21.921875 38.8125 
Q 15.578125 40.375 12.03125 44.71875 
Q 8.5 49.078125 8.5 55.328125 
Q 8.5 64.0625 14.71875 69.140625 
Q 20.953125 74.21875 31.78125 74.21875 
Q 42.671875 74.21875 48.875 69.140625 
Q 55.078125 64.0625 55.078125 55.328125 
Q 55.078125 49.078125 51.53125 44.71875 
Q 48 40.375 41.703125 38.8125 
Q 48.828125 37.15625 52.796875 32.3125 
Q 56.78125 27.484375 56.78125 20.515625 
Q 56.78125 9.90625 50.3125 4.234375 
Q 43.84375 -1.421875 31.78125 -1.421875 
Q 19.734375 -1.421875 13.25 4.234375 
Q 6.78125 9.90625 6.78125 20.515625 
Q 6.78125 27.484375 10.78125 32.3125 
Q 14.796875 37.15625 21.921875 38.8125 
z
M 18.3125 54.390625 
Q 18.3125 48.734375 21.84375 45.5625 
Q 25.390625 42.390625 31.78125 42.390625 
Q 38.140625 42.390625 41.71875 45.5625 
Q 45.3125 48.734375 45.3125 54.390625 
Q 45.3125 60.0625 41.71875 63.234375 
Q 38.140625 66.40625 31.78125 66.40625 
Q 25.390625 66.40625 21.84375 63.234375 
Q 18.3125 60.0625 18.3125 54.390625 
z
" id="DejaVuSans-38"/>
      </defs>
      <g transform="translate(305.482052 322.182437)scale(0.1 -0.1)">
       <use xlink:href="#DejaVuSans-38"/>
      </g>
     </g>
    </g>
    <g id="xtick_7">
     <g id="line2d_7">
      <g>
       <use style="stroke:#000000;stroke-width:0.8;" x="351.824557" xlink:href="#m91513ea710" y="307.584"/>
      </g>
     </g>
     <g id="text_7">
      <!-- 10 -->
      <defs>
       <path d="M 12.40625 8.296875 
L 28.515625 8.296875 
L 28.515625 63.921875 
L 10.984375 60.40625 
L 10.984375 69.390625 
L 28.421875 72.90625 
L 38.28125 72.90625 
L 38.28125 8.296875 
L 54.390625 8.296875 
L 54.390625 0 
L 12.40625 0 
z
" id="DejaVuSans-31"/>
      </defs>
      <g transform="translate(345.462057 322.182437)scale(0.1 -0.1)">
       <use xlink:href="#DejaVuSans-31"/>
       <use x="63.623047" xlink:href="#DejaVuSans-30"/>
      </g>
     </g>
    </g>
    <g id="xtick_8">
     <g id="line2d_8">
      <g>
       <use style="stroke:#000000;stroke-width:0.8;" x="394.985812" xlink:href="#m91513ea710" y="307.584"/>
      </g>
     </g>
     <g id="text_8">
      <!-- 12 -->
      <g transform="translate(388.623312 322.182437)scale(0.1 -0.1)">
       <use xlink:href="#DejaVuSans-31"/>
       <use x="63.623047" xlink:href="#DejaVuSans-32"/>
      </g>
     </g>
    </g>
   </g>
   <g id="matplotlib.axis_2">
    <g id="ytick_1">
     <g id="line2d_9">
      <defs>
       <path d="M 0 0 
L -3.5 0 
" id="m2a197b6017" style="stroke:#000000;stroke-width:0.8;"/>
      </defs>
      <g>
       <use style="stroke:#000000;stroke-width:0.8;" x="57.6" xlink:href="#m2a197b6017" y="271.954547"/>
      </g>
     </g>
     <g id="text_9">
      <!-- −6 -->
      <g transform="translate(35.857813 275.753766)scale(0.1 -0.1)">
       <use xlink:href="#DejaVuSans-2212"/>
       <use x="83.789062" xlink:href="#DejaVuSans-36"/>
      </g>
     </g>
    </g>
    <g id="ytick_2">
     <g id="line2d_10">
      <g>
       <use style="stroke:#000000;stroke-width:0.8;" x="57.6" xlink:href="#m2a197b6017" y="233.80843"/>
      </g>
     </g>
     <g id="text_10">
      <!-- −4 -->
      <g transform="translate(35.857813 237.607649)scale(0.1 -0.1)">
       <use xlink:href="#DejaVuSans-2212"/>
       <use x="83.789062" xlink:href="#DejaVuSans-34"/>
      </g>
     </g>
    </g>
    <g id="ytick_3">
     <g id="line2d_11">
      <g>
       <use style="stroke:#000000;stroke-width:0.8;" x="57.6" xlink:href="#m2a197b6017" y="195.662314"/>
      </g>
     </g>
     <g id="text_11">
      <!-- −2 -->
      <g transform="translate(35.857813 199.461532)scale(0.1 -0.1)">
       <use xlink:href="#DejaVuSans-2212"/>
       <use x="83.789062" xlink:href="#DejaVuSans-32"/>
      </g>
     </g>
    </g>
    <g id="ytick_4">
     <g id="line2d_12">
      <g>
       <use style="stroke:#000000;stroke-width:0.8;" x="57.6" xlink:href="#m2a197b6017" y="157.516197"/>
      </g>
     </g>
     <g id="text_12">
      <!-- 0 -->
      <g transform="translate(44.2375 161.315416)scale(0.1 -0.1)">
       <use xlink:href="#DejaVuSans-30"/>
      </g>
     </g>
    </g>
    <g id="ytick_5">
     <g id="line2d_13">
      <g>
       <use style="stroke:#000000;stroke-width:0.8;" x="57.6" xlink:href="#m2a197b6017" y="119.37008"/>
      </g>
     </g>
     <g id="text_13">
      <!-- 2 -->
      <g transform="translate(44.2375 123.169299)scale(0.1 -0.1)">
       <use xlink:href="#DejaVuSans-32"/>
      </g>
     </g>
    </g>
    <g id="ytick_6">
     <g id="line2d_14">
      <g>
       <use style="stroke:#000000;stroke-width:0.8;" x="57.6" xlink:href="#m2a197b6017" y="81.223963"/>
      </g>
     </g>
     <g id="text_14">
      <!-- 4 -->
      <g transform="translate(44.2375 85.023182)scale(0.1 -0.1)">
       <use xlink:href="#DejaVuSans-34"/>
      </g>
     </g>
    </g>
    <g id="ytick_7">
     <g id="line2d_15">
      <g>
       <use style="stroke:#000000;stroke-width:0.8;" x="57.6" xlink:href="#m2a197b6017" y="43.077847"/>
      </g>
     </g>
     <g id="text_15">
      <!-- 6 -->
      <g transform="translate(44.2375 46.877065)scale(0.1 -0.1)">
       <use xlink:href="#DejaVuSans-36"/>
      </g>
     </g>
    </g>
   </g>
   <g id="patch_3">
    <path d="M 57.6 307.584 
L 57.6 41.472 
" style="fill:none;stroke:#000000;stroke-linecap:square;stroke-linejoin:miter;stroke-width:0.8;"/>
   </g>
   <g id="patch_4">
    <path d="M 414.72 307.584 
L 414.72 41.472 
" style="fill:none;stroke:#000000;stroke-linecap:square;stroke-linejoin:miter;stroke-width:0.8;"/>
   </g>
   <g id="patch_5">
    <path d="M 57.6 307.584 
L 414.72 307.584 
" style="fill:none;stroke:#000000;stroke-linecap:square;stroke-linejoin:miter;stroke-width:0.8;"/>
   </g>
   <g id="patch_6">
    <path d="M 57.6 41.472 
L 414.72 41.472 
" style="fill:none;stroke:#000000;stroke-linecap:square;stroke-linejoin:miter;stroke-width:0.8;"/>
   </g>
  </g>
 </g>
 <defs>
  <clipPath id="pee1b309c2b">
   <rect height="266.112" width="357.12" x="57.6" y="41.472"/>
  </clipPath>
 </defs>
</svg>
