<?xml version="1.0" encoding="utf-8" standalone="no"?>
<!DOCTYPE svg PUBLIC "-//W3C//DTD SVG 1.1//EN"
  "http://www.w3.org/Graphics/SVG/1.1/DTD/svg11.dtd">
<!-- Created with matplotlib (http://matplotlib.org/) -->
<svg height="345pt" version="1.1" viewBox="0 0 460 345" width="460pt" xmlns="http://www.w3.org/2000/svg" xmlns:xlink="http://www.w3.org/1999/xlink">
 <defs>
  <style type="text/css">
*{stroke-linecap:butt;stroke-linejoin:round;}
  </style>
 </defs>
 <g id="figure_1">
  <g id="patch_1">
   <path d="M 0 345.6 
L 460.8 345.6 
L 460.8 0 
L 0 0 
z
" style="fill:#ffffff;"/>
  </g>
  <g id="axes_1">
   <g id="patch_2">
    <path d="M 57.6 307.584 
L 414.72 307.584 
L 414.72 41.472 
L 57.6 41.472 
z
" style="fill:#ffffff;"/>
   </g>
   <g id="PathCollection_1">
    <defs>
     <path d="M 0 1.581139 
C 0.419323 1.581139 0.821528 1.41454 1.118034 1.118034 
C 1.41454 0.821528 1.581139 0.419323 1.581139 0 
C 1.581139 -0.419323 1.41454 -0.821528 1.118034 -1.118034 
C 0.821528 -1.41454 0.419323 -1.581139 0 -1.581139 
C -0.419323 -1.581139 -0.821528 -1.41454 -1.118034 -1.118034 
C -1.41454 -0.821528 -1.581139 -0.419323 -1.581139 0 
C -1.581139 0.419323 -1.41454 0.821528 -1.118034 1.118034 
C -0.821528 1.41454 -0.419323 1.581139 0 1.581139 
z
" id="C0_0_18b334a102"/>
    </defs>
    <g clip-path="url(#p47e8db7b69)">
     <use style="fill:#7fc97f;stroke:#7fc97f;" x="180.90346" xlink:href="#C0_0_18b334a102" y="83.975102"/>
    </g>
    <g clip-path="url(#p47e8db7b69)">
     <use style="fill:#7fc97f;stroke:#7fc97f;" x="202.410387" xlink:href="#C0_0_18b334a102" y="76.999664"/>
    </g>
    <g clip-path="url(#p47e8db7b69)">
     <use style="fill:#7fc97f;stroke:#7fc97f;" x="206.846031" xlink:href="#C0_0_18b334a102" y="94.067799"/>
    </g>
    <g clip-path="url(#p47e8db7b69)">
     <use style="fill:#7fc97f;stroke:#7fc97f;" x="184.384212" xlink:href="#C0_0_18b334a102" y="68.83814"/>
    </g>
    <g clip-path="url(#p47e8db7b69)">
     <use style="fill:#7fc97f;stroke:#7fc97f;" x="169.860597" xlink:href="#C0_0_18b334a102" y="67.450473"/>
    </g>
    <g clip-path="url(#p47e8db7b69)">
     <use style="fill:#7fc97f;stroke:#7fc97f;" x="109.798074" xlink:href="#C0_0_18b334a102" y="109.17736"/>
    </g>
    <g clip-path="url(#p47e8db7b69)">
     <use style="fill:#666666;stroke:#666666;" x="270.265764" xlink:href="#C0_0_18b334a102" y="260.757994"/>
    </g>
    <g clip-path="url(#p47e8db7b69)">
     <use style="fill:#666666;stroke:#666666;" x="279.740234" xlink:href="#C0_0_18b334a102" y="230.23819"/>
    </g>
    <g clip-path="url(#p47e8db7b69)">
     <use style="fill:#666666;stroke:#666666;" x="279.825158" xlink:href="#C0_0_18b334a102" y="295.385145"/>
    </g>
    <g clip-path="url(#p47e8db7b69)">
     <use style="fill:#666666;stroke:#666666;" x="177.71369" xlink:href="#C0_0_18b334a102" y="169.858279"/>
    </g>
    <g clip-path="url(#p47e8db7b69)">
     <use style="fill:#666666;stroke:#666666;" x="197.497682" xlink:href="#C0_0_18b334a102" y="207.167423"/>
    </g>
    <g clip-path="url(#p47e8db7b69)">
     <use style="fill:#666666;stroke:#666666;" x="229.377854" xlink:href="#C0_0_18b334a102" y="166.78133"/>
    </g>
    <g clip-path="url(#p47e8db7b69)">
     <use style="fill:#386cb0;stroke:#386cb0;" x="294.800194" xlink:href="#C0_0_18b334a102" y="102.627114"/>
    </g>
    <g clip-path="url(#p47e8db7b69)">
     <use style="fill:#7fc97f;stroke:#7fc97f;" x="83.33091" xlink:href="#C0_0_18b334a102" y="154.495156"/>
    </g>
    <g clip-path="url(#p47e8db7b69)">
     <use style="fill:#7fc97f;stroke:#7fc97f;" x="77.434854" xlink:href="#C0_0_18b334a102" y="151.670148"/>
    </g>
    <g clip-path="url(#p47e8db7b69)">
     <use style="fill:#666666;stroke:#666666;" x="263.344691" xlink:href="#C0_0_18b334a102" y="273.426537"/>
    </g>
    <g clip-path="url(#p47e8db7b69)">
     <use style="fill:#666666;stroke:#666666;" x="254.541018" xlink:href="#C0_0_18b334a102" y="273.936015"/>
    </g>
    <g clip-path="url(#p47e8db7b69)">
     <use style="fill:#666666;stroke:#666666;" x="242.501017" xlink:href="#C0_0_18b334a102" y="291.6259"/>
    </g>
    <g clip-path="url(#p47e8db7b69)">
     <use style="fill:#7fc97f;stroke:#7fc97f;" x="131.56707" xlink:href="#C0_0_18b334a102" y="158.143215"/>
    </g>
    <g clip-path="url(#p47e8db7b69)">
     <use style="fill:#7fc97f;stroke:#7fc97f;" x="149.567409" xlink:href="#C0_0_18b334a102" y="124.178536"/>
    </g>
    <g clip-path="url(#p47e8db7b69)">
     <use style="fill:#7fc97f;stroke:#7fc97f;" x="151.900451" xlink:href="#C0_0_18b334a102" y="141.408478"/>
    </g>
    <g clip-path="url(#p47e8db7b69)">
     <use style="fill:#7fc97f;stroke:#7fc97f;" x="141.411859" xlink:href="#C0_0_18b334a102" y="191.964072"/>
    </g>
    <g clip-path="url(#p47e8db7b69)">
     <use style="fill:#7fc97f;stroke:#7fc97f;" x="122.763594" xlink:href="#C0_0_18b334a102" y="104.164634"/>
    </g>
    <g clip-path="url(#p47e8db7b69)">
     <use style="fill:#386cb0;stroke:#386cb0;" x="348.485403" xlink:href="#C0_0_18b334a102" y="182.606087"/>
    </g>
    <g clip-path="url(#p47e8db7b69)">
     <use style="fill:#386cb0;stroke:#386cb0;" x="378.528969" xlink:href="#C0_0_18b334a102" y="121.394992"/>
    </g>
    <g clip-path="url(#p47e8db7b69)">
     <use style="fill:#7fc97f;stroke:#7fc97f;" x="117.974451" xlink:href="#C0_0_18b334a102" y="136.026603"/>
    </g>
    <g clip-path="url(#p47e8db7b69)">
     <use style="fill:#7fc97f;stroke:#7fc97f;" x="204.509772" xlink:href="#C0_0_18b334a102" y="121.169399"/>
    </g>
    <g clip-path="url(#p47e8db7b69)">
     <use style="fill:#666666;stroke:#666666;" x="230.331482" xlink:href="#C0_0_18b334a102" y="60.010801"/>
    </g>
    <g clip-path="url(#p47e8db7b69)">
     <use style="fill:#666666;stroke:#666666;" x="298.485379" xlink:href="#C0_0_18b334a102" y="213.669769"/>
    </g>
    <g clip-path="url(#p47e8db7b69)">
     <use style="fill:#386cb0;stroke:#386cb0;" x="303.741368" xlink:href="#C0_0_18b334a102" y="206.216759"/>
    </g>
    <g clip-path="url(#p47e8db7b69)">
     <use style="fill:#386cb0;stroke:#386cb0;" x="343.670323" xlink:href="#C0_0_18b334a102" y="66.023149"/>
    </g>
    <g clip-path="url(#p47e8db7b69)">
     <use style="fill:#386cb0;stroke:#386cb0;" x="316.479267" xlink:href="#C0_0_18b334a102" y="70.186496"/>
    </g>
    <g clip-path="url(#p47e8db7b69)">
     <use style="fill:#7fc97f;stroke:#7fc97f;" x="101.552675" xlink:href="#C0_0_18b334a102" y="135.996652"/>
    </g>
    <g clip-path="url(#p47e8db7b69)">
     <use style="fill:#386cb0;stroke:#386cb0;" x="353.341265" xlink:href="#C0_0_18b334a102" y="126.703148"/>
    </g>
    <g clip-path="url(#p47e8db7b69)">
     <use style="fill:#666666;stroke:#666666;" x="181.695651" xlink:href="#C0_0_18b334a102" y="205.532803"/>
    </g>
    <g clip-path="url(#p47e8db7b69)">
     <use style="fill:#7fc97f;stroke:#7fc97f;" x="195.191575" xlink:href="#C0_0_18b334a102" y="137.211858"/>
    </g>
    <g clip-path="url(#p47e8db7b69)">
     <use style="fill:#666666;stroke:#666666;" x="182.161089" xlink:href="#C0_0_18b334a102" y="173.088427"/>
    </g>
    <g clip-path="url(#p47e8db7b69)">
     <use style="fill:#7fc97f;stroke:#7fc97f;" x="153.687916" xlink:href="#C0_0_18b334a102" y="156.06372"/>
    </g>
    <g clip-path="url(#p47e8db7b69)">
     <use style="fill:#7fc97f;stroke:#7fc97f;" x="136.659572" xlink:href="#C0_0_18b334a102" y="132.482662"/>
    </g>
    <g clip-path="url(#p47e8db7b69)">
     <use style="fill:#386cb0;stroke:#386cb0;" x="390.874903" xlink:href="#C0_0_18b334a102" y="112.228091"/>
    </g>
    <g clip-path="url(#p47e8db7b69)">
     <use style="fill:#7fc97f;stroke:#7fc97f;" x="89.451552" xlink:href="#C0_0_18b334a102" y="133.647682"/>
    </g>
    <g clip-path="url(#p47e8db7b69)">
     <use style="fill:#7fc97f;stroke:#7fc97f;" x="181.748039" xlink:href="#C0_0_18b334a102" y="128.176553"/>
    </g>
    <g clip-path="url(#p47e8db7b69)">
     <use style="fill:#666666;stroke:#666666;" x="263.844949" xlink:href="#C0_0_18b334a102" y="201.716318"/>
    </g>
    <g clip-path="url(#p47e8db7b69)">
     <use style="fill:#7fc97f;stroke:#7fc97f;" x="103.507749" xlink:href="#C0_0_18b334a102" y="150.415678"/>
    </g>
    <g clip-path="url(#p47e8db7b69)">
     <use style="fill:#7fc97f;stroke:#7fc97f;" x="189.245085" xlink:href="#C0_0_18b334a102" y="88.031232"/>
    </g>
    <g clip-path="url(#p47e8db7b69)">
     <use style="fill:#7fc97f;stroke:#7fc97f;" x="181.744953" xlink:href="#C0_0_18b334a102" y="128.138175"/>
    </g>
    <g clip-path="url(#p47e8db7b69)">
     <use style="fill:#7fc97f;stroke:#7fc97f;" x="181.749388" xlink:href="#C0_0_18b334a102" y="128.13935"/>
    </g>
    <g clip-path="url(#p47e8db7b69)">
     <use style="fill:#666666;stroke:#666666;" x="214.647921" xlink:href="#C0_0_18b334a102" y="276.275612"/>
    </g>
    <g clip-path="url(#p47e8db7b69)">
     <use style="fill:#666666;stroke:#666666;" x="238.478432" xlink:href="#C0_0_18b334a102" y="232.33725"/>
    </g>
    <g clip-path="url(#p47e8db7b69)">
     <use style="fill:#7fc97f;stroke:#7fc97f;" x="231.827644" xlink:href="#C0_0_18b334a102" y="110.599525"/>
    </g>
    <g clip-path="url(#p47e8db7b69)">
     <use style="fill:#386cb0;stroke:#386cb0;" x="281.438652" xlink:href="#C0_0_18b334a102" y="67.022089"/>
    </g>
    <g clip-path="url(#p47e8db7b69)">
     <use style="fill:#7fc97f;stroke:#7fc97f;" x="247.540465" xlink:href="#C0_0_18b334a102" y="85.036833"/>
    </g>
    <g clip-path="url(#p47e8db7b69)">
     <use style="fill:#386cb0;stroke:#386cb0;" x="272.415701" xlink:href="#C0_0_18b334a102" y="62.281433"/>
    </g>
    <g clip-path="url(#p47e8db7b69)">
     <use style="fill:#666666;stroke:#666666;" x="182.393158" xlink:href="#C0_0_18b334a102" y="232.426103"/>
    </g>
    <g clip-path="url(#p47e8db7b69)">
     <use style="fill:#7fc97f;stroke:#7fc97f;" x="112.33048" xlink:href="#C0_0_18b334a102" y="172.001012"/>
    </g>
    <g clip-path="url(#p47e8db7b69)">
     <use style="fill:#7fc97f;stroke:#7fc97f;" x="139.477949" xlink:href="#C0_0_18b334a102" y="88.728838"/>
    </g>
    <g clip-path="url(#p47e8db7b69)">
     <use style="fill:#386cb0;stroke:#386cb0;" x="386.269415" xlink:href="#C0_0_18b334a102" y="104.495885"/>
    </g>
    <g clip-path="url(#p47e8db7b69)">
     <use style="fill:#386cb0;stroke:#386cb0;" x="394.963812" xlink:href="#C0_0_18b334a102" y="90.24136"/>
    </g>
    <g clip-path="url(#p47e8db7b69)">
     <use style="fill:#386cb0;stroke:#386cb0;" x="398.385918" xlink:href="#C0_0_18b334a102" y="98.119515"/>
    </g>
    <g clip-path="url(#p47e8db7b69)">
     <use style="fill:#666666;stroke:#666666;" x="276.847679" xlink:href="#C0_0_18b334a102" y="207.993828"/>
    </g>
    <g clip-path="url(#p47e8db7b69)">
     <use style="fill:#666666;stroke:#666666;" x="256.720678" xlink:href="#C0_0_18b334a102" y="130.707894"/>
    </g>
    <g clip-path="url(#p47e8db7b69)">
     <use style="fill:#7fc97f;stroke:#7fc97f;" x="127.964961" xlink:href="#C0_0_18b334a102" y="227.421024"/>
    </g>
    <g clip-path="url(#p47e8db7b69)">
     <use style="fill:#7fc97f;stroke:#7fc97f;" x="139.188555" xlink:href="#C0_0_18b334a102" y="210.685785"/>
    </g>
    <g clip-path="url(#p47e8db7b69)">
     <use style="fill:#7fc97f;stroke:#7fc97f;" x="237.689034" xlink:href="#C0_0_18b334a102" y="101.101425"/>
    </g>
    <g clip-path="url(#p47e8db7b69)">
     <use style="fill:#7fc97f;stroke:#7fc97f;" x="196.160945" xlink:href="#C0_0_18b334a102" y="110.451988"/>
    </g>
    <g clip-path="url(#p47e8db7b69)">
     <use style="fill:#666666;stroke:#666666;" x="234.811636" xlink:href="#C0_0_18b334a102" y="242.478808"/>
    </g>
    <g clip-path="url(#p47e8db7b69)">
     <use style="fill:#666666;stroke:#666666;" x="233.954514" xlink:href="#C0_0_18b334a102" y="226.935976"/>
    </g>
    <g clip-path="url(#p47e8db7b69)">
     <use style="fill:#666666;stroke:#666666;" x="217.477983" xlink:href="#C0_0_18b334a102" y="254.074512"/>
    </g>
    <g clip-path="url(#p47e8db7b69)">
     <use style="fill:#666666;stroke:#666666;" x="297.563546" xlink:href="#C0_0_18b334a102" y="212.5941"/>
    </g>
    <g clip-path="url(#p47e8db7b69)">
     <use style="fill:#666666;stroke:#666666;" x="284.403228" xlink:href="#C0_0_18b334a102" y="200.310365"/>
    </g>
    <g clip-path="url(#p47e8db7b69)">
     <use style="fill:#666666;stroke:#666666;" x="251.965327" xlink:href="#C0_0_18b334a102" y="201.093935"/>
    </g>
    <g clip-path="url(#p47e8db7b69)">
     <use style="fill:#386cb0;stroke:#386cb0;" x="330.153259" xlink:href="#C0_0_18b334a102" y="98.873876"/>
    </g>
    <g clip-path="url(#p47e8db7b69)">
     <use style="fill:#386cb0;stroke:#386cb0;" x="359.380031" xlink:href="#C0_0_18b334a102" y="109.112265"/>
    </g>
    <g clip-path="url(#p47e8db7b69)">
     <use style="fill:#386cb0;stroke:#386cb0;" x="348.341895" xlink:href="#C0_0_18b334a102" y="98.393357"/>
    </g>
    <g clip-path="url(#p47e8db7b69)">
     <use style="fill:#666666;stroke:#666666;" x="242.59066" xlink:href="#C0_0_18b334a102" y="255.179648"/>
    </g>
    <g clip-path="url(#p47e8db7b69)">
     <use style="fill:#386cb0;stroke:#386cb0;" x="280.281072" xlink:href="#C0_0_18b334a102" y="69.045729"/>
    </g>
    <g clip-path="url(#p47e8db7b69)">
     <use style="fill:#666666;stroke:#666666;" x="250.16812" xlink:href="#C0_0_18b334a102" y="148.171205"/>
    </g>
    <g clip-path="url(#p47e8db7b69)">
     <use style="fill:#666666;stroke:#666666;" x="232.103952" xlink:href="#C0_0_18b334a102" y="124.921226"/>
    </g>
    <g clip-path="url(#p47e8db7b69)">
     <use style="fill:#666666;stroke:#666666;" x="171.489578" xlink:href="#C0_0_18b334a102" y="217.754082"/>
    </g>
    <g clip-path="url(#p47e8db7b69)">
     <use style="fill:#386cb0;stroke:#386cb0;" x="335.969341" xlink:href="#C0_0_18b334a102" y="119.224812"/>
    </g>
    <g clip-path="url(#p47e8db7b69)">
     <use style="fill:#386cb0;stroke:#386cb0;" x="335.968214" xlink:href="#C0_0_18b334a102" y="119.202176"/>
    </g>
    <g clip-path="url(#p47e8db7b69)">
     <use style="fill:#7fc97f;stroke:#7fc97f;" x="168.023678" xlink:href="#C0_0_18b334a102" y="209.663267"/>
    </g>
    <g clip-path="url(#p47e8db7b69)">
     <use style="fill:#7fc97f;stroke:#7fc97f;" x="161.36545" xlink:href="#C0_0_18b334a102" y="190.419066"/>
    </g>
    <g clip-path="url(#p47e8db7b69)">
     <use style="fill:#386cb0;stroke:#386cb0;" x="380.941977" xlink:href="#C0_0_18b334a102" y="76.31248"/>
    </g>
    <g clip-path="url(#p47e8db7b69)">
     <use style="fill:#666666;stroke:#666666;" x="255.259097" xlink:href="#C0_0_18b334a102" y="180.65576"/>
    </g>
    <g clip-path="url(#p47e8db7b69)">
     <use style="fill:#386cb0;stroke:#386cb0;" x="341.17302" xlink:href="#C0_0_18b334a102" y="165.639107"/>
    </g>
    <g clip-path="url(#p47e8db7b69)">
     <use style="fill:#7fc97f;stroke:#7fc97f;" x="163.55658" xlink:href="#C0_0_18b334a102" y="114.19763"/>
    </g>
    <g clip-path="url(#p47e8db7b69)">
     <use style="fill:#666666;stroke:#666666;" x="248.74405" xlink:href="#C0_0_18b334a102" y="180.080504"/>
    </g>
    <g clip-path="url(#p47e8db7b69)">
     <use style="fill:#7fc97f;stroke:#7fc97f;" x="163.547175" xlink:href="#C0_0_18b334a102" y="114.205397"/>
    </g>
    <g clip-path="url(#p47e8db7b69)">
     <use style="fill:#666666;stroke:#666666;" x="205.572096" xlink:href="#C0_0_18b334a102" y="276.557686"/>
    </g>
    <g clip-path="url(#p47e8db7b69)">
     <use style="fill:#666666;stroke:#666666;" x="245.792689" xlink:href="#C0_0_18b334a102" y="289.449518"/>
    </g>
    <g clip-path="url(#p47e8db7b69)">
     <use style="fill:#386cb0;stroke:#386cb0;" x="319.502678" xlink:href="#C0_0_18b334a102" y="199.378429"/>
    </g>
    <g clip-path="url(#p47e8db7b69)">
     <use style="fill:#666666;stroke:#666666;" x="189.00907" xlink:href="#C0_0_18b334a102" y="255.132706"/>
    </g>
    <g clip-path="url(#p47e8db7b69)">
     <use style="fill:#386cb0;stroke:#386cb0;" x="382.749108" xlink:href="#C0_0_18b334a102" y="95.138701"/>
    </g>
    <g clip-path="url(#p47e8db7b69)">
     <use style="fill:#666666;stroke:#666666;" x="269.166574" xlink:href="#C0_0_18b334a102" y="143.98795"/>
    </g>
    <g clip-path="url(#p47e8db7b69)">
     <use style="fill:#386cb0;stroke:#386cb0;" x="354.926971" xlink:href="#C0_0_18b334a102" y="132.171136"/>
    </g>
    <g clip-path="url(#p47e8db7b69)">
     <use style="fill:#7fc97f;stroke:#7fc97f;" x="270.29233" xlink:href="#C0_0_18b334a102" y="119.564019"/>
    </g>
    <g clip-path="url(#p47e8db7b69)">
     <use style="fill:#666666;stroke:#666666;" x="223.233383" xlink:href="#C0_0_18b334a102" y="233.399012"/>
    </g>
    <g clip-path="url(#p47e8db7b69)">
     <use style="fill:#666666;stroke:#666666;" x="237.266723" xlink:href="#C0_0_18b334a102" y="180.337872"/>
    </g>
    <g clip-path="url(#p47e8db7b69)">
     <use style="fill:#386cb0;stroke:#386cb0;" x="371.102676" xlink:href="#C0_0_18b334a102" y="142.175206"/>
    </g>
    <g clip-path="url(#p47e8db7b69)">
     <use style="fill:#7fc97f;stroke:#7fc97f;" x="177.413019" xlink:href="#C0_0_18b334a102" y="108.931457"/>
    </g>
    <g clip-path="url(#p47e8db7b69)">
     <use style="fill:#386cb0;stroke:#386cb0;" x="298.059274" xlink:href="#C0_0_18b334a102" y="130.422788"/>
    </g>
    <g clip-path="url(#p47e8db7b69)">
     <use style="fill:#666666;stroke:#666666;" x="233.866585" xlink:href="#C0_0_18b334a102" y="170.649184"/>
    </g>
    <g clip-path="url(#p47e8db7b69)">
     <use style="fill:#7fc97f;stroke:#7fc97f;" x="161.634676" xlink:href="#C0_0_18b334a102" y="205.859352"/>
    </g>
    <g clip-path="url(#p47e8db7b69)">
     <use style="fill:#386cb0;stroke:#386cb0;" x="398.432262" xlink:href="#C0_0_18b334a102" y="107.021976"/>
    </g>
    <g clip-path="url(#p47e8db7b69)">
     <use style="fill:#7fc97f;stroke:#7fc97f;" x="184.19009" xlink:href="#C0_0_18b334a102" y="116.514372"/>
    </g>
    <g clip-path="url(#p47e8db7b69)">
     <use style="fill:#7fc97f;stroke:#7fc97f;" x="124.684413" xlink:href="#C0_0_18b334a102" y="157.487954"/>
    </g>
    <g clip-path="url(#p47e8db7b69)">
     <use style="fill:#386cb0;stroke:#386cb0;" x="319.778248" xlink:href="#C0_0_18b334a102" y="150.427653"/>
    </g>
    <g clip-path="url(#p47e8db7b69)">
     <use style="fill:#386cb0;stroke:#386cb0;" x="366.236833" xlink:href="#C0_0_18b334a102" y="164.911335"/>
    </g>
    <g clip-path="url(#p47e8db7b69)">
     <use style="fill:#386cb0;stroke:#386cb0;" x="390.671721" xlink:href="#C0_0_18b334a102" y="87.720383"/>
    </g>
    <g clip-path="url(#p47e8db7b69)">
     <use style="fill:#386cb0;stroke:#386cb0;" x="341.173028" xlink:href="#C0_0_18b334a102" y="165.639111"/>
    </g>
    <g clip-path="url(#p47e8db7b69)">
     <use style="fill:#7fc97f;stroke:#7fc97f;" x="73.887738" xlink:href="#C0_0_18b334a102" y="151.361104"/>
    </g>
    <g clip-path="url(#p47e8db7b69)">
     <use style="fill:#7fc97f;stroke:#7fc97f;" x="127.218712" xlink:href="#C0_0_18b334a102" y="123.852141"/>
    </g>
    <g clip-path="url(#p47e8db7b69)">
     <use style="fill:#386cb0;stroke:#386cb0;" x="344.191979" xlink:href="#C0_0_18b334a102" y="166.394906"/>
    </g>
    <g clip-path="url(#p47e8db7b69)">
     <use style="fill:#386cb0;stroke:#386cb0;" x="394.121558" xlink:href="#C0_0_18b334a102" y="115.03884"/>
    </g>
    <g clip-path="url(#p47e8db7b69)">
     <use style="fill:#7fc97f;stroke:#7fc97f;" x="157.925183" xlink:href="#C0_0_18b334a102" y="84.169357"/>
    </g>
    <g clip-path="url(#p47e8db7b69)">
     <use style="fill:#386cb0;stroke:#386cb0;" x="341.188753" xlink:href="#C0_0_18b334a102" y="165.636019"/>
    </g>
    <g clip-path="url(#p47e8db7b69)">
     <use style="fill:#386cb0;stroke:#386cb0;" x="369.308843" xlink:href="#C0_0_18b334a102" y="115.730542"/>
    </g>
    <g clip-path="url(#p47e8db7b69)">
     <use style="fill:#666666;stroke:#666666;" x="287.298037" xlink:href="#C0_0_18b334a102" y="241.236586"/>
    </g>
    <g clip-path="url(#p47e8db7b69)">
     <use style="fill:#7fc97f;stroke:#7fc97f;" x="203.11361" xlink:href="#C0_0_18b334a102" y="53.670855"/>
    </g>
    <g clip-path="url(#p47e8db7b69)">
     <use style="fill:#666666;stroke:#666666;" x="186.453295" xlink:href="#C0_0_18b334a102" y="271.292465"/>
    </g>
    <g clip-path="url(#p47e8db7b69)">
     <use style="fill:#666666;stroke:#666666;" x="221.146777" xlink:href="#C0_0_18b334a102" y="275.620695"/>
    </g>
    <g clip-path="url(#p47e8db7b69)">
     <use style="fill:#386cb0;stroke:#386cb0;" x="382.766026" xlink:href="#C0_0_18b334a102" y="95.337009"/>
    </g>
    <g clip-path="url(#p47e8db7b69)">
     <use style="fill:#386cb0;stroke:#386cb0;" x="344.237476" xlink:href="#C0_0_18b334a102" y="166.404264"/>
    </g>
    <g clip-path="url(#p47e8db7b69)">
     <use style="fill:#386cb0;stroke:#386cb0;" x="352.443772" xlink:href="#C0_0_18b334a102" y="90.98397"/>
    </g>
   </g>
   <g id="matplotlib.axis_1">
    <g id="xtick_1">
     <g id="line2d_1">
      <defs>
       <path d="M 0 0 
L 0 3.5 
" id="m7bdbaf0192" style="stroke:#000000;stroke-width:0.8;"/>
      </defs>
      <g>
       <use style="stroke:#000000;stroke-width:0.8;" x="94.589706" xlink:href="#m7bdbaf0192" y="307.584"/>
      </g>
     </g>
     <g id="text_1">
      <!-- −7.5 -->
      <defs>
       <path d="M 10.59375 35.5 
L 73.1875 35.5 
L 73.1875 27.203125 
L 10.59375 27.203125 
z
" id="DejaVuSans-2212"/>
       <path d="M 8.203125 72.90625 
L 55.078125 72.90625 
L 55.078125 68.703125 
L 28.609375 0 
L 18.3125 0 
L 43.21875 64.59375 
L 8.203125 64.59375 
z
" id="DejaVuSans-37"/>
       <path d="M 10.6875 12.40625 
L 21 12.40625 
L 21 0 
L 10.6875 0 
z
" id="DejaVuSans-2e"/>
       <path d="M 10.796875 72.90625 
L 49.515625 72.90625 
L 49.515625 64.59375 
L 19.828125 64.59375 
L 19.828125 46.734375 
Q 21.96875 47.46875 24.109375 47.828125 
Q 26.265625 48.1875 28.421875 48.1875 
Q 40.625 48.1875 47.75 41.5 
Q 54.890625 34.8125 54.890625 23.390625 
Q 54.890625 11.625 47.5625 5.09375 
Q 40.234375 -1.421875 26.90625 -1.421875 
Q 22.3125 -1.421875 17.546875 -0.640625 
Q 12.796875 0.140625 7.71875 1.703125 
L 7.71875 11.625 
Q 12.109375 9.234375 16.796875 8.0625 
Q 21.484375 6.890625 26.703125 6.890625 
Q 35.15625 6.890625 40.078125 11.328125 
Q 45.015625 15.765625 45.015625 23.390625 
Q 45.015625 31 40.078125 35.4375 
Q 35.15625 39.890625 26.703125 39.890625 
Q 22.75 39.890625 18.8125 39.015625 
Q 14.890625 38.140625 10.796875 36.28125 
z
" id="DejaVuSans-35"/>
      </defs>
      <g transform="translate(82.4483 322.182437)scale(0.1 -0.1)">
       <use xlink:href="#DejaVuSans-2212"/>
       <use x="83.789062" xlink:href="#DejaVuSans-37"/>
       <use x="147.412109" xlink:href="#DejaVuSans-2e"/>
       <use x="179.199219" xlink:href="#DejaVuSans-35"/>
      </g>
     </g>
    </g>
    <g id="xtick_2">
     <g id="line2d_2">
      <g>
       <use style="stroke:#000000;stroke-width:0.8;" x="137.731636" xlink:href="#m7bdbaf0192" y="307.584"/>
      </g>
     </g>
     <g id="text_2">
      <!-- −5.0 -->
      <defs>
       <path d="M 31.78125 66.40625 
Q 24.171875 66.40625 20.328125 58.90625 
Q 16.5 51.421875 16.5 36.375 
Q 16.5 21.390625 20.328125 13.890625 
Q 24.171875 6.390625 31.78125 6.390625 
Q 39.453125 6.390625 43.28125 13.890625 
Q 47.125 21.390625 47.125 36.375 
Q 47.125 51.421875 43.28125 58.90625 
Q 39.453125 66.40625 31.78125 66.40625 
z
M 31.78125 74.21875 
Q 44.046875 74.21875 50.515625 64.515625 
Q 56.984375 54.828125 56.984375 36.375 
Q 56.984375 17.96875 50.515625 8.265625 
Q 44.046875 -1.421875 31.78125 -1.421875 
Q 19.53125 -1.421875 13.0625 8.265625 
Q 6.59375 17.96875 6.59375 36.375 
Q 6.59375 54.828125 13.0625 64.515625 
Q 19.53125 74.21875 31.78125 74.21875 
z
" id="DejaVuSans-30"/>
      </defs>
      <g transform="translate(125.590229 322.182437)scale(0.1 -0.1)">
       <use xlink:href="#DejaVuSans-2212"/>
       <use x="83.789062" xlink:href="#DejaVuSans-35"/>
       <use x="147.412109" xlink:href="#DejaVuSans-2e"/>
       <use x="179.199219" xlink:href="#DejaVuSans-30"/>
      </g>
     </g>
    </g>
    <g id="xtick_3">
     <g id="line2d_3">
      <g>
       <use style="stroke:#000000;stroke-width:0.8;" x="180.873565" xlink:href="#m7bdbaf0192" y="307.584"/>
      </g>
     </g>
     <g id="text_3">
      <!-- −2.5 -->
      <defs>
       <path d="M 19.1875 8.296875 
L 53.609375 8.296875 
L 53.609375 0 
L 7.328125 0 
L 7.328125 8.296875 
Q 12.9375 14.109375 22.625 23.890625 
Q 32.328125 33.6875 34.8125 36.53125 
Q 39.546875 41.84375 41.421875 45.53125 
Q 43.3125 49.21875 43.3125 52.78125 
Q 43.3125 58.59375 39.234375 62.25 
Q 35.15625 65.921875 28.609375 65.921875 
Q 23.96875 65.921875 18.8125 64.3125 
Q 13.671875 62.703125 7.8125 59.421875 
L 7.8125 69.390625 
Q 13.765625 71.78125 18.9375 73 
Q 24.125 74.21875 28.421875 74.21875 
Q 39.75 74.21875 46.484375 68.546875 
Q 53.21875 62.890625 53.21875 53.421875 
Q 53.21875 48.921875 51.53125 44.890625 
Q 49.859375 40.875 45.40625 35.40625 
Q 44.1875 33.984375 37.640625 27.21875 
Q 31.109375 20.453125 19.1875 8.296875 
z
" id="DejaVuSans-32"/>
      </defs>
      <g transform="translate(168.732159 322.182437)scale(0.1 -0.1)">
       <use xlink:href="#DejaVuSans-2212"/>
       <use x="83.789062" xlink:href="#DejaVuSans-32"/>
       <use x="147.412109" xlink:href="#DejaVuSans-2e"/>
       <use x="179.199219" xlink:href="#DejaVuSans-35"/>
      </g>
     </g>
    </g>
    <g id="xtick_4">
     <g id="line2d_4">
      <g>
       <use style="stroke:#000000;stroke-width:0.8;" x="224.015495" xlink:href="#m7bdbaf0192" y="307.584"/>
      </g>
     </g>
     <g id="text_4">
      <!-- 0.0 -->
      <g transform="translate(216.063933 322.182437)scale(0.1 -0.1)">
       <use xlink:href="#DejaVuSans-30"/>
       <use x="63.623047" xlink:href="#DejaVuSans-2e"/>
       <use x="95.410156" xlink:href="#DejaVuSans-30"/>
      </g>
     </g>
    </g>
    <g id="xtick_5">
     <g id="line2d_5">
      <g>
       <use style="stroke:#000000;stroke-width:0.8;" x="267.157425" xlink:href="#m7bdbaf0192" y="307.584"/>
      </g>
     </g>
     <g id="text_5">
      <!-- 2.5 -->
      <g transform="translate(259.205862 322.182437)scale(0.1 -0.1)">
       <use xlink:href="#DejaVuSans-32"/>
       <use x="63.623047" xlink:href="#DejaVuSans-2e"/>
       <use x="95.410156" xlink:href="#DejaVuSans-35"/>
      </g>
     </g>
    </g>
    <g id="xtick_6">
     <g id="line2d_6">
      <g>
       <use style="stroke:#000000;stroke-width:0.8;" x="310.299355" xlink:href="#m7bdbaf0192" y="307.584"/>
      </g>
     </g>
     <g id="text_6">
      <!-- 5.0 -->
      <g transform="translate(302.347792 322.182437)scale(0.1 -0.1)">
       <use xlink:href="#DejaVuSans-35"/>
       <use x="63.623047" xlink:href="#DejaVuSans-2e"/>
       <use x="95.410156" xlink:href="#DejaVuSans-30"/>
      </g>
     </g>
    </g>
    <g id="xtick_7">
     <g id="line2d_7">
      <g>
       <use style="stroke:#000000;stroke-width:0.8;" x="353.441284" xlink:href="#m7bdbaf0192" y="307.584"/>
      </g>
     </g>
     <g id="text_7">
      <!-- 7.5 -->
      <g transform="translate(345.489722 322.182437)scale(0.1 -0.1)">
       <use xlink:href="#DejaVuSans-37"/>
       <use x="63.623047" xlink:href="#DejaVuSans-2e"/>
       <use x="95.410156" xlink:href="#DejaVuSans-35"/>
      </g>
     </g>
    </g>
    <g id="xtick_8">
     <g id="line2d_8">
      <g>
       <use style="stroke:#000000;stroke-width:0.8;" x="396.583214" xlink:href="#m7bdbaf0192" y="307.584"/>
      </g>
     </g>
     <g id="text_8">
      <!-- 10.0 -->
      <defs>
       <path d="M 12.40625 8.296875 
L 28.515625 8.296875 
L 28.515625 63.921875 
L 10.984375 60.40625 
L 10.984375 69.390625 
L 28.421875 72.90625 
L 38.28125 72.90625 
L 38.28125 8.296875 
L 54.390625 8.296875 
L 54.390625 0 
L 12.40625 0 
z
" id="DejaVuSans-31"/>
      </defs>
      <g transform="translate(385.450401 322.182437)scale(0.1 -0.1)">
       <use xlink:href="#DejaVuSans-31"/>
       <use x="63.623047" xlink:href="#DejaVuSans-30"/>
       <use x="127.246094" xlink:href="#DejaVuSans-2e"/>
       <use x="159.033203" xlink:href="#DejaVuSans-30"/>
      </g>
     </g>
    </g>
   </g>
   <g id="matplotlib.axis_2">
    <g id="ytick_1">
     <g id="line2d_9">
      <defs>
       <path d="M 0 0 
L -3.5 0 
" id="m542abb2230" style="stroke:#000000;stroke-width:0.8;"/>
      </defs>
      <g>
       <use style="stroke:#000000;stroke-width:0.8;" x="57.6" xlink:href="#m542abb2230" y="282.097482"/>
      </g>
     </g>
     <g id="text_9">
      <!-- −4 -->
      <defs>
       <path d="M 37.796875 64.3125 
L 12.890625 25.390625 
L 37.796875 25.390625 
z
M 35.203125 72.90625 
L 47.609375 72.90625 
L 47.609375 25.390625 
L 58.015625 25.390625 
L 58.015625 17.1875 
L 47.609375 17.1875 
L 47.609375 0 
L 37.796875 0 
L 37.796875 17.1875 
L 4.890625 17.1875 
L 4.890625 26.703125 
z
" id="DejaVuSans-34"/>
      </defs>
      <g transform="translate(35.857813 285.896701)scale(0.1 -0.1)">
       <use xlink:href="#DejaVuSans-2212"/>
       <use x="83.789062" xlink:href="#DejaVuSans-34"/>
      </g>
     </g>
    </g>
    <g id="ytick_2">
     <g id="line2d_10">
      <g>
       <use style="stroke:#000000;stroke-width:0.8;" x="57.6" xlink:href="#m542abb2230" y="234.011726"/>
      </g>
     </g>
     <g id="text_10">
      <!-- −2 -->
      <g transform="translate(35.857813 237.810944)scale(0.1 -0.1)">
       <use xlink:href="#DejaVuSans-2212"/>
       <use x="83.789062" xlink:href="#DejaVuSans-32"/>
      </g>
     </g>
    </g>
    <g id="ytick_3">
     <g id="line2d_11">
      <g>
       <use style="stroke:#000000;stroke-width:0.8;" x="57.6" xlink:href="#m542abb2230" y="185.925969"/>
      </g>
     </g>
     <g id="text_11">
      <!-- 0 -->
      <g transform="translate(44.2375 189.725188)scale(0.1 -0.1)">
       <use xlink:href="#DejaVuSans-30"/>
      </g>
     </g>
    </g>
    <g id="ytick_4">
     <g id="line2d_12">
      <g>
       <use style="stroke:#000000;stroke-width:0.8;" x="57.6" xlink:href="#m542abb2230" y="137.840212"/>
      </g>
     </g>
     <g id="text_12">
      <!-- 2 -->
      <g transform="translate(44.2375 141.639431)scale(0.1 -0.1)">
       <use xlink:href="#DejaVuSans-32"/>
      </g>
     </g>
    </g>
    <g id="ytick_5">
     <g id="line2d_13">
      <g>
       <use style="stroke:#000000;stroke-width:0.8;" x="57.6" xlink:href="#m542abb2230" y="89.754456"/>
      </g>
     </g>
     <g id="text_13">
      <!-- 4 -->
      <g transform="translate(44.2375 93.553674)scale(0.1 -0.1)">
       <use xlink:href="#DejaVuSans-34"/>
      </g>
     </g>
    </g>
    <g id="ytick_6">
     <g id="line2d_14">
      <g>
       <use style="stroke:#000000;stroke-width:0.8;" x="57.6" xlink:href="#m542abb2230" y="41.668699"/>
      </g>
     </g>
     <g id="text_14">
      <!-- 6 -->
      <defs>
       <path d="M 33.015625 40.375 
Q 26.375 40.375 22.484375 35.828125 
Q 18.609375 31.296875 18.609375 23.390625 
Q 18.609375 15.53125 22.484375 10.953125 
Q 26.375 6.390625 33.015625 6.390625 
Q 39.65625 6.390625 43.53125 10.953125 
Q 47.40625 15.53125 47.40625 23.390625 
Q 47.40625 31.296875 43.53125 35.828125 
Q 39.65625 40.375 33.015625 40.375 
z
M 52.59375 71.296875 
L 52.59375 62.3125 
Q 48.875 64.0625 45.09375 64.984375 
Q 41.3125 65.921875 37.59375 65.921875 
Q 27.828125 65.921875 22.671875 59.328125 
Q 17.53125 52.734375 16.796875 39.40625 
Q 19.671875 43.65625 24.015625 45.921875 
Q 28.375 48.1875 33.59375 48.1875 
Q 44.578125 48.1875 50.953125 41.515625 
Q 57.328125 34.859375 57.328125 23.390625 
Q 57.328125 12.15625 50.6875 5.359375 
Q 44.046875 -1.421875 33.015625 -1.421875 
Q 20.359375 -1.421875 13.671875 8.265625 
Q 6.984375 17.96875 6.984375 36.375 
Q 6.984375 53.65625 15.1875 63.9375 
Q 23.390625 74.21875 37.203125 74.21875 
Q 40.921875 74.21875 44.703125 73.484375 
Q 48.484375 72.75 52.59375 71.296875 
z
" id="DejaVuSans-36"/>
      </defs>
      <g transform="translate(44.2375 45.467918)scale(0.1 -0.1)">
       <use xlink:href="#DejaVuSans-36"/>
      </g>
     </g>
    </g>
   </g>
   <g id="patch_3">
    <path d="M 57.6 307.584 
L 57.6 41.472 
" style="fill:none;stroke:#000000;stroke-linecap:square;stroke-linejoin:miter;stroke-width:0.8;"/>
   </g>
   <g id="patch_4">
    <path d="M 414.72 307.584 
L 414.72 41.472 
" style="fill:none;stroke:#000000;stroke-linecap:square;stroke-linejoin:miter;stroke-width:0.8;"/>
   </g>
   <g id="patch_5">
    <path d="M 57.6 307.584 
L 414.72 307.584 
" style="fill:none;stroke:#000000;stroke-linecap:square;stroke-linejoin:miter;stroke-width:0.8;"/>
   </g>
   <g id="patch_6">
    <path d="M 57.6 41.472 
L 414.72 41.472 
" style="fill:none;stroke:#000000;stroke-linecap:square;stroke-linejoin:miter;stroke-width:0.8;"/>
   </g>
  </g>
 </g>
 <defs>
  <clipPath id="p47e8db7b69">
   <rect height="266.112" width="357.12" x="57.6" y="41.472"/>
  </clipPath>
 </defs>
</svg>
