<?xml version="1.0" encoding="utf-8" standalone="no"?>
<!DOCTYPE svg PUBLIC "-//W3C//DTD SVG 1.1//EN"
  "http://www.w3.org/Graphics/SVG/1.1/DTD/svg11.dtd">
<!-- Created with matplotlib (http://matplotlib.org/) -->
<svg height="345pt" version="1.1" viewBox="0 0 460 345" width="460pt" xmlns="http://www.w3.org/2000/svg" xmlns:xlink="http://www.w3.org/1999/xlink">
 <defs>
  <style type="text/css">
*{stroke-linecap:butt;stroke-linejoin:round;}
  </style>
 </defs>
 <g id="figure_1">
  <g id="patch_1">
   <path d="M 0 345.6 
L 460.8 345.6 
L 460.8 0 
L 0 0 
z
" style="fill:#ffffff;"/>
  </g>
  <g id="axes_1">
   <g id="patch_2">
    <path d="M 57.6 307.584 
L 414.72 307.584 
L 414.72 41.472 
L 57.6 41.472 
z
" style="fill:#ffffff;"/>
   </g>
   <g id="PathCollection_1">
    <defs>
     <path d="M 0 1.581139 
C 0.419323 1.581139 0.821528 1.41454 1.118034 1.118034 
C 1.41454 0.821528 1.581139 0.419323 1.581139 0 
C 1.581139 -0.419323 1.41454 -0.821528 1.118034 -1.118034 
C 0.821528 -1.41454 0.419323 -1.581139 0 -1.581139 
C -0.419323 -1.581139 -0.821528 -1.41454 -1.118034 -1.118034 
C -1.41454 -0.821528 -1.581139 -0.419323 -1.581139 0 
C -1.581139 0.419323 -1.41454 0.821528 -1.118034 1.118034 
C -0.821528 1.41454 -0.419323 1.581139 0 1.581139 
z
" id="C0_0_4a49d2e0a9"/>
    </defs>
    <g clip-path="url(#pf71b68f18f)">
     <use style="fill:#bf5b17;stroke:#bf5b17;" x="195.148061" xlink:href="#C0_0_4a49d2e0a9" y="246.685496"/>
    </g>
    <g clip-path="url(#pf71b68f18f)">
     <use style="fill:#bf5b17;stroke:#bf5b17;" x="214.654563" xlink:href="#C0_0_4a49d2e0a9" y="250.786097"/>
    </g>
    <g clip-path="url(#pf71b68f18f)">
     <use style="fill:#bf5b17;stroke:#bf5b17;" x="221.128355" xlink:href="#C0_0_4a49d2e0a9" y="229.804898"/>
    </g>
    <g clip-path="url(#pf71b68f18f)">
     <use style="fill:#bf5b17;stroke:#bf5b17;" x="199.86142" xlink:href="#C0_0_4a49d2e0a9" y="259.492821"/>
    </g>
    <g clip-path="url(#pf71b68f18f)">
     <use style="fill:#bf5b17;stroke:#bf5b17;" x="183.352123" xlink:href="#C0_0_4a49d2e0a9" y="261.724141"/>
    </g>
    <g clip-path="url(#pf71b68f18f)">
     <use style="fill:#7fc97f;stroke:#7fc97f;" x="103.870689" xlink:href="#C0_0_4a49d2e0a9" y="204.95667"/>
    </g>
    <g clip-path="url(#pf71b68f18f)">
     <use style="fill:#666666;stroke:#666666;" x="296.882243" xlink:href="#C0_0_4a49d2e0a9" y="116.296124"/>
    </g>
    <g clip-path="url(#pf71b68f18f)">
     <use style="fill:#666666;stroke:#666666;" x="300.467378" xlink:href="#C0_0_4a49d2e0a9" y="152.012065"/>
    </g>
    <g clip-path="url(#pf71b68f18f)">
     <use style="fill:#666666;stroke:#666666;" x="260.450915" xlink:href="#C0_0_4a49d2e0a9" y="53.655969"/>
    </g>
    <g clip-path="url(#pf71b68f18f)">
     <use style="fill:#666666;stroke:#666666;" x="151.032471" xlink:href="#C0_0_4a49d2e0a9" y="249.531256"/>
    </g>
    <g clip-path="url(#pf71b68f18f)">
     <use style="fill:#ffff99;stroke:#ffff99;" x="202.89986" xlink:href="#C0_0_4a49d2e0a9" y="140.680443"/>
    </g>
    <g clip-path="url(#pf71b68f18f)">
     <use style="fill:#ffff99;stroke:#ffff99;" x="226.8607" xlink:href="#C0_0_4a49d2e0a9" y="164.593191"/>
    </g>
    <g clip-path="url(#pf71b68f18f)">
     <use style="fill:#beaed4;stroke:#beaed4;" x="283.126831" xlink:href="#C0_0_4a49d2e0a9" y="233.837529"/>
    </g>
    <g clip-path="url(#pf71b68f18f)">
     <use style="fill:#7fc97f;stroke:#7fc97f;" x="78.072865" xlink:href="#C0_0_4a49d2e0a9" y="212.24902"/>
    </g>
    <g clip-path="url(#pf71b68f18f)">
     <use style="fill:#7fc97f;stroke:#7fc97f;" x="76.03791" xlink:href="#C0_0_4a49d2e0a9" y="205.042888"/>
    </g>
    <g clip-path="url(#pf71b68f18f)">
     <use style="fill:#666666;stroke:#666666;" x="293.579294" xlink:href="#C0_0_4a49d2e0a9" y="103.320325"/>
    </g>
    <g clip-path="url(#pf71b68f18f)">
     <use style="fill:#666666;stroke:#666666;" x="286.491201" xlink:href="#C0_0_4a49d2e0a9" y="100.677613"/>
    </g>
    <g clip-path="url(#pf71b68f18f)">
     <use style="fill:#666666;stroke:#666666;" x="280.363333" xlink:href="#C0_0_4a49d2e0a9" y="82.966201"/>
    </g>
    <g clip-path="url(#pf71b68f18f)">
     <use style="fill:#bf5b17;stroke:#bf5b17;" x="133.529428" xlink:href="#C0_0_4a49d2e0a9" y="235.703544"/>
    </g>
    <g clip-path="url(#pf71b68f18f)">
     <use style="fill:#bf5b17;stroke:#bf5b17;" x="152.782762" xlink:href="#C0_0_4a49d2e0a9" y="220.91563"/>
    </g>
    <g clip-path="url(#pf71b68f18f)">
     <use style="fill:#bf5b17;stroke:#bf5b17;" x="149.831861" xlink:href="#C0_0_4a49d2e0a9" y="219.589876"/>
    </g>
    <g clip-path="url(#pf71b68f18f)">
     <use style="fill:#bf5b17;stroke:#bf5b17;" x="141.97679" xlink:href="#C0_0_4a49d2e0a9" y="159.972601"/>
    </g>
    <g clip-path="url(#pf71b68f18f)">
     <use style="fill:#7fc97f;stroke:#7fc97f;" x="116.276209" xlink:href="#C0_0_4a49d2e0a9" y="186.963706"/>
    </g>
    <g clip-path="url(#pf71b68f18f)">
     <use style="fill:#beaed4;stroke:#beaed4;" x="316.878944" xlink:href="#C0_0_4a49d2e0a9" y="266.371515"/>
    </g>
    <g clip-path="url(#pf71b68f18f)">
     <use style="fill:#386cb0;stroke:#386cb0;" x="364.775005" xlink:href="#C0_0_4a49d2e0a9" y="282.355497"/>
    </g>
    <g clip-path="url(#pf71b68f18f)">
     <use style="fill:#7fc97f;stroke:#7fc97f;" x="116.991964" xlink:href="#C0_0_4a49d2e0a9" y="216.009858"/>
    </g>
    <g clip-path="url(#pf71b68f18f)">
     <use style="fill:#bf5b17;stroke:#bf5b17;" x="173.844123" xlink:href="#C0_0_4a49d2e0a9" y="189.939906"/>
    </g>
    <g clip-path="url(#pf71b68f18f)">
     <use style="fill:#bf5b17;stroke:#bf5b17;" x="266.817702" xlink:href="#C0_0_4a49d2e0a9" y="193.681501"/>
    </g>
    <g clip-path="url(#pf71b68f18f)">
     <use style="fill:#beaed4;stroke:#beaed4;" x="308.870661" xlink:href="#C0_0_4a49d2e0a9" y="173.348465"/>
    </g>
    <g clip-path="url(#pf71b68f18f)">
     <use style="fill:#beaed4;stroke:#beaed4;" x="313.388139" xlink:href="#C0_0_4a49d2e0a9" y="181.062046"/>
    </g>
    <g clip-path="url(#pf71b68f18f)">
     <use style="fill:#386cb0;stroke:#386cb0;" x="336.175563" xlink:href="#C0_0_4a49d2e0a9" y="217.897729"/>
    </g>
    <g clip-path="url(#pf71b68f18f)">
     <use style="fill:#386cb0;stroke:#386cb0;" x="373.899265" xlink:href="#C0_0_4a49d2e0a9" y="193.574319"/>
    </g>
    <g clip-path="url(#pf71b68f18f)">
     <use style="fill:#7fc97f;stroke:#7fc97f;" x="95.326697" xlink:href="#C0_0_4a49d2e0a9" y="238.119665"/>
    </g>
    <g clip-path="url(#pf71b68f18f)">
     <use style="fill:#386cb0;stroke:#386cb0;" x="351.270904" xlink:href="#C0_0_4a49d2e0a9" y="252.562286"/>
    </g>
    <g clip-path="url(#pf71b68f18f)">
     <use style="fill:#666666;stroke:#666666;" x="189.55077" xlink:href="#C0_0_4a49d2e0a9" y="152.554273"/>
    </g>
    <g clip-path="url(#pf71b68f18f)">
     <use style="fill:#bf5b17;stroke:#bf5b17;" x="195.314073" xlink:href="#C0_0_4a49d2e0a9" y="195.180327"/>
    </g>
    <g clip-path="url(#pf71b68f18f)">
     <use style="fill:#666666;stroke:#666666;" x="189.284991" xlink:href="#C0_0_4a49d2e0a9" y="176.245399"/>
    </g>
    <g clip-path="url(#pf71b68f18f)">
     <use style="fill:#bf5b17;stroke:#bf5b17;" x="150.381431" xlink:href="#C0_0_4a49d2e0a9" y="192.424129"/>
    </g>
    <g clip-path="url(#pf71b68f18f)">
     <use style="fill:#bf5b17;stroke:#bf5b17;" x="136.137147" xlink:href="#C0_0_4a49d2e0a9" y="204.529439"/>
    </g>
    <g clip-path="url(#pf71b68f18f)">
     <use style="fill:#386cb0;stroke:#386cb0;" x="392.146772" xlink:href="#C0_0_4a49d2e0a9" y="291.899308"/>
    </g>
    <g clip-path="url(#pf71b68f18f)">
     <use style="fill:#7fc97f;stroke:#7fc97f;" x="82.725484" xlink:href="#C0_0_4a49d2e0a9" y="230.006622"/>
    </g>
    <g clip-path="url(#pf71b68f18f)">
     <use style="fill:#bf5b17;stroke:#bf5b17;" x="197.717135" xlink:href="#C0_0_4a49d2e0a9" y="214.907086"/>
    </g>
    <g clip-path="url(#pf71b68f18f)">
     <use style="fill:#beaed4;stroke:#beaed4;" x="271.204256" xlink:href="#C0_0_4a49d2e0a9" y="151.148055"/>
    </g>
    <g clip-path="url(#pf71b68f18f)">
     <use style="fill:#7fc97f;stroke:#7fc97f;" x="99.202494" xlink:href="#C0_0_4a49d2e0a9" y="219.7836"/>
    </g>
    <g clip-path="url(#pf71b68f18f)">
     <use style="fill:#bf5b17;stroke:#bf5b17;" x="198.343302" xlink:href="#C0_0_4a49d2e0a9" y="241.304825"/>
    </g>
    <g clip-path="url(#pf71b68f18f)">
     <use style="fill:#bf5b17;stroke:#bf5b17;" x="197.672468" xlink:href="#C0_0_4a49d2e0a9" y="214.880808"/>
    </g>
    <g clip-path="url(#pf71b68f18f)">
     <use style="fill:#bf5b17;stroke:#bf5b17;" x="197.646736" xlink:href="#C0_0_4a49d2e0a9" y="214.792678"/>
    </g>
    <g clip-path="url(#pf71b68f18f)">
     <use style="fill:#666666;stroke:#666666;" x="237.960608" xlink:href="#C0_0_4a49d2e0a9" y="85.191183"/>
    </g>
    <g clip-path="url(#pf71b68f18f)">
     <use style="fill:#666666;stroke:#666666;" x="254.6637" xlink:href="#C0_0_4a49d2e0a9" y="121.313792"/>
    </g>
    <g clip-path="url(#pf71b68f18f)">
     <use style="fill:#ffff99;stroke:#ffff99;" x="165.077373" xlink:href="#C0_0_4a49d2e0a9" y="96.350576"/>
    </g>
    <g clip-path="url(#pf71b68f18f)">
     <use style="fill:#ffff99;stroke:#ffff99;" x="365.006812" xlink:href="#C0_0_4a49d2e0a9" y="160.326905"/>
    </g>
    <g clip-path="url(#pf71b68f18f)">
     <use style="fill:#ffff99;stroke:#ffff99;" x="144.023448" xlink:href="#C0_0_4a49d2e0a9" y="102.807119"/>
    </g>
    <g clip-path="url(#pf71b68f18f)">
     <use style="fill:#ffff99;stroke:#ffff99;" x="365.247348" xlink:href="#C0_0_4a49d2e0a9" y="148.149054"/>
    </g>
    <g clip-path="url(#pf71b68f18f)">
     <use style="fill:#666666;stroke:#666666;" x="196.061649" xlink:href="#C0_0_4a49d2e0a9" y="127.146417"/>
    </g>
    <g clip-path="url(#pf71b68f18f)">
     <use style="fill:#7fc97f;stroke:#7fc97f;" x="118.238269" xlink:href="#C0_0_4a49d2e0a9" y="248.867183"/>
    </g>
    <g clip-path="url(#pf71b68f18f)">
     <use style="fill:#bf5b17;stroke:#bf5b17;" x="140.054591" xlink:href="#C0_0_4a49d2e0a9" y="186.137086"/>
    </g>
    <g clip-path="url(#pf71b68f18f)">
     <use style="fill:#386cb0;stroke:#386cb0;" x="395.828244" xlink:href="#C0_0_4a49d2e0a9" y="285.164252"/>
    </g>
    <g clip-path="url(#pf71b68f18f)">
     <use style="fill:#386cb0;stroke:#386cb0;" x="385.636394" xlink:href="#C0_0_4a49d2e0a9" y="274.204842"/>
    </g>
    <g clip-path="url(#pf71b68f18f)">
     <use style="fill:#386cb0;stroke:#386cb0;" x="378.496687" xlink:href="#C0_0_4a49d2e0a9" y="294.155524"/>
    </g>
    <g clip-path="url(#pf71b68f18f)">
     <use style="fill:#beaed4;stroke:#beaed4;" x="285.518371" xlink:href="#C0_0_4a49d2e0a9" y="172.68173"/>
    </g>
    <g clip-path="url(#pf71b68f18f)">
     <use style="fill:#ffff99;stroke:#ffff99;" x="247.952332" xlink:href="#C0_0_4a49d2e0a9" y="208.477141"/>
    </g>
    <g clip-path="url(#pf71b68f18f)">
     <use style="fill:#ffff99;stroke:#ffff99;" x="134.093614" xlink:href="#C0_0_4a49d2e0a9" y="120.253778"/>
    </g>
    <g clip-path="url(#pf71b68f18f)">
     <use style="fill:#7fc97f;stroke:#7fc97f;" x="142.531848" xlink:href="#C0_0_4a49d2e0a9" y="143.199979"/>
    </g>
    <g clip-path="url(#pf71b68f18f)">
     <use style="fill:#ffff99;stroke:#ffff99;" x="154.520803" xlink:href="#C0_0_4a49d2e0a9" y="104.963632"/>
    </g>
    <g clip-path="url(#pf71b68f18f)">
     <use style="fill:#bf5b17;stroke:#bf5b17;" x="183.464271" xlink:href="#C0_0_4a49d2e0a9" y="201.541204"/>
    </g>
    <g clip-path="url(#pf71b68f18f)">
     <use style="fill:#666666;stroke:#666666;" x="255.447588" xlink:href="#C0_0_4a49d2e0a9" y="112.436694"/>
    </g>
    <g clip-path="url(#pf71b68f18f)">
     <use style="fill:#666666;stroke:#666666;" x="250.810579" xlink:href="#C0_0_4a49d2e0a9" y="124.214722"/>
    </g>
    <g clip-path="url(#pf71b68f18f)">
     <use style="fill:#666666;stroke:#666666;" x="236.27647" xlink:href="#C0_0_4a49d2e0a9" y="102.901872"/>
    </g>
    <g clip-path="url(#pf71b68f18f)">
     <use style="fill:#beaed4;stroke:#beaed4;" x="309.151857" xlink:href="#C0_0_4a49d2e0a9" y="171.510298"/>
    </g>
    <g clip-path="url(#pf71b68f18f)">
     <use style="fill:#beaed4;stroke:#beaed4;" x="292.723833" xlink:href="#C0_0_4a49d2e0a9" y="172.230334"/>
    </g>
    <g clip-path="url(#pf71b68f18f)">
     <use style="fill:#beaed4;stroke:#beaed4;" x="267.464342" xlink:href="#C0_0_4a49d2e0a9" y="172.811263"/>
    </g>
    <g clip-path="url(#pf71b68f18f)">
     <use style="fill:#beaed4;stroke:#beaed4;" x="374.061889" xlink:href="#C0_0_4a49d2e0a9" y="216.409021"/>
    </g>
    <g clip-path="url(#pf71b68f18f)">
     <use style="fill:#386cb0;stroke:#386cb0;" x="362.636237" xlink:href="#C0_0_4a49d2e0a9" y="256.920756"/>
    </g>
    <g clip-path="url(#pf71b68f18f)">
     <use style="fill:#386cb0;stroke:#386cb0;" x="375.582482" xlink:href="#C0_0_4a49d2e0a9" y="238.368729"/>
    </g>
    <g clip-path="url(#pf71b68f18f)">
     <use style="fill:#666666;stroke:#666666;" x="265.165093" xlink:href="#C0_0_4a49d2e0a9" y="103.550357"/>
    </g>
    <g clip-path="url(#pf71b68f18f)">
     <use style="fill:#ffff99;stroke:#ffff99;" x="363.831474" xlink:href="#C0_0_4a49d2e0a9" y="158.508382"/>
    </g>
    <g clip-path="url(#pf71b68f18f)">
     <use style="fill:#ffff99;stroke:#ffff99;" x="236.272766" xlink:href="#C0_0_4a49d2e0a9" y="187.457751"/>
    </g>
    <g clip-path="url(#pf71b68f18f)">
     <use style="fill:#ffff99;stroke:#ffff99;" x="174.977606" xlink:href="#C0_0_4a49d2e0a9" y="99.116266"/>
    </g>
    <g clip-path="url(#pf71b68f18f)">
     <use style="fill:#666666;stroke:#666666;" x="180.820273" xlink:href="#C0_0_4a49d2e0a9" y="142.413602"/>
    </g>
    <g clip-path="url(#pf71b68f18f)">
     <use style="fill:#beaed4;stroke:#beaed4;" x="357.65835" xlink:href="#C0_0_4a49d2e0a9" y="224.850325"/>
    </g>
    <g clip-path="url(#pf71b68f18f)">
     <use style="fill:#beaed4;stroke:#beaed4;" x="357.639072" xlink:href="#C0_0_4a49d2e0a9" y="224.842069"/>
    </g>
    <g clip-path="url(#pf71b68f18f)">
     <use style="fill:#666666;stroke:#666666;" x="175.874763" xlink:href="#C0_0_4a49d2e0a9" y="148.257978"/>
    </g>
    <g clip-path="url(#pf71b68f18f)">
     <use style="fill:#ffff99;stroke:#ffff99;" x="160.625912" xlink:href="#C0_0_4a49d2e0a9" y="157.077408"/>
    </g>
    <g clip-path="url(#pf71b68f18f)">
     <use style="fill:#386cb0;stroke:#386cb0;" x="398.427909" xlink:href="#C0_0_4a49d2e0a9" y="264.40021"/>
    </g>
    <g clip-path="url(#pf71b68f18f)">
     <use style="fill:#beaed4;stroke:#beaed4;" x="253.018917" xlink:href="#C0_0_4a49d2e0a9" y="161.627766"/>
    </g>
    <g clip-path="url(#pf71b68f18f)">
     <use style="fill:#beaed4;stroke:#beaed4;" x="323.31911" xlink:href="#C0_0_4a49d2e0a9" y="254.542729"/>
    </g>
    <g clip-path="url(#pf71b68f18f)">
     <use style="fill:#bf5b17;stroke:#bf5b17;" x="169.252966" xlink:href="#C0_0_4a49d2e0a9" y="214.007157"/>
    </g>
    <g clip-path="url(#pf71b68f18f)">
     <use style="fill:#beaed4;stroke:#beaed4;" x="247.420322" xlink:href="#C0_0_4a49d2e0a9" y="162.131007"/>
    </g>
    <g clip-path="url(#pf71b68f18f)">
     <use style="fill:#bf5b17;stroke:#bf5b17;" x="169.256637" xlink:href="#C0_0_4a49d2e0a9" y="214.038485"/>
    </g>
    <g clip-path="url(#pf71b68f18f)">
     <use style="fill:#666666;stroke:#666666;" x="228.098438" xlink:href="#C0_0_4a49d2e0a9" y="83.939984"/>
    </g>
    <g clip-path="url(#pf71b68f18f)">
     <use style="fill:#666666;stroke:#666666;" x="283.48022" xlink:href="#C0_0_4a49d2e0a9" y="85.974314"/>
    </g>
    <g clip-path="url(#pf71b68f18f)">
     <use style="fill:#beaed4;stroke:#beaed4;" x="315.135246" xlink:href="#C0_0_4a49d2e0a9" y="202.293417"/>
    </g>
    <g clip-path="url(#pf71b68f18f)">
     <use style="fill:#666666;stroke:#666666;" x="210.146564" xlink:href="#C0_0_4a49d2e0a9" y="103.009296"/>
    </g>
    <g clip-path="url(#pf71b68f18f)">
     <use style="fill:#386cb0;stroke:#386cb0;" x="385.607925" xlink:href="#C0_0_4a49d2e0a9" y="295.400031"/>
    </g>
    <g clip-path="url(#pf71b68f18f)">
     <use style="fill:#ffff99;stroke:#ffff99;" x="247.150412" xlink:href="#C0_0_4a49d2e0a9" y="219.872935"/>
    </g>
    <g clip-path="url(#pf71b68f18f)">
     <use style="fill:#386cb0;stroke:#386cb0;" x="348.48043" xlink:href="#C0_0_4a49d2e0a9" y="256.444798"/>
    </g>
    <g clip-path="url(#pf71b68f18f)">
     <use style="fill:#ffff99;stroke:#ffff99;" x="248.751813" xlink:href="#C0_0_4a49d2e0a9" y="245.023421"/>
    </g>
    <g clip-path="url(#pf71b68f18f)">
     <use style="fill:#666666;stroke:#666666;" x="241.101914" xlink:href="#C0_0_4a49d2e0a9" y="119.25378"/>
    </g>
    <g clip-path="url(#pf71b68f18f)">
     <use style="fill:#ffff99;stroke:#ffff99;" x="237.566864" xlink:href="#C0_0_4a49d2e0a9" y="156.29803"/>
    </g>
    <g clip-path="url(#pf71b68f18f)">
     <use style="fill:#386cb0;stroke:#386cb0;" x="347.388775" xlink:href="#C0_0_4a49d2e0a9" y="279.769882"/>
    </g>
    <g clip-path="url(#pf71b68f18f)">
     <use style="fill:#bf5b17;stroke:#bf5b17;" x="184.765302" xlink:href="#C0_0_4a49d2e0a9" y="222.846487"/>
    </g>
    <g clip-path="url(#pf71b68f18f)">
     <use style="fill:#beaed4;stroke:#beaed4;" x="275.547299" xlink:href="#C0_0_4a49d2e0a9" y="257.632287"/>
    </g>
    <g clip-path="url(#pf71b68f18f)">
     <use style="fill:#ffff99;stroke:#ffff99;" x="231.260782" xlink:href="#C0_0_4a49d2e0a9" y="155.679341"/>
    </g>
    <g clip-path="url(#pf71b68f18f)">
     <use style="fill:#666666;stroke:#666666;" x="170.186849" xlink:href="#C0_0_4a49d2e0a9" y="152.36292"/>
    </g>
    <g clip-path="url(#pf71b68f18f)">
     <use style="fill:#386cb0;stroke:#386cb0;" x="386.824758" xlink:href="#C0_0_4a49d2e0a9" y="273.519952"/>
    </g>
    <g clip-path="url(#pf71b68f18f)">
     <use style="fill:#bf5b17;stroke:#bf5b17;" x="197.884286" xlink:href="#C0_0_4a49d2e0a9" y="221.968875"/>
    </g>
    <g clip-path="url(#pf71b68f18f)">
     <use style="fill:#7fc97f;stroke:#7fc97f;" x="124.219021" xlink:href="#C0_0_4a49d2e0a9" y="230.480257"/>
    </g>
    <g clip-path="url(#pf71b68f18f)">
     <use style="fill:#beaed4;stroke:#beaed4;" x="298.989728" xlink:href="#C0_0_4a49d2e0a9" y="248.831413"/>
    </g>
    <g clip-path="url(#pf71b68f18f)">
     <use style="fill:#beaed4;stroke:#beaed4;" x="331.894057" xlink:href="#C0_0_4a49d2e0a9" y="280.447614"/>
    </g>
    <g clip-path="url(#pf71b68f18f)">
     <use style="fill:#386cb0;stroke:#386cb0;" x="379.150595" xlink:href="#C0_0_4a49d2e0a9" y="288.197851"/>
    </g>
    <g clip-path="url(#pf71b68f18f)">
     <use style="fill:#beaed4;stroke:#beaed4;" x="323.31911" xlink:href="#C0_0_4a49d2e0a9" y="254.542729"/>
    </g>
    <g clip-path="url(#pf71b68f18f)">
     <use style="fill:#7fc97f;stroke:#7fc97f;" x="73.892091" xlink:href="#C0_0_4a49d2e0a9" y="200.459725"/>
    </g>
    <g clip-path="url(#pf71b68f18f)">
     <use style="fill:#bf5b17;stroke:#bf5b17;" x="124.847009" xlink:href="#C0_0_4a49d2e0a9" y="205.172288"/>
    </g>
    <g clip-path="url(#pf71b68f18f)">
     <use style="fill:#beaed4;stroke:#beaed4;" x="323.409488" xlink:href="#C0_0_4a49d2e0a9" y="250.228117"/>
    </g>
    <g clip-path="url(#pf71b68f18f)">
     <use style="fill:#386cb0;stroke:#386cb0;" x="381.609604" xlink:href="#C0_0_4a49d2e0a9" y="280.670723"/>
    </g>
    <g clip-path="url(#pf71b68f18f)">
     <use style="fill:#bf5b17;stroke:#bf5b17;" x="175.155034" xlink:href="#C0_0_4a49d2e0a9" y="239.9197"/>
    </g>
    <g clip-path="url(#pf71b68f18f)">
     <use style="fill:#beaed4;stroke:#beaed4;" x="323.399303" xlink:href="#C0_0_4a49d2e0a9" y="250.248032"/>
    </g>
    <g clip-path="url(#pf71b68f18f)">
     <use style="fill:#386cb0;stroke:#386cb0;" x="363.294469" xlink:href="#C0_0_4a49d2e0a9" y="270.354423"/>
    </g>
    <g clip-path="url(#pf71b68f18f)">
     <use style="fill:#beaed4;stroke:#beaed4;" x="296.59658" xlink:href="#C0_0_4a49d2e0a9" y="139.819141"/>
    </g>
    <g clip-path="url(#pf71b68f18f)">
     <use style="fill:#bf5b17;stroke:#bf5b17;" x="107.146541" xlink:href="#C0_0_4a49d2e0a9" y="153.838072"/>
    </g>
    <g clip-path="url(#pf71b68f18f)">
     <use style="fill:#666666;stroke:#666666;" x="209.044916" xlink:href="#C0_0_4a49d2e0a9" y="88.844082"/>
    </g>
    <g clip-path="url(#pf71b68f18f)">
     <use style="fill:#666666;stroke:#666666;" x="245.915018" xlink:href="#C0_0_4a49d2e0a9" y="86.990098"/>
    </g>
    <g clip-path="url(#pf71b68f18f)">
     <use style="fill:#386cb0;stroke:#386cb0;" x="395.640134" xlink:href="#C0_0_4a49d2e0a9" y="279.495844"/>
    </g>
    <g clip-path="url(#pf71b68f18f)">
     <use style="fill:#beaed4;stroke:#beaed4;" x="323.407037" xlink:href="#C0_0_4a49d2e0a9" y="250.27229"/>
    </g>
    <g clip-path="url(#pf71b68f18f)">
     <use style="fill:#386cb0;stroke:#386cb0;" x="372.959463" xlink:href="#C0_0_4a49d2e0a9" y="243.440838"/>
    </g>
   </g>
   <g id="matplotlib.axis_1">
    <g id="xtick_1">
     <g id="line2d_1">
      <defs>
       <path d="M 0 0 
L 0 3.5 
" id="ma51be02eee" style="stroke:#000000;stroke-width:0.8;"/>
      </defs>
      <g>
       <use style="stroke:#000000;stroke-width:0.8;" x="81.866587" xlink:href="#ma51be02eee" y="307.584"/>
      </g>
     </g>
     <g id="text_1">
      <!-- −7.5 -->
      <defs>
       <path d="M 10.59375 35.5 
L 73.1875 35.5 
L 73.1875 27.203125 
L 10.59375 27.203125 
z
" id="DejaVuSans-2212"/>
       <path d="M 8.203125 72.90625 
L 55.078125 72.90625 
L 55.078125 68.703125 
L 28.609375 0 
L 18.3125 0 
L 43.21875 64.59375 
L 8.203125 64.59375 
z
" id="DejaVuSans-37"/>
       <path d="M 10.6875 12.40625 
L 21 12.40625 
L 21 0 
L 10.6875 0 
z
" id="DejaVuSans-2e"/>
       <path d="M 10.796875 72.90625 
L 49.515625 72.90625 
L 49.515625 64.59375 
L 19.828125 64.59375 
L 19.828125 46.734375 
Q 21.96875 47.46875 24.109375 47.828125 
Q 26.265625 48.1875 28.421875 48.1875 
Q 40.625 48.1875 47.75 41.5 
Q 54.890625 34.8125 54.890625 23.390625 
Q 54.890625 11.625 47.5625 5.09375 
Q 40.234375 -1.421875 26.90625 -1.421875 
Q 22.3125 -1.421875 17.546875 -0.640625 
Q 12.796875 0.140625 7.71875 1.703125 
L 7.71875 11.625 
Q 12.109375 9.234375 16.796875 8.0625 
Q 21.484375 6.890625 26.703125 6.890625 
Q 35.15625 6.890625 40.078125 11.328125 
Q 45.015625 15.765625 45.015625 23.390625 
Q 45.015625 31 40.078125 35.4375 
Q 35.15625 39.890625 26.703125 39.890625 
Q 22.75 39.890625 18.8125 39.015625 
Q 14.890625 38.140625 10.796875 36.28125 
z
" id="DejaVuSans-35"/>
      </defs>
      <g transform="translate(69.72518 322.182437)scale(0.1 -0.1)">
       <use xlink:href="#DejaVuSans-2212"/>
       <use x="83.789062" xlink:href="#DejaVuSans-37"/>
       <use x="147.412109" xlink:href="#DejaVuSans-2e"/>
       <use x="179.199219" xlink:href="#DejaVuSans-35"/>
      </g>
     </g>
    </g>
    <g id="xtick_2">
     <g id="line2d_2">
      <g>
       <use style="stroke:#000000;stroke-width:0.8;" x="128.422261" xlink:href="#ma51be02eee" y="307.584"/>
      </g>
     </g>
     <g id="text_2">
      <!-- −5.0 -->
      <defs>
       <path d="M 31.78125 66.40625 
Q 24.171875 66.40625 20.328125 58.90625 
Q 16.5 51.421875 16.5 36.375 
Q 16.5 21.390625 20.328125 13.890625 
Q 24.171875 6.390625 31.78125 6.390625 
Q 39.453125 6.390625 43.28125 13.890625 
Q 47.125 21.390625 47.125 36.375 
Q 47.125 51.421875 43.28125 58.90625 
Q 39.453125 66.40625 31.78125 66.40625 
z
M 31.78125 74.21875 
Q 44.046875 74.21875 50.515625 64.515625 
Q 56.984375 54.828125 56.984375 36.375 
Q 56.984375 17.96875 50.515625 8.265625 
Q 44.046875 -1.421875 31.78125 -1.421875 
Q 19.53125 -1.421875 13.0625 8.265625 
Q 6.59375 17.96875 6.59375 36.375 
Q 6.59375 54.828125 13.0625 64.515625 
Q 19.53125 74.21875 31.78125 74.21875 
z
" id="DejaVuSans-30"/>
      </defs>
      <g transform="translate(116.280855 322.182437)scale(0.1 -0.1)">
       <use xlink:href="#DejaVuSans-2212"/>
       <use x="83.789062" xlink:href="#DejaVuSans-35"/>
       <use x="147.412109" xlink:href="#DejaVuSans-2e"/>
       <use x="179.199219" xlink:href="#DejaVuSans-30"/>
      </g>
     </g>
    </g>
    <g id="xtick_3">
     <g id="line2d_3">
      <g>
       <use style="stroke:#000000;stroke-width:0.8;" x="174.977935" xlink:href="#ma51be02eee" y="307.584"/>
      </g>
     </g>
     <g id="text_3">
      <!-- −2.5 -->
      <defs>
       <path d="M 19.1875 8.296875 
L 53.609375 8.296875 
L 53.609375 0 
L 7.328125 0 
L 7.328125 8.296875 
Q 12.9375 14.109375 22.625 23.890625 
Q 32.328125 33.6875 34.8125 36.53125 
Q 39.546875 41.84375 41.421875 45.53125 
Q 43.3125 49.21875 43.3125 52.78125 
Q 43.3125 58.59375 39.234375 62.25 
Q 35.15625 65.921875 28.609375 65.921875 
Q 23.96875 65.921875 18.8125 64.3125 
Q 13.671875 62.703125 7.8125 59.421875 
L 7.8125 69.390625 
Q 13.765625 71.78125 18.9375 73 
Q 24.125 74.21875 28.421875 74.21875 
Q 39.75 74.21875 46.484375 68.546875 
Q 53.21875 62.890625 53.21875 53.421875 
Q 53.21875 48.921875 51.53125 44.890625 
Q 49.859375 40.875 45.40625 35.40625 
Q 44.1875 33.984375 37.640625 27.21875 
Q 31.109375 20.453125 19.1875 8.296875 
z
" id="DejaVuSans-32"/>
      </defs>
      <g transform="translate(162.836529 322.182437)scale(0.1 -0.1)">
       <use xlink:href="#DejaVuSans-2212"/>
       <use x="83.789062" xlink:href="#DejaVuSans-32"/>
       <use x="147.412109" xlink:href="#DejaVuSans-2e"/>
       <use x="179.199219" xlink:href="#DejaVuSans-35"/>
      </g>
     </g>
    </g>
    <g id="xtick_4">
     <g id="line2d_4">
      <g>
       <use style="stroke:#000000;stroke-width:0.8;" x="221.533609" xlink:href="#ma51be02eee" y="307.584"/>
      </g>
     </g>
     <g id="text_4">
      <!-- 0.0 -->
      <g transform="translate(213.582047 322.182437)scale(0.1 -0.1)">
       <use xlink:href="#DejaVuSans-30"/>
       <use x="63.623047" xlink:href="#DejaVuSans-2e"/>
       <use x="95.410156" xlink:href="#DejaVuSans-30"/>
      </g>
     </g>
    </g>
    <g id="xtick_5">
     <g id="line2d_5">
      <g>
       <use style="stroke:#000000;stroke-width:0.8;" x="268.089283" xlink:href="#ma51be02eee" y="307.584"/>
      </g>
     </g>
     <g id="text_5">
      <!-- 2.5 -->
      <g transform="translate(260.137721 322.182437)scale(0.1 -0.1)">
       <use xlink:href="#DejaVuSans-32"/>
       <use x="63.623047" xlink:href="#DejaVuSans-2e"/>
       <use x="95.410156" xlink:href="#DejaVuSans-35"/>
      </g>
     </g>
    </g>
    <g id="xtick_6">
     <g id="line2d_6">
      <g>
       <use style="stroke:#000000;stroke-width:0.8;" x="314.644958" xlink:href="#ma51be02eee" y="307.584"/>
      </g>
     </g>
     <g id="text_6">
      <!-- 5.0 -->
      <g transform="translate(306.693395 322.182437)scale(0.1 -0.1)">
       <use xlink:href="#DejaVuSans-35"/>
       <use x="63.623047" xlink:href="#DejaVuSans-2e"/>
       <use x="95.410156" xlink:href="#DejaVuSans-30"/>
      </g>
     </g>
    </g>
    <g id="xtick_7">
     <g id="line2d_7">
      <g>
       <use style="stroke:#000000;stroke-width:0.8;" x="361.200632" xlink:href="#ma51be02eee" y="307.584"/>
      </g>
     </g>
     <g id="text_7">
      <!-- 7.5 -->
      <g transform="translate(353.249069 322.182437)scale(0.1 -0.1)">
       <use xlink:href="#DejaVuSans-37"/>
       <use x="63.623047" xlink:href="#DejaVuSans-2e"/>
       <use x="95.410156" xlink:href="#DejaVuSans-35"/>
      </g>
     </g>
    </g>
    <g id="xtick_8">
     <g id="line2d_8">
      <g>
       <use style="stroke:#000000;stroke-width:0.8;" x="407.756306" xlink:href="#ma51be02eee" y="307.584"/>
      </g>
     </g>
     <g id="text_8">
      <!-- 10.0 -->
      <defs>
       <path d="M 12.40625 8.296875 
L 28.515625 8.296875 
L 28.515625 63.921875 
L 10.984375 60.40625 
L 10.984375 69.390625 
L 28.421875 72.90625 
L 38.28125 72.90625 
L 38.28125 8.296875 
L 54.390625 8.296875 
L 54.390625 0 
L 12.40625 0 
z
" id="DejaVuSans-31"/>
      </defs>
      <g transform="translate(396.623494 322.182437)scale(0.1 -0.1)">
       <use xlink:href="#DejaVuSans-31"/>
       <use x="63.623047" xlink:href="#DejaVuSans-30"/>
       <use x="127.246094" xlink:href="#DejaVuSans-2e"/>
       <use x="159.033203" xlink:href="#DejaVuSans-30"/>
      </g>
     </g>
    </g>
   </g>
   <g id="matplotlib.axis_2">
    <g id="ytick_1">
     <g id="line2d_9">
      <defs>
       <path d="M 0 0 
L -3.5 0 
" id="me8bcdbd170" style="stroke:#000000;stroke-width:0.8;"/>
      </defs>
      <g>
       <use style="stroke:#000000;stroke-width:0.8;" x="57.6" xlink:href="#me8bcdbd170" y="290.719202"/>
      </g>
     </g>
     <g id="text_9">
      <!-- −8 -->
      <defs>
       <path d="M 31.78125 34.625 
Q 24.75 34.625 20.71875 30.859375 
Q 16.703125 27.09375 16.703125 20.515625 
Q 16.703125 13.921875 20.71875 10.15625 
Q 24.75 6.390625 31.78125 6.390625 
Q 38.8125 6.390625 42.859375 10.171875 
Q 46.921875 13.96875 46.921875 20.515625 
Q 46.921875 27.09375 42.890625 30.859375 
Q 38.875 34.625 31.78125 34.625 
z
M 21.921875 38.8125 
Q 15.578125 40.375 12.03125 44.71875 
Q 8.5 49.078125 8.5 55.328125 
Q 8.5 64.0625 14.71875 69.140625 
Q 20.953125 74.21875 31.78125 74.21875 
Q 42.671875 74.21875 48.875 69.140625 
Q 55.078125 64.0625 55.078125 55.328125 
Q 55.078125 49.078125 51.53125 44.71875 
Q 48 40.375 41.703125 38.8125 
Q 48.828125 37.15625 52.796875 32.3125 
Q 56.78125 27.484375 56.78125 20.515625 
Q 56.78125 9.90625 50.3125 4.234375 
Q 43.84375 -1.421875 31.78125 -1.421875 
Q 19.734375 -1.421875 13.25 4.234375 
Q 6.78125 9.90625 6.78125 20.515625 
Q 6.78125 27.484375 10.78125 32.3125 
Q 14.796875 37.15625 21.921875 38.8125 
z
M 18.3125 54.390625 
Q 18.3125 48.734375 21.84375 45.5625 
Q 25.390625 42.390625 31.78125 42.390625 
Q 38.140625 42.390625 41.71875 45.5625 
Q 45.3125 48.734375 45.3125 54.390625 
Q 45.3125 60.0625 41.71875 63.234375 
Q 38.140625 66.40625 31.78125 66.40625 
Q 25.390625 66.40625 21.84375 63.234375 
Q 18.3125 60.0625 18.3125 54.390625 
z
" id="DejaVuSans-38"/>
      </defs>
      <g transform="translate(35.857813 294.518421)scale(0.1 -0.1)">
       <use xlink:href="#DejaVuSans-2212"/>
       <use x="83.789062" xlink:href="#DejaVuSans-38"/>
      </g>
     </g>
    </g>
    <g id="ytick_2">
     <g id="line2d_10">
      <g>
       <use style="stroke:#000000;stroke-width:0.8;" x="57.6" xlink:href="#me8bcdbd170" y="249.592843"/>
      </g>
     </g>
     <g id="text_10">
      <!-- −6 -->
      <defs>
       <path d="M 33.015625 40.375 
Q 26.375 40.375 22.484375 35.828125 
Q 18.609375 31.296875 18.609375 23.390625 
Q 18.609375 15.53125 22.484375 10.953125 
Q 26.375 6.390625 33.015625 6.390625 
Q 39.65625 6.390625 43.53125 10.953125 
Q 47.40625 15.53125 47.40625 23.390625 
Q 47.40625 31.296875 43.53125 35.828125 
Q 39.65625 40.375 33.015625 40.375 
z
M 52.59375 71.296875 
L 52.59375 62.3125 
Q 48.875 64.0625 45.09375 64.984375 
Q 41.3125 65.921875 37.59375 65.921875 
Q 27.828125 65.921875 22.671875 59.328125 
Q 17.53125 52.734375 16.796875 39.40625 
Q 19.671875 43.65625 24.015625 45.921875 
Q 28.375 48.1875 33.59375 48.1875 
Q 44.578125 48.1875 50.953125 41.515625 
Q 57.328125 34.859375 57.328125 23.390625 
Q 57.328125 12.15625 50.6875 5.359375 
Q 44.046875 -1.421875 33.015625 -1.421875 
Q 20.359375 -1.421875 13.671875 8.265625 
Q 6.984375 17.96875 6.984375 36.375 
Q 6.984375 53.65625 15.1875 63.9375 
Q 23.390625 74.21875 37.203125 74.21875 
Q 40.921875 74.21875 44.703125 73.484375 
Q 48.484375 72.75 52.59375 71.296875 
z
" id="DejaVuSans-36"/>
      </defs>
      <g transform="translate(35.857813 253.392061)scale(0.1 -0.1)">
       <use xlink:href="#DejaVuSans-2212"/>
       <use x="83.789062" xlink:href="#DejaVuSans-36"/>
      </g>
     </g>
    </g>
    <g id="ytick_3">
     <g id="line2d_11">
      <g>
       <use style="stroke:#000000;stroke-width:0.8;" x="57.6" xlink:href="#me8bcdbd170" y="208.466483"/>
      </g>
     </g>
     <g id="text_11">
      <!-- −4 -->
      <defs>
       <path d="M 37.796875 64.3125 
L 12.890625 25.390625 
L 37.796875 25.390625 
z
M 35.203125 72.90625 
L 47.609375 72.90625 
L 47.609375 25.390625 
L 58.015625 25.390625 
L 58.015625 17.1875 
L 47.609375 17.1875 
L 47.609375 0 
L 37.796875 0 
L 37.796875 17.1875 
L 4.890625 17.1875 
L 4.890625 26.703125 
z
" id="DejaVuSans-34"/>
      </defs>
      <g transform="translate(35.857813 212.265702)scale(0.1 -0.1)">
       <use xlink:href="#DejaVuSans-2212"/>
       <use x="83.789062" xlink:href="#DejaVuSans-34"/>
      </g>
     </g>
    </g>
    <g id="ytick_4">
     <g id="line2d_12">
      <g>
       <use style="stroke:#000000;stroke-width:0.8;" x="57.6" xlink:href="#me8bcdbd170" y="167.340123"/>
      </g>
     </g>
     <g id="text_12">
      <!-- −2 -->
      <g transform="translate(35.857813 171.139342)scale(0.1 -0.1)">
       <use xlink:href="#DejaVuSans-2212"/>
       <use x="83.789062" xlink:href="#DejaVuSans-32"/>
      </g>
     </g>
    </g>
    <g id="ytick_5">
     <g id="line2d_13">
      <g>
       <use style="stroke:#000000;stroke-width:0.8;" x="57.6" xlink:href="#me8bcdbd170" y="126.213763"/>
      </g>
     </g>
     <g id="text_13">
      <!-- 0 -->
      <g transform="translate(44.2375 130.012982)scale(0.1 -0.1)">
       <use xlink:href="#DejaVuSans-30"/>
      </g>
     </g>
    </g>
    <g id="ytick_6">
     <g id="line2d_14">
      <g>
       <use style="stroke:#000000;stroke-width:0.8;" x="57.6" xlink:href="#me8bcdbd170" y="85.087404"/>
      </g>
     </g>
     <g id="text_14">
      <!-- 2 -->
      <g transform="translate(44.2375 88.886622)scale(0.1 -0.1)">
       <use xlink:href="#DejaVuSans-32"/>
      </g>
     </g>
    </g>
    <g id="ytick_7">
     <g id="line2d_15">
      <g>
       <use style="stroke:#000000;stroke-width:0.8;" x="57.6" xlink:href="#me8bcdbd170" y="43.961044"/>
      </g>
     </g>
     <g id="text_15">
      <!-- 4 -->
      <g transform="translate(44.2375 47.760263)scale(0.1 -0.1)">
       <use xlink:href="#DejaVuSans-34"/>
      </g>
     </g>
    </g>
   </g>
   <g id="patch_3">
    <path d="M 57.6 307.584 
L 57.6 41.472 
" style="fill:none;stroke:#000000;stroke-linecap:square;stroke-linejoin:miter;stroke-width:0.8;"/>
   </g>
   <g id="patch_4">
    <path d="M 414.72 307.584 
L 414.72 41.472 
" style="fill:none;stroke:#000000;stroke-linecap:square;stroke-linejoin:miter;stroke-width:0.8;"/>
   </g>
   <g id="patch_5">
    <path d="M 57.6 307.584 
L 414.72 307.584 
" style="fill:none;stroke:#000000;stroke-linecap:square;stroke-linejoin:miter;stroke-width:0.8;"/>
   </g>
   <g id="patch_6">
    <path d="M 57.6 41.472 
L 414.72 41.472 
" style="fill:none;stroke:#000000;stroke-linecap:square;stroke-linejoin:miter;stroke-width:0.8;"/>
   </g>
  </g>
 </g>
 <defs>
  <clipPath id="pf71b68f18f">
   <rect height="266.112" width="357.12" x="57.6" y="41.472"/>
  </clipPath>
 </defs>
</svg>
