<?xml version="1.0" encoding="utf-8" standalone="no"?>
<!DOCTYPE svg PUBLIC "-//W3C//DTD SVG 1.1//EN"
  "http://www.w3.org/Graphics/SVG/1.1/DTD/svg11.dtd">
<!-- Created with matplotlib (http://matplotlib.org/) -->
<svg height="345pt" version="1.1" viewBox="0 0 460 345" width="460pt" xmlns="http://www.w3.org/2000/svg" xmlns:xlink="http://www.w3.org/1999/xlink">
 <defs>
  <style type="text/css">
*{stroke-linecap:butt;stroke-linejoin:round;}
  </style>
 </defs>
 <g id="figure_1">
  <g id="patch_1">
   <path d="M 0 345.6 
L 460.8 345.6 
L 460.8 0 
L 0 0 
z
" style="fill:#ffffff;"/>
  </g>
  <g id="axes_1">
   <g id="patch_2">
    <path d="M 57.6 307.584 
L 414.72 307.584 
L 414.72 41.472 
L 57.6 41.472 
z
" style="fill:#ffffff;"/>
   </g>
   <g id="PathCollection_1">
    <path clip-path="url(#p4c05494480)" d="M 204.360724 104.997946 
C 204.451008 104.997946 204.537606 104.962076 204.601446 104.898236 
C 204.665286 104.834395 204.701156 104.747797 204.701156 104.657514 
C 204.701156 104.56723 204.665286 104.480632 204.601446 104.416791 
C 204.537606 104.352951 204.451008 104.317081 204.360724 104.317081 
C 204.27044 104.317081 204.183842 104.352951 204.120002 104.416791 
C 204.056161 104.480632 204.020291 104.56723 204.020291 104.657514 
C 204.020291 104.747797 204.056161 104.834395 204.120002 104.898236 
C 204.183842 104.962076 204.27044 104.997946 204.360724 104.997946 
z
" style="fill:#7fc97f;stroke:#7fc97f;"/>
    <path clip-path="url(#p4c05494480)" d="M 204.360706 104.99792 
C 204.45099 104.99792 204.537588 104.96205 204.601428 104.89821 
C 204.665269 104.83437 204.701139 104.747771 204.701139 104.657488 
C 204.701139 104.567204 204.665269 104.480606 204.601428 104.416765 
C 204.537588 104.352925 204.45099 104.317055 204.360706 104.317055 
C 204.270422 104.317055 204.183824 104.352925 204.119984 104.416765 
C 204.056144 104.480606 204.020274 104.567204 204.020274 104.657488 
C 204.020274 104.747771 204.056144 104.83437 204.119984 104.89821 
C 204.183824 104.96205 204.270422 104.99792 204.360706 104.99792 
z
" style="fill:#7fc97f;stroke:#7fc97f;"/>
    <path clip-path="url(#p4c05494480)" d="M 204.360715 104.997924 
C 204.450999 104.997924 204.537597 104.962054 204.601437 104.898214 
C 204.665277 104.834374 204.701148 104.747776 204.701148 104.657492 
C 204.701148 104.567208 204.665277 104.48061 204.601437 104.41677 
C 204.537597 104.35293 204.450999 104.317059 204.360715 104.317059 
C 204.270431 104.317059 204.183833 104.35293 204.119993 104.41677 
C 204.056153 104.48061 204.020282 104.567208 204.020282 104.657492 
C 204.020282 104.747776 204.056153 104.834374 204.119993 104.898214 
C 204.183833 104.962054 204.270431 104.997924 204.360715 104.997924 
z
" style="fill:#7fc97f;stroke:#7fc97f;"/>
    <path clip-path="url(#p4c05494480)" d="M 91.989012 196.283757 
C 92.085701 196.283757 92.178443 196.245342 92.246812 196.176973 
C 92.315182 196.108604 92.353596 196.015862 92.353596 195.919173 
C 92.353596 195.822484 92.315182 195.729742 92.246812 195.661373 
C 92.178443 195.593003 92.085701 195.554588 91.989012 195.554588 
C 91.892323 195.554588 91.799581 195.593003 91.731212 195.661373 
C 91.662842 195.729742 91.624427 195.822484 91.624427 195.919173 
C 91.624427 196.015862 91.662842 196.108604 91.731212 196.176973 
C 91.799581 196.245342 91.892323 196.283757 91.989012 196.283757 
z
" style="fill:#386cb0;stroke:#386cb0;"/>
    <path clip-path="url(#p4c05494480)" d="M 91.986221 196.308183 
C 92.08291 196.308183 92.175652 196.269768 92.244022 196.201399 
C 92.312391 196.13303 92.350806 196.040288 92.350806 195.943599 
C 92.350806 195.84691 92.312391 195.754168 92.244022 195.685799 
C 92.175652 195.617429 92.08291 195.579014 91.986221 195.579014 
C 91.889532 195.579014 91.796791 195.617429 91.728421 195.685799 
C 91.660052 195.754168 91.621637 195.84691 91.621637 195.943599 
C 91.621637 196.040288 91.660052 196.13303 91.728421 196.201399 
C 91.796791 196.269768 91.889532 196.308183 91.986221 196.308183 
z
" style="fill:#386cb0;stroke:#386cb0;"/>
    <path clip-path="url(#p4c05494480)" d="M 91.989012 196.283753 
C 92.085701 196.283753 92.178443 196.245338 92.246812 196.176969 
C 92.315182 196.108599 92.353596 196.015857 92.353596 195.919169 
C 92.353596 195.82248 92.315182 195.729738 92.246812 195.661368 
C 92.178443 195.592999 92.085701 195.554584 91.989012 195.554584 
C 91.892323 195.554584 91.799581 195.592999 91.731212 195.661368 
C 91.662842 195.729738 91.624427 195.82248 91.624427 195.919169 
C 91.624427 196.015857 91.662842 196.108599 91.731212 196.176969 
C 91.799581 196.245338 91.892323 196.283753 91.989012 196.283753 
z
" style="fill:#386cb0;stroke:#386cb0;"/>
    <path clip-path="url(#p4c05494480)" d="M 178.620212 74.790314 
C 178.682979 74.790314 178.743184 74.765376 178.787567 74.720993 
C 178.831951 74.67661 178.856888 74.616405 178.856888 74.553638 
C 178.856888 74.49087 178.831951 74.430665 178.787567 74.386282 
C 178.743184 74.341899 178.682979 74.316961 178.620212 74.316961 
C 178.557444 74.316961 178.497239 74.341899 178.452856 74.386282 
C 178.408473 74.430665 178.383535 74.49087 178.383535 74.553638 
C 178.383535 74.616405 178.408473 74.67661 178.452856 74.720993 
C 178.497239 74.765376 178.557444 74.790314 178.620212 74.790314 
z
" style="fill:#7fc97f;stroke:#7fc97f;"/>
    <path clip-path="url(#p4c05494480)" d="M 175.174589 70.363647 
C 175.237357 70.363647 175.297562 70.33871 175.341945 70.294326 
C 175.386328 70.249943 175.411266 70.189738 175.411266 70.126971 
C 175.411266 70.064203 175.386328 70.003998 175.341945 69.959615 
C 175.297562 69.915232 175.237357 69.890294 175.174589 69.890294 
C 175.111822 69.890294 175.051617 69.915232 175.007233 69.959615 
C 174.96285 70.003998 174.937912 70.064203 174.937912 70.126971 
C 174.937912 70.189738 174.96285 70.249943 175.007233 70.294326 
C 175.051617 70.33871 175.111822 70.363647 175.174589 70.363647 
z
" style="fill:#7fc97f;stroke:#7fc97f;"/>
    <path clip-path="url(#p4c05494480)" d="M 105.045092 275.60693 
C 105.416714 275.60693 105.773165 275.459283 106.035941 275.196507 
C 106.298717 274.93373 106.446364 274.577279 106.446364 274.205658 
C 106.446364 273.834036 106.298717 273.477585 106.035941 273.214809 
C 105.773165 272.952033 105.416714 272.804386 105.045092 272.804386 
C 104.67347 272.804386 104.317019 272.952033 104.054243 273.214809 
C 103.791467 273.477585 103.64382 273.834036 103.64382 274.205658 
C 103.64382 274.577279 103.791467 274.93373 104.054243 275.196507 
C 104.317019 275.459283 104.67347 275.60693 105.045092 275.60693 
z
" style="fill:#666666;stroke:#666666;"/>
    <path clip-path="url(#p4c05494480)" d="M 105.045101 275.606921 
C 105.416722 275.606921 105.773173 275.459274 106.03595 275.196498 
C 106.298726 274.933722 106.446373 274.577271 106.446373 274.205649 
C 106.446373 273.834028 106.298726 273.477577 106.03595 273.2148 
C 105.773173 272.952024 105.416722 272.804377 105.045101 272.804377 
C 104.673479 272.804377 104.317028 272.952024 104.054252 273.2148 
C 103.791476 273.477577 103.643829 273.834028 103.643829 274.205649 
C 103.643829 274.577271 103.791476 274.933722 104.054252 275.196498 
C 104.317028 275.459274 104.673479 275.606921 105.045101 275.606921 
z
" style="fill:#666666;stroke:#666666;"/>
    <path clip-path="url(#p4c05494480)" d="M 131.291242 250.729833 
C 131.530891 250.729833 131.760756 250.63462 131.930213 250.465163 
C 132.099671 250.295705 132.194884 250.06584 132.194884 249.826191 
C 132.194884 249.586543 132.099671 249.356677 131.930213 249.18722 
C 131.760756 249.017763 131.530891 248.922549 131.291242 248.922549 
C 131.051593 248.922549 130.821728 249.017763 130.652271 249.18722 
C 130.482813 249.356677 130.3876 249.586543 130.3876 249.826191 
C 130.3876 250.06584 130.482813 250.295705 130.652271 250.465163 
C 130.821728 250.63462 131.051593 250.729833 131.291242 250.729833 
z
" style="fill:#386cb0;stroke:#386cb0;"/>
    <path clip-path="url(#p4c05494480)" d="M 131.28926 250.734396 
C 131.528909 250.734396 131.758774 250.639183 131.928232 250.469726 
C 132.097689 250.300268 132.192902 250.070403 132.192902 249.830754 
C 132.192902 249.591106 132.097689 249.36124 131.928232 249.191783 
C 131.758774 249.022326 131.528909 248.927112 131.28926 248.927112 
C 131.049612 248.927112 130.819746 249.022326 130.650289 249.191783 
C 130.480832 249.36124 130.385618 249.591106 130.385618 249.830754 
C 130.385618 250.070403 130.480832 250.300268 130.650289 250.469726 
C 130.819746 250.639183 131.049612 250.734396 131.28926 250.734396 
z
" style="fill:#386cb0;stroke:#386cb0;"/>
    <path clip-path="url(#p4c05494480)" d="M 143.3658 163.08932 
C 143.369019 163.08932 143.372107 163.088041 143.374383 163.085764 
C 143.376659 163.083488 143.377938 163.0804 143.377938 163.077181 
C 143.377938 163.073962 143.376659 163.070875 143.374383 163.068598 
C 143.372107 163.066322 143.369019 163.065043 143.3658 163.065043 
C 143.362581 163.065043 143.359493 163.066322 143.357217 163.068598 
C 143.354941 163.070875 143.353662 163.073962 143.353662 163.077181 
C 143.353662 163.0804 143.354941 163.083488 143.357217 163.085764 
C 143.359493 163.088041 143.362581 163.08932 143.3658 163.08932 
z
" style="fill:#386cb0;stroke:#386cb0;"/>
    <path clip-path="url(#p4c05494480)" d="M 141.381392 156.387609 
C 141.384611 156.387609 141.387698 156.38633 141.389975 156.384053 
C 141.392251 156.381777 141.39353 156.378689 141.39353 156.37547 
C 141.39353 156.372251 141.392251 156.369164 141.389975 156.366887 
C 141.387698 156.364611 141.384611 156.363332 141.381392 156.363332 
C 141.378172 156.363332 141.375085 156.364611 141.372809 156.366887 
C 141.370532 156.369164 141.369253 156.372251 141.369253 156.37547 
C 141.369253 156.378689 141.370532 156.381777 141.372809 156.384053 
C 141.375085 156.38633 141.378172 156.387609 141.381392 156.387609 
z
" style="fill:#386cb0;stroke:#386cb0;"/>
    <path clip-path="url(#p4c05494480)" d="M 142.3659 163.465961 
C 142.369119 163.465961 142.372206 163.464682 142.374483 163.462406 
C 142.376759 163.46013 142.378038 163.457042 142.378038 163.453823 
C 142.378038 163.450604 142.376759 163.447516 142.374483 163.44524 
C 142.372206 163.442964 142.369119 163.441685 142.3659 163.441685 
C 142.362681 163.441685 142.359593 163.442964 142.357317 163.44524 
C 142.35504 163.447516 142.353761 163.450604 142.353761 163.453823 
C 142.353761 163.457042 142.35504 163.46013 142.357317 163.462406 
C 142.359593 163.464682 142.362681 163.465961 142.3659 163.465961 
z
" style="fill:#386cb0;stroke:#386cb0;"/>
    <path clip-path="url(#p4c05494480)" d="M 224.785473 166.569896 
C 224.936233 166.569896 225.080839 166.509998 225.187443 166.403395 
C 225.294046 166.296791 225.353944 166.152185 225.353944 166.001425 
C 225.353944 165.850664 225.294046 165.706058 225.187443 165.599455 
C 225.080839 165.492851 224.936233 165.432953 224.785473 165.432953 
C 224.634712 165.432953 224.490106 165.492851 224.383503 165.599455 
C 224.276899 165.706058 224.217001 165.850664 224.217001 166.001425 
C 224.217001 166.152185 224.276899 166.296791 224.383503 166.403395 
C 224.490106 166.509998 224.634712 166.569896 224.785473 166.569896 
z
" style="fill:#7fc97f;stroke:#7fc97f;"/>
    <path clip-path="url(#p4c05494480)" d="M 224.797652 166.546065 
C 224.948413 166.546065 225.093019 166.486168 225.199622 166.379564 
C 225.306226 166.27296 225.366124 166.128354 225.366124 165.977594 
C 225.366124 165.826834 225.306226 165.682228 225.199622 165.575624 
C 225.093019 165.46902 224.948413 165.409123 224.797652 165.409123 
C 224.646892 165.409123 224.502286 165.46902 224.395682 165.575624 
C 224.289079 165.682228 224.229181 165.826834 224.229181 165.977594 
C 224.229181 166.128354 224.289079 166.27296 224.395682 166.379564 
C 224.502286 166.486168 224.646892 166.546065 224.797652 166.546065 
z
" style="fill:#7fc97f;stroke:#7fc97f;"/>
    <path clip-path="url(#p4c05494480)" d="M 224.827782 166.538679 
C 224.978542 166.538679 225.123148 166.478782 225.229752 166.372178 
C 225.336355 166.265574 225.396253 166.120968 225.396253 165.970208 
C 225.396253 165.819448 225.336355 165.674842 225.229752 165.568238 
C 225.123148 165.461634 224.978542 165.401737 224.827782 165.401737 
C 224.677021 165.401737 224.532415 165.461634 224.425812 165.568238 
C 224.319208 165.674842 224.25931 165.819448 224.25931 165.970208 
C 224.25931 166.120968 224.319208 166.265574 224.425812 166.372178 
C 224.532415 166.478782 224.677021 166.538679 224.827782 166.538679 
z
" style="fill:#7fc97f;stroke:#7fc97f;"/>
    <path clip-path="url(#p4c05494480)" d="M 278.797401 118.014182 
C 278.942652 118.014182 279.081973 117.956473 279.184681 117.853766 
C 279.287388 117.751058 279.345097 117.611737 279.345097 117.466486 
C 279.345097 117.321236 279.287388 117.181915 279.184681 117.079207 
C 279.081973 116.9765 278.942652 116.918791 278.797401 116.918791 
C 278.652151 116.918791 278.51283 116.9765 278.410122 117.079207 
C 278.307415 117.181915 278.249706 117.321236 278.249706 117.466486 
C 278.249706 117.611737 278.307415 117.751058 278.410122 117.853766 
C 278.51283 117.956473 278.652151 118.014182 278.797401 118.014182 
z
" style="fill:#7fc97f;stroke:#7fc97f;"/>
    <path clip-path="url(#p4c05494480)" d="M 273.780383 127.05808 
C 273.925634 127.05808 274.064955 127.000371 274.167662 126.897664 
C 274.27037 126.794956 274.328078 126.655635 274.328078 126.510385 
C 274.328078 126.365134 274.27037 126.225813 274.167662 126.123106 
C 274.064955 126.020398 273.925634 125.962689 273.780383 125.962689 
C 273.635133 125.962689 273.495812 126.020398 273.393104 126.123106 
C 273.290396 126.225813 273.232688 126.365134 273.232688 126.510385 
C 273.232688 126.655635 273.290396 126.794956 273.393104 126.897664 
C 273.495812 127.000371 273.635133 127.05808 273.780383 127.05808 
z
" style="fill:#7fc97f;stroke:#7fc97f;"/>
    <path clip-path="url(#p4c05494480)" d="M 273.779868 127.05946 
C 273.925118 127.05946 274.064439 127.001752 274.167147 126.899044 
C 274.269854 126.796336 274.327563 126.657015 274.327563 126.511765 
C 274.327563 126.366514 274.269854 126.227193 274.167147 126.124486 
C 274.064439 126.021778 273.925118 125.96407 273.779868 125.96407 
C 273.634617 125.96407 273.495296 126.021778 273.392589 126.124486 
C 273.289881 126.227193 273.232172 126.366514 273.232172 126.511765 
C 273.232172 126.657015 273.289881 126.796336 273.392589 126.899044 
C 273.495296 127.001752 273.634617 127.05946 273.779868 127.05946 
z
" style="fill:#7fc97f;stroke:#7fc97f;"/>
    <path clip-path="url(#p4c05494480)" d="M 152.162012 111.025023 
C 152.165231 111.025023 152.168319 111.023744 152.170595 111.021468 
C 152.172871 111.019192 152.17415 111.016104 152.17415 111.012885 
C 152.17415 111.009666 152.172871 111.006578 152.170595 111.004302 
C 152.168319 111.002026 152.165231 111.000747 152.162012 111.000747 
C 152.158793 111.000747 152.155705 111.002026 152.153429 111.004302 
C 152.151153 111.006578 152.149874 111.009666 152.149874 111.012885 
C 152.149874 111.016104 152.151153 111.019192 152.153429 111.021468 
C 152.155705 111.023744 152.158793 111.025023 152.162012 111.025023 
z
" style="fill:#7fc97f;stroke:#7fc97f;"/>
    <path clip-path="url(#p4c05494480)" d="M 152.162012 111.025023 
C 152.165231 111.025023 152.168319 111.023744 152.170595 111.021468 
C 152.172871 111.019192 152.17415 111.016104 152.17415 111.012885 
C 152.17415 111.009666 152.172871 111.006578 152.170595 111.004302 
C 152.168319 111.002026 152.165231 111.000747 152.162012 111.000747 
C 152.158793 111.000747 152.155705 111.002026 152.153429 111.004302 
C 152.151153 111.006578 152.149874 111.009666 152.149874 111.012885 
C 152.149874 111.016104 152.151153 111.019192 152.153429 111.021468 
C 152.155705 111.023744 152.158793 111.025023 152.162012 111.025023 
z
" style="fill:#7fc97f;stroke:#7fc97f;"/>
    <path clip-path="url(#p4c05494480)" d="M 361.312413 213.802608 
C 361.425598 213.802608 361.534163 213.757639 361.614197 213.677605 
C 361.694232 213.59757 361.739201 213.489005 361.739201 213.37582 
C 361.739201 213.262634 361.694232 213.154069 361.614197 213.074035 
C 361.534163 212.994001 361.425598 212.949032 361.312413 212.949032 
C 361.199227 212.949032 361.090662 212.994001 361.010628 213.074035 
C 360.930593 213.154069 360.885624 213.262634 360.885624 213.37582 
C 360.885624 213.489005 360.930593 213.59757 361.010628 213.677605 
C 361.090662 213.757639 361.199227 213.802608 361.312413 213.802608 
z
" style="fill:#7fc97f;stroke:#7fc97f;"/>
    <path clip-path="url(#p4c05494480)" d="M 372.842256 216.791256 
C 372.955442 216.791256 373.064007 216.746287 373.144041 216.666252 
C 373.224075 216.586218 373.269045 216.477653 373.269045 216.364467 
C 373.269045 216.251282 373.224075 216.142717 373.144041 216.062683 
C 373.064007 215.982648 372.955442 215.937679 372.842256 215.937679 
C 372.729071 215.937679 372.620506 215.982648 372.540471 216.062683 
C 372.460437 216.142717 372.415468 216.251282 372.415468 216.364467 
C 372.415468 216.477653 372.460437 216.586218 372.540471 216.666252 
C 372.620506 216.746287 372.729071 216.791256 372.842256 216.791256 
z
" style="fill:#7fc97f;stroke:#7fc97f;"/>
    <path clip-path="url(#p4c05494480)" d="M 359.731459 188.869135 
C 359.795154 188.869135 359.85625 188.843828 359.90129 188.798789 
C 359.946329 188.753749 359.971636 188.692654 359.971636 188.628958 
C 359.971636 188.565262 359.946329 188.504167 359.90129 188.459127 
C 359.85625 188.414087 359.795154 188.388781 359.731459 188.388781 
C 359.667763 188.388781 359.606668 188.414087 359.561628 188.459127 
C 359.516588 188.504167 359.491282 188.565262 359.491282 188.628958 
C 359.491282 188.692654 359.516588 188.753749 359.561628 188.798789 
C 359.606668 188.843828 359.667763 188.869135 359.731459 188.869135 
z
" style="fill:#7fc97f;stroke:#7fc97f;"/>
    <path clip-path="url(#p4c05494480)" d="M 359.731699 188.869164 
C 359.795394 188.869164 359.85649 188.843858 359.901529 188.798818 
C 359.946569 188.753778 359.971876 188.692683 359.971876 188.628987 
C 359.971876 188.565291 359.946569 188.504196 359.901529 188.459156 
C 359.85649 188.414117 359.795394 188.38881 359.731699 188.38881 
C 359.668003 188.38881 359.606908 188.414117 359.561868 188.459156 
C 359.516828 188.504196 359.491522 188.565291 359.491522 188.628987 
C 359.491522 188.692683 359.516828 188.753778 359.561868 188.798818 
C 359.606908 188.843858 359.668003 188.869164 359.731699 188.869164 
z
" style="fill:#7fc97f;stroke:#7fc97f;"/>
    <path clip-path="url(#p4c05494480)" d="M 73.865906 288.10106 
C 74.100078 288.10106 74.32469 288.008022 74.490275 287.842438 
C 74.655859 287.676854 74.748897 287.452241 74.748897 287.21807 
C 74.748897 286.983898 74.655859 286.759286 74.490275 286.593701 
C 74.32469 286.428117 74.100078 286.335079 73.865906 286.335079 
C 73.631734 286.335079 73.407122 286.428117 73.241538 286.593701 
C 73.075953 286.759286 72.982916 286.983898 72.982916 287.21807 
C 72.982916 287.452241 73.075953 287.676854 73.241538 287.842438 
C 73.407122 288.008022 73.631734 288.10106 73.865906 288.10106 
z
" style="fill:#666666;stroke:#666666;"/>
    <path clip-path="url(#p4c05494480)" d="M 75.329391 293.130884 
C 75.563563 293.130884 75.788175 293.037846 75.953759 292.872262 
C 76.119344 292.706677 76.212381 292.482065 76.212381 292.247893 
C 76.212381 292.013721 76.119344 291.789109 75.953759 291.623525 
C 75.788175 291.45794 75.563563 291.364903 75.329391 291.364903 
C 75.095219 291.364903 74.870607 291.45794 74.705022 291.623525 
C 74.539438 291.789109 74.446401 292.013721 74.446401 292.247893 
C 74.446401 292.482065 74.539438 292.706677 74.705022 292.872262 
C 74.870607 293.037846 75.095219 293.130884 75.329391 293.130884 
z
" style="fill:#666666;stroke:#666666;"/>
    <path clip-path="url(#p4c05494480)" d="M 77.512123 286.267187 
C 77.746295 286.267187 77.970907 286.17415 78.136491 286.008565 
C 78.302076 285.842981 78.395113 285.618368 78.395113 285.384197 
C 78.395113 285.150025 78.302076 284.925413 78.136491 284.759828 
C 77.970907 284.594244 77.746295 284.501206 77.512123 284.501206 
C 77.277951 284.501206 77.053339 284.594244 76.887754 284.759828 
C 76.72217 284.925413 76.629133 285.150025 76.629133 285.384197 
C 76.629133 285.618368 76.72217 285.842981 76.887754 286.008565 
C 77.053339 286.17415 77.277951 286.267187 77.512123 286.267187 
z
" style="fill:#666666;stroke:#666666;"/>
    <path clip-path="url(#p4c05494480)" d="M 76.274743 293.626951 
C 76.508914 293.626951 76.733527 293.533914 76.899111 293.36833 
C 77.064695 293.202745 77.157733 292.978133 77.157733 292.743961 
C 77.157733 292.509789 77.064695 292.285177 76.899111 292.119593 
C 76.733527 291.954008 76.508914 291.860971 76.274743 291.860971 
C 76.040571 291.860971 75.815959 291.954008 75.650374 292.119593 
C 75.48479 292.285177 75.391752 292.509789 75.391752 292.743961 
C 75.391752 292.978133 75.48479 293.202745 75.650374 293.36833 
C 75.815959 293.533914 76.040571 293.626951 76.274743 293.626951 
z
" style="fill:#666666;stroke:#666666;"/>
    <path clip-path="url(#p4c05494480)" d="M 287.74251 197.080015 
C 287.7998 197.080015 287.854752 197.057253 287.895262 197.016743 
C 287.935773 196.976232 287.958535 196.92128 287.958535 196.86399 
C 287.958535 196.806699 287.935773 196.751748 287.895262 196.711237 
C 287.854752 196.670727 287.7998 196.647965 287.74251 196.647965 
C 287.685219 196.647965 287.630267 196.670727 287.589757 196.711237 
C 287.549246 196.751748 287.526484 196.806699 287.526484 196.86399 
C 287.526484 196.92128 287.549246 196.976232 287.589757 197.016743 
C 287.630267 197.057253 287.685219 197.080015 287.74251 197.080015 
z
" style="fill:#7fc97f;stroke:#7fc97f;"/>
    <path clip-path="url(#p4c05494480)" d="M 285.575143 198.961213 
C 285.632434 198.961213 285.687386 198.938451 285.727896 198.897941 
C 285.768407 198.85743 285.791168 198.802479 285.791168 198.745188 
C 285.791168 198.687898 285.768407 198.632946 285.727896 198.592435 
C 285.687386 198.551925 285.632434 198.529163 285.575143 198.529163 
C 285.517853 198.529163 285.462901 198.551925 285.42239 198.592435 
C 285.38188 198.632946 285.359118 198.687898 285.359118 198.745188 
C 285.359118 198.802479 285.38188 198.85743 285.42239 198.897941 
C 285.462901 198.938451 285.517853 198.961213 285.575143 198.961213 
z
" style="fill:#7fc97f;stroke:#7fc97f;"/>
    <path clip-path="url(#p4c05494480)" d="M 287.74251 197.080015 
C 287.7998 197.080015 287.854752 197.057253 287.895262 197.016743 
C 287.935773 196.976232 287.958535 196.92128 287.958535 196.86399 
C 287.958535 196.806699 287.935773 196.751748 287.895262 196.711237 
C 287.854752 196.670727 287.7998 196.647965 287.74251 196.647965 
C 287.685219 196.647965 287.630267 196.670727 287.589757 196.711237 
C 287.549246 196.751748 287.526484 196.806699 287.526484 196.86399 
C 287.526484 196.92128 287.549246 196.976232 287.589757 197.016743 
C 287.630267 197.057253 287.685219 197.080015 287.74251 197.080015 
z
" style="fill:#7fc97f;stroke:#7fc97f;"/>
    <path clip-path="url(#p4c05494480)" d="M 301.911684 128.311843 
C 302.029451 128.311843 302.142411 128.265053 302.225685 128.181779 
C 302.308959 128.098505 302.355748 127.985546 302.355748 127.867779 
C 302.355748 127.750012 302.308959 127.637052 302.225685 127.553778 
C 302.142411 127.470504 302.029451 127.423715 301.911684 127.423715 
C 301.793917 127.423715 301.680958 127.470504 301.597684 127.553778 
C 301.51441 127.637052 301.46762 127.750012 301.46762 127.867779 
C 301.46762 127.985546 301.51441 128.098505 301.597684 128.181779 
C 301.680958 128.265053 301.793917 128.311843 301.911684 128.311843 
z
" style="fill:#7fc97f;stroke:#7fc97f;"/>
    <path clip-path="url(#p4c05494480)" d="M 293.352294 139.441599 
C 293.470062 139.441599 293.583021 139.394809 293.666295 139.311535 
C 293.749569 139.228261 293.796358 139.115302 293.796358 138.997535 
C 293.796358 138.879767 293.749569 138.766808 293.666295 138.683534 
C 293.583021 138.60026 293.470062 138.553471 293.352294 138.553471 
C 293.234527 138.553471 293.121568 138.60026 293.038294 138.683534 
C 292.95502 138.766808 292.908231 138.879767 292.908231 138.997535 
C 292.908231 139.115302 292.95502 139.228261 293.038294 139.311535 
C 293.121568 139.394809 293.234527 139.441599 293.352294 139.441599 
z
" style="fill:#7fc97f;stroke:#7fc97f;"/>
    <path clip-path="url(#p4c05494480)" d="M 301.943078 128.201894 
C 302.060845 128.201894 302.173804 128.155105 302.257078 128.071831 
C 302.340352 127.988557 302.387142 127.875598 302.387142 127.75783 
C 302.387142 127.640063 302.340352 127.527104 302.257078 127.44383 
C 302.173804 127.360556 302.060845 127.313767 301.943078 127.313767 
C 301.825311 127.313767 301.712351 127.360556 301.629077 127.44383 
C 301.545803 127.527104 301.499014 127.640063 301.499014 127.75783 
C 301.499014 127.875598 301.545803 127.988557 301.629077 128.071831 
C 301.712351 128.155105 301.825311 128.201894 301.943078 128.201894 
z
" style="fill:#7fc97f;stroke:#7fc97f;"/>
    <path clip-path="url(#p4c05494480)" d="M 259.511168 219.315421 
C 259.530884 219.315421 259.549794 219.307588 259.563736 219.293647 
C 259.577677 219.279706 259.58551 219.260795 259.58551 219.241079 
C 259.58551 219.221364 259.577677 219.202453 259.563736 219.188512 
C 259.549794 219.174571 259.530884 219.166737 259.511168 219.166737 
C 259.491452 219.166737 259.472541 219.174571 259.4586 219.188512 
C 259.444659 219.202453 259.436826 219.221364 259.436826 219.241079 
C 259.436826 219.260795 259.444659 219.279706 259.4586 219.293647 
C 259.472541 219.307588 259.491452 219.315421 259.511168 219.315421 
z
" style="fill:#7fc97f;stroke:#7fc97f;"/>
    <path clip-path="url(#p4c05494480)" d="M 259.511168 219.315421 
C 259.530884 219.315421 259.549794 219.307588 259.563736 219.293647 
C 259.577677 219.279706 259.58551 219.260795 259.58551 219.241079 
C 259.58551 219.221364 259.577677 219.202453 259.563736 219.188512 
C 259.549794 219.174571 259.530884 219.166737 259.511168 219.166737 
C 259.491452 219.166737 259.472541 219.174571 259.4586 219.188512 
C 259.444659 219.202453 259.436826 219.221364 259.436826 219.241079 
C 259.436826 219.260795 259.444659 219.279706 259.4586 219.293647 
C 259.472541 219.307588 259.491452 219.315421 259.511168 219.315421 
z
" style="fill:#7fc97f;stroke:#7fc97f;"/>
    <path clip-path="url(#p4c05494480)" d="M 318.914475 157.966932 
C 318.977242 157.966932 319.037447 157.941994 319.08183 157.897611 
C 319.126213 157.853228 319.151151 157.793023 319.151151 157.730255 
C 319.151151 157.667488 319.126213 157.607283 319.08183 157.562899 
C 319.037447 157.518516 318.977242 157.493578 318.914475 157.493578 
C 318.851707 157.493578 318.791502 157.518516 318.747119 157.562899 
C 318.702736 157.607283 318.677798 157.667488 318.677798 157.730255 
C 318.677798 157.793023 318.702736 157.853228 318.747119 157.897611 
C 318.791502 157.941994 318.851707 157.966932 318.914475 157.966932 
z
" style="fill:#7fc97f;stroke:#7fc97f;"/>
    <path clip-path="url(#p4c05494480)" d="M 322.970851 150.731852 
C 323.033618 150.731852 323.093824 150.706914 323.138207 150.662531 
C 323.18259 150.618148 323.207528 150.557942 323.207528 150.495175 
C 323.207528 150.432408 323.18259 150.372203 323.138207 150.327819 
C 323.093824 150.283436 323.033618 150.258498 322.970851 150.258498 
C 322.908084 150.258498 322.847879 150.283436 322.803495 150.327819 
C 322.759112 150.372203 322.734174 150.432408 322.734174 150.495175 
C 322.734174 150.557942 322.759112 150.618148 322.803495 150.662531 
C 322.847879 150.706914 322.908084 150.731852 322.970851 150.731852 
z
" style="fill:#7fc97f;stroke:#7fc97f;"/>
    <path clip-path="url(#p4c05494480)" d="M 319.013654 158.208154 
C 319.076421 158.208154 319.136627 158.183216 319.18101 158.138833 
C 319.225393 158.094449 319.250331 158.034244 319.250331 157.971477 
C 319.250331 157.908709 319.225393 157.848504 319.18101 157.804121 
C 319.136627 157.759738 319.076421 157.7348 319.013654 157.7348 
C 318.950887 157.7348 318.890682 157.759738 318.846298 157.804121 
C 318.801915 157.848504 318.776977 157.908709 318.776977 157.971477 
C 318.776977 158.034244 318.801915 158.094449 318.846298 158.138833 
C 318.890682 158.183216 318.950887 158.208154 319.013654 158.208154 
z
" style="fill:#7fc97f;stroke:#7fc97f;"/>
    <path clip-path="url(#p4c05494480)" d="M 391.027545 181.628004 
C 391.107737 181.628004 391.184656 181.596143 391.24136 181.539439 
C 391.298065 181.482734 391.329926 181.405816 391.329926 181.325623 
C 391.329926 181.245431 391.298065 181.168512 391.24136 181.111808 
C 391.184656 181.055103 391.107737 181.023242 391.027545 181.023242 
C 390.947352 181.023242 390.870434 181.055103 390.813729 181.111808 
C 390.757025 181.168512 390.725164 181.245431 390.725164 181.325623 
C 390.725164 181.405816 390.757025 181.482734 390.813729 181.539439 
C 390.870434 181.596143 390.947352 181.628004 391.027545 181.628004 
z
" style="fill:#7fc97f;stroke:#7fc97f;"/>
    <path clip-path="url(#p4c05494480)" d="M 279.317619 221.059882 
C 279.380386 221.059882 279.440591 221.034944 279.484974 220.990561 
C 279.529358 220.946177 279.554295 220.885972 279.554295 220.823205 
C 279.554295 220.760437 279.529358 220.700232 279.484974 220.655849 
C 279.440591 220.611466 279.380386 220.586528 279.317619 220.586528 
C 279.254851 220.586528 279.194646 220.611466 279.150263 220.655849 
C 279.10588 220.700232 279.080942 220.760437 279.080942 220.823205 
C 279.080942 220.885972 279.10588 220.946177 279.150263 220.990561 
C 279.194646 221.034944 279.254851 221.059882 279.317619 221.059882 
z
" style="fill:#7fc97f;stroke:#7fc97f;"/>
    <path clip-path="url(#p4c05494480)" d="M 193.078869 69.015771 
C 193.158133 69.015771 193.234161 68.984279 193.290209 68.928231 
C 193.346258 68.872183 193.377749 68.796155 193.377749 68.716891 
C 193.377749 68.637626 193.346258 68.561598 193.290209 68.50555 
C 193.234161 68.449502 193.158133 68.41801 193.078869 68.41801 
C 192.999605 68.41801 192.923577 68.449502 192.867529 68.50555 
C 192.81148 68.561598 192.779989 68.637626 192.779989 68.716891 
C 192.779989 68.796155 192.81148 68.872183 192.867529 68.928231 
C 192.923577 68.984279 192.999605 69.015771 193.078869 69.015771 
z
" style="fill:#7fc97f;stroke:#7fc97f;"/>
    <path clip-path="url(#p4c05494480)" d="M 189.735803 60.236412 
C 189.815067 60.236412 189.891095 60.20492 189.947143 60.148872 
C 190.003192 60.092824 190.034684 60.016796 190.034684 59.937532 
C 190.034684 59.858268 190.003192 59.782239 189.947143 59.726191 
C 189.891095 59.670143 189.815067 59.638651 189.735803 59.638651 
C 189.656539 59.638651 189.580511 59.670143 189.524463 59.726191 
C 189.468415 59.782239 189.436923 59.858268 189.436923 59.937532 
C 189.436923 60.016796 189.468415 60.092824 189.524463 60.148872 
C 189.580511 60.20492 189.656539 60.236412 189.735803 60.236412 
z
" style="fill:#7fc97f;stroke:#7fc97f;"/>
    <path clip-path="url(#p4c05494480)" d="M 192.903634 64.059353 
C 192.982898 64.059353 193.058926 64.027861 193.114974 63.971813 
C 193.171023 63.915764 193.202514 63.839736 193.202514 63.760472 
C 193.202514 63.681208 193.171023 63.60518 193.114974 63.549132 
C 193.058926 63.493084 192.982898 63.461592 192.903634 63.461592 
C 192.82437 63.461592 192.748342 63.493084 192.692294 63.549132 
C 192.636246 63.60518 192.604754 63.681208 192.604754 63.760472 
C 192.604754 63.839736 192.636246 63.915764 192.692294 63.971813 
C 192.748342 64.027861 192.82437 64.059353 192.903634 64.059353 
z
" style="fill:#7fc97f;stroke:#7fc97f;"/>
    <path clip-path="url(#p4c05494480)" d="M 174.392111 287.131092 
C 174.604276 287.131092 174.80778 287.046798 174.957804 286.896775 
C 175.107827 286.746751 175.192121 286.543247 175.192121 286.331082 
C 175.192121 286.118917 175.107827 285.915412 174.957804 285.765389 
C 174.80778 285.615365 174.604276 285.531071 174.392111 285.531071 
C 174.179945 285.531071 173.976441 285.615365 173.826418 285.765389 
C 173.676394 285.915412 173.5921 286.118917 173.5921 286.331082 
C 173.5921 286.543247 173.676394 286.746751 173.826418 286.896775 
C 173.976441 287.046798 174.179945 287.131092 174.392111 287.131092 
z
" style="fill:#386cb0;stroke:#386cb0;"/>
    <path clip-path="url(#p4c05494480)" d="M 175.091078 287.331193 
C 175.303243 287.331193 175.506747 287.246899 175.65677 287.096875 
C 175.806794 286.946852 175.891088 286.743348 175.891088 286.531182 
C 175.891088 286.319017 175.806794 286.115513 175.65677 285.965489 
C 175.506747 285.815466 175.303243 285.731172 175.091078 285.731172 
C 174.878912 285.731172 174.675408 285.815466 174.525385 285.965489 
C 174.375361 286.115513 174.291067 286.319017 174.291067 286.531182 
C 174.291067 286.743348 174.375361 286.946852 174.525385 287.096875 
C 174.675408 287.246899 174.878912 287.331193 175.091078 287.331193 
z
" style="fill:#386cb0;stroke:#386cb0;"/>
    <path clip-path="url(#p4c05494480)" d="M 204.061768 245.15978 
C 204.207947 245.15978 204.348158 245.101703 204.451522 244.998339 
C 204.554886 244.894975 204.612963 244.754763 204.612963 244.608585 
C 204.612963 244.462406 204.554886 244.322194 204.451522 244.21883 
C 204.348158 244.115466 204.207947 244.057389 204.061768 244.057389 
C 203.915589 244.057389 203.775378 244.115466 203.672014 244.21883 
C 203.56865 244.322194 203.510572 244.462406 203.510572 244.608585 
C 203.510572 244.754763 203.56865 244.894975 203.672014 244.998339 
C 203.775378 245.101703 203.915589 245.15978 204.061768 245.15978 
z
" style="fill:#386cb0;stroke:#386cb0;"/>
    <path clip-path="url(#p4c05494480)" d="M 204.06191 245.159254 
C 204.208089 245.159254 204.3483 245.101177 204.451664 244.997813 
C 204.555028 244.894449 204.613106 244.754237 204.613106 244.608058 
C 204.613106 244.46188 204.555028 244.321668 204.451664 244.218304 
C 204.3483 244.11494 204.208089 244.056863 204.06191 244.056863 
C 203.915731 244.056863 203.77552 244.11494 203.672156 244.218304 
C 203.568792 244.321668 203.510714 244.46188 203.510714 244.608058 
C 203.510714 244.754237 203.568792 244.894449 203.672156 244.997813 
C 203.77552 245.101177 203.915731 245.159254 204.06191 245.159254 
z
" style="fill:#386cb0;stroke:#386cb0;"/>
    <path clip-path="url(#p4c05494480)" d="M 221.084267 83.952769 
C 221.169041 83.952769 221.250354 83.919088 221.310299 83.859144 
C 221.370243 83.7992 221.403924 83.717887 221.403924 83.633113 
C 221.403924 83.548339 221.370243 83.467026 221.310299 83.407082 
C 221.250354 83.347137 221.169041 83.313456 221.084267 83.313456 
C 220.999493 83.313456 220.91818 83.347137 220.858236 83.407082 
C 220.798292 83.467026 220.764611 83.548339 220.764611 83.633113 
C 220.764611 83.717887 220.798292 83.7992 220.858236 83.859144 
C 220.91818 83.919088 220.999493 83.952769 221.084267 83.952769 
z
" style="fill:#7fc97f;stroke:#7fc97f;"/>
    <path clip-path="url(#p4c05494480)" d="M 221.054918 83.810435 
C 221.139692 83.810435 221.221005 83.776754 221.280949 83.71681 
C 221.340893 83.656866 221.374574 83.575553 221.374574 83.490779 
C 221.374574 83.406005 221.340893 83.324692 221.280949 83.264748 
C 221.221005 83.204804 221.139692 83.171123 221.054918 83.171123 
C 220.970144 83.171123 220.888831 83.204804 220.828886 83.264748 
C 220.768942 83.324692 220.735261 83.406005 220.735261 83.490779 
C 220.735261 83.575553 220.768942 83.656866 220.828886 83.71681 
C 220.888831 83.776754 220.970144 83.810435 221.054918 83.810435 
z
" style="fill:#7fc97f;stroke:#7fc97f;"/>
    <path clip-path="url(#p4c05494480)" d="M 180.612361 62.616993 
C 180.686148 62.616993 180.756923 62.587677 180.809098 62.535502 
C 180.861274 62.483326 180.89059 62.412552 180.89059 62.338764 
C 180.89059 62.264977 180.861274 62.194202 180.809098 62.142027 
C 180.756923 62.089852 180.686148 62.060536 180.612361 62.060536 
C 180.538574 62.060536 180.467799 62.089852 180.415623 62.142027 
C 180.363448 62.194202 180.334132 62.264977 180.334132 62.338764 
C 180.334132 62.412552 180.363448 62.483326 180.415623 62.535502 
C 180.467799 62.587677 180.538574 62.616993 180.612361 62.616993 
z
" style="fill:#7fc97f;stroke:#7fc97f;"/>
    <path clip-path="url(#p4c05494480)" d="M 189.436238 73.573807 
C 189.510025 73.573807 189.5808 73.544491 189.632976 73.492315 
C 189.685151 73.44014 189.714467 73.369365 189.714467 73.295578 
C 189.714467 73.221791 189.685151 73.151016 189.632976 73.09884 
C 189.5808 73.046665 189.510025 73.017349 189.436238 73.017349 
C 189.362451 73.017349 189.291676 73.046665 189.239501 73.09884 
C 189.187325 73.151016 189.158009 73.221791 189.158009 73.295578 
C 189.158009 73.369365 189.187325 73.44014 189.239501 73.492315 
C 189.291676 73.544491 189.362451 73.573807 189.436238 73.573807 
z
" style="fill:#7fc97f;stroke:#7fc97f;"/>
    <path clip-path="url(#p4c05494480)" d="M 180.618377 62.612672 
C 180.692164 62.612672 180.762939 62.583356 180.815115 62.53118 
C 180.86729 62.479005 180.896606 62.40823 180.896606 62.334443 
C 180.896606 62.260656 180.86729 62.189881 180.815115 62.137705 
C 180.762939 62.08553 180.692164 62.056214 180.618377 62.056214 
C 180.54459 62.056214 180.473815 62.08553 180.42164 62.137705 
C 180.369464 62.189881 180.340148 62.260656 180.340148 62.334443 
C 180.340148 62.40823 180.369464 62.479005 180.42164 62.53118 
C 180.473815 62.583356 180.54459 62.612672 180.618377 62.612672 
z
" style="fill:#7fc97f;stroke:#7fc97f;"/>
    <path clip-path="url(#p4c05494480)" d="M 89.61951 217.925504 
C 89.705212 217.925504 89.787415 217.891454 89.848016 217.830854 
C 89.908617 217.770253 89.942666 217.688049 89.942666 217.602347 
C 89.942666 217.516645 89.908617 217.434441 89.848016 217.373841 
C 89.787415 217.31324 89.705212 217.27919 89.61951 217.27919 
C 89.533807 217.27919 89.451604 217.31324 89.391003 217.373841 
C 89.330403 217.434441 89.296353 217.516645 89.296353 217.602347 
C 89.296353 217.688049 89.330403 217.770253 89.391003 217.830854 
C 89.451604 217.891454 89.533807 217.925504 89.61951 217.925504 
z
" style="fill:#386cb0;stroke:#386cb0;"/>
    <path clip-path="url(#p4c05494480)" d="M 100.014325 219.333678 
C 100.100027 219.333678 100.182231 219.299628 100.242832 219.239027 
C 100.303432 219.178427 100.337482 219.096223 100.337482 219.010521 
C 100.337482 218.924819 100.303432 218.842615 100.242832 218.782015 
C 100.182231 218.721414 100.100027 218.687364 100.014325 218.687364 
C 99.928623 218.687364 99.84642 218.721414 99.785819 218.782015 
C 99.725218 218.842615 99.691168 218.924819 99.691168 219.010521 
C 99.691168 219.096223 99.725218 219.178427 99.785819 219.239027 
C 99.84642 219.299628 99.928623 219.333678 100.014325 219.333678 
z
" style="fill:#386cb0;stroke:#386cb0;"/>
    <path clip-path="url(#p4c05494480)" d="M 100.511796 215.868478 
C 100.597498 215.868478 100.679702 215.834428 100.740302 215.773828 
C 100.800903 215.713227 100.834953 215.631024 100.834953 215.545321 
C 100.834953 215.459619 100.800903 215.377416 100.740302 215.316815 
C 100.679702 215.256214 100.597498 215.222165 100.511796 215.222165 
C 100.426094 215.222165 100.34389 215.256214 100.28329 215.316815 
C 100.222689 215.377416 100.188639 215.459619 100.188639 215.545321 
C 100.188639 215.631024 100.222689 215.713227 100.28329 215.773828 
C 100.34389 215.834428 100.426094 215.868478 100.511796 215.868478 
z
" style="fill:#386cb0;stroke:#386cb0;"/>
    <path clip-path="url(#p4c05494480)" d="M 398.458625 174.561096 
C 398.571811 174.561096 398.680376 174.516127 398.76041 174.436093 
C 398.840444 174.356058 398.885413 174.247493 398.885413 174.134308 
C 398.885413 174.021122 398.840444 173.912557 398.76041 173.832523 
C 398.680376 173.752489 398.571811 173.70752 398.458625 173.70752 
C 398.34544 173.70752 398.236875 173.752489 398.15684 173.832523 
C 398.076806 173.912557 398.031837 174.021122 398.031837 174.134308 
C 398.031837 174.247493 398.076806 174.356058 398.15684 174.436093 
C 398.236875 174.516127 398.34544 174.561096 398.458625 174.561096 
z
" style="fill:#7fc97f;stroke:#7fc97f;"/>
    <path clip-path="url(#p4c05494480)" d="M 398.455079 174.561287 
C 398.568265 174.561287 398.67683 174.516318 398.756864 174.436283 
C 398.836898 174.356249 398.881867 174.247684 398.881867 174.134499 
C 398.881867 174.021313 398.836898 173.912748 398.756864 173.832714 
C 398.67683 173.752679 398.568265 173.70771 398.455079 173.70771 
C 398.341894 173.70771 398.233329 173.752679 398.153294 173.832714 
C 398.07326 173.912748 398.028291 174.021313 398.028291 174.134499 
C 398.028291 174.247684 398.07326 174.356249 398.153294 174.436283 
C 398.233329 174.516318 398.341894 174.561287 398.455079 174.561287 
z
" style="fill:#7fc97f;stroke:#7fc97f;"/>
    <path clip-path="url(#p4c05494480)" d="M 182.12883 235.899698 
C 182.209022 235.899698 182.285941 235.867838 182.342646 235.811133 
C 182.39935 235.754429 182.431211 235.67751 182.431211 235.597318 
C 182.431211 235.517125 182.39935 235.440207 182.342646 235.383502 
C 182.285941 235.326798 182.209022 235.294937 182.12883 235.294937 
C 182.048638 235.294937 181.971719 235.326798 181.915015 235.383502 
C 181.85831 235.440207 181.826449 235.517125 181.826449 235.597318 
C 181.826449 235.67751 181.85831 235.754429 181.915015 235.811133 
C 181.971719 235.867838 182.048638 235.899698 182.12883 235.899698 
z
" style="fill:#386cb0;stroke:#386cb0;"/>
    <path clip-path="url(#p4c05494480)" d="M 182.117455 235.902204 
C 182.197647 235.902204 182.274566 235.870343 182.33127 235.813639 
C 182.387975 235.756934 182.419835 235.680016 182.419835 235.599823 
C 182.419835 235.519631 182.387975 235.442712 182.33127 235.386008 
C 182.274566 235.329303 182.197647 235.297443 182.117455 235.297443 
C 182.037262 235.297443 181.960344 235.329303 181.903639 235.386008 
C 181.846935 235.442712 181.815074 235.519631 181.815074 235.599823 
C 181.815074 235.680016 181.846935 235.756934 181.903639 235.813639 
C 181.960344 235.870343 182.037262 235.902204 182.117455 235.902204 
z
" style="fill:#386cb0;stroke:#386cb0;"/>
    <path clip-path="url(#p4c05494480)" d="M 182.128826 235.899698 
C 182.209018 235.899698 182.285937 235.867838 182.342641 235.811133 
C 182.399346 235.754429 182.431206 235.67751 182.431206 235.597318 
C 182.431206 235.517125 182.399346 235.440207 182.342641 235.383502 
C 182.285937 235.326798 182.209018 235.294937 182.128826 235.294937 
C 182.048633 235.294937 181.971715 235.326798 181.91501 235.383502 
C 181.858306 235.440207 181.826445 235.517125 181.826445 235.597318 
C 181.826445 235.67751 181.858306 235.754429 181.91501 235.811133 
C 181.971715 235.867838 182.048633 235.899698 182.128826 235.899698 
z
" style="fill:#386cb0;stroke:#386cb0;"/>
    <path clip-path="url(#p4c05494480)" d="M 332.125634 136.549775 
C 332.166428 136.549775 332.205556 136.533567 332.234402 136.504721 
C 332.263247 136.475876 332.279455 136.436747 332.279455 136.395953 
C 332.279455 136.355159 332.263247 136.316031 332.234402 136.287185 
C 332.205556 136.258339 332.166428 136.242132 332.125634 136.242132 
C 332.08484 136.242132 332.045711 136.258339 332.016865 136.287185 
C 331.98802 136.316031 331.971812 136.355159 331.971812 136.395953 
C 331.971812 136.436747 331.98802 136.475876 332.016865 136.504721 
C 332.045711 136.533567 332.08484 136.549775 332.125634 136.549775 
z
" style="fill:#7fc97f;stroke:#7fc97f;"/>
    <path clip-path="url(#p4c05494480)" d="M 205.725513 145.734282 
C 205.876274 145.734282 206.02088 145.674385 206.127483 145.567781 
C 206.234087 145.461177 206.293985 145.316571 206.293985 145.165811 
C 206.293985 145.01505 206.234087 144.870445 206.127483 144.763841 
C 206.02088 144.657237 205.876274 144.597339 205.725513 144.597339 
C 205.574753 144.597339 205.430147 144.657237 205.323543 144.763841 
C 205.21694 144.870445 205.157042 145.01505 205.157042 145.165811 
C 205.157042 145.316571 205.21694 145.461177 205.323543 145.567781 
C 205.430147 145.674385 205.574753 145.734282 205.725513 145.734282 
z
" style="fill:#7fc97f;stroke:#7fc97f;"/>
    <path clip-path="url(#p4c05494480)" d="M 203.130462 150.527986 
C 203.281222 150.527986 203.425828 150.468088 203.532432 150.361485 
C 203.639036 150.254881 203.698933 150.110275 203.698933 149.959515 
C 203.698933 149.808754 203.639036 149.664149 203.532432 149.557545 
C 203.425828 149.450941 203.281222 149.391043 203.130462 149.391043 
C 202.979702 149.391043 202.835096 149.450941 202.728492 149.557545 
C 202.621888 149.664149 202.561991 149.808754 202.561991 149.959515 
C 202.561991 150.110275 202.621888 150.254881 202.728492 150.361485 
C 202.835096 150.468088 202.979702 150.527986 203.130462 150.527986 
z
" style="fill:#7fc97f;stroke:#7fc97f;"/>
    <path clip-path="url(#p4c05494480)" d="M 207.104784 147.055002 
C 207.255545 147.055002 207.400151 146.995104 207.506754 146.8885 
C 207.613358 146.781897 207.673256 146.637291 207.673256 146.48653 
C 207.673256 146.33577 207.613358 146.191164 207.506754 146.08456 
C 207.400151 145.977957 207.255545 145.918059 207.104784 145.918059 
C 206.954024 145.918059 206.809418 145.977957 206.702814 146.08456 
C 206.596211 146.191164 206.536313 146.33577 206.536313 146.48653 
C 206.536313 146.637291 206.596211 146.781897 206.702814 146.8885 
C 206.809418 146.995104 206.954024 147.055002 207.104784 147.055002 
z
" style="fill:#7fc97f;stroke:#7fc97f;"/>
    <path clip-path="url(#p4c05494480)" d="M 286.400066 91.184799 
C 286.52882 91.184799 286.652318 91.133645 286.743361 91.042602 
C 286.834404 90.95156 286.885558 90.828062 286.885558 90.699308 
C 286.885558 90.570554 286.834404 90.447056 286.743361 90.356013 
C 286.652318 90.264971 286.52882 90.213816 286.400066 90.213816 
C 286.271313 90.213816 286.147815 90.264971 286.056772 90.356013 
C 285.965729 90.447056 285.914575 90.570554 285.914575 90.699308 
C 285.914575 90.828062 285.965729 90.95156 286.056772 91.042602 
C 286.147815 91.133645 286.271313 91.184799 286.400066 91.184799 
z
" style="fill:#7fc97f;stroke:#7fc97f;"/>
    <path clip-path="url(#p4c05494480)" d="M 286.410375 91.346438 
C 286.539129 91.346438 286.662627 91.295283 286.75367 91.204241 
C 286.844713 91.113198 286.895867 90.9897 286.895867 90.860946 
C 286.895867 90.732192 286.844713 90.608694 286.75367 90.517652 
C 286.662627 90.426609 286.539129 90.375455 286.410375 90.375455 
C 286.281622 90.375455 286.158124 90.426609 286.067081 90.517652 
C 285.976038 90.608694 285.924884 90.732192 285.924884 90.860946 
C 285.924884 90.9897 285.976038 91.113198 286.067081 91.204241 
C 286.158124 91.295283 286.281622 91.346438 286.410375 91.346438 
z
" style="fill:#7fc97f;stroke:#7fc97f;"/>
    <path clip-path="url(#p4c05494480)" d="M 281.048053 90.769244 
C 281.176807 90.769244 281.300304 90.71809 281.391347 90.627047 
C 281.48239 90.536005 281.533544 90.412507 281.533544 90.283753 
C 281.533544 90.154999 281.48239 90.031501 281.391347 89.940458 
C 281.300304 89.849416 281.176807 89.798261 281.048053 89.798261 
C 280.919299 89.798261 280.795801 89.849416 280.704758 89.940458 
C 280.613716 90.031501 280.562561 90.154999 280.562561 90.283753 
C 280.562561 90.412507 280.613716 90.536005 280.704758 90.627047 
C 280.795801 90.71809 280.919299 90.769244 281.048053 90.769244 
z
" style="fill:#7fc97f;stroke:#7fc97f;"/>
    <path clip-path="url(#p4c05494480)" d="M 255.24263 54.099046 
C 255.376894 54.099046 255.505677 54.045703 255.600615 53.950764 
C 255.695554 53.855825 255.748898 53.727042 255.748898 53.592779 
C 255.748898 53.458515 255.695554 53.329732 255.600615 53.234793 
C 255.505677 53.139854 255.376894 53.086511 255.24263 53.086511 
C 255.108366 53.086511 254.979584 53.139854 254.884645 53.234793 
C 254.789706 53.329732 254.736362 53.458515 254.736362 53.592779 
C 254.736362 53.727042 254.789706 53.855825 254.884645 53.950764 
C 254.979584 54.045703 255.108366 54.099046 255.24263 54.099046 
z
" style="fill:#7fc97f;stroke:#7fc97f;"/>
    <path clip-path="url(#p4c05494480)" d="M 261.873556 57.050914 
C 262.00782 57.050914 262.136603 56.99757 262.231541 56.902631 
C 262.32648 56.807692 262.379824 56.67891 262.379824 56.544646 
C 262.379824 56.410382 262.32648 56.281599 262.231541 56.186661 
C 262.136603 56.091722 262.00782 56.038378 261.873556 56.038378 
C 261.739292 56.038378 261.61051 56.091722 261.515571 56.186661 
C 261.420632 56.281599 261.367288 56.410382 261.367288 56.544646 
C 261.367288 56.67891 261.420632 56.807692 261.515571 56.902631 
C 261.61051 56.99757 261.739292 57.050914 261.873556 57.050914 
z
" style="fill:#7fc97f;stroke:#7fc97f;"/>
    <path clip-path="url(#p4c05494480)" d="M 252.722419 58.196666 
C 252.856682 58.196666 252.985465 58.143322 253.080404 58.048383 
C 253.175343 57.953445 253.228686 57.824662 253.228686 57.690398 
C 253.228686 57.556134 253.175343 57.427352 253.080404 57.332413 
C 252.985465 57.237474 252.856682 57.18413 252.722419 57.18413 
C 252.588155 57.18413 252.459372 57.237474 252.364433 57.332413 
C 252.269495 57.427352 252.216151 57.556134 252.216151 57.690398 
C 252.216151 57.824662 252.269495 57.953445 252.364433 58.048383 
C 252.459372 58.143322 252.588155 58.196666 252.722419 58.196666 
z
" style="fill:#7fc97f;stroke:#7fc97f;"/>
    <path clip-path="url(#p4c05494480)" d="M 261.563202 111.326209 
C 261.730459 111.326209 261.890888 111.259757 262.009157 111.141489 
C 262.127426 111.02322 262.193877 110.862791 262.193877 110.695534 
C 262.193877 110.528277 262.127426 110.367848 262.009157 110.24958 
C 261.890888 110.131311 261.730459 110.064859 261.563202 110.064859 
C 261.395945 110.064859 261.235516 110.131311 261.117248 110.24958 
C 260.998979 110.367848 260.932527 110.528277 260.932527 110.695534 
C 260.932527 110.862791 260.998979 111.02322 261.117248 111.141489 
C 261.235516 111.259757 261.395945 111.326209 261.563202 111.326209 
z
" style="fill:#7fc97f;stroke:#7fc97f;"/>
    <path clip-path="url(#p4c05494480)" d="M 261.563206 111.326201 
C 261.730463 111.326201 261.890892 111.259749 262.00916 111.14148 
C 262.127429 111.023212 262.193881 110.862783 262.193881 110.695526 
C 262.193881 110.528269 262.127429 110.367839 262.00916 110.249571 
C 261.890892 110.131302 261.730463 110.06485 261.563206 110.06485 
C 261.395949 110.06485 261.23552 110.131302 261.117251 110.249571 
C 260.998982 110.367839 260.932531 110.528269 260.932531 110.695526 
C 260.932531 110.862783 260.998982 111.023212 261.117251 111.14148 
C 261.23552 111.259749 261.395949 111.326201 261.563206 111.326201 
z
" style="fill:#7fc97f;stroke:#7fc97f;"/>
    <path clip-path="url(#p4c05494480)" d="M 259.726139 114.828918 
C 259.893396 114.828918 260.053825 114.762466 260.172094 114.644198 
C 260.290362 114.525929 260.356814 114.3655 260.356814 114.198243 
C 260.356814 114.030986 260.290362 113.870557 260.172094 113.752288 
C 260.053825 113.63402 259.893396 113.567568 259.726139 113.567568 
C 259.558882 113.567568 259.398453 113.63402 259.280184 113.752288 
C 259.161916 113.870557 259.095464 114.030986 259.095464 114.198243 
C 259.095464 114.3655 259.161916 114.525929 259.280184 114.644198 
C 259.398453 114.762466 259.558882 114.828918 259.726139 114.828918 
z
" style="fill:#7fc97f;stroke:#7fc97f;"/>
    <path clip-path="url(#p4c05494480)" d="M 174.441345 287.245858 
C 174.65351 287.245858 174.857014 287.161564 175.007038 287.011541 
C 175.157061 286.861517 175.241355 286.658013 175.241355 286.445848 
C 175.241355 286.233682 175.157061 286.030178 175.007038 285.880155 
C 174.857014 285.730131 174.65351 285.645837 174.441345 285.645837 
C 174.22918 285.645837 174.025676 285.730131 173.875652 285.880155 
C 173.725628 286.030178 173.641334 286.233682 173.641334 286.445848 
C 173.641334 286.658013 173.725628 286.861517 173.875652 287.011541 
C 174.025676 287.161564 174.22918 287.245858 174.441345 287.245858 
z
" style="fill:#386cb0;stroke:#386cb0;"/>
    <path clip-path="url(#p4c05494480)" d="M 259.404138 219.382642 
C 259.423853 219.382642 259.442764 219.374809 259.456705 219.360868 
C 259.470646 219.346926 259.47848 219.328016 259.47848 219.3083 
C 259.47848 219.288584 259.470646 219.269673 259.456705 219.255732 
C 259.442764 219.241791 259.423853 219.233958 259.404138 219.233958 
C 259.384422 219.233958 259.365511 219.241791 259.35157 219.255732 
C 259.337629 219.269673 259.329796 219.288584 259.329796 219.3083 
C 259.329796 219.328016 259.337629 219.346926 259.35157 219.360868 
C 259.365511 219.374809 259.384422 219.382642 259.404138 219.382642 
z
" style="fill:#7fc97f;stroke:#7fc97f;"/>
    <path clip-path="url(#p4c05494480)" d="M 89.619439 217.924206 
C 89.705141 217.924206 89.787344 217.890156 89.847945 217.829555 
C 89.908546 217.768955 89.942595 217.686751 89.942595 217.601049 
C 89.942595 217.515347 89.908546 217.433143 89.847945 217.372543 
C 89.787344 217.311942 89.705141 217.277892 89.619439 217.277892 
C 89.533736 217.277892 89.451533 217.311942 89.390932 217.372543 
C 89.330332 217.433143 89.296282 217.515347 89.296282 217.601049 
C 89.296282 217.686751 89.330332 217.768955 89.390932 217.829555 
C 89.451533 217.890156 89.533736 217.924206 89.619439 217.924206 
z
" style="fill:#386cb0;stroke:#386cb0;"/>
    <path clip-path="url(#p4c05494480)" d="M 95.573677 223.169229 
C 95.659379 223.169229 95.741583 223.13518 95.802183 223.074579 
C 95.862784 223.013978 95.896834 222.931775 95.896834 222.846073 
C 95.896834 222.76037 95.862784 222.678167 95.802183 222.617566 
C 95.741583 222.556966 95.659379 222.522916 95.573677 222.522916 
C 95.487975 222.522916 95.405771 222.556966 95.345171 222.617566 
C 95.28457 222.678167 95.25052 222.76037 95.25052 222.846073 
C 95.25052 222.931775 95.28457 223.013978 95.345171 223.074579 
C 95.405771 223.13518 95.487975 223.169229 95.573677 223.169229 
z
" style="fill:#386cb0;stroke:#386cb0;"/>
    <path clip-path="url(#p4c05494480)" d="M 259.100549 219.547485 
C 259.120265 219.547485 259.139176 219.539651 259.153117 219.52571 
C 259.167058 219.511769 259.174891 219.492858 259.174891 219.473143 
C 259.174891 219.453427 259.167058 219.434516 259.153117 219.420575 
C 259.139176 219.406634 259.120265 219.398801 259.100549 219.398801 
C 259.080834 219.398801 259.061923 219.406634 259.047982 219.420575 
C 259.03404 219.434516 259.026207 219.453427 259.026207 219.473143 
C 259.026207 219.492858 259.03404 219.511769 259.047982 219.52571 
C 259.061923 219.539651 259.080834 219.547485 259.100549 219.547485 
z
" style="fill:#7fc97f;stroke:#7fc97f;"/>
    <path clip-path="url(#p4c05494480)" d="M 182.128826 235.899698 
C 182.209018 235.899698 182.285937 235.867838 182.342641 235.811133 
C 182.399346 235.754429 182.431206 235.67751 182.431206 235.597318 
C 182.431206 235.517125 182.399346 235.440207 182.342641 235.383502 
C 182.285937 235.326798 182.209018 235.294937 182.128826 235.294937 
C 182.048633 235.294937 181.971715 235.326798 181.91501 235.383502 
C 181.858306 235.440207 181.826445 235.517125 181.826445 235.597318 
C 181.826445 235.67751 181.858306 235.754429 181.91501 235.811133 
C 181.971715 235.867838 182.048633 235.899698 182.128826 235.899698 
z
" style="fill:#386cb0;stroke:#386cb0;"/>
    <path clip-path="url(#p4c05494480)" d="M 81.346354 290.006578 
C 81.580526 290.006578 81.805138 289.913541 81.970723 289.747957 
C 82.136307 289.582372 82.229344 289.35776 82.229344 289.123588 
C 82.229344 288.889416 82.136307 288.664804 81.970723 288.49922 
C 81.805138 288.333635 81.580526 288.240598 81.346354 288.240598 
C 81.112182 288.240598 80.88757 288.333635 80.721986 288.49922 
C 80.556401 288.664804 80.463364 288.889416 80.463364 289.123588 
C 80.463364 289.35776 80.556401 289.582372 80.721986 289.747957 
C 80.88757 289.913541 81.112182 290.006578 81.346354 290.006578 
z
" style="fill:#666666;stroke:#666666;"/>
    <path clip-path="url(#p4c05494480)" d="M 203.130467 150.527967 
C 203.281227 150.527967 203.425833 150.468069 203.532437 150.361465 
C 203.63904 150.254862 203.698938 150.110256 203.698938 149.959495 
C 203.698938 149.808735 203.63904 149.664129 203.532437 149.557525 
C 203.425833 149.450922 203.281227 149.391024 203.130467 149.391024 
C 202.979706 149.391024 202.8351 149.450922 202.728497 149.557525 
C 202.621893 149.664129 202.561995 149.808735 202.561995 149.959495 
C 202.561995 150.110256 202.621893 150.254862 202.728497 150.361465 
C 202.8351 150.468069 202.979706 150.527967 203.130467 150.527967 
z
" style="fill:#7fc97f;stroke:#7fc97f;"/>
    <path clip-path="url(#p4c05494480)" d="M 361.312413 213.802608 
C 361.425598 213.802608 361.534163 213.757639 361.614197 213.677605 
C 361.694232 213.59757 361.739201 213.489005 361.739201 213.37582 
C 361.739201 213.262634 361.694232 213.154069 361.614197 213.074035 
C 361.534163 212.994001 361.425598 212.949032 361.312413 212.949032 
C 361.199227 212.949032 361.090662 212.994001 361.010628 213.074035 
C 360.930593 213.154069 360.885624 213.262634 360.885624 213.37582 
C 360.885624 213.489005 360.930593 213.59757 361.010628 213.677605 
C 361.090662 213.757639 361.199227 213.802608 361.312413 213.802608 
z
" style="fill:#7fc97f;stroke:#7fc97f;"/>
    <path clip-path="url(#p4c05494480)" d="M 283.219474 117.847286 
C 283.364724 117.847286 283.504045 117.789577 283.606753 117.68687 
C 283.70946 117.584162 283.767169 117.444841 283.767169 117.299591 
C 283.767169 117.15434 283.70946 117.015019 283.606753 116.912312 
C 283.504045 116.809604 283.364724 116.751895 283.219474 116.751895 
C 283.074223 116.751895 282.934902 116.809604 282.832195 116.912312 
C 282.729487 117.015019 282.671778 117.15434 282.671778 117.299591 
C 282.671778 117.444841 282.729487 117.584162 282.832195 117.68687 
C 282.934902 117.789577 283.074223 117.847286 283.219474 117.847286 
z
" style="fill:#7fc97f;stroke:#7fc97f;"/>
    <path clip-path="url(#p4c05494480)" d="M 138.237631 157.58228 
C 138.24085 157.58228 138.243938 157.581001 138.246214 157.578724 
C 138.24849 157.576448 138.249769 157.573361 138.249769 157.570141 
C 138.249769 157.566922 138.24849 157.563835 138.246214 157.561558 
C 138.243938 157.559282 138.24085 157.558003 138.237631 157.558003 
C 138.234412 157.558003 138.231324 157.559282 138.229048 157.561558 
C 138.226772 157.563835 138.225493 157.566922 138.225493 157.570141 
C 138.225493 157.573361 138.226772 157.576448 138.229048 157.578724 
C 138.231324 157.581001 138.234412 157.58228 138.237631 157.58228 
z
" style="fill:#386cb0;stroke:#386cb0;"/>
    <path clip-path="url(#p4c05494480)" d="M 273.780479 127.057795 
C 273.925729 127.057795 274.06505 127.000087 274.167758 126.897379 
C 274.270465 126.794672 274.328174 126.655351 274.328174 126.5101 
C 274.328174 126.36485 274.270465 126.225529 274.167758 126.122821 
C 274.06505 126.020113 273.925729 125.962405 273.780479 125.962405 
C 273.635228 125.962405 273.495907 126.020113 273.3932 126.122821 
C 273.290492 126.225529 273.232783 126.36485 273.232783 126.5101 
C 273.232783 126.655351 273.290492 126.794672 273.3932 126.897379 
C 273.495907 127.000087 273.635228 127.057795 273.780479 127.057795 
z
" style="fill:#7fc97f;stroke:#7fc97f;"/>
    <path clip-path="url(#p4c05494480)" d="M 174.45584 287.248368 
C 174.668005 287.248368 174.871509 287.164074 175.021533 287.014051 
C 175.171556 286.864027 175.25585 286.660523 175.25585 286.448358 
C 175.25585 286.236192 175.171556 286.032688 175.021533 285.882665 
C 174.871509 285.732641 174.668005 285.648347 174.45584 285.648347 
C 174.243674 285.648347 174.04017 285.732641 173.890147 285.882665 
C 173.740123 286.032688 173.655829 286.236192 173.655829 286.448358 
C 173.655829 286.660523 173.740123 286.864027 173.890147 287.014051 
C 174.04017 287.164074 174.243674 287.248368 174.45584 287.248368 
z
" style="fill:#386cb0;stroke:#386cb0;"/>
    <path clip-path="url(#p4c05494480)" d="M 183.036296 76.601087 
C 183.099064 76.601087 183.159269 76.57615 183.203652 76.531766 
C 183.248035 76.487383 183.272973 76.427178 183.272973 76.364411 
C 183.272973 76.301643 183.248035 76.241438 183.203652 76.197055 
C 183.159269 76.152672 183.099064 76.127734 183.036296 76.127734 
C 182.973529 76.127734 182.913324 76.152672 182.868941 76.197055 
C 182.824557 76.241438 182.79962 76.301643 182.79962 76.364411 
C 182.79962 76.427178 182.824557 76.487383 182.868941 76.531766 
C 182.913324 76.57615 182.973529 76.601087 183.036296 76.601087 
z
" style="fill:#7fc97f;stroke:#7fc97f;"/>
    <path clip-path="url(#p4c05494480)" d="M 256.943122 62.509688 
C 257.077386 62.509688 257.206169 62.456344 257.301107 62.361406 
C 257.396046 62.266467 257.44939 62.137684 257.44939 62.00342 
C 257.44939 61.869157 257.396046 61.740374 257.301107 61.645435 
C 257.206169 61.550496 257.077386 61.497153 256.943122 61.497153 
C 256.808858 61.497153 256.680076 61.550496 256.585137 61.645435 
C 256.490198 61.740374 256.436854 61.869157 256.436854 62.00342 
C 256.436854 62.137684 256.490198 62.266467 256.585137 62.361406 
C 256.680076 62.456344 256.808858 62.509688 256.943122 62.509688 
z
" style="fill:#7fc97f;stroke:#7fc97f;"/>
    <path clip-path="url(#p4c05494480)" d="M 230.887367 129.481249 
C 231.038128 129.481249 231.182733 129.421351 231.289337 129.314748 
C 231.395941 129.208144 231.455839 129.063538 231.455839 128.912778 
C 231.455839 128.762017 231.395941 128.617411 231.289337 128.510808 
C 231.182733 128.404204 231.038128 128.344306 230.887367 128.344306 
C 230.736607 128.344306 230.592001 128.404204 230.485397 128.510808 
C 230.378794 128.617411 230.318896 128.762017 230.318896 128.912778 
C 230.318896 129.063538 230.378794 129.208144 230.485397 129.314748 
C 230.592001 129.421351 230.736607 129.481249 230.887367 129.481249 
z
" style="fill:#7fc97f;stroke:#7fc97f;"/>
    <path clip-path="url(#p4c05494480)" d="M 327.161751 151.329523 
C 327.224518 151.329523 327.284723 151.304585 327.329107 151.260202 
C 327.37349 151.215818 327.398428 151.155613 327.398428 151.092846 
C 327.398428 151.030079 327.37349 150.969873 327.329107 150.92549 
C 327.284723 150.881107 327.224518 150.856169 327.161751 150.856169 
C 327.098984 150.856169 327.038778 150.881107 326.994395 150.92549 
C 326.950012 150.969873 326.925074 151.030079 326.925074 151.092846 
C 326.925074 151.155613 326.950012 151.215818 326.994395 151.260202 
C 327.038778 151.304585 327.098984 151.329523 327.161751 151.329523 
z
" style="fill:#7fc97f;stroke:#7fc97f;"/>
    <path clip-path="url(#p4c05494480)" d="M 294.493352 199.812257 
C 294.550643 199.812257 294.605595 199.789496 294.646105 199.748985 
C 294.686616 199.708475 294.709377 199.653523 294.709377 199.596232 
C 294.709377 199.538942 294.686616 199.48399 294.646105 199.443479 
C 294.605595 199.402969 294.550643 199.380207 294.493352 199.380207 
C 294.436062 199.380207 294.38111 199.402969 294.3406 199.443479 
C 294.300089 199.48399 294.277327 199.538942 294.277327 199.596232 
C 294.277327 199.653523 294.300089 199.708475 294.3406 199.748985 
C 294.38111 199.789496 294.436062 199.812257 294.493352 199.812257 
z
" style="fill:#7fc97f;stroke:#7fc97f;"/>
    <path clip-path="url(#p4c05494480)" d="M 254.758122 62.186248 
C 254.892386 62.186248 255.021169 62.132904 255.116108 62.037965 
C 255.211046 61.943026 255.26439 61.814244 255.26439 61.67998 
C 255.26439 61.545716 255.211046 61.416933 255.116108 61.321995 
C 255.021169 61.227056 254.892386 61.173712 254.758122 61.173712 
C 254.623859 61.173712 254.495076 61.227056 254.400137 61.321995 
C 254.305198 61.416933 254.251855 61.545716 254.251855 61.67998 
C 254.251855 61.814244 254.305198 61.943026 254.400137 62.037965 
C 254.495076 62.132904 254.623859 62.186248 254.758122 62.186248 
z
" style="fill:#7fc97f;stroke:#7fc97f;"/>
    <path clip-path="url(#p4c05494480)" d="M 298.103377 134.382835 
C 298.221144 134.382835 298.334103 134.336046 298.417377 134.252772 
C 298.500651 134.169498 298.547441 134.056539 298.547441 133.938772 
C 298.547441 133.821004 298.500651 133.708045 298.417377 133.624771 
C 298.334103 133.541497 298.221144 133.494708 298.103377 133.494708 
C 297.985609 133.494708 297.87265 133.541497 297.789376 133.624771 
C 297.706102 133.708045 297.659313 133.821004 297.659313 133.938772 
C 297.659313 134.056539 297.706102 134.169498 297.789376 134.252772 
C 297.87265 134.336046 297.985609 134.382835 298.103377 134.382835 
z
" style="fill:#7fc97f;stroke:#7fc97f;"/>
    <path clip-path="url(#p4c05494480)" d="M 145.088565 159.797971 
C 145.091784 159.797971 145.094871 159.796692 145.097148 159.794416 
C 145.099424 159.79214 145.100703 159.789052 145.100703 159.785833 
C 145.100703 159.782614 145.099424 159.779526 145.097148 159.77725 
C 145.094871 159.774974 145.091784 159.773695 145.088565 159.773695 
C 145.085346 159.773695 145.082258 159.774974 145.079982 159.77725 
C 145.077705 159.779526 145.076426 159.782614 145.076426 159.785833 
C 145.076426 159.789052 145.077705 159.79214 145.079982 159.794416 
C 145.082258 159.796692 145.085346 159.797971 145.088565 159.797971 
z
" style="fill:#386cb0;stroke:#386cb0;"/>
    <path clip-path="url(#p4c05494480)" d="M 205.3918 145.589003 
C 205.54256 145.589003 205.687166 145.529105 205.79377 145.422501 
C 205.900374 145.315898 205.960271 145.171292 205.960271 145.020531 
C 205.960271 144.869771 205.900374 144.725165 205.79377 144.618561 
C 205.687166 144.511958 205.54256 144.45206 205.3918 144.45206 
C 205.24104 144.45206 205.096434 144.511958 204.98983 144.618561 
C 204.883226 144.725165 204.823329 144.869771 204.823329 145.020531 
C 204.823329 145.171292 204.883226 145.315898 204.98983 145.422501 
C 205.096434 145.529105 205.24104 145.589003 205.3918 145.589003 
z
" style="fill:#7fc97f;stroke:#7fc97f;"/>
    <path clip-path="url(#p4c05494480)" d="M 278.008289 91.074286 
C 278.137043 91.074286 278.26054 91.023132 278.351583 90.932089 
C 278.442626 90.841046 278.49378 90.717548 278.49378 90.588795 
C 278.49378 90.460041 278.442626 90.336543 278.351583 90.2455 
C 278.26054 90.154457 278.137043 90.103303 278.008289 90.103303 
C 277.879535 90.103303 277.756037 90.154457 277.664994 90.2455 
C 277.573952 90.336543 277.522797 90.460041 277.522797 90.588795 
C 277.522797 90.717548 277.573952 90.841046 277.664994 90.932089 
C 277.756037 91.023132 277.879535 91.074286 278.008289 91.074286 
z
" style="fill:#7fc97f;stroke:#7fc97f;"/>
    <path clip-path="url(#p4c05494480)" d="M 283.219458 117.847286 
C 283.364709 117.847286 283.50403 117.789577 283.606737 117.68687 
C 283.709445 117.584162 283.767153 117.444841 283.767153 117.299591 
C 283.767153 117.15434 283.709445 117.015019 283.606737 116.912312 
C 283.50403 116.809604 283.364709 116.751895 283.219458 116.751895 
C 283.074208 116.751895 282.934887 116.809604 282.832179 116.912312 
C 282.729471 117.015019 282.671763 117.15434 282.671763 117.299591 
C 282.671763 117.444841 282.729471 117.584162 282.832179 117.68687 
C 282.934887 117.789577 283.074208 117.847286 283.219458 117.847286 
z
" style="fill:#7fc97f;stroke:#7fc97f;"/>
    <path clip-path="url(#p4c05494480)" d="M 77.512123 286.267187 
C 77.746295 286.267187 77.970907 286.17415 78.136491 286.008565 
C 78.302076 285.842981 78.395113 285.618368 78.395113 285.384197 
C 78.395113 285.150025 78.302076 284.925413 78.136491 284.759828 
C 77.970907 284.594244 77.746295 284.501206 77.512123 284.501206 
C 77.277951 284.501206 77.053339 284.594244 76.887754 284.759828 
C 76.72217 284.925413 76.629133 285.150025 76.629133 285.384197 
C 76.629133 285.618368 76.72217 285.842981 76.887754 286.008565 
C 77.053339 286.17415 77.277951 286.267187 77.512123 286.267187 
z
" style="fill:#666666;stroke:#666666;"/>
    <path clip-path="url(#p4c05494480)" d="M 182.117455 235.9022 
C 182.197647 235.9022 182.274566 235.870339 182.33127 235.813635 
C 182.387975 235.75693 182.419835 235.680011 182.419835 235.599819 
C 182.419835 235.519627 182.387975 235.442708 182.33127 235.386004 
C 182.274566 235.329299 182.197647 235.297438 182.117455 235.297438 
C 182.037262 235.297438 181.960344 235.329299 181.903639 235.386004 
C 181.846935 235.442708 181.815074 235.519627 181.815074 235.599819 
C 181.815074 235.680011 181.846935 235.75693 181.903639 235.813635 
C 181.960344 235.870339 182.037262 235.9022 182.117455 235.9022 
z
" style="fill:#386cb0;stroke:#386cb0;"/>
    <path clip-path="url(#p4c05494480)" d="M 259.511168 219.315421 
C 259.530884 219.315421 259.549794 219.307588 259.563736 219.293647 
C 259.577677 219.279706 259.58551 219.260795 259.58551 219.241079 
C 259.58551 219.221364 259.577677 219.202453 259.563736 219.188512 
C 259.549794 219.174571 259.530884 219.166737 259.511168 219.166737 
C 259.491452 219.166737 259.472541 219.174571 259.4586 219.188512 
C 259.444659 219.202453 259.436826 219.221364 259.436826 219.241079 
C 259.436826 219.260795 259.444659 219.279706 259.4586 219.293647 
C 259.472541 219.307588 259.491452 219.315421 259.511168 219.315421 
z
" style="fill:#7fc97f;stroke:#7fc97f;"/>
    <path clip-path="url(#p4c05494480)" d="M 329.774723 155.045282 
C 329.83749 155.045282 329.897695 155.020344 329.942079 154.975961 
C 329.986462 154.931577 330.0114 154.871372 330.0114 154.808605 
C 330.0114 154.745838 329.986462 154.685632 329.942079 154.641249 
C 329.897695 154.596866 329.83749 154.571928 329.774723 154.571928 
C 329.711956 154.571928 329.651751 154.596866 329.607367 154.641249 
C 329.562984 154.685632 329.538046 154.745838 329.538046 154.808605 
C 329.538046 154.871372 329.562984 154.931577 329.607367 154.975961 
C 329.651751 155.020344 329.711956 155.045282 329.774723 155.045282 
z
" style="fill:#7fc97f;stroke:#7fc97f;"/>
    <path clip-path="url(#p4c05494480)" d="M 152.162012 111.025023 
C 152.165231 111.025023 152.168319 111.023744 152.170595 111.021468 
C 152.172871 111.019192 152.17415 111.016104 152.17415 111.012885 
C 152.17415 111.009666 152.172871 111.006578 152.170595 111.004302 
C 152.168319 111.002026 152.165231 111.000747 152.162012 111.000747 
C 152.158793 111.000747 152.155705 111.002026 152.153429 111.004302 
C 152.151153 111.006578 152.149874 111.009666 152.149874 111.012885 
C 152.149874 111.016104 152.151153 111.019192 152.153429 111.021468 
C 152.155705 111.023744 152.158793 111.025023 152.162012 111.025023 
z
" style="fill:#7fc97f;stroke:#7fc97f;"/>
    <path clip-path="url(#p4c05494480)" d="M 292.550127 204.521772 
C 292.607417 204.521772 292.662369 204.49901 292.702879 204.458499 
C 292.74339 204.417989 292.766152 204.363037 292.766152 204.305747 
C 292.766152 204.248456 292.74339 204.193504 292.702879 204.152994 
C 292.662369 204.112483 292.607417 204.089722 292.550127 204.089722 
C 292.492836 204.089722 292.437884 204.112483 292.397374 204.152994 
C 292.356863 204.193504 292.334102 204.248456 292.334102 204.305747 
C 292.334102 204.363037 292.356863 204.417989 292.397374 204.458499 
C 292.437884 204.49901 292.492836 204.521772 292.550127 204.521772 
z
" style="fill:#7fc97f;stroke:#7fc97f;"/>
    <path clip-path="url(#p4c05494480)" d="M 293.033751 139.289065 
C 293.151518 139.289065 293.264478 139.242275 293.347752 139.159001 
C 293.431026 139.075727 293.477815 138.962768 293.477815 138.845001 
C 293.477815 138.727234 293.431026 138.614274 293.347752 138.531 
C 293.264478 138.447726 293.151518 138.400937 293.033751 138.400937 
C 292.915984 138.400937 292.803025 138.447726 292.719751 138.531 
C 292.636477 138.614274 292.589687 138.727234 292.589687 138.845001 
C 292.589687 138.962768 292.636477 139.075727 292.719751 139.159001 
C 292.803025 139.242275 292.915984 139.289065 293.033751 139.289065 
z
" style="fill:#7fc97f;stroke:#7fc97f;"/>
    <path clip-path="url(#p4c05494480)" d="M 278.008298 91.074295 
C 278.137051 91.074295 278.260549 91.02314 278.351592 90.932098 
C 278.442635 90.841055 278.493789 90.717557 278.493789 90.588803 
C 278.493789 90.460049 278.442635 90.336551 278.351592 90.245509 
C 278.260549 90.154466 278.137051 90.103312 278.008298 90.103312 
C 277.879544 90.103312 277.756046 90.154466 277.665003 90.245509 
C 277.57396 90.336551 277.522806 90.460049 277.522806 90.588803 
C 277.522806 90.717557 277.57396 90.841055 277.665003 90.932098 
C 277.756046 91.02314 277.879544 91.074295 278.008298 91.074295 
z
" style="fill:#7fc97f;stroke:#7fc97f;"/>
    <path clip-path="url(#p4c05494480)" d="M 89.618372 217.920812 
C 89.704074 217.920812 89.786278 217.886762 89.846878 217.826161 
C 89.907479 217.765561 89.941529 217.683357 89.941529 217.597655 
C 89.941529 217.511953 89.907479 217.429749 89.846878 217.369148 
C 89.786278 217.308548 89.704074 217.274498 89.618372 217.274498 
C 89.53267 217.274498 89.450466 217.308548 89.389866 217.369148 
C 89.329265 217.429749 89.295215 217.511953 89.295215 217.597655 
C 89.295215 217.683357 89.329265 217.765561 89.389866 217.826161 
C 89.450466 217.886762 89.53267 217.920812 89.618372 217.920812 
z
" style="fill:#386cb0;stroke:#386cb0;"/>
    <path clip-path="url(#p4c05494480)" d="M 362.697842 219.881998 
C 362.811028 219.881998 362.919593 219.837029 362.999627 219.756995 
C 363.079661 219.67696 363.124631 219.568395 363.124631 219.45521 
C 363.124631 219.342024 363.079661 219.233459 362.999627 219.153425 
C 362.919593 219.073391 362.811028 219.028421 362.697842 219.028421 
C 362.584657 219.028421 362.476092 219.073391 362.396058 219.153425 
C 362.316023 219.233459 362.271054 219.342024 362.271054 219.45521 
C 362.271054 219.568395 362.316023 219.67696 362.396058 219.756995 
C 362.476092 219.837029 362.584657 219.881998 362.697842 219.881998 
z
" style="fill:#7fc97f;stroke:#7fc97f;"/>
    <path clip-path="url(#p4c05494480)" d="M 137.559176 159.217292 
C 137.562395 159.217292 137.565482 159.216013 137.567759 159.213737 
C 137.570035 159.21146 137.571314 159.208373 137.571314 159.205154 
C 137.571314 159.201935 137.570035 159.198847 137.567759 159.196571 
C 137.565482 159.194294 137.562395 159.193016 137.559176 159.193016 
C 137.555957 159.193016 137.552869 159.194294 137.550593 159.196571 
C 137.548316 159.198847 137.547037 159.201935 137.547037 159.205154 
C 137.547037 159.208373 137.548316 159.21146 137.550593 159.213737 
C 137.552869 159.216013 137.555957 159.217292 137.559176 159.217292 
z
" style="fill:#386cb0;stroke:#386cb0;"/>
    <path clip-path="url(#p4c05494480)" d="M 292.527251 204.52191 
C 292.584542 204.52191 292.639494 204.499148 292.680004 204.458637 
C 292.720515 204.418127 292.743276 204.363175 292.743276 204.305885 
C 292.743276 204.248594 292.720515 204.193642 292.680004 204.153132 
C 292.639494 204.112621 292.584542 204.08986 292.527251 204.08986 
C 292.469961 204.08986 292.415009 204.112621 292.374499 204.153132 
C 292.333988 204.193642 292.311226 204.248594 292.311226 204.305885 
C 292.311226 204.363175 292.333988 204.418127 292.374499 204.458637 
C 292.415009 204.499148 292.469961 204.52191 292.527251 204.52191 
z
" style="fill:#7fc97f;stroke:#7fc97f;"/>
    <path clip-path="url(#p4c05494480)" d="M 368.809044 220.627872 
C 368.922229 220.627872 369.030794 220.582903 369.110829 220.502869 
C 369.190863 220.422835 369.235832 220.31427 369.235832 220.201084 
C 369.235832 220.087899 369.190863 219.979334 369.110829 219.899299 
C 369.030794 219.819265 368.922229 219.774296 368.809044 219.774296 
C 368.695858 219.774296 368.587293 219.819265 368.507259 219.899299 
C 368.427225 219.979334 368.382256 220.087899 368.382256 220.201084 
C 368.382256 220.31427 368.427225 220.422835 368.507259 220.502869 
C 368.587293 220.582903 368.695858 220.627872 368.809044 220.627872 
z
" style="fill:#7fc97f;stroke:#7fc97f;"/>
    <path clip-path="url(#p4c05494480)" d="M 100.509219 215.865274 
C 100.594921 215.865274 100.677125 215.831224 100.737725 215.770623 
C 100.798326 215.710023 100.832376 215.627819 100.832376 215.542117 
C 100.832376 215.456415 100.798326 215.374211 100.737725 215.31361 
C 100.677125 215.25301 100.594921 215.21896 100.509219 215.21896 
C 100.423517 215.21896 100.341313 215.25301 100.280712 215.31361 
C 100.220112 215.374211 100.186062 215.456415 100.186062 215.542117 
C 100.186062 215.627819 100.220112 215.710023 100.280712 215.770623 
C 100.341313 215.831224 100.423517 215.865274 100.509219 215.865274 
z
" style="fill:#386cb0;stroke:#386cb0;"/>
    <path clip-path="url(#p4c05494480)" d="M 152.162012 111.025023 
C 152.165231 111.025023 152.168319 111.023744 152.170595 111.021468 
C 152.172871 111.019192 152.17415 111.016104 152.17415 111.012885 
C 152.17415 111.009666 152.172871 111.006578 152.170595 111.004302 
C 152.168319 111.002026 152.165231 111.000747 152.162012 111.000747 
C 152.158793 111.000747 152.155705 111.002026 152.153429 111.004302 
C 152.151153 111.006578 152.149874 111.009666 152.149874 111.012885 
C 152.149874 111.016104 152.151153 111.019192 152.153429 111.021468 
C 152.155705 111.023744 152.158793 111.025023 152.162012 111.025023 
z
" style="fill:#7fc97f;stroke:#7fc97f;"/>
    <path clip-path="url(#p4c05494480)" d="M 369.279773 210.699854 
C 369.392959 210.699854 369.501524 210.654885 369.581558 210.574851 
C 369.661593 210.494817 369.706562 210.386252 369.706562 210.273066 
C 369.706562 210.159881 369.661593 210.051316 369.581558 209.971281 
C 369.501524 209.891247 369.392959 209.846278 369.279773 209.846278 
C 369.166588 209.846278 369.058023 209.891247 368.977989 209.971281 
C 368.897954 210.051316 368.852985 210.159881 368.852985 210.273066 
C 368.852985 210.386252 368.897954 210.494817 368.977989 210.574851 
C 369.058023 210.654885 369.166588 210.699854 369.279773 210.699854 
z
" style="fill:#7fc97f;stroke:#7fc97f;"/>
    <path clip-path="url(#p4c05494480)" d="M 261.873556 57.050914 
C 262.00782 57.050914 262.136603 56.99757 262.231541 56.902631 
C 262.32648 56.807692 262.379824 56.67891 262.379824 56.544646 
C 262.379824 56.410382 262.32648 56.281599 262.231541 56.186661 
C 262.136603 56.091722 262.00782 56.038378 261.873556 56.038378 
C 261.739292 56.038378 261.61051 56.091722 261.515571 56.186661 
C 261.420632 56.281599 261.367288 56.410382 261.367288 56.544646 
C 261.367288 56.67891 261.420632 56.807692 261.515571 56.902631 
C 261.61051 56.99757 261.739292 57.050914 261.873556 57.050914 
z
" style="fill:#7fc97f;stroke:#7fc97f;"/>
    <path clip-path="url(#p4c05494480)" d="M 398.471236 174.562995 
C 398.584421 174.562995 398.692986 174.518026 398.773021 174.437992 
C 398.853055 174.357957 398.898024 174.249392 398.898024 174.136207 
C 398.898024 174.023021 398.853055 173.914456 398.773021 173.834422 
C 398.692986 173.754388 398.584421 173.709418 398.471236 173.709418 
C 398.35805 173.709418 398.249485 173.754388 398.169451 173.834422 
C 398.089417 173.914456 398.044448 174.023021 398.044448 174.136207 
C 398.044448 174.249392 398.089417 174.357957 398.169451 174.437992 
C 398.249485 174.518026 398.35805 174.562995 398.471236 174.562995 
z
" style="fill:#7fc97f;stroke:#7fc97f;"/>
    <path clip-path="url(#p4c05494480)" d="M 221.76229 139.647635 
C 221.940533 139.647635 222.111501 139.576818 222.237538 139.450781 
C 222.363575 139.324743 222.434392 139.153776 222.434392 138.975532 
C 222.434392 138.797289 222.363575 138.626321 222.237538 138.500284 
C 222.111501 138.374247 221.940533 138.30343 221.76229 138.30343 
C 221.584046 138.30343 221.413079 138.374247 221.287041 138.500284 
C 221.161004 138.626321 221.090187 138.797289 221.090187 138.975532 
C 221.090187 139.153776 221.161004 139.324743 221.287041 139.450781 
C 221.413079 139.576818 221.584046 139.647635 221.76229 139.647635 
z
" style="fill:#7fc97f;stroke:#7fc97f;"/>
    <path clip-path="url(#p4c05494480)" d="M 230.889336 129.441221 
C 231.040096 129.441221 231.184702 129.381324 231.291306 129.27472 
C 231.397909 129.168116 231.457807 129.02351 231.457807 128.87275 
C 231.457807 128.721989 231.397909 128.577384 231.291306 128.47078 
C 231.184702 128.364176 231.040096 128.304278 230.889336 128.304278 
C 230.738575 128.304278 230.593969 128.364176 230.487366 128.47078 
C 230.380762 128.577384 230.320864 128.721989 230.320864 128.87275 
C 230.320864 129.02351 230.380762 129.168116 230.487366 129.27472 
C 230.593969 129.381324 230.738575 129.441221 230.889336 129.441221 
z
" style="fill:#7fc97f;stroke:#7fc97f;"/>
    <path clip-path="url(#p4c05494480)" d="M 174.483274 287.140503 
C 174.695439 287.140503 174.898943 287.056209 175.048967 286.906185 
C 175.19899 286.756162 175.283285 286.552658 175.283285 286.340493 
C 175.283285 286.128327 175.19899 285.924823 175.048967 285.7748 
C 174.898943 285.624776 174.695439 285.540482 174.483274 285.540482 
C 174.271109 285.540482 174.067605 285.624776 173.917581 285.7748 
C 173.767558 285.924823 173.683263 286.128327 173.683263 286.340493 
C 173.683263 286.552658 173.767558 286.756162 173.917581 286.906185 
C 174.067605 287.056209 174.271109 287.140503 174.483274 287.140503 
z
" style="fill:#386cb0;stroke:#386cb0;"/>
    <path clip-path="url(#p4c05494480)" d="M 325.952907 160.640439 
C 326.015674 160.640439 326.075879 160.615501 326.120263 160.571118 
C 326.164646 160.526735 326.189584 160.46653 326.189584 160.403762 
C 326.189584 160.340995 326.164646 160.28079 326.120263 160.236407 
C 326.075879 160.192024 326.015674 160.167086 325.952907 160.167086 
C 325.89014 160.167086 325.829935 160.192024 325.785551 160.236407 
C 325.741168 160.28079 325.71623 160.340995 325.71623 160.403762 
C 325.71623 160.46653 325.741168 160.526735 325.785551 160.571118 
C 325.829935 160.615501 325.89014 160.640439 325.952907 160.640439 
z
" style="fill:#7fc97f;stroke:#7fc97f;"/>
    <path clip-path="url(#p4c05494480)" d="M 371.984851 212.101572 
C 372.098037 212.101572 372.206602 212.056603 372.286636 211.976569 
C 372.36667 211.896534 372.411639 211.787969 372.411639 211.674784 
C 372.411639 211.561598 372.36667 211.453033 372.286636 211.372999 
C 372.206602 211.292965 372.098037 211.247996 371.984851 211.247996 
C 371.871665 211.247996 371.7631 211.292965 371.683066 211.372999 
C 371.603032 211.453033 371.558063 211.561598 371.558063 211.674784 
C 371.558063 211.787969 371.603032 211.896534 371.683066 211.976569 
C 371.7631 212.056603 371.871665 212.101572 371.984851 212.101572 
z
" style="fill:#7fc97f;stroke:#7fc97f;"/>
    <path clip-path="url(#p4c05494480)" d="M 84.497722 296.446092 
C 84.764887 296.446092 85.021145 296.339946 85.21006 296.151032 
C 85.398974 295.962118 85.50512 295.705859 85.50512 295.438694 
C 85.50512 295.171529 85.398974 294.915271 85.21006 294.726357 
C 85.021145 294.537442 84.764887 294.431297 84.497722 294.431297 
C 84.230557 294.431297 83.974298 294.537442 83.785384 294.726357 
C 83.59647 294.915271 83.490324 295.171529 83.490324 295.438694 
C 83.490324 295.705859 83.59647 295.962118 83.785384 296.151032 
C 83.974298 296.339946 84.230557 296.446092 84.497722 296.446092 
z
" style="fill:#666666;stroke:#666666;"/>
   </g>
   <g id="matplotlib.axis_1">
    <g id="xtick_1">
     <g id="line2d_1">
      <defs>
       <path d="M 0 0 
L 0 3.5 
" id="mb8694ab262" style="stroke:#000000;stroke-width:0.8;"/>
      </defs>
      <g>
       <use style="stroke:#000000;stroke-width:0.8;" x="63.226732" xlink:href="#mb8694ab262" y="307.584"/>
      </g>
     </g>
     <g id="text_1">
      <!-- 10.0 -->
      <defs>
       <path d="M 10.59375 35.5 
L 73.1875 35.5 
L 73.1875 27.203125 
L 10.59375 27.203125 
z
" id="DejaVuSans-2212"/>
       <path d="M 12.40625 8.296875 
L 28.515625 8.296875 
L 28.515625 63.921875 
L 10.984375 60.40625 
L 10.984375 69.390625 
L 28.421875 72.90625 
L 38.28125 72.90625 
L 38.28125 8.296875 
L 54.390625 8.296875 
L 54.390625 0 
L 12.40625 0 
z
" id="DejaVuSans-31"/>
       <path d="M 31.78125 66.40625 
Q 24.171875 66.40625 20.328125 58.90625 
Q 16.5 51.421875 16.5 36.375 
Q 16.5 21.390625 20.328125 13.890625 
Q 24.171875 6.390625 31.78125 6.390625 
Q 39.453125 6.390625 43.28125 13.890625 
Q 47.125 21.390625 47.125 36.375 
Q 47.125 51.421875 43.28125 58.90625 
Q 39.453125 66.40625 31.78125 66.40625 
z
M 31.78125 74.21875 
Q 44.046875 74.21875 50.515625 64.515625 
Q 56.984375 54.828125 56.984375 36.375 
Q 56.984375 17.96875 50.515625 8.265625 
Q 44.046875 -1.421875 31.78125 -1.421875 
Q 19.53125 -1.421875 13.0625 8.265625 
Q 6.59375 17.96875 6.59375 36.375 
Q 6.59375 54.828125 13.0625 64.515625 
Q 19.53125 74.21875 31.78125 74.21875 
z
" id="DejaVuSans-30"/>
       <path d="M 10.6875 12.40625 
L 21 12.40625 
L 21 0 
L 10.6875 0 
z
" id="DejaVuSans-2e"/>
      </defs>
      <g transform="translate(47.904076 322.182437)scale(0.1 -0.1)">
       <use xlink:href="#DejaVuSans-2212"/>
       <use x="83.789062" xlink:href="#DejaVuSans-31"/>
       <use x="147.412109" xlink:href="#DejaVuSans-30"/>
       <use x="211.035156" xlink:href="#DejaVuSans-2e"/>
       <use x="242.822266" xlink:href="#DejaVuSans-30"/>
      </g>
     </g>
    </g>
    <g id="xtick_2">
     <g id="line2d_2">
      <g>
       <use style="stroke:#000000;stroke-width:0.8;" x="109.820498" xlink:href="#mb8694ab262" y="307.584"/>
      </g>
     </g>
     <g id="text_2">
      <!-- 7.5 -->
      <defs>
       <path d="M 8.203125 72.90625 
L 55.078125 72.90625 
L 55.078125 68.703125 
L 28.609375 0 
L 18.3125 0 
L 43.21875 64.59375 
L 8.203125 64.59375 
z
" id="DejaVuSans-37"/>
       <path d="M 10.796875 72.90625 
L 49.515625 72.90625 
L 49.515625 64.59375 
L 19.828125 64.59375 
L 19.828125 46.734375 
Q 21.96875 47.46875 24.109375 47.828125 
Q 26.265625 48.1875 28.421875 48.1875 
Q 40.625 48.1875 47.75 41.5 
Q 54.890625 34.8125 54.890625 23.390625 
Q 54.890625 11.625 47.5625 5.09375 
Q 40.234375 -1.421875 26.90625 -1.421875 
Q 22.3125 -1.421875 17.546875 -0.640625 
Q 12.796875 0.140625 7.71875 1.703125 
L 7.71875 11.625 
Q 12.109375 9.234375 16.796875 8.0625 
Q 21.484375 6.890625 26.703125 6.890625 
Q 35.15625 6.890625 40.078125 11.328125 
Q 45.015625 15.765625 45.015625 23.390625 
Q 45.015625 31 40.078125 35.4375 
Q 35.15625 39.890625 26.703125 39.890625 
Q 22.75 39.890625 18.8125 39.015625 
Q 14.890625 38.140625 10.796875 36.28125 
z
" id="DejaVuSans-35"/>
      </defs>
      <g transform="translate(97.679092 322.182437)scale(0.1 -0.1)">
       <use xlink:href="#DejaVuSans-2212"/>
       <use x="83.789062" xlink:href="#DejaVuSans-37"/>
       <use x="147.412109" xlink:href="#DejaVuSans-2e"/>
       <use x="179.199219" xlink:href="#DejaVuSans-35"/>
      </g>
     </g>
    </g>
    <g id="xtick_3">
     <g id="line2d_3">
      <g>
       <use style="stroke:#000000;stroke-width:0.8;" x="156.414264" xlink:href="#mb8694ab262" y="307.584"/>
      </g>
     </g>
     <g id="text_3">
      <!-- 5.0 -->
      <g transform="translate(144.272857 322.182437)scale(0.1 -0.1)">
       <use xlink:href="#DejaVuSans-2212"/>
       <use x="83.789062" xlink:href="#DejaVuSans-35"/>
       <use x="147.412109" xlink:href="#DejaVuSans-2e"/>
       <use x="179.199219" xlink:href="#DejaVuSans-30"/>
      </g>
     </g>
    </g>
    <g id="xtick_4">
     <g id="line2d_4">
      <g>
       <use style="stroke:#000000;stroke-width:0.8;" x="203.00803" xlink:href="#mb8694ab262" y="307.584"/>
      </g>
     </g>
     <g id="text_4">
      <!-- 2.5 -->
      <defs>
       <path d="M 19.1875 8.296875 
L 53.609375 8.296875 
L 53.609375 0 
L 7.328125 0 
L 7.328125 8.296875 
Q 12.9375 14.109375 22.625 23.890625 
Q 32.328125 33.6875 34.8125 36.53125 
Q 39.546875 41.84375 41.421875 45.53125 
Q 43.3125 49.21875 43.3125 52.78125 
Q 43.3125 58.59375 39.234375 62.25 
Q 35.15625 65.921875 28.609375 65.921875 
Q 23.96875 65.921875 18.8125 64.3125 
Q 13.671875 62.703125 7.8125 59.421875 
L 7.8125 69.390625 
Q 13.765625 71.78125 18.9375 73 
Q 24.125 74.21875 28.421875 74.21875 
Q 39.75 74.21875 46.484375 68.546875 
Q 53.21875 62.890625 53.21875 53.421875 
Q 53.21875 48.921875 51.53125 44.890625 
Q 49.859375 40.875 45.40625 35.40625 
Q 44.1875 33.984375 37.640625 27.21875 
Q 31.109375 20.453125 19.1875 8.296875 
z
" id="DejaVuSans-32"/>
      </defs>
      <g transform="translate(190.866623 322.182437)scale(0.1 -0.1)">
       <use xlink:href="#DejaVuSans-2212"/>
       <use x="83.789062" xlink:href="#DejaVuSans-32"/>
       <use x="147.412109" xlink:href="#DejaVuSans-2e"/>
       <use x="179.199219" xlink:href="#DejaVuSans-35"/>
      </g>
     </g>
    </g>
    <g id="xtick_5">
     <g id="line2d_5">
      <g>
       <use style="stroke:#000000;stroke-width:0.8;" x="249.601795" xlink:href="#mb8694ab262" y="307.584"/>
      </g>
     </g>
     <g id="text_5">
      <!-- 0.0 -->
      <g transform="translate(241.650233 322.182437)scale(0.1 -0.1)">
       <use xlink:href="#DejaVuSans-30"/>
       <use x="63.623047" xlink:href="#DejaVuSans-2e"/>
       <use x="95.410156" xlink:href="#DejaVuSans-30"/>
      </g>
     </g>
    </g>
    <g id="xtick_6">
     <g id="line2d_6">
      <g>
       <use style="stroke:#000000;stroke-width:0.8;" x="296.195561" xlink:href="#mb8694ab262" y="307.584"/>
      </g>
     </g>
     <g id="text_6">
      <!-- 2.5 -->
      <g transform="translate(288.243999 322.182437)scale(0.1 -0.1)">
       <use xlink:href="#DejaVuSans-32"/>
       <use x="63.623047" xlink:href="#DejaVuSans-2e"/>
       <use x="95.410156" xlink:href="#DejaVuSans-35"/>
      </g>
     </g>
    </g>
    <g id="xtick_7">
     <g id="line2d_7">
      <g>
       <use style="stroke:#000000;stroke-width:0.8;" x="342.789327" xlink:href="#mb8694ab262" y="307.584"/>
      </g>
     </g>
     <g id="text_7">
      <!-- 5.0 -->
      <g transform="translate(334.837765 322.182437)scale(0.1 -0.1)">
       <use xlink:href="#DejaVuSans-35"/>
       <use x="63.623047" xlink:href="#DejaVuSans-2e"/>
       <use x="95.410156" xlink:href="#DejaVuSans-30"/>
      </g>
     </g>
    </g>
    <g id="xtick_8">
     <g id="line2d_8">
      <g>
       <use style="stroke:#000000;stroke-width:0.8;" x="389.383093" xlink:href="#mb8694ab262" y="307.584"/>
      </g>
     </g>
     <g id="text_8">
      <!-- 7.5 -->
      <g transform="translate(381.43153 322.182437)scale(0.1 -0.1)">
       <use xlink:href="#DejaVuSans-37"/>
       <use x="63.623047" xlink:href="#DejaVuSans-2e"/>
       <use x="95.410156" xlink:href="#DejaVuSans-35"/>
      </g>
     </g>
    </g>
   </g>
   <g id="matplotlib.axis_2">
    <g id="ytick_1">
     <g id="line2d_9">
      <defs>
       <path d="M 0 0 
L -3.5 0 
" id="mcfd1badd78" style="stroke:#000000;stroke-width:0.8;"/>
      </defs>
      <g>
       <use style="stroke:#000000;stroke-width:0.8;" x="57.6" xlink:href="#mcfd1badd78" y="279.537297"/>
      </g>
     </g>
     <g id="text_9">
      <!-- 6 -->
      <defs>
       <path d="M 33.015625 40.375 
Q 26.375 40.375 22.484375 35.828125 
Q 18.609375 31.296875 18.609375 23.390625 
Q 18.609375 15.53125 22.484375 10.953125 
Q 26.375 6.390625 33.015625 6.390625 
Q 39.65625 6.390625 43.53125 10.953125 
Q 47.40625 15.53125 47.40625 23.390625 
Q 47.40625 31.296875 43.53125 35.828125 
Q 39.65625 40.375 33.015625 40.375 
z
M 52.59375 71.296875 
L 52.59375 62.3125 
Q 48.875 64.0625 45.09375 64.984375 
Q 41.3125 65.921875 37.59375 65.921875 
Q 27.828125 65.921875 22.671875 59.328125 
Q 17.53125 52.734375 16.796875 39.40625 
Q 19.671875 43.65625 24.015625 45.921875 
Q 28.375 48.1875 33.59375 48.1875 
Q 44.578125 48.1875 50.953125 41.515625 
Q 57.328125 34.859375 57.328125 23.390625 
Q 57.328125 12.15625 50.6875 5.359375 
Q 44.046875 -1.421875 33.015625 -1.421875 
Q 20.359375 -1.421875 13.671875 8.265625 
Q 6.984375 17.96875 6.984375 36.375 
Q 6.984375 53.65625 15.1875 63.9375 
Q 23.390625 74.21875 37.203125 74.21875 
Q 40.921875 74.21875 44.703125 73.484375 
Q 48.484375 72.75 52.59375 71.296875 
z
" id="DejaVuSans-36"/>
      </defs>
      <g transform="translate(35.857813 283.336516)scale(0.1 -0.1)">
       <use xlink:href="#DejaVuSans-2212"/>
       <use x="83.789062" xlink:href="#DejaVuSans-36"/>
      </g>
     </g>
    </g>
    <g id="ytick_2">
     <g id="line2d_10">
      <g>
       <use style="stroke:#000000;stroke-width:0.8;" x="57.6" xlink:href="#mcfd1badd78" y="243.358202"/>
      </g>
     </g>
     <g id="text_10">
      <!-- 4 -->
      <defs>
       <path d="M 37.796875 64.3125 
L 12.890625 25.390625 
L 37.796875 25.390625 
z
M 35.203125 72.90625 
L 47.609375 72.90625 
L 47.609375 25.390625 
L 58.015625 25.390625 
L 58.015625 17.1875 
L 47.609375 17.1875 
L 47.609375 0 
L 37.796875 0 
L 37.796875 17.1875 
L 4.890625 17.1875 
L 4.890625 26.703125 
z
" id="DejaVuSans-34"/>
      </defs>
      <g transform="translate(35.857813 247.157421)scale(0.1 -0.1)">
       <use xlink:href="#DejaVuSans-2212"/>
       <use x="83.789062" xlink:href="#DejaVuSans-34"/>
      </g>
     </g>
    </g>
    <g id="ytick_3">
     <g id="line2d_11">
      <g>
       <use style="stroke:#000000;stroke-width:0.8;" x="57.6" xlink:href="#mcfd1badd78" y="207.179107"/>
      </g>
     </g>
     <g id="text_11">
      <!-- 2 -->
      <g transform="translate(35.857813 210.978325)scale(0.1 -0.1)">
       <use xlink:href="#DejaVuSans-2212"/>
       <use x="83.789062" xlink:href="#DejaVuSans-32"/>
      </g>
     </g>
    </g>
    <g id="ytick_4">
     <g id="line2d_12">
      <g>
       <use style="stroke:#000000;stroke-width:0.8;" x="57.6" xlink:href="#mcfd1badd78" y="171.000011"/>
      </g>
     </g>
     <g id="text_12">
      <!-- 0 -->
      <g transform="translate(44.2375 174.79923)scale(0.1 -0.1)">
       <use xlink:href="#DejaVuSans-30"/>
      </g>
     </g>
    </g>
    <g id="ytick_5">
     <g id="line2d_13">
      <g>
       <use style="stroke:#000000;stroke-width:0.8;" x="57.6" xlink:href="#mcfd1badd78" y="134.820916"/>
      </g>
     </g>
     <g id="text_13">
      <!-- 2 -->
      <g transform="translate(44.2375 138.620135)scale(0.1 -0.1)">
       <use xlink:href="#DejaVuSans-32"/>
      </g>
     </g>
    </g>
    <g id="ytick_6">
     <g id="line2d_14">
      <g>
       <use style="stroke:#000000;stroke-width:0.8;" x="57.6" xlink:href="#mcfd1badd78" y="98.641821"/>
      </g>
     </g>
     <g id="text_14">
      <!-- 4 -->
      <g transform="translate(44.2375 102.441039)scale(0.1 -0.1)">
       <use xlink:href="#DejaVuSans-34"/>
      </g>
     </g>
    </g>
    <g id="ytick_7">
     <g id="line2d_15">
      <g>
       <use style="stroke:#000000;stroke-width:0.8;" x="57.6" xlink:href="#mcfd1badd78" y="62.462725"/>
      </g>
     </g>
     <g id="text_15">
      <!-- 6 -->
      <g transform="translate(44.2375 66.261944)scale(0.1 -0.1)">
       <use xlink:href="#DejaVuSans-36"/>
      </g>
     </g>
    </g>
   </g>
   <g id="patch_3">
    <path d="M 57.6 307.584 
L 57.6 41.472 
" style="fill:none;stroke:#000000;stroke-linecap:square;stroke-linejoin:miter;stroke-width:0.8;"/>
   </g>
   <g id="patch_4">
    <path d="M 414.72 307.584 
L 414.72 41.472 
" style="fill:none;stroke:#000000;stroke-linecap:square;stroke-linejoin:miter;stroke-width:0.8;"/>
   </g>
   <g id="patch_5">
    <path d="M 57.6 307.584 
L 414.72 307.584 
" style="fill:none;stroke:#000000;stroke-linecap:square;stroke-linejoin:miter;stroke-width:0.8;"/>
   </g>
   <g id="patch_6">
    <path d="M 57.6 41.472 
L 414.72 41.472 
" style="fill:none;stroke:#000000;stroke-linecap:square;stroke-linejoin:miter;stroke-width:0.8;"/>
   </g>
  </g>
 </g>
 <defs>
  <clipPath id="p4c05494480">
   <rect height="266.112" width="357.12" x="57.6" y="41.472"/>
  </clipPath>
 </defs>
</svg>
