<?xml version="1.0" encoding="utf-8"?>
<!-- Generator: Adobe Illustrator 21.1.0, SVG Export Plug-In . SVG Version: 6.00 Build 0)  -->
<svg version="1.1" xmlns="http://www.w3.org/2000/svg" xmlns:xlink="http://www.w3.org/1999/xlink" x="0px" y="0px"
	 viewBox="0 0 624.1 575.9" style="enable-background:new 0 0 624.1 575.9;" xml:space="preserve">
<style type="text/css">
	.st0{fill:none;stroke:#000000;stroke-miterlimit:10;}
	.st1{font-family:'Helvetica';}
	.st2{font-size:21.2657px;}
	.st3{font-family:'Helvetica-Bold';}
	.st4{display:none;fill:none;stroke:#000000;stroke-miterlimit:10;}
	.st5{fill:#29ABE2;stroke:#000000;stroke-miterlimit:10;}
	.st6{display:none;}
	.st7{display:inline;fill:#29ABE2;stroke:#000000;stroke-miterlimit:10;}
	.st8{fill:none;}
	.st9{display:inline;stroke:#000000;stroke-miterlimit:10;}
	.st10{display:inline;}
	.st11{fill:#FF0000;}
	.st12{fill:none;stroke:#FF0000;stroke-width:4;stroke-miterlimit:10;}
	.st13{fill:none;stroke:#FF0000;stroke-width:4;stroke-miterlimit:10;stroke-dasharray:60.527,10.0878;}
	.st14{fill:none;stroke:#FF0000;stroke-width:4;stroke-miterlimit:10;stroke-dasharray:62.5492,10.4249;}
	.st15{fill:none;stroke:#FF0000;stroke-width:4;stroke-miterlimit:10;stroke-dasharray:58.4587,9.7431;}
	.st16{fill:none;stroke:#FF0000;stroke-width:4;stroke-miterlimit:10;stroke-dasharray:63.2845,10.5474;}
	.st17{fill:#39B54A;stroke:#000000;stroke-miterlimit:10;}
	.st18{fill:none;stroke:#000000;stroke-width:2;stroke-miterlimit:10;}
</style>
<g id="Layer_1">
	<g>
		<g>
			<line class="st0" x1="114" y1="507.7" x2="567.6" y2="507.7"/>
			<g>
				<g>
					<line class="st0" x1="114" y1="507.7" x2="114" y2="496.4"/>
					<line class="st0" x1="567.6" y1="507.7" x2="567.6" y2="54.1"/>
				</g>
				<g>
				</g>
			</g>
		</g>
		<g>
			<g>
				<text transform="matrix(1 0 0 1 59.587 492.6233)" class="st1 st2">Easy</text>
				<text transform="matrix(1 0 0 1 5.2394 288.8881)" class="st3 st2">Challenge</text>
				<text transform="matrix(1 0 0 1 60.7711 86.4542)" class="st1 st2">Hard</text>
			</g>
			<line class="st0" x1="114" y1="507.7" x2="114" y2="54.1"/>
			<g>
				<g>
					<line class="st0" x1="114" y1="280.9" x2="114" y2="280.9"/>
					<line class="st0" x1="114" y1="54.1" x2="567.6" y2="54.1"/>
				</g>
				<g>
				</g>
			</g>
		</g>
		<g>
			<g>
			</g>
			<g>
			</g>
		</g>
	</g>
	<g>
		<path d="M122.9,518.5h2.1v13.4h7.7v1.8h-9.7V518.5z"/>
		<path d="M142.5,523.7c1,1,1.5,2.4,1.5,4.2c0,1.8-0.4,3.3-1.3,4.4s-2.2,1.8-4,1.8c-1.5,0-2.7-0.5-3.6-1.6c-0.9-1-1.3-2.4-1.3-4.2
			c0-1.9,0.5-3.4,1.4-4.5c0.9-1.1,2.2-1.7,3.8-1.7C140.3,522.3,141.5,522.8,142.5,523.7z M141.3,531.1c0.5-0.9,0.7-2,0.7-3.1
			c0-1-0.2-1.9-0.5-2.5c-0.5-1-1.4-1.5-2.7-1.5c-1.1,0-2,0.4-2.5,1.3c-0.5,0.9-0.8,1.9-0.8,3.2c0,1.2,0.3,2.2,0.8,3
			c0.5,0.8,1.3,1.2,2.4,1.2C140,532.5,140.9,532.1,141.3,531.1z"/>
		<path d="M147.1,522.6l2.1,8.8l2.2-8.8h2.1l2.2,8.7l2.3-8.7h1.9l-3.2,11.1h-1.9l-2.3-8.6l-2.2,8.6h-1.9l-3.2-11.1H147.1z"/>
	</g>
	<g>
		<path d="M323.9,529c0.1,0.7,0.3,1.2,0.6,1.6c0.5,0.6,1.4,0.9,2.7,0.9c0.8,0,1.4-0.1,1.9-0.2c0.9-0.3,1.4-0.9,1.4-1.8
			c0-0.5-0.2-0.9-0.7-1.2c-0.4-0.3-1.2-0.5-2.1-0.7l-1.7-0.4c-1.6-0.4-2.7-0.8-3.4-1.2c-1-0.7-1.5-1.8-1.5-3.3
			c0-1.4,0.5-2.5,1.5-3.4c1-0.9,2.5-1.4,4.4-1.4c1.6,0,3,0.4,4.2,1.3c1.2,0.9,1.8,2.1,1.8,3.7H330c-0.1-0.9-0.5-1.6-1.2-2
			c-0.5-0.3-1.1-0.4-1.9-0.4c-0.8,0-1.5,0.2-2,0.5s-0.8,0.8-0.8,1.4c0,0.5,0.2,1,0.7,1.2c0.3,0.2,1,0.4,2,0.6l2.7,0.6
			c1.2,0.3,2.1,0.6,2.6,1.1c0.9,0.7,1.4,1.8,1.4,3.1c0,1.4-0.5,2.6-1.6,3.5c-1.1,0.9-2.6,1.4-4.6,1.4c-2,0-3.6-0.5-4.8-1.4
			c-1.2-0.9-1.7-2.2-1.7-3.8H323.9z"/>
		<path d="M335.5,518.5h2.9v8.3l3.7-4.3h3.7l-4.1,4.2l4.2,7h-3.6l-2.7-4.8l-1.2,1.3v3.6h-2.9V518.5z"/>
		<path d="M350.4,521.1h-3v-2.7h3V521.1z M347.4,522.4h3v11.3h-3V522.4z"/>
		<path d="M356.3,533.7h-3v-15.3h3V533.7z"/>
		<path d="M362.2,533.7h-3v-15.3h3V533.7z"/>
	</g>
	<g>
		<path d="M519.6,518.5h2.1v6.3h7.8v-6.3h2.1v15.3h-2.1v-7.1h-7.8v7.1h-2.1V518.5z"/>
		<path d="M534.7,518.5h1.9v2.1h-1.9V518.5z M534.7,522.7h1.9v11.1h-1.9V522.7z"/>
		<path d="M545.6,523.1c0.4,0.2,0.7,0.6,1.1,1.1v-1.4h1.7v10.1c0,1.4-0.2,2.5-0.6,3.3c-0.8,1.5-2.2,2.3-4.4,2.3
			c-1.2,0-2.2-0.3-3-0.8c-0.8-0.5-1.3-1.4-1.4-2.5h1.9c0.1,0.5,0.3,0.9,0.5,1.2c0.4,0.4,1.1,0.6,2,0.6c1.4,0,2.4-0.5,2.8-1.5
			c0.3-0.6,0.4-1.7,0.4-3.2c-0.4,0.6-0.8,1-1.3,1.3c-0.5,0.3-1.2,0.4-2.1,0.4c-1.2,0-2.2-0.4-3.1-1.3c-0.9-0.9-1.3-2.3-1.3-4.2
			c0-1.9,0.5-3.3,1.4-4.4c0.9-1,2-1.6,3.3-1.6C544.2,522.4,544.9,522.6,545.6,523.1z M545.8,525.1c-0.6-0.7-1.3-1-2.2-1
			c-1.3,0-2.2,0.6-2.7,1.8c-0.3,0.7-0.4,1.5-0.4,2.6c0,1.3,0.3,2.2,0.8,2.9c0.5,0.7,1.2,1,2,1c1.3,0,2.3-0.6,2.8-1.8
			c0.3-0.7,0.5-1.5,0.5-2.4C546.6,526.8,546.4,525.7,545.8,525.1z"/>
		<path d="M551.2,518.4h1.9v5.7c0.4-0.6,0.8-1,1.2-1.2c0.6-0.4,1.4-0.6,2.3-0.6c1.6,0,2.7,0.6,3.3,1.7c0.3,0.6,0.5,1.5,0.5,2.6v7.1
			h-1.9v-7c0-0.8-0.1-1.4-0.3-1.8c-0.3-0.6-1-0.9-1.9-0.9c-0.8,0-1.5,0.3-2.1,0.8s-0.9,1.5-0.9,3v5.9h-1.9V518.4z"/>
	</g>
	<rect x="428.7" y="54.4" class="st4" width="138.9" height="138.9"/>
	<rect x="113.7" y="369.4" class="st4" width="138.9" height="138.9"/>
</g>
<g id="Layer_2">
	<polygon class="st5" points="113.6,507.5 428.7,54.4 567.6,54.4 567.6,193.3 	"/>
</g>
<g id="Layer_3" class="st6">
	<polygon class="st7" points="113.7,369.4 428.7,54.4 567.6,54.4 567.6,193.3 252.6,508.3 113.7,508.3 	"/>
</g>
<g id="Layer_4">
	<g>
		
			<rect x="304.1" y="235.1" transform="matrix(0.7071 -0.7071 0.7071 0.7071 -85.957 359.3028)" class="st8" width="173.3" height="96.7"/>
		<path d="M297.2,308.6l13.1-13.1l3.2,3.2l-9.3,9.3l4.2,4.2l8.1-8.1l3.2,3.2l-8.1,8.1l7.7,7.7l-3.8,3.8L297.2,308.6z"/>
		<path d="M334.4,308l-3.5,3.5l-18.3-18.3l3.5-3.5L334.4,308z"/>
		<path d="M347.5,291.6c0.3,2.6-0.8,5-3.1,7.3s-4.8,3.4-7.3,3.1s-4.8-1.4-6.8-3.4c-2-2-3.1-4.2-3.4-6.8c-0.3-2.6,0.7-5,3.1-7.4
			s4.8-3.3,7.4-3.1c2.6,0.3,4.8,1.4,6.8,3.4C346.1,286.7,347.3,289,347.5,291.6z M342.7,292.4c-0.2-1.3-1-2.6-2.3-4
			c-1.4-1.4-2.7-2.1-4-2.3c-1.3-0.2-2.4,0.3-3.5,1.3c-1,1-1.5,2.2-1.3,3.5c0.2,1.3,0.9,2.6,2.3,4c1.4,1.4,2.7,2.1,4,2.3
			c1.3,0.2,2.5-0.3,3.5-1.3C342.5,294.9,342.9,293.7,342.7,292.4z"/>
		<path d="M346.3,269l3.6-3.6l11.8,7.7l-7.6-11.9l3.7-3.7l9.6,17.5l-3.6,3.6l-12-7.7l7.7,12l-3.7,3.7l-17.4-9.7l3.8-3.8l11.8,7.6
			L346.3,269z"/>
	</g>
</g>
<g id="Layer_5" class="st6">
	<circle class="st9" cx="333.7" cy="97.2" r="12.8"/>
	<circle class="st9" cx="333.9" cy="287.9" r="12.8"/>
	<circle class="st9" cx="333.9" cy="465.9" r="12.8"/>
	<g class="st10">
		<rect x="294.8" y="96.8" class="st8" width="52.1" height="52.9"/>
		<path d="M314.9,106.1l-1.4,5.4c-0.2,0.9-0.5,1.9-0.8,2.7s-0.7,1.7-1,2.5c0.4,1,0.8,1.8,1.3,2.3s0.9,0.8,1.5,0.8
			c0.4,0,0.7-0.1,1-0.4s0.4-0.7,0.5-1.2h0.7v0.4c0,1.3-0.2,2.3-0.6,3s-0.9,1-1.7,1c-0.8,0-1.4-0.3-1.9-0.9s-0.9-1.8-1.4-3.6
			c-0.9,1.6-2,2.8-3.1,3.5s-2.4,1.1-3.9,1.1c-2.3,0-4.2-0.8-5.7-2.4s-2.3-3.7-2.3-6.2c0-2.2,0.8-4.2,2.3-5.9s3.4-2.5,5.5-2.5
			c1.7,0,3,0.5,4.1,1.5s1.8,2.5,2.2,4.4l1.3-5.4H314.9z M309.8,113.6c-0.5-2.5-1.2-4.3-2-5.3s-1.9-1.6-3.3-1.6c-1.4,0-2.6,0.7-3.4,2
			s-1.3,3.1-1.3,5.4c0,2.4,0.4,4.3,1.2,5.6s1.9,1.9,3.5,1.9c1.4,0,2.4-0.6,3.2-1.7S309.2,116.7,309.8,113.6z"/>
	</g>
	<g class="st10">
		<path d="M307.2,481.3c-0.7-3.6-1.6-6.4-2.5-8.5c-0.9-2.1-1.7-3.1-2.5-3.1c-0.4,0-0.7,0.2-0.9,0.5c-0.2,0.4-0.4,0.9-0.4,1.5h-0.8
			v-1.1c0-1.5,0.2-2.6,0.6-3.3c0.4-0.7,1.1-1.1,1.9-1.1c1.6,0,3.2,3.9,5,11.8l0.3,1.5c1.2-2.8,2-5.9,2.4-9.3c0-0.4,0.1-0.7,0.1-0.9
			c0.1-1.1,0.4-1.9,0.7-2.4c0.3-0.5,0.7-0.7,1.3-0.7c0.5,0,0.9,0.1,1.2,0.4c0.3,0.3,0.4,0.7,0.4,1.2c0,1-0.8,3-2.3,6.1
			c-1.5,3.1-2.6,5.5-3.4,7.4c0.2,1.4,0.3,2.6,0.4,3.7c0.1,1.1,0.2,2,0.2,2.8c0,1.2-0.1,2.1-0.4,2.7c-0.3,0.5-0.7,0.8-1.2,0.8
			c-0.5,0-1-0.2-1.2-0.7c-0.3-0.4-0.4-1.1-0.4-2c0-0.9,0.1-1.9,0.4-3.2C306.4,484.3,306.7,482.9,307.2,481.3z"/>
	</g>
	<g class="st10">
		<path d="M304.2,312.3c0.2,0.7,0.6,1.2,1.2,1.7s1.3,0.7,2.1,0.7c1.2,0,2.2-0.5,2.9-1.6s1.1-2.6,1.1-4.5c0-1.9-0.3-3.4-1-4.6
			s-1.7-2-3.1-2.4c-0.1,0-0.2,0.1-0.4,0.1c-0.9,0.4-1.6,0.6-2,0.6c-0.3,0-0.6-0.1-0.8-0.3s-0.3-0.5-0.3-0.9c0-0.4,0.1-0.6,0.3-0.8
			s0.5-0.2,0.9-0.2c0.3,0,1,0.2,1.9,0.5c0.2,0.1,0.4,0.1,0.5,0.2c0.8-0.3,1.4-0.9,1.7-1.6s0.6-1.7,0.6-2.8c0-1.5-0.3-2.7-1-3.6
			s-1.5-1.3-2.7-1.3c-1.3,0-2.3,0.5-2.9,1.6s-0.9,2.8-0.9,5.2v24.6h-3.2v-21.2c0-3.6,0.6-6.3,1.9-8.3s3.1-2.9,5.5-2.9
			c1.9,0,3.5,0.5,4.6,1.5s1.8,2.3,1.8,3.9c0,1.1-0.4,2.2-1.2,3.1s-2,1.6-3.6,2.1c2.2,0.5,3.8,1.4,5,2.6s1.7,2.6,1.7,4.4
			c0,2.2-0.7,4-2,5.5s-3,2.1-5,2.1c-1.3,0-2.4-0.3-3.2-0.9s-1.4-1.4-1.5-2.3H304.2z"/>
	</g>
</g>
<g id="Layer_6" class="st6">
	<g class="st10">
		<line class="st11" x1="84.6" y1="549" x2="448.2" y2="28.4"/>
		<g>
			<line class="st12" x1="84.6" y1="549" x2="101.8" y2="524.4"/>
			<line class="st13" x1="107.6" y1="516.1" x2="428.2" y2="57.1"/>
			<line class="st12" x1="431.1" y1="53" x2="448.2" y2="28.4"/>
		</g>
	</g>
	<g class="st10">
		<line class="st11" x1="70.9" y1="533.7" x2="612.3" y2="166.4"/>
		<g>
			<line class="st12" x1="70.9" y1="533.7" x2="95.8" y2="516.9"/>
			<line class="st14" x1="104.4" y1="511" x2="583.2" y2="186.2"/>
			<line class="st12" x1="587.5" y1="183.3" x2="612.3" y2="166.4"/>
		</g>
	</g>
</g>
<g id="Layer_7" class="st6">
	<g class="st10">
		<line class="st11" x1="226.3" y1="533.7" x2="612.4" y2="146"/>
		<g>
			<line class="st12" x1="226.3" y1="533.7" x2="247.5" y2="512.5"/>
			<line class="st15" x1="254.4" y1="505.6" x2="587.8" y2="170.7"/>
			<line class="st12" x1="591.2" y1="167.3" x2="612.4" y2="146"/>
		</g>
	</g>
	<g class="st10">
		<line class="st11" x1="90" y1="390.3" x2="454.6" y2="28.7"/>
		<g>
			<line class="st12" x1="90" y1="390.3" x2="111.3" y2="369.1"/>
			<line class="st16" x1="118.8" y1="361.7" x2="429.6" y2="53.5"/>
			<line class="st12" x1="433.3" y1="49.8" x2="454.6" y2="28.7"/>
		</g>
	</g>
</g>
<g id="Layer_8">
	<polygon class="st17" points="113.6,507.5 394.1,54.4 428.7,54.4 	"/>
	<g>
		<g>
			<line class="st18" x1="316" y1="88.8" x2="371.7" y2="95.8"/>
			<g>
				<path d="M383.7,97.3c-5.9,1.4-13.3,4.1-18.1,7.3l4.6-9l-2.2-9.9C371.8,90.1,378.3,94.5,383.7,97.3z"/>
			</g>
		</g>
	</g>
	<g>
		<rect x="229.1" y="65.1" class="st8" width="115.6" height="64.5"/>
		<path d="M232.3,65.2h3.1v23h-3.1V65.2z"/>
		<path d="M249.3,71.9c0.5,0.3,1.1,0.9,1.7,1.6v-8.5h2.7v23h-2.5v-2.3c-0.7,1-1.4,1.8-2.3,2.2s-1.9,0.7-3.1,0.7
			c-1.9,0-3.5-0.8-4.8-2.4c-1.4-1.6-2-3.7-2-6.3c0-2.4,0.6-4.5,1.9-6.3c1.2-1.8,3-2.7,5.3-2.7C247.4,71.1,248.4,71.3,249.3,71.9z
			 M243,84.4c0.8,1.2,2,1.8,3.6,1.8c1.3,0,2.4-0.6,3.2-1.7c0.8-1.1,1.3-2.7,1.3-4.8c0-2.1-0.4-3.7-1.3-4.7c-0.9-1-1.9-1.5-3.2-1.5
			c-1.4,0-2.6,0.5-3.4,1.6c-0.9,1.1-1.3,2.7-1.3,4.8C241.9,81.7,242.2,83.2,243,84.4z"/>
		<path d="M268.2,71.8c1.1,0.6,2,1.3,2.5,2.2c0.6,0.8,0.9,1.8,1.1,3c0.2,0.8,0.2,2,0.2,3.7h-12.2c0.1,1.7,0.4,3.1,1.2,4.1
			c0.7,1,1.9,1.5,3.5,1.5c1.5,0,2.6-0.5,3.5-1.5c0.5-0.6,0.8-1.2,1-2h2.8c-0.1,0.6-0.3,1.3-0.7,2.1c-0.4,0.8-0.9,1.4-1.4,1.9
			c-0.8,0.8-1.9,1.4-3.1,1.7c-0.7,0.2-1.4,0.2-2.3,0.2c-2.1,0-3.8-0.8-5.3-2.3s-2.2-3.6-2.2-6.4c0-2.7,0.7-4.9,2.2-6.5
			c1.4-1.7,3.3-2.5,5.7-2.5C266,71,267.1,71.3,268.2,71.8z M269.2,78.4c-0.1-1.2-0.4-2.2-0.8-2.9c-0.8-1.4-2-2-3.8-2
			c-1.3,0-2.4,0.5-3.2,1.4c-0.9,0.9-1.3,2.1-1.4,3.6H269.2z"/>
		<path d="M284.7,78c0.6-0.1,1.1-0.4,1.3-0.8c0.1-0.3,0.2-0.6,0.2-1.1c0-1-0.3-1.7-1-2.1s-1.7-0.7-2.9-0.7c-1.5,0-2.5,0.4-3.1,1.2
			c-0.3,0.4-0.6,1.1-0.7,2h-2.6c0.1-2.1,0.7-3.5,2-4.3s2.8-1.2,4.5-1.2c2,0,3.6,0.4,4.8,1.1c1.2,0.8,1.8,1.9,1.8,3.5v9.6
			c0,0.3,0.1,0.5,0.2,0.7c0.1,0.2,0.4,0.3,0.8,0.3c0.1,0,0.3,0,0.4,0s0.3,0,0.5-0.1v2.1c-0.4,0.1-0.8,0.2-1,0.2c-0.2,0-0.5,0-0.9,0
			c-1,0-1.7-0.3-2.1-1c-0.2-0.4-0.4-0.9-0.5-1.5c-0.6,0.8-1.4,1.4-2.5,2c-1.1,0.6-2.3,0.8-3.5,0.8c-1.6,0-2.8-0.5-3.8-1.4
			s-1.5-2.1-1.5-3.5c0-1.5,0.5-2.8,1.5-3.6s2.2-1.4,3.8-1.6L284.7,78z M278.7,85.6c0.6,0.5,1.3,0.7,2.1,0.7c1,0,1.9-0.2,2.9-0.7
			c1.6-0.8,2.3-2,2.3-3.7v-2.3c-0.3,0.2-0.8,0.4-1.3,0.5c-0.5,0.1-1.1,0.3-1.6,0.3l-1.7,0.2c-1,0.1-1.8,0.3-2.3,0.6
			c-0.9,0.5-1.3,1.3-1.3,2.3C277.8,84.5,278.1,85.1,278.7,85.6z"/>
		<path d="M293.6,65.2h2.8v23h-2.8V65.2z"/>
		<path d="M231.3,103.6h2.8v23h-2.8V103.6z"/>
		<path d="M248.6,110.2c1.1,0.6,2,1.3,2.5,2.2c0.6,0.8,0.9,1.8,1.1,3c0.2,0.8,0.2,2,0.2,3.7h-12.2c0.1,1.7,0.4,3.1,1.2,4.1
			c0.7,1,1.9,1.5,3.5,1.5c1.5,0,2.6-0.5,3.5-1.5c0.5-0.6,0.8-1.2,1-2h2.8c-0.1,0.6-0.3,1.3-0.7,2.1c-0.4,0.8-0.9,1.4-1.4,1.9
			c-0.8,0.8-1.9,1.4-3.1,1.7c-0.7,0.2-1.4,0.2-2.3,0.2c-2.1,0-3.8-0.8-5.3-2.3s-2.2-3.6-2.2-6.4c0-2.7,0.7-4.9,2.2-6.5
			c1.4-1.7,3.3-2.5,5.7-2.5C246.4,109.4,247.5,109.7,248.6,110.2z M249.7,116.8c-0.1-1.2-0.4-2.2-0.8-2.9c-0.8-1.4-2-2-3.8-2
			c-1.3,0-2.4,0.5-3.2,1.4c-0.9,0.9-1.3,2.1-1.4,3.6H249.7z"/>
		<path d="M265.1,116.4c0.6-0.1,1.1-0.4,1.3-0.8c0.1-0.3,0.2-0.6,0.2-1.1c0-1-0.3-1.7-1-2.1s-1.7-0.7-2.9-0.7
			c-1.5,0-2.5,0.4-3.1,1.2c-0.3,0.4-0.6,1.1-0.7,2h-2.6c0.1-2.1,0.7-3.5,2-4.3s2.8-1.2,4.5-1.2c2,0,3.6,0.4,4.8,1.1
			c1.2,0.8,1.8,1.9,1.8,3.5v9.6c0,0.3,0.1,0.5,0.2,0.7c0.1,0.2,0.4,0.3,0.8,0.3c0.1,0,0.3,0,0.4,0s0.3,0,0.5-0.1v2.1
			c-0.4,0.1-0.8,0.2-1,0.2c-0.2,0-0.5,0-0.9,0c-1,0-1.7-0.3-2.1-1c-0.2-0.4-0.4-0.9-0.5-1.5c-0.6,0.8-1.4,1.4-2.5,2
			c-1.1,0.6-2.3,0.8-3.5,0.8c-1.6,0-2.8-0.5-3.8-1.4s-1.5-2.1-1.5-3.5c0-1.5,0.5-2.8,1.5-3.6s2.2-1.4,3.8-1.6L265.1,116.4z
			 M259.2,124c0.6,0.5,1.3,0.7,2.1,0.7c1,0,1.9-0.2,2.9-0.7c1.6-0.8,2.3-2,2.3-3.7V118c-0.3,0.2-0.8,0.4-1.3,0.5
			c-0.5,0.1-1.1,0.3-1.6,0.3l-1.7,0.2c-1,0.1-1.8,0.3-2.3,0.6c-0.9,0.5-1.3,1.3-1.3,2.3C258.3,122.9,258.6,123.5,259.2,124z"/>
		<path d="M274,109.8h2.7v2.9c0.2-0.6,0.8-1.2,1.6-2.1c0.9-0.8,1.8-1.2,3-1.2c0.1,0,0.1,0,0.3,0c0.1,0,0.3,0,0.6,0.1v3
			c-0.2,0-0.3-0.1-0.5-0.1c-0.1,0-0.3,0-0.5,0c-1.4,0-2.5,0.5-3.3,1.4c-0.8,0.9-1.1,2-1.1,3.1v9.6H274V109.8z"/>
		<path d="M284.6,109.8h2.7v2.4c0.8-1,1.6-1.7,2.5-2.1c0.9-0.4,1.9-0.6,3-0.6c2.4,0,4,0.8,4.8,2.5c0.5,0.9,0.7,2.2,0.7,3.9v10.7
			h-2.9V116c0-1-0.2-1.8-0.5-2.5c-0.5-1-1.4-1.6-2.7-1.6c-0.7,0-1.2,0.1-1.6,0.2c-0.8,0.2-1.4,0.7-2,1.4c-0.5,0.6-0.8,1.1-0.9,1.7
			c-0.1,0.6-0.2,1.4-0.2,2.5v8.8h-2.8V109.8z"/>
		<path d="M302.4,103.6h2.9v3.2h-2.9V103.6z M302.4,109.8h2.9v16.7h-2.9V109.8z"/>
		<path d="M309.5,109.8h2.7v2.4c0.8-1,1.6-1.7,2.5-2.1c0.9-0.4,1.9-0.6,3-0.6c2.4,0,4,0.8,4.8,2.5c0.5,0.9,0.7,2.2,0.7,3.9v10.7
			h-2.9V116c0-1-0.2-1.8-0.5-2.5c-0.5-1-1.4-1.6-2.7-1.6c-0.7,0-1.2,0.1-1.6,0.2c-0.8,0.2-1.4,0.7-2,1.4c-0.5,0.6-0.8,1.1-0.9,1.7
			c-0.1,0.6-0.2,1.4-0.2,2.5v8.8h-2.8V109.8z"/>
		<path d="M336.6,110.4c0.5,0.4,1.1,0.9,1.6,1.6v-2.1h2.6v15.2c0,2.1-0.3,3.8-0.9,5c-1.2,2.3-3.4,3.4-6.6,3.4
			c-1.8,0-3.3-0.4-4.5-1.2c-1.2-0.8-1.9-2.1-2.1-3.8h2.9c0.1,0.8,0.4,1.3,0.8,1.7c0.6,0.6,1.6,0.9,3,0.9c2.1,0,3.5-0.8,4.2-2.3
			c0.4-0.9,0.6-2.5,0.5-4.8c-0.6,0.9-1.2,1.5-2,1.9c-0.8,0.4-1.8,0.6-3.1,0.6c-1.8,0-3.4-0.6-4.7-1.9c-1.4-1.3-2-3.4-2-6.4
			c0-2.8,0.7-5,2-6.6c1.4-1.6,3-2.4,4.9-2.4C334.4,109.5,335.6,109.8,336.6,110.4z M336.9,113.5c-0.9-1-1.9-1.5-3.2-1.5
			c-2,0-3.3,0.9-4,2.8c-0.4,1-0.6,2.3-0.6,3.9c0,1.9,0.4,3.3,1.1,4.3s1.8,1.5,3.1,1.5c2,0,3.4-0.9,4.2-2.7c0.5-1,0.7-2.2,0.7-3.6
			C338.2,116,337.8,114.5,336.9,113.5z"/>
	</g>
	<g>
		<rect x="378.3" y="403.5" class="st8" width="211.9" height="80.4"/>
		<path d="M380.9,425.8l4.7-22.3h8.1c1.3,0,2.4,0.1,3.3,0.4c0.9,0.3,1.6,0.7,2,1.1c0.5,0.5,0.8,1.1,0.9,1.8c0.1,0.7,0.1,1.5-0.1,2.3
			c-0.2,0.8-0.4,1.5-0.7,2c-0.3,0.6-0.7,1-1.1,1.4c-0.4,0.4-0.9,0.7-1.3,0.9s-0.9,0.4-1.4,0.4l0,0.1c1.5,0.2,2.5,0.8,3.1,1.8
			c0.5,1,0.7,2.2,0.4,3.7c-0.2,1.2-0.6,2.1-1.2,2.9c-0.5,0.8-1.2,1.5-1.9,2c-0.8,0.5-1.6,0.9-2.5,1.1c-0.9,0.2-1.9,0.3-3,0.3H380.9z
			 M383.3,424h5.4c1.2,0,2.2-0.1,3.1-0.2c0.9-0.1,1.6-0.3,2.3-0.6c0.6-0.3,1.2-0.8,1.5-1.4s0.7-1.4,0.9-2.3c0.2-0.9,0.2-1.7,0-2.2
			s-0.5-1-1-1.3c-0.5-0.3-1.2-0.5-1.9-0.6c-0.8-0.1-1.7-0.2-2.7-0.2h-5.6L383.3,424z M385.6,413.3h5.3c1.1,0,2-0.1,2.8-0.3
			c0.8-0.2,1.4-0.5,2-0.8c0.5-0.4,1-0.8,1.3-1.3c0.3-0.5,0.5-1.1,0.7-1.8c0.1-0.7,0.2-1.3,0-1.8s-0.4-0.9-0.8-1.2
			c-0.4-0.3-1-0.5-1.8-0.7c-0.8-0.1-1.7-0.2-2.9-0.2h-4.9L385.6,413.3z"/>
		<path d="M407.5,426.2c-1,0-2-0.2-2.8-0.6s-1.5-0.9-2-1.6c-0.5-0.7-0.9-1.6-1-2.6c-0.2-1.1-0.1-2.3,0.2-3.7
			c0.2-1.2,0.6-2.3,1.2-3.3c0.5-1,1.2-1.9,2-2.7s1.7-1.4,2.7-1.8c1-0.4,2.2-0.7,3.4-0.7c1.3,0,2.3,0.2,3.1,0.7s1.5,1,1.9,1.8
			c0.5,0.8,0.7,1.6,0.8,2.7c0.1,1,0,2.1-0.2,3.3c-0.3,1.3-0.7,2.4-1.3,3.5c-0.6,1-1.3,1.9-2.1,2.7c-0.8,0.7-1.7,1.3-2.7,1.7
			C409.7,426,408.7,426.2,407.5,426.2z M414.8,417.7c0.2-1,0.3-1.8,0.2-2.7c0-0.8-0.2-1.5-0.5-2.2c-0.3-0.6-0.8-1.1-1.4-1.4
			c-0.6-0.4-1.4-0.5-2.4-0.5c-1,0-1.8,0.2-2.6,0.6c-0.8,0.4-1.5,0.9-2,1.5c-0.6,0.6-1.1,1.4-1.4,2.2s-0.7,1.7-0.8,2.5
			c-0.2,1-0.3,1.9-0.2,2.7c0.1,0.8,0.3,1.6,0.6,2.2c0.3,0.6,0.8,1.1,1.4,1.4c0.6,0.3,1.4,0.5,2.2,0.5c1,0,1.8-0.2,2.6-0.6
			c0.8-0.4,1.4-0.9,2-1.5s1-1.4,1.4-2.2C414.3,419.5,414.6,418.6,414.8,417.7z"/>
		<path d="M420.4,425.8h-1.9l3.4-16.1h1.9l-0.7,3h0.1c0.8-1.3,1.6-2.2,2.6-2.7c0.9-0.5,2.1-0.8,3.4-0.8l-0.4,2c-1,0-1.9,0.1-2.7,0.5
			c-0.8,0.4-1.4,0.8-1.9,1.4c-0.5,0.6-1,1.3-1.3,2.1c-0.3,0.8-0.6,1.7-0.8,2.6L420.4,425.8z"/>
		<path d="M431.6,418.2c-0.2,0.9-0.2,1.7-0.2,2.5c0.1,0.8,0.3,1.4,0.6,2c0.3,0.6,0.8,1,1.4,1.4c0.6,0.3,1.4,0.5,2.2,0.5
			c1.2,0,2.3-0.3,3.3-1c1-0.6,1.8-1.5,2.3-2.7h2.1c-0.4,0.8-0.8,1.5-1.3,2.1c-0.5,0.7-1.1,1.2-1.8,1.7c-0.7,0.5-1.4,0.9-2.2,1.1
			c-0.8,0.3-1.7,0.4-2.8,0.4c-1.3,0-2.3-0.2-3.2-0.7c-0.8-0.4-1.5-1-1.9-1.8c-0.4-0.8-0.7-1.6-0.8-2.7c-0.1-1,0-2.1,0.3-3.3
			s0.7-2.3,1.2-3.3c0.6-1,1.2-1.9,2-2.7c0.8-0.8,1.7-1.4,2.7-1.8c1-0.4,2.1-0.7,3.2-0.7c2.2,0,3.8,0.8,4.7,2.3
			c0.9,1.5,1.1,3.7,0.4,6.6H431.6z M442.4,416.6c0.2-0.8,0.2-1.5,0.1-2.2s-0.3-1.3-0.6-1.8c-0.3-0.5-0.8-0.9-1.3-1.2
			c-0.6-0.3-1.3-0.5-2.1-0.5c-0.8,0-1.6,0.2-2.3,0.5c-0.7,0.3-1.3,0.7-1.9,1.2c-0.6,0.5-1,1.1-1.5,1.8c-0.4,0.7-0.7,1.4-1,2.2H442.4
			z"/>
		<path d="M463.2,403.5h1.9l-4.7,22.3h-1.9l0.6-2.8H459c-0.4,0.5-0.8,1-1.3,1.4c-0.5,0.4-1.1,0.7-1.6,1c-0.6,0.3-1.1,0.5-1.7,0.6
			s-1.1,0.2-1.6,0.2c-1.3,0-2.4-0.2-3.2-0.7c-0.8-0.4-1.4-1-1.9-1.8c-0.4-0.8-0.6-1.6-0.7-2.7s0-2.1,0.3-3.3
			c0.2-1.1,0.6-2.2,1.1-3.2s1.1-1.9,1.9-2.7c0.8-0.8,1.6-1.4,2.6-1.9c1-0.5,2.1-0.7,3.3-0.7c1.1,0,2.2,0.3,3.1,0.8
			c0.9,0.5,1.6,1.3,2,2.2L463.2,403.5z M460.2,417.7c0.2-0.9,0.2-1.8,0.2-2.6c-0.1-0.8-0.3-1.5-0.6-2.1c-0.3-0.6-0.8-1.1-1.4-1.5
			s-1.3-0.5-2.2-0.5c-1,0-1.8,0.2-2.6,0.6c-0.8,0.4-1.5,0.9-2.1,1.6c-0.6,0.7-1.1,1.4-1.5,2.3c-0.4,0.9-0.7,1.8-0.8,2.8
			c-0.2,1-0.3,1.9-0.1,2.7s0.4,1.4,0.7,2s0.9,0.9,1.5,1.2c0.6,0.3,1.3,0.4,2.1,0.4c0.9,0,1.7-0.2,2.4-0.5c0.8-0.4,1.4-0.8,2-1.4
			c0.6-0.6,1.1-1.3,1.5-2.2C459.6,419.6,459.9,418.7,460.2,417.7z"/>
		<path d="M471.3,426.2c-1,0-2-0.2-2.8-0.6c-0.8-0.4-1.5-0.9-2-1.6c-0.5-0.7-0.9-1.6-1-2.6c-0.2-1.1-0.1-2.3,0.2-3.7
			c0.2-1.2,0.6-2.3,1.2-3.3c0.5-1,1.2-1.9,2-2.7s1.7-1.4,2.7-1.8c1-0.4,2.2-0.7,3.4-0.7c1.3,0,2.3,0.2,3.1,0.7s1.5,1,1.9,1.8
			c0.5,0.8,0.7,1.6,0.8,2.7s0,2.1-0.2,3.3c-0.3,1.3-0.7,2.4-1.3,3.5c-0.6,1-1.3,1.9-2.1,2.7c-0.8,0.7-1.7,1.3-2.7,1.7
			C473.5,426,472.4,426.2,471.3,426.2z M478.5,417.7c0.2-1,0.3-1.8,0.2-2.7c0-0.8-0.2-1.5-0.5-2.2c-0.3-0.6-0.8-1.1-1.4-1.4
			c-0.6-0.4-1.4-0.5-2.4-0.5c-1,0-1.8,0.2-2.6,0.6c-0.8,0.4-1.5,0.9-2,1.5c-0.6,0.6-1.1,1.4-1.4,2.2s-0.7,1.7-0.8,2.5
			c-0.2,1-0.3,1.9-0.2,2.7c0.1,0.8,0.3,1.6,0.6,2.2c0.3,0.6,0.8,1.1,1.4,1.4c0.6,0.3,1.4,0.5,2.2,0.5c1,0,1.8-0.2,2.6-0.6
			c0.8-0.4,1.4-0.9,2-1.5s1-1.4,1.4-2.2C478.1,419.5,478.3,418.6,478.5,417.7z"/>
		<path d="M483.8,425.8H482l3.4-16.1h1.9l-0.5,2.4h0.1c0.7-0.9,1.5-1.6,2.5-2.1c1-0.5,2-0.7,3.1-0.7c0.7,0,1.4,0.1,1.8,0.2
			c0.5,0.2,0.9,0.4,1.2,0.7c0.3,0.3,0.5,0.6,0.7,1c0.2,0.4,0.3,0.8,0.4,1.2c0.7-1.1,1.6-1.8,2.6-2.3c1-0.5,2.1-0.8,3.3-0.8
			c1.1,0,1.9,0.2,2.5,0.5c0.6,0.4,1,0.8,1.2,1.4s0.3,1.3,0.3,2c-0.1,0.8-0.2,1.5-0.3,2.4l-2.2,10.1h-1.9l2.4-11.1
			c0.1-0.6,0.2-1.1,0.2-1.6c0-0.5-0.1-0.8-0.3-1.2s-0.5-0.6-0.9-0.7c-0.4-0.2-0.9-0.3-1.6-0.3c-0.7,0-1.4,0.2-2.1,0.5
			s-1.4,0.8-2,1.4c-0.2,0.3-0.5,0.6-0.7,0.9c-0.2,0.4-0.4,0.7-0.6,1.1c-0.2,0.4-0.3,0.8-0.4,1.2c-0.1,0.4-0.2,0.8-0.3,1.1l-1.8,8.6
			H492l2.4-11.1c0.1-0.6,0.2-1.1,0.2-1.6c0-0.5-0.1-0.8-0.3-1.2s-0.5-0.6-0.9-0.7c-0.4-0.2-0.9-0.3-1.6-0.3c-0.7,0-1.4,0.2-2.1,0.5
			c-0.7,0.3-1.4,0.8-2,1.4c-0.2,0.3-0.5,0.6-0.7,0.9c-0.2,0.4-0.4,0.7-0.6,1.1s-0.3,0.8-0.4,1.2c-0.1,0.4-0.2,0.8-0.3,1.1
			L483.8,425.8z"/>
	</g>
	<g>
		<rect x="148.9" y="206" class="st8" width="122.3" height="121.4"/>
		<path d="M149.3,228.3l13.5-22.3h2.4l3.8,22.3h-2.2l-1.1-7h-10.2l-4.1,7H149.3z M156.7,219.5h8.7l-1.9-11.7L156.7,219.5z"/>
		<path d="M173.6,228.3h-1.9l3.4-16.1h1.9l-0.5,2.2c0.9-0.8,1.8-1.4,2.7-1.9s1.9-0.7,3-0.7c1,0,1.9,0.2,2.7,0.5s1.4,0.9,1.8,1.8
			c0.3,0.6,0.4,1.2,0.3,1.8c-0.1,0.6-0.2,1.2-0.3,1.9l-2.2,10.5h-1.9l2.2-10.5c0.3-1.4,0.2-2.5-0.3-3.3c-0.5-0.7-1.5-1.1-3-1.1
			c-0.6,0-1.1,0.1-1.6,0.3c-0.5,0.2-1,0.4-1.4,0.7c-0.4,0.3-0.8,0.6-1.2,1c-0.4,0.4-0.6,0.8-0.9,1.2c-0.3,0.5-0.5,1-0.7,1.5
			c-0.1,0.5-0.3,1-0.4,1.6L173.6,228.3z"/>
		<path d="M196.1,221.4l-6.5,6.9h-2.3l7.9-8.3l-4-7.8h2.3l3.1,6.4l5.9-6.4h2.4l-7.4,7.8l4.2,8.3h-2.2L196.1,221.4z"/>
		<path d="M204.8,228.3l3.4-16.1h1.9l-3.4,16.1H204.8z M208.9,208.7l0.6-2.8h2l-0.6,2.8H208.9z"/>
		<path d="M214.2,220.7c-0.2,0.9-0.2,1.7-0.2,2.5s0.3,1.4,0.6,2c0.3,0.6,0.8,1,1.4,1.4c0.6,0.3,1.4,0.5,2.2,0.5c1.2,0,2.3-0.3,3.3-1
			c1-0.6,1.8-1.5,2.3-2.7h2.1c-0.4,0.8-0.8,1.5-1.3,2.1c-0.5,0.7-1.1,1.2-1.8,1.7c-0.7,0.5-1.4,0.9-2.2,1.1
			c-0.8,0.3-1.7,0.4-2.8,0.4c-1.3,0-2.3-0.2-3.2-0.7c-0.8-0.4-1.5-1-1.9-1.8c-0.4-0.8-0.7-1.6-0.8-2.7s0-2.1,0.3-3.3
			c0.2-1.2,0.7-2.3,1.2-3.3c0.6-1,1.2-1.9,2-2.7c0.8-0.8,1.7-1.4,2.7-1.8c1-0.4,2.1-0.7,3.2-0.7c2.2,0,3.8,0.8,4.7,2.3
			s1.1,3.7,0.4,6.6H214.2z M225,219.2c0.2-0.8,0.2-1.5,0.1-2.2c-0.1-0.7-0.3-1.3-0.6-1.8c-0.3-0.5-0.8-0.9-1.3-1.2
			c-0.6-0.3-1.3-0.4-2.1-0.4c-0.8,0-1.6,0.2-2.3,0.5c-0.7,0.3-1.3,0.7-1.9,1.2c-0.6,0.5-1,1.1-1.5,1.8c-0.4,0.7-0.7,1.4-1,2.2H225z"
			/>
		<path d="M234.3,228.4c-0.2,0-0.5,0.1-0.9,0.2c-0.4,0.1-0.8,0.2-1.3,0.2c-0.9,0-1.6-0.2-2-0.7c-0.4-0.5-0.4-1.3-0.2-2.5l2.5-11.7
			h-2.3l0.3-1.6h2.3l1-4.5h1.9l-1,4.5h3l-0.3,1.6h-3l-2.3,11c-0.1,0.4-0.1,0.7-0.2,1c0,0.3,0,0.5,0,0.7c0.1,0.2,0.2,0.3,0.4,0.4
			c0.2,0.1,0.5,0.1,0.9,0.1c0.2,0,0.5,0,0.8-0.1c0.3,0,0.5-0.1,0.8-0.2L234.3,228.4z"/>
		<path d="M236.2,232.6c0.2,0,0.5,0.1,0.7,0.1c0.3,0,0.5,0.1,0.8,0.1c0.5,0,1-0.2,1.4-0.5c0.4-0.3,0.8-0.7,1.1-1.2
			c0.3-0.5,0.6-0.9,0.9-1.4c0.3-0.5,0.5-0.9,0.8-1.3l-2.8-16.2h2.1l2.2,13.8l8.1-13.8h2l-9.4,15.8c-0.6,1-1.1,1.9-1.6,2.7
			c-0.5,0.8-1,1.5-1.5,2.1s-1,1-1.5,1.3c-0.5,0.3-1.1,0.4-1.8,0.4c-0.3,0-0.6,0-0.9-0.1c-0.3,0-0.6-0.1-0.8-0.2L236.2,232.6z"/>
	</g>
	<g>
	</g>
	<g>
	</g>
	<g>
	</g>
	<g>
	</g>
	<g>
	</g>
	<g>
	</g>
	<g>
	</g>
	<g>
	</g>
	<g>
	</g>
	<g>
	</g>
	<g>
	</g>
	<g>
	</g>
</g>
</svg>
