<?xml version="1.0" encoding="utf-8"?>
<!-- Generator: Adobe Illustrator 21.1.0, SVG Export Plug-In . SVG Version: 6.00 Build 0)  -->
<svg version="1.1" xmlns="http://www.w3.org/2000/svg" xmlns:xlink="http://www.w3.org/1999/xlink" x="0px" y="0px"
	 viewBox="0 0 624.1 575.9" style="enable-background:new 0 0 624.1 575.9;" xml:space="preserve">
<style type="text/css">
	.st0{fill:none;stroke:#000000;stroke-miterlimit:10;}
	.st1{font-family:'Helvetica';}
	.st2{font-size:21.2657px;}
	.st3{font-family:'Helvetica-Bold';}
	.st4{display:none;fill:none;stroke:#000000;stroke-miterlimit:10;}
	.st5{fill:#29ABE2;stroke:#000000;stroke-miterlimit:10;}
	.st6{display:none;}
	.st7{display:inline;fill:#29ABE2;stroke:#000000;stroke-miterlimit:10;}
	.st8{fill:none;}
	.st9{display:inline;stroke:#000000;stroke-miterlimit:10;}
	.st10{display:inline;}
	.st11{fill:#FF0000;}
	.st12{fill:none;stroke:#FF0000;stroke-width:4;stroke-miterlimit:10;}
	.st13{fill:none;stroke:#FF0000;stroke-width:4;stroke-miterlimit:10;stroke-dasharray:60.527,10.0878;}
	.st14{fill:none;stroke:#FF0000;stroke-width:4;stroke-miterlimit:10;stroke-dasharray:62.5492,10.4249;}
</style>
<g id="Layer_1">
	<g>
		<g>
			<line class="st0" x1="114" y1="507.7" x2="567.6" y2="507.7"/>
			<g>
				<g>
					<line class="st0" x1="114" y1="507.7" x2="114" y2="496.4"/>
					<line class="st0" x1="567.6" y1="507.7" x2="567.6" y2="54.1"/>
				</g>
				<g>
				</g>
			</g>
		</g>
		<g>
			<g>
				<text transform="matrix(1 0 0 1 59.587 492.6233)" class="st1 st2">Easy</text>
				<text transform="matrix(1 0 0 1 5.2394 288.8881)" class="st3 st2">Challenge</text>
				<text transform="matrix(1 0 0 1 60.7711 86.4542)" class="st1 st2">Hard</text>
			</g>
			<line class="st0" x1="114" y1="507.7" x2="114" y2="54.1"/>
			<g>
				<g>
					<line class="st0" x1="114" y1="280.9" x2="114" y2="280.9"/>
					<line class="st0" x1="114" y1="54.1" x2="567.6" y2="54.1"/>
				</g>
				<g>
				</g>
			</g>
		</g>
		<g>
			<g>
			</g>
			<g>
			</g>
		</g>
	</g>
	<g>
		<path d="M122.9,518.5h2.1v13.4h7.7v1.8h-9.7V518.5z"/>
		<path d="M142.5,523.7c1,1,1.5,2.4,1.5,4.2c0,1.8-0.4,3.3-1.3,4.4s-2.2,1.8-4,1.8c-1.5,0-2.7-0.5-3.6-1.6c-0.9-1-1.3-2.4-1.3-4.2
			c0-1.9,0.5-3.4,1.4-4.5c0.9-1.1,2.2-1.7,3.8-1.7C140.3,522.3,141.5,522.8,142.5,523.7z M141.3,531.1c0.5-0.9,0.7-2,0.7-3.1
			c0-1-0.2-1.9-0.5-2.5c-0.5-1-1.4-1.5-2.7-1.5c-1.1,0-2,0.4-2.5,1.3c-0.5,0.9-0.8,1.9-0.8,3.2c0,1.2,0.3,2.2,0.8,3
			c0.5,0.8,1.3,1.2,2.4,1.2C140,532.5,140.9,532.1,141.3,531.1z"/>
		<path d="M147.1,522.6l2.1,8.8l2.2-8.8h2.1l2.2,8.7l2.3-8.7h1.9l-3.2,11.1h-1.9l-2.3-8.6l-2.2,8.6h-1.9l-3.2-11.1H147.1z"/>
	</g>
	<g>
		<path d="M323.9,529c0.1,0.7,0.3,1.2,0.6,1.6c0.5,0.6,1.4,0.9,2.7,0.9c0.8,0,1.4-0.1,1.9-0.2c0.9-0.3,1.4-0.9,1.4-1.8
			c0-0.5-0.2-0.9-0.7-1.2c-0.4-0.3-1.2-0.5-2.1-0.7l-1.7-0.4c-1.6-0.4-2.7-0.8-3.4-1.2c-1-0.7-1.5-1.8-1.5-3.3
			c0-1.4,0.5-2.5,1.5-3.4c1-0.9,2.5-1.4,4.4-1.4c1.6,0,3,0.4,4.2,1.3c1.2,0.9,1.8,2.1,1.8,3.7H330c-0.1-0.9-0.5-1.6-1.2-2
			c-0.5-0.3-1.1-0.4-1.9-0.4c-0.8,0-1.5,0.2-2,0.5s-0.8,0.8-0.8,1.4c0,0.5,0.2,1,0.7,1.2c0.3,0.2,1,0.4,2,0.6l2.7,0.6
			c1.2,0.3,2.1,0.6,2.6,1.1c0.9,0.7,1.4,1.8,1.4,3.1c0,1.4-0.5,2.6-1.6,3.5c-1.1,0.9-2.6,1.4-4.6,1.4c-2,0-3.6-0.5-4.8-1.4
			c-1.2-0.9-1.7-2.2-1.7-3.8H323.9z"/>
		<path d="M335.5,518.5h2.9v8.3l3.7-4.3h3.7l-4.1,4.2l4.2,7h-3.6l-2.7-4.8l-1.2,1.3v3.6h-2.9V518.5z"/>
		<path d="M350.4,521.1h-3v-2.7h3V521.1z M347.4,522.4h3v11.3h-3V522.4z"/>
		<path d="M356.3,533.7h-3v-15.3h3V533.7z"/>
		<path d="M362.2,533.7h-3v-15.3h3V533.7z"/>
	</g>
	<g>
		<path d="M519.6,518.5h2.1v6.3h7.8v-6.3h2.1v15.3h-2.1v-7.1h-7.8v7.1h-2.1V518.5z"/>
		<path d="M534.7,518.5h1.9v2.1h-1.9V518.5z M534.7,522.7h1.9v11.1h-1.9V522.7z"/>
		<path d="M545.6,523.1c0.4,0.2,0.7,0.6,1.1,1.1v-1.4h1.7v10.1c0,1.4-0.2,2.5-0.6,3.3c-0.8,1.5-2.2,2.3-4.4,2.3
			c-1.2,0-2.2-0.3-3-0.8c-0.8-0.5-1.3-1.4-1.4-2.5h1.9c0.1,0.5,0.3,0.9,0.5,1.2c0.4,0.4,1.1,0.6,2,0.6c1.4,0,2.4-0.5,2.8-1.5
			c0.3-0.6,0.4-1.7,0.4-3.2c-0.4,0.6-0.8,1-1.3,1.3c-0.5,0.3-1.2,0.4-2.1,0.4c-1.2,0-2.2-0.4-3.1-1.3c-0.9-0.9-1.3-2.3-1.3-4.2
			c0-1.9,0.5-3.3,1.4-4.4c0.9-1,2-1.6,3.3-1.6C544.2,522.4,544.9,522.6,545.6,523.1z M545.8,525.1c-0.6-0.7-1.3-1-2.2-1
			c-1.3,0-2.2,0.6-2.7,1.8c-0.3,0.7-0.4,1.5-0.4,2.6c0,1.3,0.3,2.2,0.8,2.9c0.5,0.7,1.2,1,2,1c1.3,0,2.3-0.6,2.8-1.8
			c0.3-0.7,0.5-1.5,0.5-2.4C546.6,526.8,546.4,525.7,545.8,525.1z"/>
		<path d="M551.2,518.4h1.9v5.7c0.4-0.6,0.8-1,1.2-1.2c0.6-0.4,1.4-0.6,2.3-0.6c1.6,0,2.7,0.6,3.3,1.7c0.3,0.6,0.5,1.5,0.5,2.6v7.1
			h-1.9v-7c0-0.8-0.1-1.4-0.3-1.8c-0.3-0.6-1-0.9-1.9-0.9c-0.8,0-1.5,0.3-2.1,0.8s-0.9,1.5-0.9,3v5.9h-1.9V518.4z"/>
	</g>
	<rect x="428.7" y="54.4" class="st4" width="138.9" height="138.9"/>
	<rect x="113.7" y="369.4" class="st4" width="138.9" height="138.9"/>
</g>
<g id="Layer_2">
	<polygon class="st5" points="113.6,507.5 428.7,54.4 567.6,54.4 567.6,193.3 	"/>
</g>
<g id="Layer_3" class="st6">
	<polygon class="st7" points="113.7,369.4 428.7,54.4 567.6,54.4 567.6,193.3 252.6,508.3 113.7,508.3 	"/>
</g>
<g id="Layer_4">
	<g>
		
			<rect x="304.1" y="235.1" transform="matrix(0.7071 -0.7071 0.7071 0.7071 -85.957 359.3028)" class="st8" width="173.3" height="96.7"/>
		<path d="M297.2,308.6l13.1-13.1l3.2,3.2l-9.3,9.3l4.2,4.2l8.1-8.1l3.2,3.2l-8.1,8.1l7.7,7.7l-3.8,3.8L297.2,308.6z"/>
		<path d="M334.4,308l-3.5,3.5l-18.3-18.3l3.5-3.5L334.4,308z"/>
		<path d="M347.5,291.6c0.3,2.6-0.8,5-3.1,7.3s-4.8,3.4-7.3,3.1s-4.8-1.4-6.8-3.4c-2-2-3.1-4.2-3.4-6.8c-0.3-2.6,0.7-5,3.1-7.4
			s4.8-3.3,7.4-3.1c2.6,0.3,4.8,1.4,6.8,3.4C346.1,286.7,347.3,289,347.5,291.6z M342.7,292.4c-0.2-1.3-1-2.6-2.3-4
			c-1.4-1.4-2.7-2.1-4-2.3c-1.3-0.2-2.4,0.3-3.5,1.3c-1,1-1.5,2.2-1.3,3.5c0.2,1.3,0.9,2.6,2.3,4c1.4,1.4,2.7,2.1,4,2.3
			c1.3,0.2,2.5-0.3,3.5-1.3C342.5,294.9,342.9,293.7,342.7,292.4z"/>
		<path d="M346.3,269l3.6-3.6l11.8,7.7l-7.6-11.9l3.7-3.7l9.6,17.5l-3.6,3.6l-12-7.7l7.7,12l-3.7,3.7l-17.4-9.7l3.8-3.8l11.8,7.6
			L346.3,269z"/>
	</g>
</g>
<g id="Layer_5" class="st6">
	<circle class="st9" cx="333.7" cy="97.2" r="12.8"/>
	<circle class="st9" cx="333.9" cy="287.9" r="12.8"/>
	<circle class="st9" cx="333.9" cy="465.9" r="12.8"/>
	<g class="st10">
		<rect x="294.8" y="96.8" class="st8" width="52.1" height="52.9"/>
		<path d="M314.9,106.1l-1.4,5.4c-0.2,0.9-0.5,1.9-0.8,2.7s-0.7,1.7-1,2.5c0.4,1,0.8,1.8,1.3,2.3s0.9,0.8,1.5,0.8
			c0.4,0,0.7-0.1,1-0.4s0.4-0.7,0.5-1.2h0.7v0.4c0,1.3-0.2,2.3-0.6,3s-0.9,1-1.7,1c-0.8,0-1.4-0.3-1.9-0.9s-0.9-1.8-1.4-3.6
			c-0.9,1.6-2,2.8-3.1,3.5s-2.4,1.1-3.9,1.1c-2.3,0-4.2-0.8-5.7-2.4s-2.3-3.7-2.3-6.2c0-2.2,0.8-4.2,2.3-5.9s3.4-2.5,5.5-2.5
			c1.7,0,3,0.5,4.1,1.5s1.8,2.5,2.2,4.4l1.3-5.4H314.9z M309.8,113.6c-0.5-2.5-1.2-4.3-2-5.3s-1.9-1.6-3.3-1.6c-1.4,0-2.6,0.7-3.4,2
			s-1.3,3.1-1.3,5.4c0,2.4,0.4,4.3,1.2,5.6s1.9,1.9,3.5,1.9c1.4,0,2.4-0.6,3.2-1.7S309.2,116.7,309.8,113.6z"/>
	</g>
	<g class="st10">
		<path d="M307.2,481.3c-0.7-3.6-1.6-6.4-2.5-8.5c-0.9-2.1-1.7-3.1-2.5-3.1c-0.4,0-0.7,0.2-0.9,0.5c-0.2,0.4-0.4,0.9-0.4,1.5h-0.8
			v-1.1c0-1.5,0.2-2.6,0.6-3.3c0.4-0.7,1.1-1.1,1.9-1.1c1.6,0,3.2,3.9,5,11.8l0.3,1.5c1.2-2.8,2-5.9,2.4-9.3c0-0.4,0.1-0.7,0.1-0.9
			c0.1-1.1,0.4-1.9,0.7-2.4c0.3-0.5,0.7-0.7,1.3-0.7c0.5,0,0.9,0.1,1.2,0.4c0.3,0.3,0.4,0.7,0.4,1.2c0,1-0.8,3-2.3,6.1
			c-1.5,3.1-2.6,5.5-3.4,7.4c0.2,1.4,0.3,2.6,0.4,3.7c0.1,1.1,0.2,2,0.2,2.8c0,1.2-0.1,2.1-0.4,2.7c-0.3,0.5-0.7,0.8-1.2,0.8
			c-0.5,0-1-0.2-1.2-0.7c-0.3-0.4-0.4-1.1-0.4-2c0-0.9,0.1-1.9,0.4-3.2C306.4,484.3,306.7,482.9,307.2,481.3z"/>
	</g>
	<g class="st10">
		<path d="M304.2,312.3c0.2,0.7,0.6,1.2,1.2,1.7s1.3,0.7,2.1,0.7c1.2,0,2.2-0.5,2.9-1.6s1.1-2.6,1.1-4.5c0-1.9-0.3-3.4-1-4.6
			s-1.7-2-3.1-2.4c-0.1,0-0.2,0.1-0.4,0.1c-0.9,0.4-1.6,0.6-2,0.6c-0.3,0-0.6-0.1-0.8-0.3s-0.3-0.5-0.3-0.9c0-0.4,0.1-0.6,0.3-0.8
			s0.5-0.2,0.9-0.2c0.3,0,1,0.2,1.9,0.5c0.2,0.1,0.4,0.1,0.5,0.2c0.8-0.3,1.4-0.9,1.7-1.6s0.6-1.7,0.6-2.8c0-1.5-0.3-2.7-1-3.6
			s-1.5-1.3-2.7-1.3c-1.3,0-2.3,0.5-2.9,1.6s-0.9,2.8-0.9,5.2v24.6h-3.2v-21.2c0-3.6,0.6-6.3,1.9-8.3s3.1-2.9,5.5-2.9
			c1.9,0,3.5,0.5,4.6,1.5s1.8,2.3,1.8,3.9c0,1.1-0.4,2.2-1.2,3.1s-2,1.6-3.6,2.1c2.2,0.5,3.8,1.4,5,2.6s1.7,2.6,1.7,4.4
			c0,2.2-0.7,4-2,5.5s-3,2.1-5,2.1c-1.3,0-2.4-0.3-3.2-0.9s-1.4-1.4-1.5-2.3H304.2z"/>
	</g>
</g>
<g id="Layer_6">
	<g>
		<line class="st11" x1="84.6" y1="549" x2="448.2" y2="28.4"/>
		<g>
			<line class="st12" x1="84.6" y1="549" x2="101.8" y2="524.4"/>
			<line class="st13" x1="107.6" y1="516.1" x2="428.2" y2="57.1"/>
			<line class="st12" x1="431.1" y1="53" x2="448.2" y2="28.4"/>
		</g>
	</g>
	<g>
		<line class="st11" x1="70.9" y1="533.7" x2="612.3" y2="166.4"/>
		<g>
			<line class="st12" x1="70.9" y1="533.7" x2="95.8" y2="516.9"/>
			<line class="st14" x1="104.4" y1="511" x2="583.2" y2="186.2"/>
			<line class="st12" x1="587.5" y1="183.3" x2="612.3" y2="166.4"/>
		</g>
	</g>
	<g>
	</g>
	<g>
	</g>
	<g>
	</g>
	<g>
	</g>
	<g>
	</g>
	<g>
	</g>
	<g>
	</g>
	<g>
	</g>
	<g>
	</g>
	<g>
	</g>
	<g>
	</g>
</g>
</svg>
