<?xml version="1.0" encoding="utf-8" standalone="no"?>
<!DOCTYPE svg PUBLIC "-//W3C//DTD SVG 1.1//EN"
  "http://www.w3.org/Graphics/SVG/1.1/DTD/svg11.dtd">
<!-- Created with matplotlib (http://matplotlib.org/) -->
<svg height="345pt" version="1.1" viewBox="0 0 460 345" width="460pt" xmlns="http://www.w3.org/2000/svg" xmlns:xlink="http://www.w3.org/1999/xlink">
 <defs>
  <style type="text/css">
*{stroke-linecap:butt;stroke-linejoin:round;}
  </style>
 </defs>
 <g id="figure_1">
  <g id="patch_1">
   <path d="M 0 345.6 
L 460.8 345.6 
L 460.8 0 
L 0 0 
z
" style="fill:#ffffff;"/>
  </g>
  <g id="axes_1">
   <g id="patch_2">
    <path d="M 57.6 307.584 
L 414.72 307.584 
L 414.72 41.472 
L 57.6 41.472 
z
" style="fill:#ffffff;"/>
   </g>
   <g id="PathCollection_1">
    <defs>
     <path d="M 0 1.581139 
C 0.419323 1.581139 0.821528 1.41454 1.118034 1.118034 
C 1.41454 0.821528 1.581139 0.419323 1.581139 0 
C 1.581139 -0.419323 1.41454 -0.821528 1.118034 -1.118034 
C 0.821528 -1.41454 0.419323 -1.581139 0 -1.581139 
C -0.419323 -1.581139 -0.821528 -1.41454 -1.118034 -1.118034 
C -1.41454 -0.821528 -1.581139 -0.419323 -1.581139 0 
C -1.581139 0.419323 -1.41454 0.821528 -1.118034 1.118034 
C -0.821528 1.41454 -0.419323 1.581139 0 1.581139 
z
" id="C0_0_c0200da134"/>
    </defs>
    <g clip-path="url(#pd3ca144faa)">
     <use style="fill:#666666;stroke:#666666;" x="129.527469" xlink:href="#C0_0_c0200da134" y="142.693383"/>
    </g>
    <g clip-path="url(#pd3ca144faa)">
     <use style="fill:#386cb0;stroke:#386cb0;" x="235.261234" xlink:href="#C0_0_c0200da134" y="159.492565"/>
    </g>
    <g clip-path="url(#pd3ca144faa)">
     <use style="fill:#386cb0;stroke:#386cb0;" x="188.177367" xlink:href="#C0_0_c0200da134" y="215.797684"/>
    </g>
    <g clip-path="url(#pd3ca144faa)">
     <use style="fill:#386cb0;stroke:#386cb0;" x="273.941731" xlink:href="#C0_0_c0200da134" y="133.942725"/>
    </g>
    <g clip-path="url(#pd3ca144faa)">
     <use style="fill:#386cb0;stroke:#386cb0;" x="226.402348" xlink:href="#C0_0_c0200da134" y="117.913735"/>
    </g>
    <g clip-path="url(#pd3ca144faa)">
     <use style="fill:#386cb0;stroke:#386cb0;" x="301.111127" xlink:href="#C0_0_c0200da134" y="171.993599"/>
    </g>
    <g clip-path="url(#pd3ca144faa)">
     <use style="fill:#386cb0;stroke:#386cb0;" x="252.497968" xlink:href="#C0_0_c0200da134" y="53.649364"/>
    </g>
    <g clip-path="url(#pd3ca144faa)">
     <use style="fill:#666666;stroke:#666666;" x="82.03331" xlink:href="#C0_0_c0200da134" y="128.986467"/>
    </g>
    <g clip-path="url(#pd3ca144faa)">
     <use style="fill:#386cb0;stroke:#386cb0;" x="248.408393" xlink:href="#C0_0_c0200da134" y="155.653651"/>
    </g>
    <g clip-path="url(#pd3ca144faa)">
     <use style="fill:#386cb0;stroke:#386cb0;" x="215.428181" xlink:href="#C0_0_c0200da134" y="204.165159"/>
    </g>
    <g clip-path="url(#pd3ca144faa)">
     <use style="fill:#386cb0;stroke:#386cb0;" x="264.041367" xlink:href="#C0_0_c0200da134" y="179.953825"/>
    </g>
    <g clip-path="url(#pd3ca144faa)">
     <use style="fill:#386cb0;stroke:#386cb0;" x="264.041362" xlink:href="#C0_0_c0200da134" y="179.95382"/>
    </g>
    <g clip-path="url(#pd3ca144faa)">
     <use style="fill:#666666;stroke:#666666;" x="196.890282" xlink:href="#C0_0_c0200da134" y="153.143352"/>
    </g>
    <g clip-path="url(#pd3ca144faa)">
     <use style="fill:#666666;stroke:#666666;" x="175.015757" xlink:href="#C0_0_c0200da134" y="110.502419"/>
    </g>
    <g clip-path="url(#pd3ca144faa)">
     <use style="fill:#386cb0;stroke:#386cb0;" x="335.163696" xlink:href="#C0_0_c0200da134" y="173.525493"/>
    </g>
    <g clip-path="url(#pd3ca144faa)">
     <use style="fill:#666666;stroke:#666666;" x="140.174841" xlink:href="#C0_0_c0200da134" y="177.882798"/>
    </g>
    <g clip-path="url(#pd3ca144faa)">
     <use style="fill:#666666;stroke:#666666;" x="101.960744" xlink:href="#C0_0_c0200da134" y="138.873334"/>
    </g>
    <g clip-path="url(#pd3ca144faa)">
     <use style="fill:#7fc97f;stroke:#7fc97f;" x="297.439925" xlink:href="#C0_0_c0200da134" y="277.270673"/>
    </g>
    <g clip-path="url(#pd3ca144faa)">
     <use style="fill:#386cb0;stroke:#386cb0;" x="241.835955" xlink:href="#C0_0_c0200da134" y="89.872308"/>
    </g>
    <g clip-path="url(#pd3ca144faa)">
     <use style="fill:#666666;stroke:#666666;" x="196.890525" xlink:href="#C0_0_c0200da134" y="153.147241"/>
    </g>
    <g clip-path="url(#pd3ca144faa)">
     <use style="fill:#386cb0;stroke:#386cb0;" x="305.686023" xlink:href="#C0_0_c0200da134" y="108.589823"/>
    </g>
    <g clip-path="url(#pd3ca144faa)">
     <use style="fill:#386cb0;stroke:#386cb0;" x="312.177207" xlink:href="#C0_0_c0200da134" y="94.294305"/>
    </g>
    <g clip-path="url(#pd3ca144faa)">
     <use style="fill:#7fc97f;stroke:#7fc97f;" x="333.202272" xlink:href="#C0_0_c0200da134" y="271.976397"/>
    </g>
    <g clip-path="url(#pd3ca144faa)">
     <use style="fill:#666666;stroke:#666666;" x="86.872452" xlink:href="#C0_0_c0200da134" y="124.68407"/>
    </g>
    <g clip-path="url(#pd3ca144faa)">
     <use style="fill:#386cb0;stroke:#386cb0;" x="336.256089" xlink:href="#C0_0_c0200da134" y="168.979805"/>
    </g>
    <g clip-path="url(#pd3ca144faa)">
     <use style="fill:#386cb0;stroke:#386cb0;" x="273.631873" xlink:href="#C0_0_c0200da134" y="209.12705"/>
    </g>
    <g clip-path="url(#pd3ca144faa)">
     <use style="fill:#666666;stroke:#666666;" x="175.023773" xlink:href="#C0_0_c0200da134" y="110.51483"/>
    </g>
    <g clip-path="url(#pd3ca144faa)">
     <use style="fill:#666666;stroke:#666666;" x="92.039638" xlink:href="#C0_0_c0200da134" y="115.271499"/>
    </g>
    <g clip-path="url(#pd3ca144faa)">
     <use style="fill:#386cb0;stroke:#386cb0;" x="305.68603" xlink:href="#C0_0_c0200da134" y="108.589823"/>
    </g>
    <g clip-path="url(#pd3ca144faa)">
     <use style="fill:#7fc97f;stroke:#7fc97f;" x="355.777921" xlink:href="#C0_0_c0200da134" y="204.134598"/>
    </g>
    <g clip-path="url(#pd3ca144faa)">
     <use style="fill:#386cb0;stroke:#386cb0;" x="173.109587" xlink:href="#C0_0_c0200da134" y="215.014898"/>
    </g>
    <g clip-path="url(#pd3ca144faa)">
     <use style="fill:#386cb0;stroke:#386cb0;" x="336.053313" xlink:href="#C0_0_c0200da134" y="185.582896"/>
    </g>
    <g clip-path="url(#pd3ca144faa)">
     <use style="fill:#386cb0;stroke:#386cb0;" x="226.402348" xlink:href="#C0_0_c0200da134" y="117.913739"/>
    </g>
    <g clip-path="url(#pd3ca144faa)">
     <use style="fill:#7fc97f;stroke:#7fc97f;" x="352.294743" xlink:href="#C0_0_c0200da134" y="282.464545"/>
    </g>
    <g clip-path="url(#pd3ca144faa)">
     <use style="fill:#666666;stroke:#666666;" x="274.06696" xlink:href="#C0_0_c0200da134" y="241.081134"/>
    </g>
    <g clip-path="url(#pd3ca144faa)">
     <use style="fill:#666666;stroke:#666666;" x="175.02944" xlink:href="#C0_0_c0200da134" y="110.511869"/>
    </g>
    <g clip-path="url(#pd3ca144faa)">
     <use style="fill:#386cb0;stroke:#386cb0;" x="229.627122" xlink:href="#C0_0_c0200da134" y="225.155537"/>
    </g>
    <g clip-path="url(#pd3ca144faa)">
     <use style="fill:#386cb0;stroke:#386cb0;" x="239.214795" xlink:href="#C0_0_c0200da134" y="72.681019"/>
    </g>
    <g clip-path="url(#pd3ca144faa)">
     <use style="fill:#7fc97f;stroke:#7fc97f;" x="320.358459" xlink:href="#C0_0_c0200da134" y="267.329827"/>
    </g>
    <g clip-path="url(#pd3ca144faa)">
     <use style="fill:#386cb0;stroke:#386cb0;" x="226.402348" xlink:href="#C0_0_c0200da134" y="117.913735"/>
    </g>
    <g clip-path="url(#pd3ca144faa)">
     <use style="fill:#7fc97f;stroke:#7fc97f;" x="328.981635" xlink:href="#C0_0_c0200da134" y="274.577486"/>
    </g>
    <g clip-path="url(#pd3ca144faa)">
     <use style="fill:#386cb0;stroke:#386cb0;" x="305.936593" xlink:href="#C0_0_c0200da134" y="143.687601"/>
    </g>
    <g clip-path="url(#pd3ca144faa)">
     <use style="fill:#386cb0;stroke:#386cb0;" x="228.185174" xlink:href="#C0_0_c0200da134" y="207.494467"/>
    </g>
    <g clip-path="url(#pd3ca144faa)">
     <use style="fill:#386cb0;stroke:#386cb0;" x="251.441636" xlink:href="#C0_0_c0200da134" y="87.422283"/>
    </g>
    <g clip-path="url(#pd3ca144faa)">
     <use style="fill:#7fc97f;stroke:#7fc97f;" x="385.950962" xlink:href="#C0_0_c0200da134" y="272.818426"/>
    </g>
    <g clip-path="url(#pd3ca144faa)">
     <use style="fill:#386cb0;stroke:#386cb0;" x="159.722686" xlink:href="#C0_0_c0200da134" y="237.177604"/>
    </g>
    <g clip-path="url(#pd3ca144faa)">
     <use style="fill:#386cb0;stroke:#386cb0;" x="287.069487" xlink:href="#C0_0_c0200da134" y="115.186022"/>
    </g>
    <g clip-path="url(#pd3ca144faa)">
     <use style="fill:#386cb0;stroke:#386cb0;" x="240.31629" xlink:href="#C0_0_c0200da134" y="150.619263"/>
    </g>
    <g clip-path="url(#pd3ca144faa)">
     <use style="fill:#386cb0;stroke:#386cb0;" x="245.7817" xlink:href="#C0_0_c0200da134" y="161.458151"/>
    </g>
    <g clip-path="url(#pd3ca144faa)">
     <use style="fill:#386cb0;stroke:#386cb0;" x="242.873166" xlink:href="#C0_0_c0200da134" y="227.890228"/>
    </g>
    <g clip-path="url(#pd3ca144faa)">
     <use style="fill:#386cb0;stroke:#386cb0;" x="308.547681" xlink:href="#C0_0_c0200da134" y="221.882549"/>
    </g>
    <g clip-path="url(#pd3ca144faa)">
     <use style="fill:#7fc97f;stroke:#7fc97f;" x="328.777626" xlink:href="#C0_0_c0200da134" y="295.406636"/>
    </g>
    <g clip-path="url(#pd3ca144faa)">
     <use style="fill:#666666;stroke:#666666;" x="78.116752" xlink:href="#C0_0_c0200da134" y="129.215698"/>
    </g>
    <g clip-path="url(#pd3ca144faa)">
     <use style="fill:#7fc97f;stroke:#7fc97f;" x="398.148871" xlink:href="#C0_0_c0200da134" y="255.895754"/>
    </g>
    <g clip-path="url(#pd3ca144faa)">
     <use style="fill:#666666;stroke:#666666;" x="181.048904" xlink:href="#C0_0_c0200da134" y="158.33478"/>
    </g>
    <g clip-path="url(#pd3ca144faa)">
     <use style="fill:#386cb0;stroke:#386cb0;" x="214.547184" xlink:href="#C0_0_c0200da134" y="145.243649"/>
    </g>
    <g clip-path="url(#pd3ca144faa)">
     <use style="fill:#386cb0;stroke:#386cb0;" x="289.408382" xlink:href="#C0_0_c0200da134" y="168.112654"/>
    </g>
    <g clip-path="url(#pd3ca144faa)">
     <use style="fill:#7fc97f;stroke:#7fc97f;" x="331.453057" xlink:href="#C0_0_c0200da134" y="274.947351"/>
    </g>
    <g clip-path="url(#pd3ca144faa)">
     <use style="fill:#386cb0;stroke:#386cb0;" x="218.019712" xlink:href="#C0_0_c0200da134" y="177.79775"/>
    </g>
    <g clip-path="url(#pd3ca144faa)">
     <use style="fill:#386cb0;stroke:#386cb0;" x="308.53944" xlink:href="#C0_0_c0200da134" y="221.875203"/>
    </g>
    <g clip-path="url(#pd3ca144faa)">
     <use style="fill:#386cb0;stroke:#386cb0;" x="273.517815" xlink:href="#C0_0_c0200da134" y="209.178363"/>
    </g>
    <g clip-path="url(#pd3ca144faa)">
     <use style="fill:#7fc97f;stroke:#7fc97f;" x="352.486667" xlink:href="#C0_0_c0200da134" y="264.41891"/>
    </g>
    <g clip-path="url(#pd3ca144faa)">
     <use style="fill:#386cb0;stroke:#386cb0;" x="325.060306" xlink:href="#C0_0_c0200da134" y="225.161599"/>
    </g>
    <g clip-path="url(#pd3ca144faa)">
     <use style="fill:#386cb0;stroke:#386cb0;" x="226.360127" xlink:href="#C0_0_c0200da134" y="117.914614"/>
    </g>
    <g clip-path="url(#pd3ca144faa)">
     <use style="fill:#386cb0;stroke:#386cb0;" x="235.381856" xlink:href="#C0_0_c0200da134" y="155.033521"/>
    </g>
    <g clip-path="url(#pd3ca144faa)">
     <use style="fill:#386cb0;stroke:#386cb0;" x="375.285032" xlink:href="#C0_0_c0200da134" y="144.329151"/>
    </g>
    <g clip-path="url(#pd3ca144faa)">
     <use style="fill:#7fc97f;stroke:#7fc97f;" x="328.975521" xlink:href="#C0_0_c0200da134" y="274.575201"/>
    </g>
    <g clip-path="url(#pd3ca144faa)">
     <use style="fill:#7fc97f;stroke:#7fc97f;" x="356.353805" xlink:href="#C0_0_c0200da134" y="290.463652"/>
    </g>
    <g clip-path="url(#pd3ca144faa)">
     <use style="fill:#386cb0;stroke:#386cb0;" x="257.243374" xlink:href="#C0_0_c0200da134" y="63.967784"/>
    </g>
    <g clip-path="url(#pd3ca144faa)">
     <use style="fill:#386cb0;stroke:#386cb0;" x="243.379149" xlink:href="#C0_0_c0200da134" y="149.372859"/>
    </g>
    <g clip-path="url(#pd3ca144faa)">
     <use style="fill:#666666;stroke:#666666;" x="82.065998" xlink:href="#C0_0_c0200da134" y="109.65059"/>
    </g>
    <g clip-path="url(#pd3ca144faa)">
     <use style="fill:#666666;stroke:#666666;" x="77.198154" xlink:href="#C0_0_c0200da134" y="112.617382"/>
    </g>
    <g clip-path="url(#pd3ca144faa)">
     <use style="fill:#666666;stroke:#666666;" x="109.477099" xlink:href="#C0_0_c0200da134" y="155.045521"/>
    </g>
    <g clip-path="url(#pd3ca144faa)">
     <use style="fill:#666666;stroke:#666666;" x="136.294646" xlink:href="#C0_0_c0200da134" y="163.43417"/>
    </g>
    <g clip-path="url(#pd3ca144faa)">
     <use style="fill:#386cb0;stroke:#386cb0;" x="264.041362" xlink:href="#C0_0_c0200da134" y="179.95381"/>
    </g>
    <g clip-path="url(#pd3ca144faa)">
     <use style="fill:#386cb0;stroke:#386cb0;" x="266.52462" xlink:href="#C0_0_c0200da134" y="201.685695"/>
    </g>
    <g clip-path="url(#pd3ca144faa)">
     <use style="fill:#386cb0;stroke:#386cb0;" x="298.739933" xlink:href="#C0_0_c0200da134" y="276.730345"/>
    </g>
    <g clip-path="url(#pd3ca144faa)">
     <use style="fill:#666666;stroke:#666666;" x="124.48218" xlink:href="#C0_0_c0200da134" y="169.269151"/>
    </g>
    <g clip-path="url(#pd3ca144faa)">
     <use style="fill:#386cb0;stroke:#386cb0;" x="282.190507" xlink:href="#C0_0_c0200da134" y="143.271205"/>
    </g>
    <g clip-path="url(#pd3ca144faa)">
     <use style="fill:#386cb0;stroke:#386cb0;" x="283.347138" xlink:href="#C0_0_c0200da134" y="64.447747"/>
    </g>
    <g clip-path="url(#pd3ca144faa)">
     <use style="fill:#666666;stroke:#666666;" x="90.505509" xlink:href="#C0_0_c0200da134" y="120.121865"/>
    </g>
    <g clip-path="url(#pd3ca144faa)">
     <use style="fill:#7fc97f;stroke:#7fc97f;" x="398.429338" xlink:href="#C0_0_c0200da134" y="255.395022"/>
    </g>
    <g clip-path="url(#pd3ca144faa)">
     <use style="fill:#666666;stroke:#666666;" x="166.619714" xlink:href="#C0_0_c0200da134" y="134.044321"/>
    </g>
    <g clip-path="url(#pd3ca144faa)">
     <use style="fill:#386cb0;stroke:#386cb0;" x="305.686052" xlink:href="#C0_0_c0200da134" y="108.589556"/>
    </g>
    <g clip-path="url(#pd3ca144faa)">
     <use style="fill:#666666;stroke:#666666;" x="137.612887" xlink:href="#C0_0_c0200da134" y="160.41074"/>
    </g>
    <g clip-path="url(#pd3ca144faa)">
     <use style="fill:#386cb0;stroke:#386cb0;" x="340.778542" xlink:href="#C0_0_c0200da134" y="188.830451"/>
    </g>
    <g clip-path="url(#pd3ca144faa)">
     <use style="fill:#386cb0;stroke:#386cb0;" x="258.401432" xlink:href="#C0_0_c0200da134" y="184.70455"/>
    </g>
    <g clip-path="url(#pd3ca144faa)">
     <use style="fill:#386cb0;stroke:#386cb0;" x="312.823384" xlink:href="#C0_0_c0200da134" y="126.456833"/>
    </g>
    <g clip-path="url(#pd3ca144faa)">
     <use style="fill:#386cb0;stroke:#386cb0;" x="258.405696" xlink:href="#C0_0_c0200da134" y="184.631482"/>
    </g>
    <g clip-path="url(#pd3ca144faa)">
     <use style="fill:#7fc97f;stroke:#7fc97f;" x="327.196333" xlink:href="#C0_0_c0200da134" y="226.06036"/>
    </g>
    <g clip-path="url(#pd3ca144faa)">
     <use style="fill:#386cb0;stroke:#386cb0;" x="238.856923" xlink:href="#C0_0_c0200da134" y="164.691801"/>
    </g>
    <g clip-path="url(#pd3ca144faa)">
     <use style="fill:#7fc97f;stroke:#7fc97f;" x="359.955781" xlink:href="#C0_0_c0200da134" y="211.385931"/>
    </g>
    <g clip-path="url(#pd3ca144faa)">
     <use style="fill:#386cb0;stroke:#386cb0;" x="247.642776" xlink:href="#C0_0_c0200da134" y="153.329354"/>
    </g>
    <g clip-path="url(#pd3ca144faa)">
     <use style="fill:#386cb0;stroke:#386cb0;" x="373.386974" xlink:href="#C0_0_c0200da134" y="136.766424"/>
    </g>
    <g clip-path="url(#pd3ca144faa)">
     <use style="fill:#386cb0;stroke:#386cb0;" x="353.045689" xlink:href="#C0_0_c0200da134" y="132.149594"/>
    </g>
    <g clip-path="url(#pd3ca144faa)">
     <use style="fill:#666666;stroke:#666666;" x="88.359628" xlink:href="#C0_0_c0200da134" y="110.478648"/>
    </g>
    <g clip-path="url(#pd3ca144faa)">
     <use style="fill:#386cb0;stroke:#386cb0;" x="349.596202" xlink:href="#C0_0_c0200da134" y="198.758333"/>
    </g>
    <g clip-path="url(#pd3ca144faa)">
     <use style="fill:#666666;stroke:#666666;" x="164.051694" xlink:href="#C0_0_c0200da134" y="145.596016"/>
    </g>
    <g clip-path="url(#pd3ca144faa)">
     <use style="fill:#7fc97f;stroke:#7fc97f;" x="343.833036" xlink:href="#C0_0_c0200da134" y="85.085421"/>
    </g>
    <g clip-path="url(#pd3ca144faa)">
     <use style="fill:#386cb0;stroke:#386cb0;" x="290.221688" xlink:href="#C0_0_c0200da134" y="183.610522"/>
    </g>
    <g clip-path="url(#pd3ca144faa)">
     <use style="fill:#386cb0;stroke:#386cb0;" x="322.217111" xlink:href="#C0_0_c0200da134" y="90.127268"/>
    </g>
    <g clip-path="url(#pd3ca144faa)">
     <use style="fill:#386cb0;stroke:#386cb0;" x="257.565165" xlink:href="#C0_0_c0200da134" y="83.460819"/>
    </g>
    <g clip-path="url(#pd3ca144faa)">
     <use style="fill:#666666;stroke:#666666;" x="109.492663" xlink:href="#C0_0_c0200da134" y="155.020502"/>
    </g>
    <g clip-path="url(#pd3ca144faa)">
     <use style="fill:#666666;stroke:#666666;" x="152.600913" xlink:href="#C0_0_c0200da134" y="170.0919"/>
    </g>
    <g clip-path="url(#pd3ca144faa)">
     <use style="fill:#386cb0;stroke:#386cb0;" x="275.626189" xlink:href="#C0_0_c0200da134" y="62.442026"/>
    </g>
    <g clip-path="url(#pd3ca144faa)">
     <use style="fill:#386cb0;stroke:#386cb0;" x="351.774143" xlink:href="#C0_0_c0200da134" y="130.289665"/>
    </g>
    <g clip-path="url(#pd3ca144faa)">
     <use style="fill:#666666;stroke:#666666;" x="137.646199" xlink:href="#C0_0_c0200da134" y="160.406329"/>
    </g>
    <g clip-path="url(#pd3ca144faa)">
     <use style="fill:#386cb0;stroke:#386cb0;" x="225.414187" xlink:href="#C0_0_c0200da134" y="95.217639"/>
    </g>
    <g clip-path="url(#pd3ca144faa)">
     <use style="fill:#386cb0;stroke:#386cb0;" x="297.754525" xlink:href="#C0_0_c0200da134" y="128.782032"/>
    </g>
    <g clip-path="url(#pd3ca144faa)">
     <use style="fill:#386cb0;stroke:#386cb0;" x="297.760694" xlink:href="#C0_0_c0200da134" y="128.795137"/>
    </g>
    <g clip-path="url(#pd3ca144faa)">
     <use style="fill:#7fc97f;stroke:#7fc97f;" x="394.10455" xlink:href="#C0_0_c0200da134" y="260.033711"/>
    </g>
    <g clip-path="url(#pd3ca144faa)">
     <use style="fill:#386cb0;stroke:#386cb0;" x="308.543775" xlink:href="#C0_0_c0200da134" y="221.871984"/>
    </g>
    <g clip-path="url(#pd3ca144faa)">
     <use style="fill:#386cb0;stroke:#386cb0;" x="225.966941" xlink:href="#C0_0_c0200da134" y="246.065905"/>
    </g>
    <g clip-path="url(#pd3ca144faa)">
     <use style="fill:#386cb0;stroke:#386cb0;" x="305.926652" xlink:href="#C0_0_c0200da134" y="143.682459"/>
    </g>
    <g clip-path="url(#pd3ca144faa)">
     <use style="fill:#386cb0;stroke:#386cb0;" x="171.899966" xlink:href="#C0_0_c0200da134" y="233.388608"/>
    </g>
    <g clip-path="url(#pd3ca144faa)">
     <use style="fill:#386cb0;stroke:#386cb0;" x="159.677207" xlink:href="#C0_0_c0200da134" y="237.147694"/>
    </g>
    <g clip-path="url(#pd3ca144faa)">
     <use style="fill:#666666;stroke:#666666;" x="73.890662" xlink:href="#C0_0_c0200da134" y="123.685775"/>
    </g>
    <g clip-path="url(#pd3ca144faa)">
     <use style="fill:#666666;stroke:#666666;" x="136.294299" xlink:href="#C0_0_c0200da134" y="163.434593"/>
    </g>
    <g clip-path="url(#pd3ca144faa)">
     <use style="fill:#666666;stroke:#666666;" x="197.694801" xlink:href="#C0_0_c0200da134" y="173.069044"/>
    </g>
    <g clip-path="url(#pd3ca144faa)">
     <use style="fill:#666666;stroke:#666666;" x="74.190246" xlink:href="#C0_0_c0200da134" y="117.579928"/>
    </g>
    <g clip-path="url(#pd3ca144faa)">
     <use style="fill:#386cb0;stroke:#386cb0;" x="301.111128" xlink:href="#C0_0_c0200da134" y="171.993595"/>
    </g>
    <g clip-path="url(#pd3ca144faa)">
     <use style="fill:#386cb0;stroke:#386cb0;" x="240.148516" xlink:href="#C0_0_c0200da134" y="164.677408"/>
    </g>
    <g clip-path="url(#pd3ca144faa)">
     <use style="fill:#666666;stroke:#666666;" x="137.612904" xlink:href="#C0_0_c0200da134" y="160.410767"/>
    </g>
    <g clip-path="url(#pd3ca144faa)">
     <use style="fill:#666666;stroke:#666666;" x="157.086222" xlink:href="#C0_0_c0200da134" y="132.597349"/>
    </g>
    <g clip-path="url(#pd3ca144faa)">
     <use style="fill:#7fc97f;stroke:#7fc97f;" x="361.021628" xlink:href="#C0_0_c0200da134" y="259.608706"/>
    </g>
   </g>
   <g id="matplotlib.axis_1">
    <g id="xtick_1">
     <g id="line2d_1">
      <defs>
       <path d="M 0 0 
L 0 3.5 
" id="mfc51c5749a" style="stroke:#000000;stroke-width:0.8;"/>
      </defs>
      <g>
       <use style="stroke:#000000;stroke-width:0.8;" x="89.640553" xlink:href="#mfc51c5749a" y="307.584"/>
      </g>
     </g>
     <g id="text_1">
      <!-- −12.5 -->
      <defs>
       <path d="M 10.59375 35.5 
L 73.1875 35.5 
L 73.1875 27.203125 
L 10.59375 27.203125 
z
" id="DejaVuSans-2212"/>
       <path d="M 12.40625 8.296875 
L 28.515625 8.296875 
L 28.515625 63.921875 
L 10.984375 60.40625 
L 10.984375 69.390625 
L 28.421875 72.90625 
L 38.28125 72.90625 
L 38.28125 8.296875 
L 54.390625 8.296875 
L 54.390625 0 
L 12.40625 0 
z
" id="DejaVuSans-31"/>
       <path d="M 19.1875 8.296875 
L 53.609375 8.296875 
L 53.609375 0 
L 7.328125 0 
L 7.328125 8.296875 
Q 12.9375 14.109375 22.625 23.890625 
Q 32.328125 33.6875 34.8125 36.53125 
Q 39.546875 41.84375 41.421875 45.53125 
Q 43.3125 49.21875 43.3125 52.78125 
Q 43.3125 58.59375 39.234375 62.25 
Q 35.15625 65.921875 28.609375 65.921875 
Q 23.96875 65.921875 18.8125 64.3125 
Q 13.671875 62.703125 7.8125 59.421875 
L 7.8125 69.390625 
Q 13.765625 71.78125 18.9375 73 
Q 24.125 74.21875 28.421875 74.21875 
Q 39.75 74.21875 46.484375 68.546875 
Q 53.21875 62.890625 53.21875 53.421875 
Q 53.21875 48.921875 51.53125 44.890625 
Q 49.859375 40.875 45.40625 35.40625 
Q 44.1875 33.984375 37.640625 27.21875 
Q 31.109375 20.453125 19.1875 8.296875 
z
" id="DejaVuSans-32"/>
       <path d="M 10.6875 12.40625 
L 21 12.40625 
L 21 0 
L 10.6875 0 
z
" id="DejaVuSans-2e"/>
       <path d="M 10.796875 72.90625 
L 49.515625 72.90625 
L 49.515625 64.59375 
L 19.828125 64.59375 
L 19.828125 46.734375 
Q 21.96875 47.46875 24.109375 47.828125 
Q 26.265625 48.1875 28.421875 48.1875 
Q 40.625 48.1875 47.75 41.5 
Q 54.890625 34.8125 54.890625 23.390625 
Q 54.890625 11.625 47.5625 5.09375 
Q 40.234375 -1.421875 26.90625 -1.421875 
Q 22.3125 -1.421875 17.546875 -0.640625 
Q 12.796875 0.140625 7.71875 1.703125 
L 7.71875 11.625 
Q 12.109375 9.234375 16.796875 8.0625 
Q 21.484375 6.890625 26.703125 6.890625 
Q 35.15625 6.890625 40.078125 11.328125 
Q 45.015625 15.765625 45.015625 23.390625 
Q 45.015625 31 40.078125 35.4375 
Q 35.15625 39.890625 26.703125 39.890625 
Q 22.75 39.890625 18.8125 39.015625 
Q 14.890625 38.140625 10.796875 36.28125 
z
" id="DejaVuSans-35"/>
      </defs>
      <g transform="translate(74.317897 322.182437)scale(0.1 -0.1)">
       <use xlink:href="#DejaVuSans-2212"/>
       <use x="83.789062" xlink:href="#DejaVuSans-31"/>
       <use x="147.412109" xlink:href="#DejaVuSans-32"/>
       <use x="211.035156" xlink:href="#DejaVuSans-2e"/>
       <use x="242.822266" xlink:href="#DejaVuSans-35"/>
      </g>
     </g>
    </g>
    <g id="xtick_2">
     <g id="line2d_2">
      <g>
       <use style="stroke:#000000;stroke-width:0.8;" x="135.075475" xlink:href="#mfc51c5749a" y="307.584"/>
      </g>
     </g>
     <g id="text_2">
      <!-- −10.0 -->
      <defs>
       <path d="M 31.78125 66.40625 
Q 24.171875 66.40625 20.328125 58.90625 
Q 16.5 51.421875 16.5 36.375 
Q 16.5 21.390625 20.328125 13.890625 
Q 24.171875 6.390625 31.78125 6.390625 
Q 39.453125 6.390625 43.28125 13.890625 
Q 47.125 21.390625 47.125 36.375 
Q 47.125 51.421875 43.28125 58.90625 
Q 39.453125 66.40625 31.78125 66.40625 
z
M 31.78125 74.21875 
Q 44.046875 74.21875 50.515625 64.515625 
Q 56.984375 54.828125 56.984375 36.375 
Q 56.984375 17.96875 50.515625 8.265625 
Q 44.046875 -1.421875 31.78125 -1.421875 
Q 19.53125 -1.421875 13.0625 8.265625 
Q 6.59375 17.96875 6.59375 36.375 
Q 6.59375 54.828125 13.0625 64.515625 
Q 19.53125 74.21875 31.78125 74.21875 
z
" id="DejaVuSans-30"/>
      </defs>
      <g transform="translate(119.752819 322.182437)scale(0.1 -0.1)">
       <use xlink:href="#DejaVuSans-2212"/>
       <use x="83.789062" xlink:href="#DejaVuSans-31"/>
       <use x="147.412109" xlink:href="#DejaVuSans-30"/>
       <use x="211.035156" xlink:href="#DejaVuSans-2e"/>
       <use x="242.822266" xlink:href="#DejaVuSans-30"/>
      </g>
     </g>
    </g>
    <g id="xtick_3">
     <g id="line2d_3">
      <g>
       <use style="stroke:#000000;stroke-width:0.8;" x="180.510397" xlink:href="#mfc51c5749a" y="307.584"/>
      </g>
     </g>
     <g id="text_3">
      <!-- −7.5 -->
      <defs>
       <path d="M 8.203125 72.90625 
L 55.078125 72.90625 
L 55.078125 68.703125 
L 28.609375 0 
L 18.3125 0 
L 43.21875 64.59375 
L 8.203125 64.59375 
z
" id="DejaVuSans-37"/>
      </defs>
      <g transform="translate(168.368991 322.182437)scale(0.1 -0.1)">
       <use xlink:href="#DejaVuSans-2212"/>
       <use x="83.789062" xlink:href="#DejaVuSans-37"/>
       <use x="147.412109" xlink:href="#DejaVuSans-2e"/>
       <use x="179.199219" xlink:href="#DejaVuSans-35"/>
      </g>
     </g>
    </g>
    <g id="xtick_4">
     <g id="line2d_4">
      <g>
       <use style="stroke:#000000;stroke-width:0.8;" x="225.945319" xlink:href="#mfc51c5749a" y="307.584"/>
      </g>
     </g>
     <g id="text_4">
      <!-- −5.0 -->
      <g transform="translate(213.803913 322.182437)scale(0.1 -0.1)">
       <use xlink:href="#DejaVuSans-2212"/>
       <use x="83.789062" xlink:href="#DejaVuSans-35"/>
       <use x="147.412109" xlink:href="#DejaVuSans-2e"/>
       <use x="179.199219" xlink:href="#DejaVuSans-30"/>
      </g>
     </g>
    </g>
    <g id="xtick_5">
     <g id="line2d_5">
      <g>
       <use style="stroke:#000000;stroke-width:0.8;" x="271.380241" xlink:href="#mfc51c5749a" y="307.584"/>
      </g>
     </g>
     <g id="text_5">
      <!-- −2.5 -->
      <g transform="translate(259.238835 322.182437)scale(0.1 -0.1)">
       <use xlink:href="#DejaVuSans-2212"/>
       <use x="83.789062" xlink:href="#DejaVuSans-32"/>
       <use x="147.412109" xlink:href="#DejaVuSans-2e"/>
       <use x="179.199219" xlink:href="#DejaVuSans-35"/>
      </g>
     </g>
    </g>
    <g id="xtick_6">
     <g id="line2d_6">
      <g>
       <use style="stroke:#000000;stroke-width:0.8;" x="316.815163" xlink:href="#mfc51c5749a" y="307.584"/>
      </g>
     </g>
     <g id="text_6">
      <!-- 0.0 -->
      <g transform="translate(308.8636 322.182437)scale(0.1 -0.1)">
       <use xlink:href="#DejaVuSans-30"/>
       <use x="63.623047" xlink:href="#DejaVuSans-2e"/>
       <use x="95.410156" xlink:href="#DejaVuSans-30"/>
      </g>
     </g>
    </g>
    <g id="xtick_7">
     <g id="line2d_7">
      <g>
       <use style="stroke:#000000;stroke-width:0.8;" x="362.250085" xlink:href="#mfc51c5749a" y="307.584"/>
      </g>
     </g>
     <g id="text_7">
      <!-- 2.5 -->
      <g transform="translate(354.298522 322.182437)scale(0.1 -0.1)">
       <use xlink:href="#DejaVuSans-32"/>
       <use x="63.623047" xlink:href="#DejaVuSans-2e"/>
       <use x="95.410156" xlink:href="#DejaVuSans-35"/>
      </g>
     </g>
    </g>
    <g id="xtick_8">
     <g id="line2d_8">
      <g>
       <use style="stroke:#000000;stroke-width:0.8;" x="407.685007" xlink:href="#mfc51c5749a" y="307.584"/>
      </g>
     </g>
     <g id="text_8">
      <!-- 5.0 -->
      <g transform="translate(399.733444 322.182437)scale(0.1 -0.1)">
       <use xlink:href="#DejaVuSans-35"/>
       <use x="63.623047" xlink:href="#DejaVuSans-2e"/>
       <use x="95.410156" xlink:href="#DejaVuSans-30"/>
      </g>
     </g>
    </g>
   </g>
   <g id="matplotlib.axis_2">
    <g id="ytick_1">
     <g id="line2d_9">
      <defs>
       <path d="M 0 0 
L -3.5 0 
" id="m90d7ce5fa5" style="stroke:#000000;stroke-width:0.8;"/>
      </defs>
      <g>
       <use style="stroke:#000000;stroke-width:0.8;" x="57.6" xlink:href="#m90d7ce5fa5" y="282.886348"/>
      </g>
     </g>
     <g id="text_9">
      <!-- −6 -->
      <defs>
       <path d="M 33.015625 40.375 
Q 26.375 40.375 22.484375 35.828125 
Q 18.609375 31.296875 18.609375 23.390625 
Q 18.609375 15.53125 22.484375 10.953125 
Q 26.375 6.390625 33.015625 6.390625 
Q 39.65625 6.390625 43.53125 10.953125 
Q 47.40625 15.53125 47.40625 23.390625 
Q 47.40625 31.296875 43.53125 35.828125 
Q 39.65625 40.375 33.015625 40.375 
z
M 52.59375 71.296875 
L 52.59375 62.3125 
Q 48.875 64.0625 45.09375 64.984375 
Q 41.3125 65.921875 37.59375 65.921875 
Q 27.828125 65.921875 22.671875 59.328125 
Q 17.53125 52.734375 16.796875 39.40625 
Q 19.671875 43.65625 24.015625 45.921875 
Q 28.375 48.1875 33.59375 48.1875 
Q 44.578125 48.1875 50.953125 41.515625 
Q 57.328125 34.859375 57.328125 23.390625 
Q 57.328125 12.15625 50.6875 5.359375 
Q 44.046875 -1.421875 33.015625 -1.421875 
Q 20.359375 -1.421875 13.671875 8.265625 
Q 6.984375 17.96875 6.984375 36.375 
Q 6.984375 53.65625 15.1875 63.9375 
Q 23.390625 74.21875 37.203125 74.21875 
Q 40.921875 74.21875 44.703125 73.484375 
Q 48.484375 72.75 52.59375 71.296875 
z
" id="DejaVuSans-36"/>
      </defs>
      <g transform="translate(35.857813 286.685567)scale(0.1 -0.1)">
       <use xlink:href="#DejaVuSans-2212"/>
       <use x="83.789062" xlink:href="#DejaVuSans-36"/>
      </g>
     </g>
    </g>
    <g id="ytick_2">
     <g id="line2d_10">
      <g>
       <use style="stroke:#000000;stroke-width:0.8;" x="57.6" xlink:href="#m90d7ce5fa5" y="244.847798"/>
      </g>
     </g>
     <g id="text_10">
      <!-- −4 -->
      <defs>
       <path d="M 37.796875 64.3125 
L 12.890625 25.390625 
L 37.796875 25.390625 
z
M 35.203125 72.90625 
L 47.609375 72.90625 
L 47.609375 25.390625 
L 58.015625 25.390625 
L 58.015625 17.1875 
L 47.609375 17.1875 
L 47.609375 0 
L 37.796875 0 
L 37.796875 17.1875 
L 4.890625 17.1875 
L 4.890625 26.703125 
z
" id="DejaVuSans-34"/>
      </defs>
      <g transform="translate(35.857813 248.647017)scale(0.1 -0.1)">
       <use xlink:href="#DejaVuSans-2212"/>
       <use x="83.789062" xlink:href="#DejaVuSans-34"/>
      </g>
     </g>
    </g>
    <g id="ytick_3">
     <g id="line2d_11">
      <g>
       <use style="stroke:#000000;stroke-width:0.8;" x="57.6" xlink:href="#m90d7ce5fa5" y="206.809247"/>
      </g>
     </g>
     <g id="text_11">
      <!-- −2 -->
      <g transform="translate(35.857813 210.608466)scale(0.1 -0.1)">
       <use xlink:href="#DejaVuSans-2212"/>
       <use x="83.789062" xlink:href="#DejaVuSans-32"/>
      </g>
     </g>
    </g>
    <g id="ytick_4">
     <g id="line2d_12">
      <g>
       <use style="stroke:#000000;stroke-width:0.8;" x="57.6" xlink:href="#m90d7ce5fa5" y="168.770697"/>
      </g>
     </g>
     <g id="text_12">
      <!-- 0 -->
      <g transform="translate(44.2375 172.569916)scale(0.1 -0.1)">
       <use xlink:href="#DejaVuSans-30"/>
      </g>
     </g>
    </g>
    <g id="ytick_5">
     <g id="line2d_13">
      <g>
       <use style="stroke:#000000;stroke-width:0.8;" x="57.6" xlink:href="#m90d7ce5fa5" y="130.732146"/>
      </g>
     </g>
     <g id="text_13">
      <!-- 2 -->
      <g transform="translate(44.2375 134.531365)scale(0.1 -0.1)">
       <use xlink:href="#DejaVuSans-32"/>
      </g>
     </g>
    </g>
    <g id="ytick_6">
     <g id="line2d_14">
      <g>
       <use style="stroke:#000000;stroke-width:0.8;" x="57.6" xlink:href="#m90d7ce5fa5" y="92.693596"/>
      </g>
     </g>
     <g id="text_14">
      <!-- 4 -->
      <g transform="translate(44.2375 96.492814)scale(0.1 -0.1)">
       <use xlink:href="#DejaVuSans-34"/>
      </g>
     </g>
    </g>
    <g id="ytick_7">
     <g id="line2d_15">
      <g>
       <use style="stroke:#000000;stroke-width:0.8;" x="57.6" xlink:href="#m90d7ce5fa5" y="54.655045"/>
      </g>
     </g>
     <g id="text_15">
      <!-- 6 -->
      <g transform="translate(44.2375 58.454264)scale(0.1 -0.1)">
       <use xlink:href="#DejaVuSans-36"/>
      </g>
     </g>
    </g>
   </g>
   <g id="patch_3">
    <path d="M 57.6 307.584 
L 57.6 41.472 
" style="fill:none;stroke:#000000;stroke-linecap:square;stroke-linejoin:miter;stroke-width:0.8;"/>
   </g>
   <g id="patch_4">
    <path d="M 414.72 307.584 
L 414.72 41.472 
" style="fill:none;stroke:#000000;stroke-linecap:square;stroke-linejoin:miter;stroke-width:0.8;"/>
   </g>
   <g id="patch_5">
    <path d="M 57.6 307.584 
L 414.72 307.584 
" style="fill:none;stroke:#000000;stroke-linecap:square;stroke-linejoin:miter;stroke-width:0.8;"/>
   </g>
   <g id="patch_6">
    <path d="M 57.6 41.472 
L 414.72 41.472 
" style="fill:none;stroke:#000000;stroke-linecap:square;stroke-linejoin:miter;stroke-width:0.8;"/>
   </g>
  </g>
 </g>
 <defs>
  <clipPath id="pd3ca144faa">
   <rect height="266.112" width="357.12" x="57.6" y="41.472"/>
  </clipPath>
 </defs>
</svg>
