<?xml version="1.0" encoding="utf-8" standalone="no"?>
<!DOCTYPE svg PUBLIC "-//W3C//DTD SVG 1.1//EN"
  "http://www.w3.org/Graphics/SVG/1.1/DTD/svg11.dtd">
<!-- Created with matplotlib (http://matplotlib.org/) -->
<svg height="345pt" version="1.1" viewBox="0 0 460 345" width="460pt" xmlns="http://www.w3.org/2000/svg" xmlns:xlink="http://www.w3.org/1999/xlink">
 <defs>
  <style type="text/css">
*{stroke-linecap:butt;stroke-linejoin:round;}
  </style>
 </defs>
 <g id="figure_1">
  <g id="patch_1">
   <path d="M 0 345.6 
L 460.8 345.6 
L 460.8 0 
L 0 0 
z
" style="fill:#ffffff;"/>
  </g>
  <g id="axes_1">
   <g id="patch_2">
    <path d="M 57.6 307.584 
L 414.72 307.584 
L 414.72 41.472 
L 57.6 41.472 
z
" style="fill:#ffffff;"/>
   </g>
   <g id="PathCollection_1">
    <defs>
     <path d="M 0 1.581139 
C 0.419323 1.581139 0.821528 1.41454 1.118034 1.118034 
C 1.41454 0.821528 1.581139 0.419323 1.581139 0 
C 1.581139 -0.419323 1.41454 -0.821528 1.118034 -1.118034 
C 0.821528 -1.41454 0.419323 -1.581139 0 -1.581139 
C -0.419323 -1.581139 -0.821528 -1.41454 -1.118034 -1.118034 
C -1.41454 -0.821528 -1.581139 -0.419323 -1.581139 0 
C -1.581139 0.419323 -1.41454 0.821528 -1.118034 1.118034 
C -0.821528 1.41454 -0.419323 1.581139 0 1.581139 
z
" id="C0_0_bc78e9e5f3"/>
    </defs>
    <g clip-path="url(#pd8f540d3ad)">
     <use style="fill:#7fc97f;stroke:#7fc97f;" x="228.671031" xlink:href="#C0_0_bc78e9e5f3" y="173.982107"/>
    </g>
    <g clip-path="url(#pd8f540d3ad)">
     <use style="fill:#7fc97f;stroke:#7fc97f;" x="279.225561" xlink:href="#C0_0_bc78e9e5f3" y="212.581051"/>
    </g>
    <g clip-path="url(#pd8f540d3ad)">
     <use style="fill:#7fc97f;stroke:#7fc97f;" x="192.81942" xlink:href="#C0_0_bc78e9e5f3" y="138.925518"/>
    </g>
    <g clip-path="url(#pd8f540d3ad)">
     <use style="fill:#7fc97f;stroke:#7fc97f;" x="318.841047" xlink:href="#C0_0_bc78e9e5f3" y="185.774599"/>
    </g>
    <g clip-path="url(#pd8f540d3ad)">
     <use style="fill:#666666;stroke:#666666;" x="135.34092" xlink:href="#C0_0_bc78e9e5f3" y="96.898707"/>
    </g>
    <g clip-path="url(#pd8f540d3ad)">
     <use style="fill:#7fc97f;stroke:#7fc97f;" x="259.114718" xlink:href="#C0_0_bc78e9e5f3" y="270.050547"/>
    </g>
    <g clip-path="url(#pd8f540d3ad)">
     <use style="fill:#666666;stroke:#666666;" x="142.096537" xlink:href="#C0_0_bc78e9e5f3" y="119.678302"/>
    </g>
    <g clip-path="url(#pd8f540d3ad)">
     <use style="fill:#7fc97f;stroke:#7fc97f;" x="337.705788" xlink:href="#C0_0_bc78e9e5f3" y="192.733416"/>
    </g>
    <g clip-path="url(#pd8f540d3ad)">
     <use style="fill:#666666;stroke:#666666;" x="77.013933" xlink:href="#C0_0_bc78e9e5f3" y="125.3552"/>
    </g>
    <g clip-path="url(#pd8f540d3ad)">
     <use style="fill:#7fc97f;stroke:#7fc97f;" x="242.404477" xlink:href="#C0_0_bc78e9e5f3" y="91.647046"/>
    </g>
    <g clip-path="url(#pd8f540d3ad)">
     <use style="fill:#7fc97f;stroke:#7fc97f;" x="270.066842" xlink:href="#C0_0_bc78e9e5f3" y="212.620092"/>
    </g>
    <g clip-path="url(#pd8f540d3ad)">
     <use style="fill:#7fc97f;stroke:#7fc97f;" x="256.20306" xlink:href="#C0_0_bc78e9e5f3" y="181.734239"/>
    </g>
    <g clip-path="url(#pd8f540d3ad)">
     <use style="fill:#666666;stroke:#666666;" x="183.806779" xlink:href="#C0_0_bc78e9e5f3" y="162.283285"/>
    </g>
    <g clip-path="url(#pd8f540d3ad)">
     <use style="fill:#7fc97f;stroke:#7fc97f;" x="330.129755" xlink:href="#C0_0_bc78e9e5f3" y="118.956709"/>
    </g>
    <g clip-path="url(#pd8f540d3ad)">
     <use style="fill:#7fc97f;stroke:#7fc97f;" x="233.064621" xlink:href="#C0_0_bc78e9e5f3" y="188.446199"/>
    </g>
    <g clip-path="url(#pd8f540d3ad)">
     <use style="fill:#7fc97f;stroke:#7fc97f;" x="255.463912" xlink:href="#C0_0_bc78e9e5f3" y="172.248259"/>
    </g>
    <g clip-path="url(#pd8f540d3ad)">
     <use style="fill:#386cb0;stroke:#386cb0;" x="394.514235" xlink:href="#C0_0_bc78e9e5f3" y="205.776588"/>
    </g>
    <g clip-path="url(#pd8f540d3ad)">
     <use style="fill:#7fc97f;stroke:#7fc97f;" x="223.183799" xlink:href="#C0_0_bc78e9e5f3" y="182.591957"/>
    </g>
    <g clip-path="url(#pd8f540d3ad)">
     <use style="fill:#7fc97f;stroke:#7fc97f;" x="279.201316" xlink:href="#C0_0_bc78e9e5f3" y="212.648756"/>
    </g>
    <g clip-path="url(#pd8f540d3ad)">
     <use style="fill:#7fc97f;stroke:#7fc97f;" x="204.93431" xlink:href="#C0_0_bc78e9e5f3" y="155.925493"/>
    </g>
    <g clip-path="url(#pd8f540d3ad)">
     <use style="fill:#7fc97f;stroke:#7fc97f;" x="308.600539" xlink:href="#C0_0_bc78e9e5f3" y="249.672319"/>
    </g>
    <g clip-path="url(#pd8f540d3ad)">
     <use style="fill:#7fc97f;stroke:#7fc97f;" x="194.732826" xlink:href="#C0_0_bc78e9e5f3" y="204.753332"/>
    </g>
    <g clip-path="url(#pd8f540d3ad)">
     <use style="fill:#7fc97f;stroke:#7fc97f;" x="256.20306" xlink:href="#C0_0_bc78e9e5f3" y="181.734226"/>
    </g>
    <g clip-path="url(#pd8f540d3ad)">
     <use style="fill:#7fc97f;stroke:#7fc97f;" x="256.60314" xlink:href="#C0_0_bc78e9e5f3" y="228.88015"/>
    </g>
    <g clip-path="url(#pd8f540d3ad)">
     <use style="fill:#7fc97f;stroke:#7fc97f;" x="322.083477" xlink:href="#C0_0_bc78e9e5f3" y="238.369524"/>
    </g>
    <g clip-path="url(#pd8f540d3ad)">
     <use style="fill:#7fc97f;stroke:#7fc97f;" x="206.013719" xlink:href="#C0_0_bc78e9e5f3" y="72.363717"/>
    </g>
    <g clip-path="url(#pd8f540d3ad)">
     <use style="fill:#7fc97f;stroke:#7fc97f;" x="334.034142" xlink:href="#C0_0_bc78e9e5f3" y="237.258181"/>
    </g>
    <g clip-path="url(#pd8f540d3ad)">
     <use style="fill:#666666;stroke:#666666;" x="142.061371" xlink:href="#C0_0_bc78e9e5f3" y="119.637492"/>
    </g>
    <g clip-path="url(#pd8f540d3ad)">
     <use style="fill:#7fc97f;stroke:#7fc97f;" x="204.296069" xlink:href="#C0_0_bc78e9e5f3" y="126.454843"/>
    </g>
    <g clip-path="url(#pd8f540d3ad)">
     <use style="fill:#7fc97f;stroke:#7fc97f;" x="186.104821" xlink:href="#C0_0_bc78e9e5f3" y="288.568232"/>
    </g>
    <g clip-path="url(#pd8f540d3ad)">
     <use style="fill:#7fc97f;stroke:#7fc97f;" x="272.030682" xlink:href="#C0_0_bc78e9e5f3" y="171.205974"/>
    </g>
    <g clip-path="url(#pd8f540d3ad)">
     <use style="fill:#666666;stroke:#666666;" x="158.135514" xlink:href="#C0_0_bc78e9e5f3" y="119.382865"/>
    </g>
    <g clip-path="url(#pd8f540d3ad)">
     <use style="fill:#7fc97f;stroke:#7fc97f;" x="318.845446" xlink:href="#C0_0_bc78e9e5f3" y="185.789612"/>
    </g>
    <g clip-path="url(#pd8f540d3ad)">
     <use style="fill:#7fc97f;stroke:#7fc97f;" x="224.850917" xlink:href="#C0_0_bc78e9e5f3" y="275.643938"/>
    </g>
    <g clip-path="url(#pd8f540d3ad)">
     <use style="fill:#7fc97f;stroke:#7fc97f;" x="214.346519" xlink:href="#C0_0_bc78e9e5f3" y="227.158083"/>
    </g>
    <g clip-path="url(#pd8f540d3ad)">
     <use style="fill:#7fc97f;stroke:#7fc97f;" x="209.327434" xlink:href="#C0_0_bc78e9e5f3" y="244.216963"/>
    </g>
    <g clip-path="url(#pd8f540d3ad)">
     <use style="fill:#7fc97f;stroke:#7fc97f;" x="283.765039" xlink:href="#C0_0_bc78e9e5f3" y="143.560058"/>
    </g>
    <g clip-path="url(#pd8f540d3ad)">
     <use style="fill:#7fc97f;stroke:#7fc97f;" x="316.862608" xlink:href="#C0_0_bc78e9e5f3" y="235.77528"/>
    </g>
    <g clip-path="url(#pd8f540d3ad)">
     <use style="fill:#7fc97f;stroke:#7fc97f;" x="231.182057" xlink:href="#C0_0_bc78e9e5f3" y="53.683864"/>
    </g>
    <g clip-path="url(#pd8f540d3ad)">
     <use style="fill:#7fc97f;stroke:#7fc97f;" x="244.276328" xlink:href="#C0_0_bc78e9e5f3" y="122.117498"/>
    </g>
    <g clip-path="url(#pd8f540d3ad)">
     <use style="fill:#666666;stroke:#666666;" x="132.091885" xlink:href="#C0_0_bc78e9e5f3" y="135.095046"/>
    </g>
    <g clip-path="url(#pd8f540d3ad)">
     <use style="fill:#7fc97f;stroke:#7fc97f;" x="281.603533" xlink:href="#C0_0_bc78e9e5f3" y="274.853854"/>
    </g>
    <g clip-path="url(#pd8f540d3ad)">
     <use style="fill:#666666;stroke:#666666;" x="183.804579" xlink:href="#C0_0_bc78e9e5f3" y="162.281664"/>
    </g>
    <g clip-path="url(#pd8f540d3ad)">
     <use style="fill:#7fc97f;stroke:#7fc97f;" x="356.384389" xlink:href="#C0_0_bc78e9e5f3" y="135.933814"/>
    </g>
    <g clip-path="url(#pd8f540d3ad)">
     <use style="fill:#7fc97f;stroke:#7fc97f;" x="194.721572" xlink:href="#C0_0_bc78e9e5f3" y="204.754156"/>
    </g>
    <g clip-path="url(#pd8f540d3ad)">
     <use style="fill:#666666;stroke:#666666;" x="118.84395" xlink:href="#C0_0_bc78e9e5f3" y="109.684961"/>
    </g>
    <g clip-path="url(#pd8f540d3ad)">
     <use style="fill:#666666;stroke:#666666;" x="142.170013" xlink:href="#C0_0_bc78e9e5f3" y="117.361138"/>
    </g>
    <g clip-path="url(#pd8f540d3ad)">
     <use style="fill:#7fc97f;stroke:#7fc97f;" x="309.674429" xlink:href="#C0_0_bc78e9e5f3" y="245.833133"/>
    </g>
    <g clip-path="url(#pd8f540d3ad)">
     <use style="fill:#7fc97f;stroke:#7fc97f;" x="294.37461" xlink:href="#C0_0_bc78e9e5f3" y="295.392666"/>
    </g>
    <g clip-path="url(#pd8f540d3ad)">
     <use style="fill:#7fc97f;stroke:#7fc97f;" x="281.603716" xlink:href="#C0_0_bc78e9e5f3" y="274.853375"/>
    </g>
    <g clip-path="url(#pd8f540d3ad)">
     <use style="fill:#666666;stroke:#666666;" x="146.694418" xlink:href="#C0_0_bc78e9e5f3" y="196.156613"/>
    </g>
    <g clip-path="url(#pd8f540d3ad)">
     <use style="fill:#7fc97f;stroke:#7fc97f;" x="237.850412" xlink:href="#C0_0_bc78e9e5f3" y="86.992103"/>
    </g>
    <g clip-path="url(#pd8f540d3ad)">
     <use style="fill:#386cb0;stroke:#386cb0;" x="398.434198" xlink:href="#C0_0_bc78e9e5f3" y="177.466517"/>
    </g>
    <g clip-path="url(#pd8f540d3ad)">
     <use style="fill:#7fc97f;stroke:#7fc97f;" x="194.721575" xlink:href="#C0_0_bc78e9e5f3" y="204.754162"/>
    </g>
    <g clip-path="url(#pd8f540d3ad)">
     <use style="fill:#7fc97f;stroke:#7fc97f;" x="281.686552" xlink:href="#C0_0_bc78e9e5f3" y="169.441727"/>
    </g>
    <g clip-path="url(#pd8f540d3ad)">
     <use style="fill:#7fc97f;stroke:#7fc97f;" x="264.360357" xlink:href="#C0_0_bc78e9e5f3" y="124.551838"/>
    </g>
    <g clip-path="url(#pd8f540d3ad)">
     <use style="fill:#7fc97f;stroke:#7fc97f;" x="223.082369" xlink:href="#C0_0_bc78e9e5f3" y="64.814646"/>
    </g>
    <g clip-path="url(#pd8f540d3ad)">
     <use style="fill:#7fc97f;stroke:#7fc97f;" x="279.418901" xlink:href="#C0_0_bc78e9e5f3" y="198.290944"/>
    </g>
    <g clip-path="url(#pd8f540d3ad)">
     <use style="fill:#666666;stroke:#666666;" x="142.170013" xlink:href="#C0_0_bc78e9e5f3" y="117.361138"/>
    </g>
    <g clip-path="url(#pd8f540d3ad)">
     <use style="fill:#7fc97f;stroke:#7fc97f;" x="165.493544" xlink:href="#C0_0_bc78e9e5f3" y="242.813764"/>
    </g>
    <g clip-path="url(#pd8f540d3ad)">
     <use style="fill:#7fc97f;stroke:#7fc97f;" x="270.364508" xlink:href="#C0_0_bc78e9e5f3" y="253.316741"/>
    </g>
    <g clip-path="url(#pd8f540d3ad)">
     <use style="fill:#7fc97f;stroke:#7fc97f;" x="218.119985" xlink:href="#C0_0_bc78e9e5f3" y="231.81232"/>
    </g>
    <g clip-path="url(#pd8f540d3ad)">
     <use style="fill:#666666;stroke:#666666;" x="159.639413" xlink:href="#C0_0_bc78e9e5f3" y="234.221119"/>
    </g>
    <g clip-path="url(#pd8f540d3ad)">
     <use style="fill:#666666;stroke:#666666;" x="146.696208" xlink:href="#C0_0_bc78e9e5f3" y="196.156347"/>
    </g>
    <g clip-path="url(#pd8f540d3ad)">
     <use style="fill:#7fc97f;stroke:#7fc97f;" x="259.835201" xlink:href="#C0_0_bc78e9e5f3" y="253.434559"/>
    </g>
    <g clip-path="url(#pd8f540d3ad)">
     <use style="fill:#7fc97f;stroke:#7fc97f;" x="281.564211" xlink:href="#C0_0_bc78e9e5f3" y="274.906486"/>
    </g>
    <g clip-path="url(#pd8f540d3ad)">
     <use style="fill:#7fc97f;stroke:#7fc97f;" x="194.769392" xlink:href="#C0_0_bc78e9e5f3" y="204.747164"/>
    </g>
    <g clip-path="url(#pd8f540d3ad)">
     <use style="fill:#7fc97f;stroke:#7fc97f;" x="256.20306" xlink:href="#C0_0_bc78e9e5f3" y="181.73424"/>
    </g>
    <g clip-path="url(#pd8f540d3ad)">
     <use style="fill:#7fc97f;stroke:#7fc97f;" x="198.111031" xlink:href="#C0_0_bc78e9e5f3" y="176.372369"/>
    </g>
    <g clip-path="url(#pd8f540d3ad)">
     <use style="fill:#7fc97f;stroke:#7fc97f;" x="279.037962" xlink:href="#C0_0_bc78e9e5f3" y="250.521899"/>
    </g>
    <g clip-path="url(#pd8f540d3ad)">
     <use style="fill:#7fc97f;stroke:#7fc97f;" x="270.313031" xlink:href="#C0_0_bc78e9e5f3" y="253.313016"/>
    </g>
    <g clip-path="url(#pd8f540d3ad)">
     <use style="fill:#666666;stroke:#666666;" x="73.885802" xlink:href="#C0_0_bc78e9e5f3" y="112.625457"/>
    </g>
    <g clip-path="url(#pd8f540d3ad)">
     <use style="fill:#7fc97f;stroke:#7fc97f;" x="231.935865" xlink:href="#C0_0_bc78e9e5f3" y="175.692773"/>
    </g>
    <g clip-path="url(#pd8f540d3ad)">
     <use style="fill:#386cb0;stroke:#386cb0;" x="395.030177" xlink:href="#C0_0_bc78e9e5f3" y="196.28147"/>
    </g>
    <g clip-path="url(#pd8f540d3ad)">
     <use style="fill:#386cb0;stroke:#386cb0;" x="368.569192" xlink:href="#C0_0_bc78e9e5f3" y="163.368616"/>
    </g>
    <g clip-path="url(#pd8f540d3ad)">
     <use style="fill:#666666;stroke:#666666;" x="75.975531" xlink:href="#C0_0_bc78e9e5f3" y="106.334738"/>
    </g>
    <g clip-path="url(#pd8f540d3ad)">
     <use style="fill:#7fc97f;stroke:#7fc97f;" x="231.21816" xlink:href="#C0_0_bc78e9e5f3" y="53.663334"/>
    </g>
    <g clip-path="url(#pd8f540d3ad)">
     <use style="fill:#7fc97f;stroke:#7fc97f;" x="246.611361" xlink:href="#C0_0_bc78e9e5f3" y="232.938306"/>
    </g>
    <g clip-path="url(#pd8f540d3ad)">
     <use style="fill:#666666;stroke:#666666;" x="74.21131" xlink:href="#C0_0_bc78e9e5f3" y="119.524375"/>
    </g>
    <g clip-path="url(#pd8f540d3ad)">
     <use style="fill:#666666;stroke:#666666;" x="81.824101" xlink:href="#C0_0_bc78e9e5f3" y="102.735902"/>
    </g>
    <g clip-path="url(#pd8f540d3ad)">
     <use style="fill:#7fc97f;stroke:#7fc97f;" x="288.205375" xlink:href="#C0_0_bc78e9e5f3" y="291.598525"/>
    </g>
    <g clip-path="url(#pd8f540d3ad)">
     <use style="fill:#666666;stroke:#666666;" x="308.996078" xlink:href="#C0_0_bc78e9e5f3" y="157.067424"/>
    </g>
    <g clip-path="url(#pd8f540d3ad)">
     <use style="fill:#666666;stroke:#666666;" x="142.170013" xlink:href="#C0_0_bc78e9e5f3" y="117.361138"/>
    </g>
    <g clip-path="url(#pd8f540d3ad)">
     <use style="fill:#386cb0;stroke:#386cb0;" x="380.731828" xlink:href="#C0_0_bc78e9e5f3" y="232.980827"/>
    </g>
    <g clip-path="url(#pd8f540d3ad)">
     <use style="fill:#7fc97f;stroke:#7fc97f;" x="255.007743" xlink:href="#C0_0_bc78e9e5f3" y="86.343072"/>
    </g>
    <g clip-path="url(#pd8f540d3ad)">
     <use style="fill:#7fc97f;stroke:#7fc97f;" x="231.545959" xlink:href="#C0_0_bc78e9e5f3" y="190.72403"/>
    </g>
    <g clip-path="url(#pd8f540d3ad)">
     <use style="fill:#7fc97f;stroke:#7fc97f;" x="224.954541" xlink:href="#C0_0_bc78e9e5f3" y="188.006001"/>
    </g>
    <g clip-path="url(#pd8f540d3ad)">
     <use style="fill:#7fc97f;stroke:#7fc97f;" x="193.9081" xlink:href="#C0_0_bc78e9e5f3" y="293.694418"/>
    </g>
    <g clip-path="url(#pd8f540d3ad)">
     <use style="fill:#666666;stroke:#666666;" x="82.572188" xlink:href="#C0_0_bc78e9e5f3" y="127.837916"/>
    </g>
    <g clip-path="url(#pd8f540d3ad)">
     <use style="fill:#7fc97f;stroke:#7fc97f;" x="361.517358" xlink:href="#C0_0_bc78e9e5f3" y="134.787235"/>
    </g>
    <g clip-path="url(#pd8f540d3ad)">
     <use style="fill:#7fc97f;stroke:#7fc97f;" x="281.686877" xlink:href="#C0_0_bc78e9e5f3" y="169.478233"/>
    </g>
    <g clip-path="url(#pd8f540d3ad)">
     <use style="fill:#386cb0;stroke:#386cb0;" x="394.79796" xlink:href="#C0_0_bc78e9e5f3" y="204.385825"/>
    </g>
    <g clip-path="url(#pd8f540d3ad)">
     <use style="fill:#7fc97f;stroke:#7fc97f;" x="334.926124" xlink:href="#C0_0_bc78e9e5f3" y="191.6061"/>
    </g>
    <g clip-path="url(#pd8f540d3ad)">
     <use style="fill:#7fc97f;stroke:#7fc97f;" x="231.935853" xlink:href="#C0_0_bc78e9e5f3" y="175.692755"/>
    </g>
    <g clip-path="url(#pd8f540d3ad)">
     <use style="fill:#666666;stroke:#666666;" x="155.618724" xlink:href="#C0_0_bc78e9e5f3" y="151.29642"/>
    </g>
    <g clip-path="url(#pd8f540d3ad)">
     <use style="fill:#7fc97f;stroke:#7fc97f;" x="331.325136" xlink:href="#C0_0_bc78e9e5f3" y="120.058127"/>
    </g>
    <g clip-path="url(#pd8f540d3ad)">
     <use style="fill:#666666;stroke:#666666;" x="146.696093" xlink:href="#C0_0_bc78e9e5f3" y="196.156246"/>
    </g>
    <g clip-path="url(#pd8f540d3ad)">
     <use style="fill:#386cb0;stroke:#386cb0;" x="379.596498" xlink:href="#C0_0_bc78e9e5f3" y="141.005278"/>
    </g>
    <g clip-path="url(#pd8f540d3ad)">
     <use style="fill:#666666;stroke:#666666;" x="87.981038" xlink:href="#C0_0_bc78e9e5f3" y="118.400344"/>
    </g>
    <g clip-path="url(#pd8f540d3ad)">
     <use style="fill:#7fc97f;stroke:#7fc97f;" x="355.875497" xlink:href="#C0_0_bc78e9e5f3" y="119.429552"/>
    </g>
    <g clip-path="url(#pd8f540d3ad)">
     <use style="fill:#386cb0;stroke:#386cb0;" x="368.075574" xlink:href="#C0_0_bc78e9e5f3" y="170.559912"/>
    </g>
    <g clip-path="url(#pd8f540d3ad)">
     <use style="fill:#7fc97f;stroke:#7fc97f;" x="223.709847" xlink:href="#C0_0_bc78e9e5f3" y="142.157827"/>
    </g>
    <g clip-path="url(#pd8f540d3ad)">
     <use style="fill:#666666;stroke:#666666;" x="86.882037" xlink:href="#C0_0_bc78e9e5f3" y="124.848438"/>
    </g>
    <g clip-path="url(#pd8f540d3ad)">
     <use style="fill:#666666;stroke:#666666;" x="118.850929" xlink:href="#C0_0_bc78e9e5f3" y="109.684297"/>
    </g>
    <g clip-path="url(#pd8f540d3ad)">
     <use style="fill:#7fc97f;stroke:#7fc97f;" x="340.044803" xlink:href="#C0_0_bc78e9e5f3" y="234.528468"/>
    </g>
    <g clip-path="url(#pd8f540d3ad)">
     <use style="fill:#386cb0;stroke:#386cb0;" x="388.633028" xlink:href="#C0_0_bc78e9e5f3" y="142.312593"/>
    </g>
    <g clip-path="url(#pd8f540d3ad)">
     <use style="fill:#7fc97f;stroke:#7fc97f;" x="346.563038" xlink:href="#C0_0_bc78e9e5f3" y="229.686907"/>
    </g>
    <g clip-path="url(#pd8f540d3ad)">
     <use style="fill:#7fc97f;stroke:#7fc97f;" x="255.46392" xlink:href="#C0_0_bc78e9e5f3" y="172.248274"/>
    </g>
    <g clip-path="url(#pd8f540d3ad)">
     <use style="fill:#7fc97f;stroke:#7fc97f;" x="263.33126" xlink:href="#C0_0_bc78e9e5f3" y="88.480695"/>
    </g>
    <g clip-path="url(#pd8f540d3ad)">
     <use style="fill:#7fc97f;stroke:#7fc97f;" x="223.620446" xlink:href="#C0_0_bc78e9e5f3" y="178.777315"/>
    </g>
    <g clip-path="url(#pd8f540d3ad)">
     <use style="fill:#7fc97f;stroke:#7fc97f;" x="358.576071" xlink:href="#C0_0_bc78e9e5f3" y="136.726693"/>
    </g>
    <g clip-path="url(#pd8f540d3ad)">
     <use style="fill:#666666;stroke:#666666;" x="176.115857" xlink:href="#C0_0_bc78e9e5f3" y="145.990753"/>
    </g>
    <g clip-path="url(#pd8f540d3ad)">
     <use style="fill:#666666;stroke:#666666;" x="104.956693" xlink:href="#C0_0_bc78e9e5f3" y="102.449524"/>
    </g>
    <g clip-path="url(#pd8f540d3ad)">
     <use style="fill:#7fc97f;stroke:#7fc97f;" x="259.115901" xlink:href="#C0_0_bc78e9e5f3" y="270.051402"/>
    </g>
    <g clip-path="url(#pd8f540d3ad)">
     <use style="fill:#7fc97f;stroke:#7fc97f;" x="318.844477" xlink:href="#C0_0_bc78e9e5f3" y="185.773947"/>
    </g>
    <g clip-path="url(#pd8f540d3ad)">
     <use style="fill:#666666;stroke:#666666;" x="87.213857" xlink:href="#C0_0_bc78e9e5f3" y="112.21355"/>
    </g>
    <g clip-path="url(#pd8f540d3ad)">
     <use style="fill:#7fc97f;stroke:#7fc97f;" x="231.563567" xlink:href="#C0_0_bc78e9e5f3" y="190.713431"/>
    </g>
    <g clip-path="url(#pd8f540d3ad)">
     <use style="fill:#7fc97f;stroke:#7fc97f;" x="212.601209" xlink:href="#C0_0_bc78e9e5f3" y="211.802826"/>
    </g>
    <g clip-path="url(#pd8f540d3ad)">
     <use style="fill:#7fc97f;stroke:#7fc97f;" x="356.376831" xlink:href="#C0_0_bc78e9e5f3" y="135.917917"/>
    </g>
    <g clip-path="url(#pd8f540d3ad)">
     <use style="fill:#386cb0;stroke:#386cb0;" x="349.113215" xlink:href="#C0_0_bc78e9e5f3" y="155.544297"/>
    </g>
    <g clip-path="url(#pd8f540d3ad)">
     <use style="fill:#666666;stroke:#666666;" x="152.167043" xlink:href="#C0_0_bc78e9e5f3" y="104.92901"/>
    </g>
    <g clip-path="url(#pd8f540d3ad)">
     <use style="fill:#7fc97f;stroke:#7fc97f;" x="243.48321" xlink:href="#C0_0_bc78e9e5f3" y="293.444552"/>
    </g>
    <g clip-path="url(#pd8f540d3ad)">
     <use style="fill:#666666;stroke:#666666;" x="141.901709" xlink:href="#C0_0_bc78e9e5f3" y="160.157819"/>
    </g>
    <g clip-path="url(#pd8f540d3ad)">
     <use style="fill:#666666;stroke:#666666;" x="84.863029" xlink:href="#C0_0_bc78e9e5f3" y="104.631389"/>
    </g>
    <g clip-path="url(#pd8f540d3ad)">
     <use style="fill:#666666;stroke:#666666;" x="151.86349" xlink:href="#C0_0_bc78e9e5f3" y="165.166044"/>
    </g>
   </g>
   <g id="matplotlib.axis_1">
    <g id="xtick_1">
     <g id="line2d_1">
      <defs>
       <path d="M 0 0 
L 0 3.5 
" id="m9d829fc1ed" style="stroke:#000000;stroke-width:0.8;"/>
      </defs>
      <g>
       <use style="stroke:#000000;stroke-width:0.8;" x="61.592028" xlink:href="#m9d829fc1ed" y="307.584"/>
      </g>
     </g>
     <g id="text_1">
      <!-- −7.5 -->
      <defs>
       <path d="M 10.59375 35.5 
L 73.1875 35.5 
L 73.1875 27.203125 
L 10.59375 27.203125 
z
" id="DejaVuSans-2212"/>
       <path d="M 8.203125 72.90625 
L 55.078125 72.90625 
L 55.078125 68.703125 
L 28.609375 0 
L 18.3125 0 
L 43.21875 64.59375 
L 8.203125 64.59375 
z
" id="DejaVuSans-37"/>
       <path d="M 10.6875 12.40625 
L 21 12.40625 
L 21 0 
L 10.6875 0 
z
" id="DejaVuSans-2e"/>
       <path d="M 10.796875 72.90625 
L 49.515625 72.90625 
L 49.515625 64.59375 
L 19.828125 64.59375 
L 19.828125 46.734375 
Q 21.96875 47.46875 24.109375 47.828125 
Q 26.265625 48.1875 28.421875 48.1875 
Q 40.625 48.1875 47.75 41.5 
Q 54.890625 34.8125 54.890625 23.390625 
Q 54.890625 11.625 47.5625 5.09375 
Q 40.234375 -1.421875 26.90625 -1.421875 
Q 22.3125 -1.421875 17.546875 -0.640625 
Q 12.796875 0.140625 7.71875 1.703125 
L 7.71875 11.625 
Q 12.109375 9.234375 16.796875 8.0625 
Q 21.484375 6.890625 26.703125 6.890625 
Q 35.15625 6.890625 40.078125 11.328125 
Q 45.015625 15.765625 45.015625 23.390625 
Q 45.015625 31 40.078125 35.4375 
Q 35.15625 39.890625 26.703125 39.890625 
Q 22.75 39.890625 18.8125 39.015625 
Q 14.890625 38.140625 10.796875 36.28125 
z
" id="DejaVuSans-35"/>
      </defs>
      <g transform="translate(49.450622 322.182437)scale(0.1 -0.1)">
       <use xlink:href="#DejaVuSans-2212"/>
       <use x="83.789062" xlink:href="#DejaVuSans-37"/>
       <use x="147.412109" xlink:href="#DejaVuSans-2e"/>
       <use x="179.199219" xlink:href="#DejaVuSans-35"/>
      </g>
     </g>
    </g>
    <g id="xtick_2">
     <g id="line2d_2">
      <g>
       <use style="stroke:#000000;stroke-width:0.8;" x="103.215447" xlink:href="#m9d829fc1ed" y="307.584"/>
      </g>
     </g>
     <g id="text_2">
      <!-- −5.0 -->
      <defs>
       <path d="M 31.78125 66.40625 
Q 24.171875 66.40625 20.328125 58.90625 
Q 16.5 51.421875 16.5 36.375 
Q 16.5 21.390625 20.328125 13.890625 
Q 24.171875 6.390625 31.78125 6.390625 
Q 39.453125 6.390625 43.28125 13.890625 
Q 47.125 21.390625 47.125 36.375 
Q 47.125 51.421875 43.28125 58.90625 
Q 39.453125 66.40625 31.78125 66.40625 
z
M 31.78125 74.21875 
Q 44.046875 74.21875 50.515625 64.515625 
Q 56.984375 54.828125 56.984375 36.375 
Q 56.984375 17.96875 50.515625 8.265625 
Q 44.046875 -1.421875 31.78125 -1.421875 
Q 19.53125 -1.421875 13.0625 8.265625 
Q 6.59375 17.96875 6.59375 36.375 
Q 6.59375 54.828125 13.0625 64.515625 
Q 19.53125 74.21875 31.78125 74.21875 
z
" id="DejaVuSans-30"/>
      </defs>
      <g transform="translate(91.074041 322.182437)scale(0.1 -0.1)">
       <use xlink:href="#DejaVuSans-2212"/>
       <use x="83.789062" xlink:href="#DejaVuSans-35"/>
       <use x="147.412109" xlink:href="#DejaVuSans-2e"/>
       <use x="179.199219" xlink:href="#DejaVuSans-30"/>
      </g>
     </g>
    </g>
    <g id="xtick_3">
     <g id="line2d_3">
      <g>
       <use style="stroke:#000000;stroke-width:0.8;" x="144.838867" xlink:href="#m9d829fc1ed" y="307.584"/>
      </g>
     </g>
     <g id="text_3">
      <!-- −2.5 -->
      <defs>
       <path d="M 19.1875 8.296875 
L 53.609375 8.296875 
L 53.609375 0 
L 7.328125 0 
L 7.328125 8.296875 
Q 12.9375 14.109375 22.625 23.890625 
Q 32.328125 33.6875 34.8125 36.53125 
Q 39.546875 41.84375 41.421875 45.53125 
Q 43.3125 49.21875 43.3125 52.78125 
Q 43.3125 58.59375 39.234375 62.25 
Q 35.15625 65.921875 28.609375 65.921875 
Q 23.96875 65.921875 18.8125 64.3125 
Q 13.671875 62.703125 7.8125 59.421875 
L 7.8125 69.390625 
Q 13.765625 71.78125 18.9375 73 
Q 24.125 74.21875 28.421875 74.21875 
Q 39.75 74.21875 46.484375 68.546875 
Q 53.21875 62.890625 53.21875 53.421875 
Q 53.21875 48.921875 51.53125 44.890625 
Q 49.859375 40.875 45.40625 35.40625 
Q 44.1875 33.984375 37.640625 27.21875 
Q 31.109375 20.453125 19.1875 8.296875 
z
" id="DejaVuSans-32"/>
      </defs>
      <g transform="translate(132.69746 322.182437)scale(0.1 -0.1)">
       <use xlink:href="#DejaVuSans-2212"/>
       <use x="83.789062" xlink:href="#DejaVuSans-32"/>
       <use x="147.412109" xlink:href="#DejaVuSans-2e"/>
       <use x="179.199219" xlink:href="#DejaVuSans-35"/>
      </g>
     </g>
    </g>
    <g id="xtick_4">
     <g id="line2d_4">
      <g>
       <use style="stroke:#000000;stroke-width:0.8;" x="186.462286" xlink:href="#m9d829fc1ed" y="307.584"/>
      </g>
     </g>
     <g id="text_4">
      <!-- 0.0 -->
      <g transform="translate(178.510724 322.182437)scale(0.1 -0.1)">
       <use xlink:href="#DejaVuSans-30"/>
       <use x="63.623047" xlink:href="#DejaVuSans-2e"/>
       <use x="95.410156" xlink:href="#DejaVuSans-30"/>
      </g>
     </g>
    </g>
    <g id="xtick_5">
     <g id="line2d_5">
      <g>
       <use style="stroke:#000000;stroke-width:0.8;" x="228.085705" xlink:href="#m9d829fc1ed" y="307.584"/>
      </g>
     </g>
     <g id="text_5">
      <!-- 2.5 -->
      <g transform="translate(220.134143 322.182437)scale(0.1 -0.1)">
       <use xlink:href="#DejaVuSans-32"/>
       <use x="63.623047" xlink:href="#DejaVuSans-2e"/>
       <use x="95.410156" xlink:href="#DejaVuSans-35"/>
      </g>
     </g>
    </g>
    <g id="xtick_6">
     <g id="line2d_6">
      <g>
       <use style="stroke:#000000;stroke-width:0.8;" x="269.709125" xlink:href="#m9d829fc1ed" y="307.584"/>
      </g>
     </g>
     <g id="text_6">
      <!-- 5.0 -->
      <g transform="translate(261.757562 322.182437)scale(0.1 -0.1)">
       <use xlink:href="#DejaVuSans-35"/>
       <use x="63.623047" xlink:href="#DejaVuSans-2e"/>
       <use x="95.410156" xlink:href="#DejaVuSans-30"/>
      </g>
     </g>
    </g>
    <g id="xtick_7">
     <g id="line2d_7">
      <g>
       <use style="stroke:#000000;stroke-width:0.8;" x="311.332544" xlink:href="#m9d829fc1ed" y="307.584"/>
      </g>
     </g>
     <g id="text_7">
      <!-- 7.5 -->
      <g transform="translate(303.380982 322.182437)scale(0.1 -0.1)">
       <use xlink:href="#DejaVuSans-37"/>
       <use x="63.623047" xlink:href="#DejaVuSans-2e"/>
       <use x="95.410156" xlink:href="#DejaVuSans-35"/>
      </g>
     </g>
    </g>
    <g id="xtick_8">
     <g id="line2d_8">
      <g>
       <use style="stroke:#000000;stroke-width:0.8;" x="352.955963" xlink:href="#m9d829fc1ed" y="307.584"/>
      </g>
     </g>
     <g id="text_8">
      <!-- 10.0 -->
      <defs>
       <path d="M 12.40625 8.296875 
L 28.515625 8.296875 
L 28.515625 63.921875 
L 10.984375 60.40625 
L 10.984375 69.390625 
L 28.421875 72.90625 
L 38.28125 72.90625 
L 38.28125 8.296875 
L 54.390625 8.296875 
L 54.390625 0 
L 12.40625 0 
z
" id="DejaVuSans-31"/>
      </defs>
      <g transform="translate(341.823151 322.182437)scale(0.1 -0.1)">
       <use xlink:href="#DejaVuSans-31"/>
       <use x="63.623047" xlink:href="#DejaVuSans-30"/>
       <use x="127.246094" xlink:href="#DejaVuSans-2e"/>
       <use x="159.033203" xlink:href="#DejaVuSans-30"/>
      </g>
     </g>
    </g>
    <g id="xtick_9">
     <g id="line2d_9">
      <g>
       <use style="stroke:#000000;stroke-width:0.8;" x="394.579383" xlink:href="#m9d829fc1ed" y="307.584"/>
      </g>
     </g>
     <g id="text_9">
      <!-- 12.5 -->
      <g transform="translate(383.44657 322.182437)scale(0.1 -0.1)">
       <use xlink:href="#DejaVuSans-31"/>
       <use x="63.623047" xlink:href="#DejaVuSans-32"/>
       <use x="127.246094" xlink:href="#DejaVuSans-2e"/>
       <use x="159.033203" xlink:href="#DejaVuSans-35"/>
      </g>
     </g>
    </g>
   </g>
   <g id="matplotlib.axis_2">
    <g id="ytick_1">
     <g id="line2d_10">
      <defs>
       <path d="M 0 0 
L -3.5 0 
" id="m1004e064de" style="stroke:#000000;stroke-width:0.8;"/>
      </defs>
      <g>
       <use style="stroke:#000000;stroke-width:0.8;" x="57.6" xlink:href="#m1004e064de" y="272.798999"/>
      </g>
     </g>
     <g id="text_10">
      <!-- −4 -->
      <defs>
       <path d="M 37.796875 64.3125 
L 12.890625 25.390625 
L 37.796875 25.390625 
z
M 35.203125 72.90625 
L 47.609375 72.90625 
L 47.609375 25.390625 
L 58.015625 25.390625 
L 58.015625 17.1875 
L 47.609375 17.1875 
L 47.609375 0 
L 37.796875 0 
L 37.796875 17.1875 
L 4.890625 17.1875 
L 4.890625 26.703125 
z
" id="DejaVuSans-34"/>
      </defs>
      <g transform="translate(35.857813 276.598218)scale(0.1 -0.1)">
       <use xlink:href="#DejaVuSans-2212"/>
       <use x="83.789062" xlink:href="#DejaVuSans-34"/>
      </g>
     </g>
    </g>
    <g id="ytick_2">
     <g id="line2d_11">
      <g>
       <use style="stroke:#000000;stroke-width:0.8;" x="57.6" xlink:href="#m1004e064de" y="228.2292"/>
      </g>
     </g>
     <g id="text_11">
      <!-- −2 -->
      <g transform="translate(35.857813 232.028419)scale(0.1 -0.1)">
       <use xlink:href="#DejaVuSans-2212"/>
       <use x="83.789062" xlink:href="#DejaVuSans-32"/>
      </g>
     </g>
    </g>
    <g id="ytick_3">
     <g id="line2d_12">
      <g>
       <use style="stroke:#000000;stroke-width:0.8;" x="57.6" xlink:href="#m1004e064de" y="183.659402"/>
      </g>
     </g>
     <g id="text_12">
      <!-- 0 -->
      <g transform="translate(44.2375 187.458621)scale(0.1 -0.1)">
       <use xlink:href="#DejaVuSans-30"/>
      </g>
     </g>
    </g>
    <g id="ytick_4">
     <g id="line2d_13">
      <g>
       <use style="stroke:#000000;stroke-width:0.8;" x="57.6" xlink:href="#m1004e064de" y="139.089603"/>
      </g>
     </g>
     <g id="text_13">
      <!-- 2 -->
      <g transform="translate(44.2375 142.888822)scale(0.1 -0.1)">
       <use xlink:href="#DejaVuSans-32"/>
      </g>
     </g>
    </g>
    <g id="ytick_5">
     <g id="line2d_14">
      <g>
       <use style="stroke:#000000;stroke-width:0.8;" x="57.6" xlink:href="#m1004e064de" y="94.519805"/>
      </g>
     </g>
     <g id="text_14">
      <!-- 4 -->
      <g transform="translate(44.2375 98.319023)scale(0.1 -0.1)">
       <use xlink:href="#DejaVuSans-34"/>
      </g>
     </g>
    </g>
    <g id="ytick_6">
     <g id="line2d_15">
      <g>
       <use style="stroke:#000000;stroke-width:0.8;" x="57.6" xlink:href="#m1004e064de" y="49.950006"/>
      </g>
     </g>
     <g id="text_15">
      <!-- 6 -->
      <defs>
       <path d="M 33.015625 40.375 
Q 26.375 40.375 22.484375 35.828125 
Q 18.609375 31.296875 18.609375 23.390625 
Q 18.609375 15.53125 22.484375 10.953125 
Q 26.375 6.390625 33.015625 6.390625 
Q 39.65625 6.390625 43.53125 10.953125 
Q 47.40625 15.53125 47.40625 23.390625 
Q 47.40625 31.296875 43.53125 35.828125 
Q 39.65625 40.375 33.015625 40.375 
z
M 52.59375 71.296875 
L 52.59375 62.3125 
Q 48.875 64.0625 45.09375 64.984375 
Q 41.3125 65.921875 37.59375 65.921875 
Q 27.828125 65.921875 22.671875 59.328125 
Q 17.53125 52.734375 16.796875 39.40625 
Q 19.671875 43.65625 24.015625 45.921875 
Q 28.375 48.1875 33.59375 48.1875 
Q 44.578125 48.1875 50.953125 41.515625 
Q 57.328125 34.859375 57.328125 23.390625 
Q 57.328125 12.15625 50.6875 5.359375 
Q 44.046875 -1.421875 33.015625 -1.421875 
Q 20.359375 -1.421875 13.671875 8.265625 
Q 6.984375 17.96875 6.984375 36.375 
Q 6.984375 53.65625 15.1875 63.9375 
Q 23.390625 74.21875 37.203125 74.21875 
Q 40.921875 74.21875 44.703125 73.484375 
Q 48.484375 72.75 52.59375 71.296875 
z
" id="DejaVuSans-36"/>
      </defs>
      <g transform="translate(44.2375 53.749225)scale(0.1 -0.1)">
       <use xlink:href="#DejaVuSans-36"/>
      </g>
     </g>
    </g>
   </g>
   <g id="patch_3">
    <path d="M 57.6 307.584 
L 57.6 41.472 
" style="fill:none;stroke:#000000;stroke-linecap:square;stroke-linejoin:miter;stroke-width:0.8;"/>
   </g>
   <g id="patch_4">
    <path d="M 414.72 307.584 
L 414.72 41.472 
" style="fill:none;stroke:#000000;stroke-linecap:square;stroke-linejoin:miter;stroke-width:0.8;"/>
   </g>
   <g id="patch_5">
    <path d="M 57.6 307.584 
L 414.72 307.584 
" style="fill:none;stroke:#000000;stroke-linecap:square;stroke-linejoin:miter;stroke-width:0.8;"/>
   </g>
   <g id="patch_6">
    <path d="M 57.6 41.472 
L 414.72 41.472 
" style="fill:none;stroke:#000000;stroke-linecap:square;stroke-linejoin:miter;stroke-width:0.8;"/>
   </g>
  </g>
 </g>
 <defs>
  <clipPath id="pd8f540d3ad">
   <rect height="266.112" width="357.12" x="57.6" y="41.472"/>
  </clipPath>
 </defs>
</svg>
